<svg width="24" height="24" viewBox="0 0 24 24" fill="none" xmlns="http://www.w3.org/2000/svg">
<path d="M4.00081 6.41408L0.757812 3.17208L2.17281 1.75708L5.41481 5.00008H20.6568C20.8127 5.00007 20.9664 5.03649 21.1057 5.10645C21.245 5.1764 21.366 5.27794 21.459 5.40298C21.5521 5.52801 21.6147 5.67306 21.6417 5.82657C21.6688 5.98007 21.6595 6.13777 21.6148 6.28708L19.2148 14.2871C19.1531 14.4932 19.0265 14.6738 18.8539 14.8023C18.6813 14.9307 18.4719 15.0001 18.2568 15.0001H6.00081V17.0001H17.0008V19.0001H5.00081C4.7356 19.0001 4.48124 18.8947 4.29371 18.7072C4.10617 18.5197 4.00081 18.2653 4.00081 18.0001V6.41408ZM6.00081 7.00008V13.0001H17.5128L19.3128 7.00008H6.00081ZM5.50081 23.0001C5.10299 23.0001 4.72146 22.842 4.44015 22.5607C4.15885 22.2794 4.00081 21.8979 4.00081 21.5001C4.00081 21.1023 4.15885 20.7207 4.44015 20.4394C4.72146 20.1581 5.10299 20.0001 5.50081 20.0001C5.89864 20.0001 6.28017 20.1581 6.56147 20.4394C6.84278 20.7207 7.00081 21.1023 7.00081 21.5001C7.00081 21.8979 6.84278 22.2794 6.56147 22.5607C6.28017 22.842 5.89864 23.0001 5.50081 23.0001ZM17.5008 23.0001C17.103 23.0001 16.7215 22.842 16.4402 22.5607C16.1588 22.2794 16.0008 21.8979 16.0008 21.5001C16.0008 21.1023 16.1588 20.7207 16.4402 20.4394C16.7215 20.1581 17.103 20.0001 17.5008 20.0001C17.8986 20.0001 18.2802 20.1581 18.5615 20.4394C18.8428 20.7207 19.0008 21.1023 19.0008 21.5001C19.0008 21.8979 18.8428 22.2794 18.5615 22.5607C18.2802 22.842 17.8986 23.0001 17.5008 23.0001Z" fill="black"/>
</svg>
