<svg width="24" height="24" viewBox="0 0 24 24" fill="none" xmlns="http://www.w3.org/2000/svg">
<path fill-rule="evenodd" clip-rule="evenodd" d="M11.5343 3.40363L11.5155 3.41433L5.05894 6.99998L7.50018 8.35622L14.4408 4.50034L12.4855 3.41434C12.337 3.33186 12.1699 3.28857 12 3.28857C11.8376 3.28857 11.6778 3.32811 11.5343 3.40363ZM16.9679 3.61615L13.4565 1.66586C13.0109 1.41842 12.5097 1.28857 12 1.28857C11.4903 1.28857 10.9891 1.41842 10.5435 1.66586C10.5344 1.67095 10.5253 1.67615 10.5164 1.68149L3.028 5.84014C2.9263 5.8967 2.83014 5.96178 2.74046 6.0345C2.48831 6.10234 2.26285 6.26825 2.12602 6.51454C1.99773 6.74546 1.9706 7.00522 2.03004 7.24274C2.01013 7.35635 2 7.4719 2 7.58814V15.8248C2.00039 16.3596 2.1437 16.8844 2.41507 17.3452C2.68645 17.8059 3.07604 18.1857 3.5435 18.4453L10.5435 22.3353C10.9891 22.5828 11.4903 22.7126 12 22.7126C12.5097 22.7126 13.0112 22.5826 13.4567 22.3352L20.4565 18.4453C20.9242 18.1856 21.3139 17.8055 21.5853 17.3445C21.8567 16.8835 21.9999 16.3581 22 15.8231V7.5881C22 7.47216 21.9899 7.35691 21.9701 7.24359C22.0298 7.00583 22.0028 6.74574 21.8743 6.51454C21.7374 6.26803 21.5116 6.10203 21.2592 6.03431C21.1695 5.96156 21.0732 5.89645 20.9716 5.83989L17.0052 3.63688C16.9929 3.6297 16.9804 3.62279 16.9679 3.61615ZM16.5001 5.64417L9.55931 9.50018L12.0002 10.8562L18.9413 7.00006L16.5001 5.64417ZM6.99929 10.3659C7.00882 10.3714 7.01844 10.3767 7.02813 10.3819L11.0002 12.5886V20.3011L4.5145 16.6969C4.35868 16.6103 4.22881 16.4837 4.13836 16.3301C4.04795 16.1767 4.00019 16.0018 4 15.8237V8.6996L6.99929 10.3659ZM13.0002 12.5886L20 8.6998V15.8231C19.9999 16.0013 19.9522 16.1763 19.8618 16.3299C19.7713 16.4836 19.6412 16.6104 19.4853 16.697L13.0002 20.3008V12.5886ZM6.48701 11.4547C6.00459 11.1858 5.39555 11.3589 5.12668 11.8414C4.85782 12.3238 5.03093 12.9328 5.51335 13.2017L8.51335 14.8737C8.99577 15.1425 9.60481 14.9694 9.87368 14.487C10.1425 14.0046 9.96943 13.3956 9.48701 13.1267L6.48701 11.4547Z" fill="black"/>
</svg>
