<svg width="343" height="403" viewBox="0 0 343 403" fill="none" xmlns="http://www.w3.org/2000/svg">
<path d="M142.923 316.916L141.936 317.076L142.923 287.216M142.923 316.916C144.673 327.706 147.435 336.411 152.169 346.063C157.34 356.604 162.704 364.059 171.322 372.678C179.941 381.297 187.396 386.66 197.937 391.831C207.589 396.565 216.295 399.327 227.084 401.077C234.678 402.308 249.19 402.308 256.784 401.077C263.02 400.066 271.066 398.008 276.305 396.088C280.988 394.371 290.865 389.547 294.723 387.095C307.283 379.11 318.979 367.415 326.963 354.855C329.415 350.997 334.24 341.12 335.956 336.437C339.212 327.552 341.413 316.568 341.898 306.771C342.05 303.697 342.044 301.934 341.793 300.673C341.558 299.498 341.106 298.735 340.193 297.696C336.757 293.783 330.262 295.462 329.05 300.719L329.05 300.719C328.85 301.587 328.664 303.66 328.658 305.292C328.644 309.909 327.539 317.596 326.055 323.5C318.401 353.96 293.828 378.533 263.368 386.187C249.402 389.696 234.243 389.679 220.367 386.136C186.167 377.404 160.373 348.29 155.857 313.317C155.042 307.002 155.041 297.142 155.855 290.816L156.845 290.944L155.855 290.816C160.352 255.878 186.181 226.725 220.367 217.997L220.614 218.966L220.367 217.997C226.34 216.472 233.999 215.357 238.709 215.342C241.474 215.334 243.444 215.008 244.864 214.369C246.24 213.749 247.149 212.815 247.773 211.442C249.389 207.884 248.038 204.252 244.476 202.603L244.476 202.603C243.812 202.296 242.57 202.069 240.59 202.013C238.646 201.959 236.108 202.07 232.937 202.353C214.114 204.034 195.797 211.325 180.134 223.387L179.524 222.595L180.134 223.387C172.541 229.235 162.624 240.281 156.905 249.278C154.453 253.136 149.629 263.013 147.912 267.696C145.992 272.935 143.934 280.98 142.923 287.216M142.923 316.916C141.692 309.322 141.692 294.811 142.923 287.216M142.923 316.916L141.936 287.056L142.923 287.216M234.285 320.449L234.99 321.217L235.728 320.481L281.745 274.556C294.399 261.928 306.014 250.389 314.532 241.972C318.791 237.763 322.275 234.336 324.728 231.944C325.954 230.747 326.921 229.812 327.597 229.167C327.935 228.845 328.197 228.599 328.38 228.43C328.471 228.347 328.538 228.288 328.582 228.249C329.064 228.007 329.907 227.691 330.46 227.551C333.973 226.668 337.984 229.491 338.407 233.249C338.428 233.435 338.455 233.619 338.478 233.774C338.486 233.833 338.494 233.888 338.501 233.936C338.528 234.13 338.543 234.275 338.544 234.41C338.546 234.644 338.509 234.916 338.297 235.355C337.828 236.326 336.616 237.916 333.599 241.174C328.14 247.07 317.093 258.1 294.949 280.212C292.834 282.324 290.617 284.538 288.294 286.858L286.586 288.564C261.978 313.14 249.697 325.405 243.169 331.529C239.813 334.677 238.041 336.14 236.927 336.827C236.39 337.158 236.049 337.281 235.79 337.335C235.532 337.389 235.309 337.389 234.917 337.389L234.824 337.389C234.191 337.389 233.687 337.324 233.175 337.143C232.655 336.959 232.07 336.636 231.309 336.047C229.758 334.847 227.639 332.684 224.02 328.786L223.287 329.467L224.02 328.786C213.279 317.22 205.07 308.307 199.464 302.124C196.66 299.033 194.51 296.628 193.021 294.917C192.276 294.061 191.701 293.384 191.294 292.884C191.09 292.634 190.933 292.434 190.82 292.281C190.763 292.205 190.721 292.146 190.691 292.101C190.663 292.059 190.653 292.041 190.652 292.041C190.652 292.041 190.653 292.042 190.653 292.042L190.653 292.042C189.804 290.408 189.806 287.945 190.742 286.011C192.162 283.078 195.827 281.757 198.937 283.133C199.687 283.464 200.318 283.823 203.495 287.113C206.652 290.382 212.222 296.43 222.83 307.979L234.285 320.449Z" fill="url(#paint0_linear_251_8600)" stroke="#4267B2" stroke-width="2"/>
<path d="M34.6336 78.6391L34.3286 78.243L34.6336 78.6391C48.6466 67.8476 65.0384 61.3209 81.8889 59.8162C84.7218 59.5633 87.0007 59.4628 88.7549 59.5122C90.527 59.562 91.7022 59.7642 92.3711 60.0739L92.5811 59.6204L92.3711 60.0739C95.7385 61.633 97.0293 65.0996 95.5003 68.4663C94.9071 69.7726 94.0294 70.6769 92.7127 71.2694C91.3738 71.8719 89.5547 72.1635 87.0683 72.1715C82.9122 72.1847 76.1203 73.1715 70.8199 74.5245L70.9436 75.009L70.8199 74.5245C40.5117 82.2623 17.6115 108.11 13.6248 139.084L14.1207 139.148L13.6248 139.084C12.9038 144.688 12.9045 153.441 13.6269 159.034C17.6306 190.039 40.4996 215.853 70.8199 223.594C83.1216 226.734 96.5633 226.75 108.945 223.639C135.948 216.853 157.736 195.066 164.521 168.063C165.838 162.823 166.816 156.006 166.829 151.932C166.834 150.466 167.001 148.585 167.189 147.771C168.336 142.793 174.509 141.167 177.793 144.907C178.634 145.865 179.081 146.605 179.308 147.741C179.543 148.919 179.544 150.538 179.409 153.271C178.975 162.039 177.006 171.866 174.091 179.821C172.552 184.018 168.241 192.844 166.04 196.308C158.894 207.549 148.432 218.012 137.19 225.157C133.727 227.359 124.9 231.669 120.703 233.208C116.009 234.928 108.815 236.768 103.237 237.672C96.428 238.776 83.4546 238.776 76.6461 237.672C66.9941 236.107 59.2001 233.634 50.5638 229.398C41.131 224.771 34.4528 219.966 26.7432 212.257C19.0339 204.547 14.2291 197.869 9.60178 188.436C5.36559 179.8 2.89263 172.006 1.32775 162.354C0.224084 155.546 0.224084 142.572 1.32775 135.764C2.23211 130.186 4.07152 122.992 5.79209 118.298C7.33058 114.1 11.6414 105.274 13.8429 101.81C18.961 93.7591 27.8276 83.8803 34.6336 78.6391ZM83.4135 165.175L83.766 165.559L84.1349 165.191L125.14 124.268C136.417 113.015 146.766 102.732 154.357 95.2315C158.153 91.481 161.258 88.4264 163.445 86.2938C164.538 85.2273 165.401 84.3925 166.004 83.8167C166.306 83.5286 166.542 83.3071 166.708 83.1545C166.792 83.0779 166.855 83.0211 166.9 82.9828C166.909 82.9754 166.916 82.9691 166.922 82.9638C166.927 82.9598 166.931 82.9563 166.935 82.9534C167.387 82.7197 168.196 82.4148 168.731 82.2804C172.101 81.4329 175.893 84.1197 176.296 87.6926C176.314 87.8517 176.336 88.0049 176.356 88.141C176.364 88.1955 176.372 88.2472 176.378 88.2956C176.403 88.4728 176.419 88.6217 176.421 88.7678C176.423 89.042 176.374 89.3427 176.161 89.7829C175.714 90.7098 174.591 92.169 171.91 95.0646C167.04 100.324 157.191 110.158 137.468 129.852C135.58 131.738 133.602 133.713 131.528 135.784L129.994 137.316C108.077 159.204 97.1311 170.137 91.3089 175.599C88.3225 178.4 86.7164 179.731 85.6851 180.367C85.1794 180.679 84.8331 180.809 84.5466 180.87C84.2751 180.926 84.0366 180.926 83.6994 180.926C83.669 180.926 83.6378 180.926 83.6057 180.926C83.0127 180.926 82.5166 180.865 82.0057 180.684C81.491 180.503 80.9335 180.189 80.2343 179.648C78.8211 178.555 76.9106 176.602 73.6918 173.135C64.1201 162.828 56.8042 154.884 51.8067 149.374C49.3076 146.618 47.39 144.473 46.0605 142.945C45.3954 142.181 44.8799 141.574 44.5131 141.124C44.1313 140.655 43.9449 140.397 43.8984 140.307L43.4547 140.538L43.8984 140.307C43.0782 138.729 43.0912 136.403 43.9727 134.582C45.3336 131.771 48.8295 130.523 51.7855 131.83C52.532 132.16 53.1431 132.535 55.9703 135.463C58.7875 138.38 63.7549 143.774 73.206 154.063L83.4135 165.175Z" fill="url(#paint1_linear_251_8600)" stroke="#4267B2"/>
<path fill-rule="evenodd" clip-rule="evenodd" d="M243.472 0.215667C231.984 1.24149 220.814 5.69068 211.267 13.0425C206.62 16.6214 200.584 23.3474 197.096 28.8341C195.59 31.2038 192.658 37.2084 191.608 40.074C190.433 43.2784 189.181 48.1751 188.565 51.9747C187.812 56.6252 187.812 65.4549 188.565 70.1055C189.631 76.6798 191.317 81.9945 194.204 87.8784C197.357 94.3065 200.636 98.863 205.886 104.114C211.137 109.364 215.694 112.643 222.122 115.796C228.006 118.683 233.32 120.369 239.895 121.435C244.545 122.188 253.375 122.188 258.026 121.435C261.825 120.819 266.722 119.567 269.926 118.392C272.792 117.342 278.797 114.41 281.166 112.904C288.827 108.034 295.954 100.907 300.824 93.246C302.33 90.8764 305.262 84.8718 306.313 82.0062C308.301 76.5813 309.642 69.8872 309.938 63.9114C310.121 60.2182 309.949 59.358 308.759 58.002C306.341 55.2483 301.822 56.4625 300.986 60.0906C300.851 60.6784 300.738 61.9814 300.734 62.9863C300.726 65.7126 300.068 70.3049 299.18 73.8378C294.612 92.0186 279.939 106.691 261.758 111.26C253.42 113.355 244.367 113.344 236.084 111.23C215.668 106.017 200.268 88.6341 197.572 67.7575C197.086 63.9952 197.086 58.0919 197.571 54.3226C200.255 33.4672 215.676 16.0608 236.084 10.8506C239.658 9.93829 244.232 9.27508 247.014 9.26626C250.423 9.25528 252.167 8.47041 253.037 6.55618C254.15 4.104 253.2 1.55496 250.749 0.420353C249.709 -0.0613047 247.325 -0.128341 243.472 0.215667ZM302.279 15.4503C301.886 15.5493 301.295 15.7721 300.967 15.9455C300.639 16.119 287.864 28.7423 272.578 43.9974L244.785 71.7341L237.867 64.2025C225.059 50.259 224.385 49.5607 223.236 49.0526C221.073 48.0957 218.504 49.0034 217.499 51.0801C216.86 52.3989 216.842 54.0886 217.453 55.2645C217.86 56.0484 224.723 63.6161 237.698 77.5889C242.051 82.276 242.958 82.9773 244.666 82.9773C246.675 82.9773 246.292 83.3364 277.387 52.282C309.548 20.1626 308.089 21.7378 307.826 19.4092C307.531 16.7931 304.772 14.8236 302.279 15.4503Z" fill="url(#paint2_linear_251_8600)"/>
<defs>
<linearGradient id="paint0_linear_251_8600" x1="172.366" y1="221.596" x2="260.414" y2="418.408" gradientUnits="userSpaceOnUse">
<stop stop-color="white"/>
<stop offset="1" stop-color="#84AAF7"/>
</linearGradient>
<linearGradient id="paint1_linear_251_8600" x1="27.9496" y1="77.3531" x2="106.409" y2="252.73" gradientUnits="userSpaceOnUse">
<stop stop-color="white"/>
<stop offset="1" stop-color="#84AAF7"/>
</linearGradient>
<linearGradient id="paint2_linear_251_8600" x1="206.944" y1="12.4393" x2="260.122" y2="131.306" gradientUnits="userSpaceOnUse">
<stop stop-color="white"/>
<stop offset="1" stop-color="#84AAF7"/>
</linearGradient>
</defs>
</svg>
