<svg width="682" height="492" viewBox="0 0 682 492" fill="none" xmlns="http://www.w3.org/2000/svg">
<path opacity="0.12" d="M606.727 125.816C605.627 131.516 604.827 137.316 604.527 143.116C604.427 145.016 605.627 146.816 607.427 147.416C607.527 147.416 607.727 147.516 607.827 147.516C610.227 148.216 612.727 146.616 613.227 144.216C614.427 138.216 615.027 132.416 615.427 126.916C615.527 124.816 614.127 122.916 612.127 122.416H612.027C609.627 121.816 607.227 123.416 606.727 125.816Z" fill="#213860"/>
<path d="M611.726 126.116C609.526 131.516 607.726 137.116 606.426 142.716C605.926 144.616 606.826 146.516 608.526 147.516C608.626 147.616 608.826 147.616 608.926 147.716C611.226 148.816 613.926 147.816 614.926 145.416C617.226 139.816 618.826 134.216 620.226 128.816C620.726 126.716 619.726 124.616 617.726 123.716H617.626C615.226 122.716 612.626 123.816 611.726 126.116Z" fill="white"/>
<path d="M611.726 126.116C612.626 123.816 615.326 122.716 617.526 123.716H617.626C619.526 124.616 620.626 126.716 620.126 128.816C619.426 131.416 618.726 134.116 617.926 136.716C614.726 137.116 611.426 136.216 608.826 134.216C609.626 131.516 610.626 128.816 611.726 126.116Z" fill="#FF4E5A"/>
<path d="M616.227 136.816C614.027 136.816 611.827 136.116 609.927 135.016" stroke="#213860" stroke-miterlimit="10" stroke-linecap="round" stroke-linejoin="round"/>
<path opacity="0.12" d="M293.625 416.115C297.225 420.715 301.225 425.015 305.425 429.015C306.825 430.315 308.925 430.615 310.625 429.615C310.725 429.515 310.925 429.415 311.025 429.415C313.125 428.015 313.525 425.115 312.025 423.115C308.225 418.315 304.225 414.115 300.225 410.215C298.725 408.715 296.325 408.615 294.625 409.815C294.625 409.815 294.625 409.815 294.525 409.915C292.525 411.315 292.125 414.215 293.625 416.115Z" fill="#213860"/>
<path d="M297.125 412.516C299.825 417.716 302.925 422.616 306.325 427.316C307.425 428.916 309.525 429.516 311.325 428.816C311.425 428.716 311.625 428.716 311.725 428.616C314.025 427.616 315.025 424.816 313.825 422.616C311.025 417.216 307.825 412.316 304.625 407.816C303.425 406.116 301.125 405.516 299.225 406.416H299.125C296.825 407.616 295.925 410.316 297.125 412.516Z" fill="white"/>
<path d="M297.125 412.516C295.925 410.316 296.825 407.616 299.125 406.516H299.225C301.125 405.616 303.425 406.216 304.625 407.916C306.225 410.116 307.725 412.416 309.225 414.716C307.425 417.416 304.525 419.316 301.425 420.016C299.825 417.516 298.425 415.116 297.125 412.516Z" fill="#FF6158"/>
<path d="M308.225 416.016C306.825 417.716 304.925 418.916 302.825 419.616" stroke="#213860" stroke-miterlimit="10" stroke-linecap="round" stroke-linejoin="round"/>
<path opacity="0.12" d="M680.057 371.915C676.457 376.515 672.457 380.815 668.257 384.815C666.857 386.115 664.757 386.415 663.057 385.415C662.957 385.315 662.757 385.215 662.657 385.215C660.557 383.815 660.157 380.915 661.657 378.915C665.457 374.115 669.457 369.915 673.457 366.015C674.957 364.515 677.357 364.415 679.057 365.615C679.057 365.615 679.057 365.615 679.157 365.715C681.257 367.115 681.657 370.015 680.057 371.915Z" fill="#213860"/>
<path d="M676.656 368.315C673.956 373.515 670.856 378.415 667.456 383.115C666.356 384.715 664.256 385.315 662.456 384.615C662.356 384.515 662.156 384.515 662.056 384.415C659.756 383.415 658.756 380.615 659.956 378.415C662.756 373.015 665.956 368.115 669.156 363.615C670.356 361.915 672.656 361.315 674.556 362.215H674.656C676.956 363.415 677.856 366.115 676.656 368.315Z" fill="white"/>
<path d="M676.657 368.315C677.857 366.115 676.957 363.415 674.657 362.315H674.557C672.657 361.415 670.357 362.015 669.157 363.715C667.557 365.915 666.057 368.215 664.557 370.515C666.357 373.215 669.257 375.115 672.357 375.815C673.857 373.315 675.357 370.815 676.657 368.315Z" fill="#74CEEF"/>
<path d="M665.557 371.815C666.957 373.515 668.857 374.715 670.957 375.415" stroke="#213860" stroke-miterlimit="10" stroke-linecap="round" stroke-linejoin="round"/>
<path d="M418.726 31.2157C420.126 30.6157 422.026 31.3157 422.626 32.7157C423.226 34.1157 422.526 36.0157 421.126 36.6157C419.726 37.2157 417.826 36.5157 417.226 35.1157C416.626 33.7157 417.326 31.8157 418.726 31.2157Z" stroke="#213860" stroke-miterlimit="10" stroke-linecap="round" stroke-linejoin="round"/>
<path d="M181.226 73.4159C182.626 72.8159 184.526 73.5159 185.126 74.9159C185.726 76.3159 185.026 78.2159 183.626 78.8159C182.226 79.4159 180.326 78.7159 179.726 77.3159C179.126 75.8159 179.826 74.0159 181.226 73.4159Z" stroke="#213860" stroke-miterlimit="10" stroke-linecap="round" stroke-linejoin="round"/>
<path d="M601.326 475.216C602.626 474.516 604.426 475.016 605.126 476.216C605.826 477.416 605.426 479.216 604.226 480.016C603.026 480.816 601.226 480.416 600.326 479.316C599.526 478.116 599.726 476.116 601.326 475.216Z" stroke="#213860" stroke-miterlimit="10" stroke-linecap="round" stroke-linejoin="round"/>
<path d="M287.027 381.115C288.227 380.615 289.827 381.315 290.327 382.515C290.827 383.715 290.127 385.315 288.927 385.815C287.727 386.315 286.127 385.615 285.627 384.415C285.127 383.215 285.727 381.615 287.027 381.115Z" stroke="#213860" stroke-miterlimit="10" stroke-linecap="round" stroke-linejoin="round"/>
<path d="M303.325 161.815C304.025 161.515 304.925 162.015 305.225 162.715C305.525 163.415 305.125 164.315 304.425 164.615C303.725 164.915 302.825 164.515 302.525 163.815C302.225 163.115 302.525 162.115 303.325 161.815Z" stroke="#213860" stroke-miterlimit="10" stroke-linecap="round" stroke-linejoin="round"/>
<path d="M2.0266 358.916C2.7266 358.616 3.62656 359.116 3.92656 359.816C4.22656 360.516 3.82658 361.416 3.12658 361.716C2.42658 362.016 1.52655 361.616 1.22655 360.916C0.826552 360.316 1.1266 359.316 2.0266 358.916Z" stroke="#213860" stroke-miterlimit="10" stroke-linecap="round" stroke-linejoin="round"/>
<path d="M133.825 56.6157C134.525 56.3157 135.425 56.8157 135.725 57.5157C136.025 58.2157 135.625 59.1157 134.925 59.4157C134.225 59.7157 133.325 59.3157 133.025 58.6157C132.725 57.9157 133.025 56.9157 133.825 56.6157Z" stroke="#213860" stroke-miterlimit="10" stroke-linecap="round" stroke-linejoin="round"/>
<path d="M660.825 293.315C661.525 293.015 662.425 293.515 662.725 294.215C663.025 294.915 662.625 295.815 661.925 296.115C661.225 296.415 660.325 296.015 660.025 295.315C659.625 294.615 659.925 293.615 660.825 293.315Z" stroke="#213860" stroke-miterlimit="10" stroke-linecap="round" stroke-linejoin="round"/>
<path d="M347.726 445.016C348.426 444.716 349.326 445.216 349.626 445.916C349.926 446.616 349.526 447.516 348.826 447.816C348.126 448.116 347.226 447.716 346.926 447.016C346.526 446.316 346.826 445.316 347.726 445.016Z" stroke="#213860" stroke-miterlimit="10" stroke-linecap="round" stroke-linejoin="round"/>
<path d="M611.626 67.2158C612.326 66.9158 613.226 67.4158 613.526 68.1158C613.826 68.8158 613.426 69.7158 612.726 70.0158C612.026 70.3158 611.126 69.9158 610.826 69.2158C610.426 68.5158 610.726 67.5158 611.626 67.2158Z" stroke="#213860" stroke-miterlimit="10" stroke-linecap="round" stroke-linejoin="round"/>
<path d="M669.126 306.616C669.826 306.316 670.726 306.816 671.026 307.516C671.326 308.216 670.926 309.116 670.226 309.416C669.526 309.716 668.626 309.316 668.326 308.616C667.926 307.916 668.226 306.916 669.126 306.616Z" stroke="#213860" stroke-miterlimit="10" stroke-linecap="round" stroke-linejoin="round"/>
<path d="M658.225 201.316L654.925 200.516C653.925 200.216 653.925 198.816 654.925 198.616L658.225 197.816C658.825 197.616 659.325 197.116 659.525 196.516L660.325 193.216C660.625 192.216 662.025 192.216 662.225 193.216L663.025 196.516C663.225 197.116 663.725 197.616 664.325 197.816L667.625 198.616C668.625 198.916 668.625 200.316 667.625 200.516L664.325 201.316C663.725 201.516 663.225 202.016 663.025 202.616L662.225 205.916C661.925 206.916 660.525 206.916 660.325 205.916L659.525 202.616C659.325 201.916 658.825 201.416 658.225 201.316Z" fill="white"/>
<path d="M209.825 307.016L206.525 306.216C205.525 305.916 205.525 304.516 206.525 304.316L209.825 303.516C210.425 303.316 210.925 302.816 211.125 302.216L211.925 298.916C212.225 297.916 213.625 297.916 213.825 298.916L214.625 302.216C214.825 302.816 215.325 303.316 215.925 303.516L219.225 304.316C220.225 304.616 220.225 306.016 219.225 306.216L215.925 307.016C215.325 307.216 214.825 307.716 214.625 308.316L213.825 311.616C213.525 312.616 212.125 312.616 211.925 311.616L211.125 308.316C210.925 307.616 210.425 307.116 209.825 307.016Z" fill="white"/>
<path d="M379.924 140.616L376.624 139.816C375.624 139.516 375.624 138.116 376.624 137.916L379.924 137.116C380.524 136.916 381.024 136.416 381.224 135.816L382.024 132.516C382.324 131.516 383.724 131.516 383.924 132.516L384.724 135.816C384.924 136.416 385.424 136.916 386.024 137.116L389.324 137.916C390.324 138.216 390.324 139.616 389.324 139.816L386.024 140.616C385.424 140.816 384.924 141.316 384.724 141.916L383.924 145.216C383.624 146.216 382.224 146.216 382.024 145.216L381.224 141.916C381.024 141.316 380.524 140.816 379.924 140.616Z" fill="white"/>
<path d="M634.725 448.216L631.425 447.416C630.425 447.116 630.425 445.716 631.425 445.516L634.725 444.716C635.325 444.516 635.825 444.016 636.025 443.416L636.825 440.116C637.125 439.116 638.525 439.116 638.725 440.116L639.525 443.416C639.725 444.016 640.225 444.516 640.825 444.716L644.125 445.516C645.125 445.816 645.125 447.216 644.125 447.416L640.825 448.216C640.225 448.416 639.725 448.916 639.525 449.516L638.725 452.816C638.425 453.816 637.025 453.816 636.825 452.816L636.025 449.516C635.925 448.916 635.425 448.416 634.725 448.216Z" fill="white"/>
<path d="M420.525 92.716L418.125 92.116C417.425 91.916 417.425 90.916 418.125 90.716L420.525 90.116C421.025 90.016 421.325 89.616 421.425 89.216L422.025 86.816C422.225 86.116 423.225 86.116 423.425 86.816L424.025 89.216C424.125 89.716 424.525 90.016 424.925 90.116L427.325 90.716C428.025 90.916 428.025 91.916 427.325 92.116L424.925 92.716C424.425 92.816 424.125 93.216 424.025 93.616L423.425 96.016C423.225 96.716 422.225 96.716 422.025 96.016L421.425 93.616C421.325 93.216 421.025 92.816 420.525 92.716Z" fill="white"/>
<path d="M596.726 44.716L594.326 44.116C593.626 43.916 593.626 42.916 594.326 42.716L596.726 42.116C597.226 42.016 597.526 41.616 597.626 41.216L598.226 38.816C598.426 38.116 599.426 38.116 599.626 38.816L600.226 41.216C600.326 41.716 600.726 42.016 601.126 42.116L603.526 42.716C604.226 42.916 604.226 43.916 603.526 44.116L601.126 44.716C600.626 44.816 600.326 45.216 600.226 45.616L599.626 48.016C599.426 48.716 598.426 48.716 598.226 48.016L597.626 45.616C597.526 45.116 597.226 44.816 596.726 44.716Z" fill="white"/>
<path d="M268.525 143.816L266.125 143.216C265.425 143.016 265.425 142.016 266.125 141.816L268.525 141.216C269.025 141.116 269.325 140.716 269.425 140.316L270.025 137.916C270.225 137.216 271.225 137.216 271.425 137.916L272.025 140.316C272.125 140.816 272.525 141.116 272.925 141.216L275.325 141.816C276.025 142.016 276.025 143.016 275.325 143.216L272.925 143.816C272.425 143.916 272.125 144.316 272.025 144.716L271.425 147.116C271.225 147.816 270.225 147.816 270.025 147.116L269.425 144.716C269.325 144.316 269.025 143.916 268.525 143.816Z" fill="white"/>
<path d="M282.226 267.916L279.826 267.316C279.126 267.116 279.126 266.116 279.826 265.916L282.226 265.316C282.726 265.216 283.026 264.816 283.126 264.416L283.726 262.016C283.926 261.316 284.926 261.316 285.126 262.016L285.726 264.416C285.826 264.916 286.226 265.216 286.626 265.316L289.026 265.916C289.726 266.116 289.726 267.116 289.026 267.316L286.626 267.916C286.126 268.016 285.826 268.416 285.726 268.816L285.126 271.216C284.926 271.916 283.926 271.916 283.726 271.216L283.126 268.816C283.126 268.416 282.726 268.116 282.226 267.916Z" fill="white"/>
<path d="M379.325 457.416L376.925 456.816C376.225 456.616 376.225 455.616 376.925 455.416L379.325 454.816C379.825 454.716 380.125 454.316 380.225 453.916L380.825 451.516C381.025 450.816 382.025 450.816 382.225 451.516L382.825 453.916C382.925 454.416 383.325 454.716 383.725 454.816L386.125 455.416C386.825 455.616 386.825 456.616 386.125 456.816L383.725 457.416C383.225 457.516 382.925 457.916 382.825 458.316L382.225 460.716C382.025 461.416 381.025 461.416 380.825 460.716L380.225 458.316C380.125 457.916 379.825 457.516 379.325 457.416Z" fill="white"/>
<path d="M522.069 465.694L514.928 523.615L524.449 518.061L522.069 465.694Z" fill="#A5A5A5"/>
<path d="M322.122 207.033C321.011 188.705 316.568 161.807 316.568 161.807L297.525 166.568C297.525 166.568 297.049 170.932 295.145 176.089C293.003 181.802 289.353 188.784 287.211 196.718C282.926 212.587 280.863 228.456 280.863 228.456C280.863 228.456 287.528 233.058 295.939 234.01C307.285 235.359 321.329 233.216 321.329 233.216C321.329 233.216 322.915 219.887 322.122 207.033Z" fill="#F4BF95"/>
<path d="M288.402 199.892C286.894 199.892 285.625 200.606 285.625 201.479C285.625 202.352 286.894 203.066 288.402 203.066C289.91 203.066 291.179 202.352 291.179 201.479C291.179 200.606 289.91 199.892 288.402 199.892Z" fill="#C87936"/>
<path d="M288.006 209.414C286.498 208.779 285.625 207.827 285.625 207.827C285.625 207.827 283.8 209.255 283.245 210.207C282.61 211.239 283.245 211.794 283.245 211.794C283.245 211.794 285.149 212.746 287.212 212.588C289.831 212.35 292.766 211.001 292.766 211.001C292.766 211.001 289.989 210.287 288.006 209.414Z" fill="#C87936"/>
<path d="M289.591 219.728C286.021 218.935 283.64 217.189 283.244 216.555C282.688 215.603 280.943 217.348 280.863 218.935C280.863 220.125 282.45 221.315 282.45 221.315C282.45 221.315 286.655 222.109 291.178 222.109C297.129 222.109 303.873 221.315 303.873 221.315C303.873 221.315 295.621 221.077 289.591 219.728Z" fill="#C87936"/>
<path d="M343.548 134.037C343.548 134.037 343.628 129.673 341.168 126.896C338.47 123.802 333.234 122.136 333.234 122.136L322.126 126.896C322.126 126.896 320.301 120.549 322.919 114.201C326.172 106.426 334.027 98.3326 334.027 98.3326C334.027 98.3326 336.011 94.9208 334.027 92.7786C332.758 91.4297 328.473 92.7786 328.473 92.7786C328.473 92.7786 322.681 97.6185 318.952 102.3C314.509 107.933 311.89 113.646 311.811 114.201C311.732 114.677 311.097 109.599 313.398 104.68C315.461 100.237 320.539 95.9523 320.539 95.9523C320.539 95.9523 321.967 92.7786 319.745 91.1917C318.317 90.1602 315.778 90.3982 315.778 90.3982C315.778 90.3982 310.621 94.6828 307.05 99.9195C304.035 104.363 302.448 109.917 302.29 110.234C302.052 110.79 300.624 107.298 303.083 101.506C304.67 97.8566 299.116 98.3326 299.116 98.3326C299.116 98.3326 295.307 103.569 293.562 109.441C291.737 115.471 291.975 122.136 291.975 122.136C291.975 122.136 296.26 125.706 296.736 133.244C297.053 138.719 295.069 145.542 294.355 150.699C293.721 155.301 294.355 158.634 294.355 158.634C294.355 158.634 293.8 164.664 298.323 166.568C303.321 168.631 313.398 166.568 313.398 166.568C313.398 166.568 317.682 169.821 323.713 166.568C329.505 163.394 335.614 156.492 340.375 152.286C343.628 149.351 346.722 148.319 346.722 148.319V134.831L343.548 134.037ZM330.06 145.939L323.713 141.178C323.713 141.178 323.792 138.957 325.299 137.211C326.49 135.783 329.267 134.831 329.267 134.831C329.267 134.831 331.012 133.244 332.44 133.244C333.789 133.244 334.821 134.831 334.821 134.831C334.821 134.831 333.63 137.29 334.027 138.798C334.424 140.464 336.408 141.178 336.408 141.178L330.06 145.939Z" fill="#F7B98A"/>
<path d="M337.993 142.765C336.803 142.765 336.406 141.178 336.406 141.178L330.059 146.732C330.059 146.732 331.407 147.922 331.407 150.144C331.407 153.476 329.9 158.316 330.059 157.84C330.217 157.364 335.454 151.889 338.786 147.525C341.643 143.875 342.754 141.178 342.754 141.178C342.754 141.178 339.818 142.765 337.993 142.765Z" fill="#EEAC72"/>
<path d="M313.395 121.342L309.428 125.309L302.287 119.755C302.287 119.755 302.763 129.832 303.081 129.277C303.398 128.721 311.015 127.69 311.015 127.69L314.982 126.103L313.395 121.342Z" fill="#EDB288"/>
<path d="M495.093 159.11C475.177 157.84 458.832 159.348 458.594 162.363C458.356 165.378 474.384 168.869 494.299 170.059C514.214 171.329 530.559 169.821 530.797 166.806C531.035 163.791 515.008 160.3 495.093 159.11Z" fill="#A72C25"/>
<path d="M525.244 149.906L465.736 134.831L462.562 165.775C462.562 165.775 485.255 176.962 504.615 179.263C516.834 180.691 529.211 173.709 529.211 173.709L525.244 149.906Z" fill="#F6BB91"/>
<path d="M507.788 177.676L443.52 180.057L523.657 297.485C523.657 297.485 534.765 266.145 541.112 237.184C547.063 210.287 548.253 185.611 548.253 185.611L507.788 177.676Z" fill="#FF6158"/>
<path d="M516.515 211.794L522.069 187.991L508.581 177.676L497.473 189.578L507.787 211.794L501.44 264.954L523.656 297.485L534.764 259.4L516.515 211.794Z" fill="#39383D"/>
<path d="M547.46 180.056L532.385 166.568C532.385 166.568 519.372 177.835 504.614 176.882C483.588 175.534 458.595 161.807 458.595 161.807L443.52 180.056L483.985 205.446L507.788 177.676C507.788 177.676 517.389 184.023 523.657 191.164C528.259 196.401 530.004 203.066 530.004 203.066C530.004 203.066 541.668 196.163 546.666 189.577C550.078 185.134 547.46 180.056 547.46 180.056Z" fill="#FE8982"/>
<path d="M619.663 291.931C619.663 291.931 606.015 254.005 591.099 228.456C577.134 204.494 561.742 192.751 561.742 192.751L548.253 185.61C548.253 185.61 545.317 219.728 538.732 249.085C532.702 275.904 522.863 298.278 522.863 298.278L519.689 587.883H550.634L555.394 404.599C555.394 404.599 573.485 400.632 587.132 395.078C595.701 391.587 603 387.143 603 387.143C603 387.143 616.806 380.003 621.249 358.58C628.311 324.541 619.663 291.931 619.663 291.931ZM563.329 349.852L569.676 326.049L579.991 341.124L563.329 349.852Z" fill="#E0E0E0"/>
<path d="M566.108 394.629L556.587 374L555 410.498C555 410.498 564.521 409.149 567.695 404.151C569.837 400.739 566.108 394.629 566.108 394.629Z" fill="#EBEBEB"/>
<path d="M561.741 229.249L559.361 191.164L548.253 185.61C548.253 185.61 545.634 214.015 539.525 241.944C533.336 269.953 523.656 297.485 523.656 297.485L526.83 303.833C526.83 303.833 537.938 295.025 544.286 283.997C554.442 266.462 561.741 243.531 561.741 243.531L554.6 234.803L561.741 229.249Z" fill="#F2F2F2"/>
<path d="M515.723 286.377L443.52 180.85L387.979 197.512C387.979 197.512 371.476 211.476 357.035 226.076C339.976 243.372 324.504 261.78 324.504 261.78L322.124 247.498L278.485 248.292C278.485 248.292 267.853 277.728 281.659 305.419C291.259 324.62 314.19 319.701 314.19 319.701C314.19 319.701 344.896 319.225 368.937 310.973C389.487 303.912 403.848 288.757 403.848 288.757C403.848 288.757 412.973 312.402 418.923 334.776C424.874 357.231 427.651 378.416 427.651 378.416C427.651 378.416 430.508 387.857 430.825 396.665C431.301 411.264 429.238 428.402 429.238 428.402C429.238 428.402 420.748 464.583 418.923 500.605C416.86 541.626 421.304 583.122 421.304 583.122C421.304 583.122 438.918 586.772 457.802 587.883C480.256 589.153 504.615 587.883 504.615 587.883C504.615 587.883 508.264 589.232 510.169 587.883C512.232 586.455 512.549 582.329 512.549 582.329C512.549 582.329 519.611 519.647 523.657 453.792C527.942 384.842 529.211 312.56 529.211 312.56L515.723 286.377Z" fill="#EAEAEA"/>
<path d="M528.418 312.56L523.657 297.485L444.314 180.056L429.238 184.817L445.107 245.118L463.356 244.325L460.182 266.541L528.418 312.56Z" fill="#F5F5F5"/>
<path d="M564.123 280.823C564.123 280.823 565.234 277.332 564.123 276.855C563.012 276.379 556.982 276.062 556.982 276.062V280.823C556.982 280.823 552.539 280.823 552.221 281.616C551.904 282.41 552.221 287.964 552.221 287.964L556.982 288.757V293.518H564.123L564.916 288.757H569.677V281.616L564.123 280.823Z" fill="#FF6158"/>
<path d="M477.639 293.518H434V299.866H477.639V293.518Z" fill="#F5F5F5"/>
<path d="M449.868 280.823H449.074C447.329 280.823 445.9 282.251 445.9 283.997V292.724C445.9 293.2 446.218 293.518 446.694 293.518H452.248C452.724 293.518 453.041 293.2 453.041 292.724V283.997C453.041 282.251 451.613 280.823 449.868 280.823Z" fill="#3D7F97"/>
<path d="M449.867 276.856H447.486V281.617H449.867V276.856Z" fill="#89B7C4"/>
<path d="M453.041 285.583H445.9V287.17H453.041V285.583Z" fill="#89B7C4"/>
<path d="M449.867 284.791H447.486V312.561H449.867V284.791Z" fill="#89B7C4"/>
<path d="M516.308 329.175C518.918 328.854 520.773 326.478 520.452 323.869C520.13 321.259 517.754 319.404 515.145 319.725C512.535 320.047 510.68 322.423 511.002 325.032C511.323 327.642 513.699 329.497 516.308 329.175Z" fill="#F5F5F5"/>
<path d="M516.12 386.338C518.74 386.121 520.688 383.821 520.471 381.201C520.255 378.581 517.955 376.632 515.334 376.849C512.714 377.066 510.766 379.366 510.982 381.986C511.199 384.606 513.499 386.555 516.12 386.338Z" fill="#F5F5F5"/>
<path d="M512.55 433.163C509.931 433.163 507.789 435.305 507.789 437.924C507.789 440.542 509.931 442.684 512.55 442.684C515.168 442.684 517.31 440.542 517.31 437.924C517.31 435.305 515.168 433.163 512.55 433.163Z" fill="#F5F5F5"/>
<path d="M436.38 420.468L433.207 452.205C433.207 452.205 432.731 456.966 434 459.346C435.508 462.123 438.84 462.599 439.554 462.52C440.903 462.282 464.944 464.107 464.944 464.107C464.944 464.107 469.625 465.138 472.085 462.52C474.307 460.14 474.386 454.189 474.465 453.792C474.703 452.999 476.846 422.055 476.846 422.055L436.38 420.468Z" fill="url(#paint0_linear_501_18894)"/>
<path d="M478.432 414.121L437.967 410.153C437.967 410.153 435.666 415.945 436.38 418.881C436.856 420.944 440.347 420.468 440.347 420.468L472.878 422.848C472.878 422.848 476.369 423.245 477.638 421.261C479.146 418.96 478.432 414.121 478.432 414.121Z" fill="white"/>
<path d="M325.297 239.564C324.662 235.359 322.123 232.423 322.123 232.423C322.123 232.423 308.952 233.613 296.733 232.423C290.148 231.788 280.864 228.456 280.864 228.456C280.864 228.456 275.945 235.2 275.31 240.358C274.755 245.118 278.484 248.292 278.484 248.292C278.484 248.292 290.148 251.704 302.287 251.466C313.078 251.307 324.503 247.499 324.503 247.499C324.503 247.499 325.773 242.738 325.297 239.564Z" fill="#F5F5F5"/>
<path d="M536.35 71.3559C535.715 60.9619 542.697 49.1397 542.697 49.1397L534.763 30.8906C534.763 30.8906 513.895 29.6211 503.819 26.9234C490.568 23.3529 485.57 18.989 485.57 18.989C485.57 18.989 474.7 18.2749 472.081 22.1628C466.051 31.0493 474.462 37.2381 474.462 37.2381C474.462 37.2381 471.685 52.2341 472.081 63.4215C472.478 73.1808 476.048 79.2903 476.048 79.2903C476.048 79.2903 492.393 104.601 510.166 105.474C540 106.981 545.078 88.0181 545.078 88.0181C545.078 88.0181 536.905 81.1945 536.35 71.3559Z" fill="#F6BC8E"/>
<path d="M468.115 61.8349C468.115 61.8349 463.989 53.5832 460.18 53.9005C452.801 54.4559 452.246 63.4218 452.246 63.4218C452.246 63.4218 452.722 71.8322 454.626 77.7037C459.784 93.6517 468.115 92.779 468.115 92.779L472.875 66.5955L468.115 61.8349Z" fill="#F6BC8E"/>
<path d="M469.702 76.9099L462.561 67.3887C462.561 67.3887 458.753 68.3408 460.736 75.4817C461.847 79.5283 470.496 83.2574 470.496 83.2574L469.702 76.9099Z" fill="#F1A977"/>
<path d="M500.647 51.5203C476.447 50.5681 484.778 73.7365 484.778 73.7365C484.778 73.7365 492.633 74.5299 499.853 74.5299C506.597 74.5299 513.342 73.7365 513.342 73.7365C513.342 73.7365 516.912 52.155 500.647 51.5203Z" fill="#F1A977"/>
<path d="M535.557 66.5954C536.191 61.0413 539.524 53.9004 539.524 53.9004C539.524 53.9004 529.368 53.0276 525.242 58.661C518.18 68.1823 521.275 73.7363 521.275 73.7363H537.143C537.143 73.7363 535.08 70.7213 535.557 66.5954Z" fill="#F1A977"/>
<path d="M539.524 54.6939C539.524 54.6939 533.493 53.1864 530.002 54.6939C525.321 56.6775 522.861 61.8349 522.861 61.8349H537.143C537.143 61.8349 538.809 59.9306 539.524 57.8677C540 56.4395 539.524 54.6939 539.524 54.6939Z" fill="#B07438"/>
<path d="M500.646 50.7265C489.537 50.8059 482.396 61.0412 482.396 61.0412C482.396 61.0412 491.997 59.4543 500.646 59.4543C507.072 59.4543 513.341 61.0412 513.341 61.0412C513.341 61.0412 510.246 50.6472 500.646 50.7265Z" fill="#B07438"/>
<path d="M500.646 65.0087C491.125 64.7706 484.777 74.5299 484.777 74.5299H512.548C512.548 74.5299 508.263 65.2467 500.646 65.0087Z" fill="#F1F2F4"/>
<path d="M533.97 67.3886C532.384 65.4844 530.003 65.0083 530.003 65.0083C530.003 65.0083 527.147 65.0876 525.243 66.5952C522.862 68.5788 521.275 72.1492 521.275 72.1492V73.7361H537.144C537.144 73.7361 535.954 69.7689 533.97 67.3886Z" fill="#F1F2F4"/>
<path d="M498.265 74.5295C501.332 74.5295 503.819 72.3981 503.819 69.7689C503.819 67.1397 501.332 65.0083 498.265 65.0083C495.198 65.0083 492.711 67.1397 492.711 69.7689C492.711 72.3981 495.198 74.5295 498.265 74.5295Z" fill="#66360E"/>
<path d="M528.018 65.405C525.082 65.5637 523.575 69.0548 522.94 70.8797C522.067 72.3873 524.527 74.4502 527.621 74.5295C530.715 74.5295 533.175 72.3873 533.175 69.7689C533.175 67.1506 530.636 64.929 528.018 65.405Z" fill="#66360E"/>
<path d="M498.265 72.1493C499.58 72.1493 500.645 71.0836 500.645 69.769C500.645 68.4544 499.58 67.3887 498.265 67.3887C496.95 67.3887 495.885 68.4544 495.885 69.769C495.885 71.0836 496.95 72.1493 498.265 72.1493Z" fill="#14151A"/>
<path d="M527.622 72.1493C528.937 72.1493 530.003 71.0836 530.003 69.769C530.003 68.4544 528.937 67.3887 527.622 67.3887C526.308 67.3887 525.242 68.4544 525.242 69.769C525.242 71.0836 526.308 72.1493 527.622 72.1493Z" fill="#14151A"/>
<path d="M528.416 68.1821C527.94 68.1821 527.623 68.4995 527.623 68.9756C527.623 69.4516 527.94 69.769 528.416 69.769C528.893 69.769 529.21 69.4516 529.21 68.9756C529.21 68.4995 528.893 68.1821 528.416 68.1821Z" fill="#F9F9FB"/>
<path d="M529.606 65.8018C528.971 65.8018 528.416 66.3572 528.416 66.9919C528.416 67.6267 528.971 68.1821 529.606 68.1821C530.241 68.1821 530.796 67.6267 530.796 66.9919C530.796 66.3572 530.32 65.8018 529.606 65.8018Z" fill="#F9F9FB"/>
<path d="M499.059 69.769C499.497 69.769 499.852 69.4138 499.852 68.9756C499.852 68.5374 499.497 68.1821 499.059 68.1821C498.621 68.1821 498.266 68.5374 498.266 68.9756C498.266 69.4138 498.621 69.769 499.059 69.769Z" fill="#F9F9FB"/>
<path d="M500.251 65.8018C499.616 65.8018 499.061 66.3572 499.061 66.9919C499.061 67.6267 499.616 68.1821 500.251 68.1821C500.885 68.1821 501.441 67.6267 501.441 66.9919C501.441 66.3572 500.965 65.8018 500.251 65.8018Z" fill="#F9F9FB"/>
<path d="M532.304 53.9004C532.384 53.9004 532.463 53.9004 532.384 53.9004H532.304ZM532.304 53.9004C531.273 54.1384 522.307 56.0427 519.689 69.7691C518.261 77.1481 526.036 89.6051 526.036 89.6051C526.036 89.6051 526.592 90.7159 526.036 91.9854C525.084 94.3657 522.863 97.5394 522.863 97.5394C522.863 97.5394 525.719 95.8732 527.623 93.5723C528.655 92.2234 529.21 89.6051 529.21 89.6051C529.21 89.6051 520.562 76.9101 521.276 68.1823C521.99 59.4545 531.194 54.3765 532.304 53.9004Z" fill="#DDA280"/>
<path d="M533.971 9.4678C521.514 7.56355 501.44 8.67436 501.44 8.67436C501.44 8.67436 487.793 4.94521 476.05 6.29405C467.163 7.32552 459.388 13.435 459.388 13.435C459.388 13.435 454.786 18.275 454.627 22.9562C454.389 29.4624 458.594 36.4447 458.594 36.4447C458.673 36.4447 462.641 43.7443 465.418 51.52C468.433 60.0891 468.115 69.769 468.115 69.769H474.463C474.463 69.769 474.939 58.6609 476.05 49.1397C476.843 42.5541 478.43 36.4447 478.43 36.4447C478.43 36.4447 470.337 29.3831 472.876 24.5431C476.288 18.0369 483.191 22.1628 483.191 22.1628C483.191 22.1628 493.505 27.9549 506.2 30.0972C518.895 32.3188 533.971 30.8906 533.971 30.8906L543.492 15.0219C543.492 15.0219 539.683 10.3406 533.971 9.4678Z" fill="#B07438"/>
<path d="M545.872 134.037C545.872 134.037 543.809 127.769 543.492 118.962C543.016 105.95 544.285 88.8115 544.285 88.8115C544.285 88.8115 531.67 107.775 506.201 102.3C481.049 96.8252 474.463 69.769 474.463 69.769L468.116 68.9756C468.116 68.9756 468.909 76.91 468.116 82.464C467.401 87.7007 465.18 90.6364 464.148 91.1918C462.006 92.382 466.529 132.451 466.529 132.451C466.529 132.451 465.973 137.767 467.322 141.972C468.354 145.146 471.289 147.526 471.289 147.526C471.289 147.526 495.251 153.953 514.928 153.08C530.956 152.366 543.492 144.352 543.492 144.352C543.492 144.352 546.11 143.4 546.666 141.178C547.301 138.322 545.872 134.037 545.872 134.037Z" fill="#C08D60"/>
<path d="M513.34 128.484C512.467 128.642 522.227 128.166 526.035 131.657C528.891 134.276 526.035 141.179 526.035 141.179C526.035 141.179 538.968 123.326 513.34 128.484Z" fill="#AE7236"/>
<path d="M514.928 109.441C505.406 107.933 495.092 103.093 495.092 103.093C495.092 103.093 505.248 117.216 516.515 118.169C523.497 118.803 530.003 108.647 530.003 108.647C530.003 108.647 522.624 110.631 514.928 109.441Z" fill="white"/>
<path fill-rule="evenodd" clip-rule="evenodd" d="M127.848 0.357087C108.826 2.05558 90.3306 9.42227 74.5243 21.5949C66.8293 27.5207 56.8362 38.6572 51.0613 47.7417C48.5673 51.6653 43.7124 61.6073 41.9732 66.352C40.0286 71.6576 37.956 79.7654 36.9361 86.0565C35.688 93.7565 35.688 108.376 36.9361 116.076C38.701 126.962 41.4929 135.761 46.2716 145.504C51.4927 156.147 56.9215 163.691 65.6151 172.385C74.309 181.079 81.8535 186.507 92.4967 191.728C102.239 196.507 111.039 199.299 121.924 201.064C129.624 202.312 144.244 202.312 151.944 201.064C158.235 200.044 166.343 197.971 171.649 196.027C176.393 194.288 186.336 189.433 190.259 186.939C202.944 178.876 214.744 167.076 222.807 154.391C225.301 150.467 230.156 140.525 231.895 135.781C235.187 126.798 237.407 115.715 237.897 105.821C238.2 99.7056 237.916 98.2812 235.945 96.0361C231.941 91.4766 224.46 93.4872 223.076 99.4943C222.852 100.468 222.664 102.625 222.658 104.289C222.644 108.803 221.555 116.406 220.085 122.256C212.521 152.359 188.227 176.653 158.124 184.217C144.319 187.686 129.329 187.668 115.614 184.167C81.8108 175.537 56.3124 146.755 51.8489 112.189C51.0443 105.959 51.0435 96.185 51.8466 89.944C56.2911 55.413 81.8243 26.5924 115.614 17.9657C121.532 16.4552 129.106 15.3571 133.712 15.3425C139.356 15.3243 142.244 14.0248 143.684 10.8553C145.527 6.79515 143.954 2.5746 139.897 0.695995C138.174 -0.101505 134.227 -0.212499 127.848 0.357087ZM225.216 25.5816C224.565 25.7455 223.587 26.1145 223.044 26.4016C222.501 26.6888 201.349 47.5897 176.039 72.8482L130.022 118.773L118.567 106.302C97.36 83.2157 96.2433 82.0595 94.3418 81.2182C90.7595 79.6338 86.5066 81.1368 84.842 84.5752C83.785 86.7588 83.7542 89.5565 84.7658 91.5035C85.4401 92.8014 96.8034 105.332 118.287 128.467C125.494 136.227 126.996 137.389 129.824 137.389C133.15 137.389 132.516 137.983 184.001 86.5652C237.251 33.384 234.835 35.9922 234.401 32.1366C233.913 27.805 229.343 24.544 225.216 25.5816Z" fill="url(#paint1_linear_501_18894)"/>
<defs>
<linearGradient id="paint0_linear_501_18894" x1="454.982" y1="420.468" x2="454.982" y2="464.307" gradientUnits="userSpaceOnUse">
<stop stop-color="#EAEAEA"/>
<stop offset="1" stop-color="white"/>
</linearGradient>
<linearGradient id="paint1_linear_501_18894" x1="67.3657" y1="20.5963" x2="155.414" y2="217.408" gradientUnits="userSpaceOnUse">
<stop stop-color="white"/>
<stop offset="1" stop-color="#84AAF7"/>
</linearGradient>
</defs>
</svg>
