<svg width="646" height="491" viewBox="0 0 646 491" fill="none" xmlns="http://www.w3.org/2000/svg">
<path opacity="0.12" d="M577.725 124.816C576.728 130.516 576.004 136.316 575.732 142.116C575.641 144.016 576.728 145.816 578.359 146.416C578.449 146.416 578.63 146.516 578.721 146.516C580.895 147.216 583.159 145.616 583.612 143.216C584.699 137.216 585.243 131.416 585.605 125.916C585.695 123.816 584.427 121.916 582.616 121.416H582.525C580.351 120.816 578.178 122.416 577.725 124.816Z" fill="#213860"/>
<path d="M582.252 125.116C580.259 130.516 578.629 136.116 577.451 141.716C576.998 143.616 577.814 145.516 579.353 146.516C579.444 146.616 579.625 146.616 579.716 146.716C581.799 147.816 584.245 146.816 585.15 144.416C587.234 138.816 588.683 133.216 589.951 127.816C590.404 125.716 589.498 123.616 587.687 122.716H587.596C585.422 121.716 583.067 122.816 582.252 125.116Z" fill="white"/>
<path d="M582.251 125.116C583.066 122.816 585.512 121.716 587.505 122.716H587.595C589.316 123.616 590.313 125.716 589.86 127.816C589.226 130.416 588.592 133.116 587.867 135.716C584.968 136.116 581.979 135.216 579.624 133.216C580.349 130.516 581.255 127.816 582.251 125.116Z" fill="#FF4E5A"/>
<path d="M586.332 135.816C584.339 135.816 582.347 135.116 580.626 134.016" stroke="#213860" stroke-miterlimit="10" stroke-linecap="round" stroke-linejoin="round"/>
<path opacity="0.12" d="M294.127 415.116C297.388 419.716 301.011 424.016 304.815 428.016C306.083 429.316 307.986 429.616 309.525 428.616C309.616 428.516 309.797 428.416 309.888 428.416C311.79 427.016 312.152 424.116 310.793 422.116C307.351 417.316 303.728 413.116 300.105 409.216C298.747 407.716 296.573 407.616 295.033 408.816C295.033 408.816 295.033 408.816 294.942 408.916C293.131 410.316 292.769 413.216 294.127 415.116Z" fill="#213860"/>
<path d="M297.298 411.516C299.743 416.716 302.551 421.616 305.631 426.316C306.627 427.916 308.529 428.516 310.16 427.816C310.25 427.716 310.431 427.716 310.522 427.616C312.605 426.616 313.511 423.816 312.424 421.616C309.888 416.216 306.989 411.316 304.091 406.816C303.004 405.116 300.921 404.516 299.2 405.416H299.109C297.026 406.616 296.211 409.316 297.298 411.516Z" fill="white"/>
<path d="M297.298 411.516C296.211 409.316 297.026 406.616 299.11 405.516H299.2C300.921 404.616 303.004 405.216 304.091 406.916C305.54 409.116 306.899 411.416 308.258 413.716C306.627 416.416 304.001 418.316 301.193 419.016C299.744 416.516 298.475 414.116 297.298 411.516Z" fill="#FF6158"/>
<path d="M307.352 415.016C306.083 416.716 304.363 417.916 302.46 418.616" stroke="#213860" stroke-miterlimit="10" stroke-linecap="round" stroke-linejoin="round"/>
<path opacity="0.12" d="M644.146 370.915C640.885 375.515 637.262 379.815 633.458 383.815C632.19 385.115 630.288 385.415 628.748 384.415C628.658 384.315 628.476 384.215 628.386 384.215C626.484 382.815 626.121 379.915 627.48 377.915C630.922 373.115 634.545 368.915 638.168 365.015C639.527 363.515 641.701 363.415 643.24 364.615C643.24 364.615 643.24 364.615 643.331 364.715C645.233 366.115 645.595 369.015 644.146 370.915Z" fill="#213860"/>
<path d="M641.066 367.316C638.62 372.516 635.812 377.416 632.733 382.116C631.736 383.716 629.834 384.316 628.204 383.616C628.113 383.516 627.932 383.516 627.841 383.416C625.758 382.416 624.852 379.616 625.939 377.416C628.475 372.016 631.374 367.116 634.272 362.616C635.359 360.916 637.443 360.316 639.164 361.216H639.254C641.337 362.416 642.153 365.116 641.066 367.316Z" fill="white"/>
<path d="M641.065 367.316C642.152 365.116 641.337 362.416 639.254 361.316H639.163C637.442 360.416 635.359 361.016 634.272 362.716C632.823 364.916 631.464 367.216 630.105 369.516C631.736 372.216 634.363 374.116 637.17 374.816C638.529 372.316 639.888 369.816 641.065 367.316Z" fill="#74CEEF"/>
<path d="M631.012 370.816C632.28 372.516 634.001 373.716 635.903 374.416" stroke="#213860" stroke-miterlimit="10" stroke-linecap="round" stroke-linejoin="round"/>
<path d="M407.436 30.2157C408.704 29.6157 410.425 30.3157 410.969 31.7157C411.512 33.1157 410.878 35.0157 409.61 35.6157C408.342 36.2157 406.621 35.5157 406.078 34.1157C405.534 32.7157 406.168 30.8157 407.436 30.2157Z" stroke="#213860" stroke-miterlimit="10" stroke-linecap="round" stroke-linejoin="round"/>
<path d="M192.315 72.4157C193.583 71.8157 195.304 72.5157 195.848 73.9157C196.391 75.3157 195.757 77.2157 194.489 77.8157C193.221 78.4157 191.5 77.7157 190.956 76.3157C190.413 74.8157 191.047 73.0157 192.315 72.4157Z" stroke="#213860" stroke-miterlimit="10" stroke-linecap="round" stroke-linejoin="round"/>
<path d="M572.832 474.216C574.01 473.516 575.64 474.016 576.274 475.216C576.908 476.416 576.546 478.216 575.459 479.016C574.372 479.816 572.741 479.416 571.926 478.316C571.202 477.116 571.383 475.116 572.832 474.216Z" stroke="#213860" stroke-miterlimit="10" stroke-linecap="round" stroke-linejoin="round"/>
<path d="M288.148 380.116C289.235 379.616 290.684 380.316 291.137 381.516C291.59 382.716 290.956 384.316 289.869 384.816C288.782 385.316 287.333 384.616 286.88 383.416C286.427 382.216 286.971 380.616 288.148 380.116Z" stroke="#213860" stroke-miterlimit="10" stroke-linecap="round" stroke-linejoin="round"/>
<path d="M302.91 160.816C303.544 160.516 304.36 161.016 304.631 161.716C304.903 162.416 304.541 163.316 303.907 163.616C303.273 163.916 302.458 163.516 302.186 162.816C301.914 162.116 302.186 161.116 302.91 160.816Z" stroke="#213860" stroke-miterlimit="10" stroke-linecap="round" stroke-linejoin="round"/>
<path d="M30.0003 357.916C30.6343 357.616 31.4495 358.116 31.7212 358.816C31.9929 359.516 31.6307 360.416 30.9966 360.716C30.3626 361.016 29.5474 360.616 29.2756 359.916C28.9133 359.316 29.1851 358.316 30.0003 357.916Z" stroke="#213860" stroke-miterlimit="10" stroke-linecap="round" stroke-linejoin="round"/>
<path d="M149.383 55.6157C150.017 55.3157 150.832 55.8157 151.104 56.5157C151.376 57.2157 151.013 58.1157 150.379 58.4157C149.745 58.7157 148.93 58.3157 148.658 57.6157C148.387 56.9157 148.658 55.9157 149.383 55.6157Z" stroke="#213860" stroke-miterlimit="10" stroke-linecap="round" stroke-linejoin="round"/>
<path d="M626.723 292.316C627.357 292.016 628.172 292.516 628.444 293.216C628.716 293.916 628.353 294.816 627.719 295.116C627.085 295.416 626.27 295.016 625.998 294.316C625.636 293.616 625.908 292.616 626.723 292.316Z" stroke="#213860" stroke-miterlimit="10" stroke-linecap="round" stroke-linejoin="round"/>
<path d="M343.129 444.016C343.763 443.716 344.578 444.216 344.85 444.916C345.122 445.616 344.76 446.516 344.126 446.816C343.491 447.116 342.676 446.716 342.405 446.016C342.042 445.316 342.314 444.316 343.129 444.016Z" stroke="#213860" stroke-miterlimit="10" stroke-linecap="round" stroke-linejoin="round"/>
<path d="M582.16 66.2157C582.794 65.9157 583.61 66.4157 583.881 67.1157C584.153 67.8157 583.791 68.7157 583.157 69.0157C582.523 69.3157 581.708 68.9157 581.436 68.2157C581.073 67.5157 581.345 66.5157 582.16 66.2157Z" stroke="#213860" stroke-miterlimit="10" stroke-linecap="round" stroke-linejoin="round"/>
<path d="M634.242 305.616C634.876 305.316 635.692 305.816 635.963 306.516C636.235 307.216 635.873 308.116 635.239 308.416C634.605 308.716 633.79 308.316 633.518 307.616C633.156 306.916 633.427 305.916 634.242 305.616Z" stroke="#213860" stroke-miterlimit="10" stroke-linecap="round" stroke-linejoin="round"/>
<path d="M624.373 200.316L621.384 199.516C620.478 199.216 620.478 197.816 621.384 197.616L624.373 196.816C624.916 196.616 625.369 196.116 625.55 195.516L626.275 192.216C626.547 191.216 627.815 191.216 627.996 192.216L628.721 195.516C628.902 196.116 629.355 196.616 629.898 196.816L632.887 197.616C633.793 197.916 633.793 199.316 632.887 199.516L629.898 200.316C629.355 200.516 628.902 201.016 628.721 201.616L627.996 204.916C627.724 205.916 626.456 205.916 626.275 204.916L625.55 201.616C625.369 200.916 624.916 200.416 624.373 200.316Z" fill="white"/>
<path d="M218.228 306.016L215.239 305.216C214.333 304.916 214.333 303.516 215.239 303.316L218.228 302.516C218.772 302.316 219.225 301.816 219.406 301.216L220.13 297.916C220.402 296.916 221.67 296.916 221.851 297.916L222.576 301.216C222.757 301.816 223.21 302.316 223.753 302.516L226.743 303.316C227.648 303.616 227.648 305.016 226.743 305.216L223.753 306.016C223.21 306.216 222.757 306.716 222.576 307.316L221.851 310.616C221.58 311.616 220.312 311.616 220.13 310.616L219.406 307.316C219.225 306.616 218.772 306.116 218.228 306.016Z" fill="white"/>
<path d="M372.295 139.616L369.306 138.816C368.4 138.516 368.4 137.116 369.306 136.916L372.295 136.116C372.838 135.916 373.291 135.416 373.472 134.816L374.197 131.516C374.469 130.516 375.737 130.516 375.918 131.516L376.642 134.816C376.824 135.416 377.276 135.916 377.82 136.116L380.809 136.916C381.715 137.216 381.715 138.616 380.809 138.816L377.82 139.616C377.276 139.816 376.824 140.316 376.642 140.916L375.918 144.216C375.646 145.216 374.378 145.216 374.197 144.216L373.472 140.916C373.291 140.316 372.838 139.816 372.295 139.616Z" fill="white"/>
<path d="M603.088 447.216L600.099 446.416C599.193 446.116 599.193 444.716 600.099 444.516L603.088 443.716C603.631 443.516 604.084 443.016 604.265 442.416L604.99 439.116C605.262 438.116 606.53 438.116 606.711 439.116L607.435 442.416C607.617 443.016 608.069 443.516 608.613 443.716L611.602 444.516C612.508 444.816 612.508 446.216 611.602 446.416L608.613 447.216C608.069 447.416 607.617 447.916 607.435 448.516L606.711 451.816C606.439 452.816 605.171 452.816 604.99 451.816L604.265 448.516C604.175 447.916 603.722 447.416 603.088 447.216Z" fill="white"/>
<path d="M409.072 91.7158L406.898 91.1158C406.264 90.9158 406.264 89.9158 406.898 89.7158L409.072 89.1158C409.525 89.0158 409.797 88.6158 409.887 88.2158L410.431 85.8158C410.612 85.1158 411.518 85.1158 411.699 85.8158L412.242 88.2158C412.333 88.7158 412.695 89.0158 413.058 89.1158L415.232 89.7158C415.866 89.9158 415.866 90.9158 415.232 91.1158L413.058 91.7158C412.605 91.8158 412.333 92.2158 412.242 92.6158L411.699 95.0158C411.518 95.7158 410.612 95.7158 410.431 95.0158L409.887 92.6158C409.797 92.2158 409.525 91.8158 409.072 91.7158Z" fill="white"/>
<path d="M568.67 43.7158L566.496 43.1158C565.862 42.9158 565.862 41.9158 566.496 41.7158L568.67 41.1158C569.123 41.0158 569.395 40.6158 569.485 40.2158L570.029 37.8158C570.21 37.1158 571.115 37.1158 571.297 37.8158L571.84 40.2158C571.931 40.7158 572.293 41.0158 572.655 41.1158L574.829 41.7158C575.463 41.9158 575.463 42.9158 574.829 43.1158L572.655 43.7158C572.202 43.8158 571.931 44.2158 571.84 44.6158L571.297 47.0158C571.115 47.7158 570.21 47.7158 570.029 47.0158L569.485 44.6158C569.395 44.1158 569.123 43.8158 568.67 43.7158Z" fill="white"/>
<path d="M271.396 142.816L269.223 142.216C268.589 142.016 268.589 141.016 269.223 140.816L271.396 140.216C271.849 140.116 272.121 139.716 272.212 139.316L272.755 136.916C272.936 136.216 273.842 136.216 274.023 136.916L274.567 139.316C274.657 139.816 275.02 140.116 275.382 140.216L277.556 140.816C278.19 141.016 278.19 142.016 277.556 142.216L275.382 142.816C274.929 142.916 274.657 143.316 274.567 143.716L274.023 146.116C273.842 146.816 272.936 146.816 272.755 146.116L272.212 143.716C272.121 143.316 271.849 142.916 271.396 142.816Z" fill="white"/>
<path d="M283.803 266.916L281.629 266.316C280.995 266.116 280.995 265.116 281.629 264.916L283.803 264.316C284.256 264.216 284.527 263.816 284.618 263.416L285.161 261.016C285.343 260.316 286.248 260.316 286.429 261.016L286.973 263.416C287.064 263.916 287.426 264.216 287.788 264.316L289.962 264.916C290.596 265.116 290.596 266.116 289.962 266.316L287.788 266.916C287.335 267.016 287.064 267.416 286.973 267.816L286.429 270.216C286.248 270.916 285.343 270.916 285.161 270.216L284.618 267.816C284.618 267.416 284.256 267.116 283.803 266.916Z" fill="white"/>
<path d="M371.752 456.416L369.578 455.816C368.944 455.616 368.944 454.616 369.578 454.416L371.752 453.816C372.205 453.716 372.477 453.316 372.567 452.916L373.111 450.516C373.292 449.816 374.198 449.816 374.379 450.516L374.922 452.916C375.013 453.416 375.375 453.716 375.737 453.816L377.911 454.416C378.545 454.616 378.545 455.616 377.911 455.816L375.737 456.416C375.284 456.516 375.013 456.916 374.922 457.316L374.379 459.716C374.198 460.416 373.292 460.416 373.111 459.716L372.567 457.316C372.477 456.916 372.205 456.516 371.752 456.416Z" fill="white"/>
<path d="M3.64649 247.316L1.47267 246.716C0.838627 246.516 0.838627 245.516 1.47267 245.316L3.64649 244.716C4.09937 244.616 4.37112 244.216 4.4617 243.816L5.00514 241.416C5.1863 240.716 6.09209 240.716 6.27324 241.416L6.81669 243.816C6.90726 244.316 7.26959 244.616 7.6319 244.716L9.80572 245.316C10.4398 245.516 10.4398 246.516 9.80572 246.716L7.6319 247.316C7.17902 247.416 6.90726 247.816 6.81669 248.216L6.27324 250.616C6.09209 251.316 5.1863 251.316 5.00514 250.616L4.4617 248.216C4.37112 247.716 4.00879 247.416 3.64649 247.316Z" fill="white"/>
<path d="M485.519 464.522L478.375 522.468L487.9 516.912L485.519 464.522Z" fill="#A5A5A5"/>
<path d="M458.532 157.806C438.608 156.536 422.256 158.044 422.018 161.06C421.78 164.076 437.814 167.569 457.738 168.76C477.662 170.03 494.014 168.522 494.252 165.505C494.49 162.489 478.456 158.996 458.532 157.806Z" fill="#A72C25"/>
<path d="M488.697 148.598L429.163 133.516L425.988 164.473C425.988 164.473 448.69 175.666 468.059 177.968C480.283 179.396 492.666 172.411 492.666 172.411L488.697 148.598Z" fill="#F6BB91"/>
<path d="M471.234 176.38L406.938 178.761L487.109 296.241C487.109 296.241 498.222 264.886 504.572 235.913C510.526 209.004 511.716 184.318 511.716 184.318L471.234 176.38Z" fill="#FF6158"/>
<path d="M479.965 210.513L485.521 186.699L472.027 176.38L460.914 188.287L471.233 210.513L464.883 263.696L487.109 296.241L498.222 258.139L479.965 210.513Z" fill="#39383D"/>
<path d="M510.923 178.761L495.841 165.267C495.841 165.267 482.823 176.539 468.059 175.586C447.023 174.237 422.019 160.504 422.019 160.504L406.938 178.761L447.42 204.162L471.234 176.38C471.234 176.38 480.838 182.73 487.109 189.874C491.713 195.113 493.46 201.781 493.46 201.781C493.46 201.781 505.128 194.875 510.129 188.287C513.542 183.842 510.923 178.761 510.923 178.761Z" fill="#FE8982"/>
<path d="M583.153 290.684C583.153 290.684 569.5 252.742 554.577 227.182C540.606 203.21 525.207 191.462 525.207 191.462L511.713 184.318C511.713 184.318 508.776 218.45 502.187 247.82C496.155 274.65 486.312 297.035 486.312 297.035L483.137 586.764H514.094L518.857 403.401C518.857 403.401 536.955 399.432 550.608 393.876C559.181 390.383 566.484 385.938 566.484 385.938C566.484 385.938 580.295 378.794 584.741 357.362C591.805 323.309 583.153 290.684 583.153 290.684ZM526.795 348.63L533.145 324.817L543.464 339.899L526.795 348.63Z" fill="#E0E0E0"/>
<path d="M530.765 393.082L521.24 372.444L519.652 408.958C519.652 408.958 529.178 407.608 532.353 402.607C534.496 399.194 530.765 393.082 530.765 393.082Z" fill="#EBEBEB"/>
<path d="M525.211 227.976L522.829 189.874L511.717 184.318C511.717 184.318 509.097 212.735 502.985 240.676C496.793 268.697 487.109 296.241 487.109 296.241L490.284 302.591C490.284 302.591 501.397 293.78 507.748 282.747C517.908 265.204 525.211 242.264 525.211 242.264L518.067 233.532L525.211 227.976Z" fill="#F2F2F2"/>
<path d="M406.936 179.555L479.17 285.128L492.664 311.323C492.664 311.323 491.394 383.636 487.108 452.615C483.059 518.499 475.995 581.208 475.995 581.208C475.995 581.208 475.677 585.336 473.613 586.764C471.708 588.114 468.057 586.764 468.057 586.764C468.057 586.764 443.688 588.034 421.224 586.764C402.332 585.653 384.71 582.002 384.71 582.002C384.71 582.002 380.265 540.487 382.329 499.449C384.154 463.411 392.648 427.215 392.648 427.215C392.648 427.215 394.711 410.069 394.235 395.463C393.918 386.652 391.06 377.206 391.06 377.206C391.06 377.206 388.282 356.012 382.329 333.548C376.375 311.164 367.247 287.509 367.247 287.509L351.371 196.224L406.936 179.555Z" fill="#EAEAEA"/>
<path d="M491.871 311.323L487.108 296.241L407.73 178.761L392.648 183.524L408.524 243.851L426.781 243.058L423.606 265.283L491.871 311.323Z" fill="#F5F5F5"/>
<path d="M527.591 279.571C527.591 279.571 528.702 276.079 527.591 275.602C526.479 275.126 520.447 274.809 520.447 274.809V279.571C520.447 279.571 516.002 279.571 515.684 280.365C515.367 281.159 515.684 286.715 515.684 286.715L520.447 287.509V292.272H527.591L528.385 287.509H533.147V280.365L527.591 279.571Z" fill="#FF6158"/>
<path d="M441.068 292.272H397.41V298.622H441.068V292.272Z" fill="#F5F5F5"/>
<path d="M413.285 279.571H412.492C410.745 279.571 409.316 281 409.316 282.747V291.478C409.316 291.954 409.634 292.272 410.11 292.272H415.667C416.143 292.272 416.46 291.954 416.46 291.478V282.747C416.46 281 415.032 279.571 413.285 279.571Z" fill="#3D7F97"/>
<path d="M413.288 275.602H410.906V280.365H413.288V275.602Z" fill="#89B7C4"/>
<path d="M416.46 284.334H409.316V285.922H416.46V284.334Z" fill="#89B7C4"/>
<path d="M413.288 283.54H410.906V311.323H413.288V283.54Z" fill="#89B7C4"/>
<path d="M479.754 327.944C482.365 327.623 484.221 325.246 483.899 322.635C483.578 320.024 481.201 318.169 478.59 318.49C475.98 318.811 474.124 321.188 474.445 323.799C474.767 326.41 477.144 328.265 479.754 327.944Z" fill="#F5F5F5"/>
<path d="M479.567 385.131C482.189 384.914 484.138 382.613 483.921 379.992C483.704 377.371 481.403 375.421 478.782 375.638C476.16 375.855 474.211 378.156 474.428 380.778C474.645 383.399 476.946 385.348 479.567 385.131Z" fill="#F5F5F5"/>
<path d="M475.993 431.977C473.374 431.977 471.23 434.12 471.23 436.74C471.23 439.359 473.374 441.503 475.993 441.503C478.613 441.503 480.756 439.359 480.756 436.74C480.756 434.12 478.613 431.977 475.993 431.977Z" fill="#F5F5F5"/>
<path d="M399.79 419.277L396.615 451.028C396.615 451.028 396.139 455.791 397.409 458.172C398.917 460.95 402.251 461.426 402.965 461.347C404.314 461.109 428.366 462.935 428.366 462.935C428.366 462.935 433.049 463.967 435.51 461.347C437.733 458.966 437.812 453.012 437.891 452.616C438.13 451.822 440.273 420.864 440.273 420.864L399.79 419.277Z" fill="url(#paint0_linear_501_18823)"/>
<path d="M441.86 412.926L401.377 408.958C401.377 408.958 399.075 414.752 399.79 417.689C400.266 419.753 403.759 419.277 403.759 419.277L436.304 421.658C436.304 421.658 439.796 422.055 441.066 420.071C442.575 417.769 441.86 412.926 441.86 412.926Z" fill="white"/>
<path d="M499.81 70.0136C499.175 59.615 506.16 47.7877 506.16 47.7877L498.222 29.5308C498.222 29.5308 477.346 28.2607 467.265 25.5619C454.009 21.9899 449.008 17.6241 449.008 17.6241C449.008 17.6241 438.133 16.9097 435.514 20.7992C429.481 29.6895 437.895 35.881 437.895 35.881C437.895 35.881 435.117 50.8835 435.514 62.0758C435.911 71.8393 439.483 77.9514 439.483 77.9514C439.483 77.9514 455.835 103.273 473.615 104.146C503.461 105.654 508.542 86.683 508.542 86.683C508.542 86.683 500.366 79.8564 499.81 70.0136Z" fill="#F6BC8E"/>
<path d="M431.544 60.4882C431.544 60.4882 427.416 52.2329 423.606 52.5504C416.224 53.106 415.668 62.0758 415.668 62.0758C415.668 62.0758 416.144 70.4898 418.049 76.3638C423.209 92.3188 431.544 91.4456 431.544 91.4456L436.306 65.2509L431.544 60.4882Z" fill="#F6BC8E"/>
<path d="M433.132 75.57L425.988 66.0446C425.988 66.0446 422.178 66.9972 424.163 74.1412C425.274 78.1895 433.926 81.9203 433.926 81.9203L433.132 75.57Z" fill="#F1A977"/>
<path d="M464.09 50.169C439.879 49.2164 448.214 72.3948 448.214 72.3948C448.214 72.3948 456.072 73.1886 463.296 73.1886C470.043 73.1886 476.79 72.3948 476.79 72.3948C476.79 72.3948 480.362 50.804 464.09 50.169Z" fill="#F1A977"/>
<path d="M499.014 65.2509C499.649 59.6944 502.983 52.5504 502.983 52.5504C502.983 52.5504 492.823 51.6773 488.695 57.3131C481.63 66.8385 484.726 72.3949 484.726 72.3949H500.602C500.602 72.3949 498.538 69.3786 499.014 65.2509Z" fill="#F1A977"/>
<path d="M502.986 53.3439C502.986 53.3439 496.953 51.8358 493.46 53.3439C488.777 55.3284 486.316 60.488 486.316 60.488H500.604C500.604 60.488 502.271 58.5829 502.986 56.5191C503.462 55.0903 502.986 53.3439 502.986 53.3439Z" fill="#B07438"/>
<path d="M464.089 49.3753C452.976 49.4547 445.832 59.6945 445.832 59.6945C445.832 59.6945 455.437 58.1069 464.089 58.1069C470.519 58.1069 476.789 59.6945 476.789 59.6945C476.789 59.6945 473.694 49.296 464.089 49.3753Z" fill="#B07438"/>
<path d="M464.09 63.6633C454.565 63.4252 448.215 73.1887 448.215 73.1887H475.997C475.997 73.1887 471.711 63.9015 464.09 63.6633Z" fill="#F1F2F4"/>
<path d="M497.427 66.0446C495.839 64.1396 493.458 63.6633 493.458 63.6633C493.458 63.6633 490.601 63.7427 488.695 65.2509C486.314 67.2353 484.727 70.8073 484.727 70.8073V72.3949H500.602C500.602 72.3949 499.411 68.426 497.427 66.0446Z" fill="#F1F2F4"/>
<path d="M461.709 73.1887C464.778 73.1887 467.265 71.0563 467.265 68.426C467.265 65.7956 464.778 63.6633 461.709 63.6633C458.64 63.6633 456.152 65.7956 456.152 68.426C456.152 71.0563 458.64 73.1887 461.709 73.1887Z" fill="#66360E"/>
<path d="M491.473 64.0602C488.536 64.219 487.028 67.7116 486.393 69.5373C485.52 71.0455 487.981 73.1093 491.076 73.1887C494.172 73.1887 496.633 71.0455 496.633 68.426C496.633 65.8065 494.093 63.5839 491.473 64.0602Z" fill="#66360E"/>
<path d="M461.706 70.8073C463.021 70.8073 464.087 69.7412 464.087 68.426C464.087 67.1108 463.021 66.0446 461.706 66.0446C460.39 66.0446 459.324 67.1108 459.324 68.426C459.324 69.7412 460.39 70.8073 461.706 70.8073Z" fill="#14151A"/>
<path d="M491.077 70.8073C492.392 70.8073 493.458 69.7412 493.458 68.426C493.458 67.1108 492.392 66.0446 491.077 66.0446C489.761 66.0446 488.695 67.1108 488.695 68.426C488.695 69.7412 489.761 70.8073 491.077 70.8073Z" fill="#14151A"/>
<path d="M491.872 66.8384C491.396 66.8384 491.078 67.156 491.078 67.6322C491.078 68.1085 491.396 68.426 491.872 68.426C492.348 68.426 492.666 68.1085 492.666 67.6322C492.666 67.156 492.348 66.8384 491.872 66.8384Z" fill="#F9F9FB"/>
<path d="M493.062 64.4571C492.427 64.4571 491.871 65.0127 491.871 65.6478C491.871 66.2828 492.427 66.8384 493.062 66.8384C493.697 66.8384 494.252 66.2828 494.252 65.6478C494.252 65.0127 493.776 64.4571 493.062 64.4571Z" fill="#F9F9FB"/>
<path d="M462.501 68.426C462.939 68.426 463.295 68.0706 463.295 67.6322C463.295 67.1938 462.939 66.8384 462.501 66.8384C462.062 66.8384 461.707 67.1938 461.707 67.6322C461.707 68.0706 462.062 68.426 462.501 68.426Z" fill="#F9F9FB"/>
<path d="M463.691 64.4571C463.056 64.4571 462.5 65.0127 462.5 65.6478C462.5 66.2828 463.056 66.8384 463.691 66.8384C464.326 66.8384 464.881 66.2828 464.881 65.6478C464.881 65.0127 464.405 64.4571 463.691 64.4571Z" fill="#F9F9FB"/>
<path d="M495.761 52.5504C495.841 52.5504 495.92 52.5504 495.841 52.5504H495.761ZM495.761 52.5504C494.729 52.7885 485.76 54.6936 483.14 68.426C481.711 75.8081 489.49 88.2705 489.49 88.2705C489.49 88.2705 490.046 89.3818 489.49 90.6518C488.538 93.0332 486.315 96.2083 486.315 96.2083C486.315 96.2083 489.173 94.5414 491.078 92.2394C492.11 90.89 492.665 88.2705 492.665 88.2705C492.665 88.2705 484.013 75.57 484.728 66.8384C485.442 58.1068 494.65 53.0267 495.761 52.5504Z" fill="#DDA280"/>
<path d="M497.427 8.09869C484.964 6.19362 464.882 7.30491 464.882 7.30491C464.882 7.30491 451.229 3.57415 439.481 4.92357C430.591 5.95549 422.811 12.0676 422.811 12.0676C422.811 12.0676 418.208 16.9097 418.049 21.593C417.811 28.102 422.018 35.0872 422.018 35.0872C422.097 35.0872 426.066 42.39 428.844 50.169C431.861 58.7419 431.543 68.426 431.543 68.426H437.893C437.893 68.426 438.37 57.3131 439.481 47.7877C440.275 41.1993 441.862 35.0872 441.862 35.0872C441.862 35.0872 433.766 28.0226 436.306 23.1805C439.719 16.6715 446.625 20.7992 446.625 20.7992C446.625 20.7992 456.944 26.5938 469.645 28.737C482.345 30.9596 497.427 29.5308 497.427 29.5308L506.952 13.6552C506.952 13.6552 503.142 8.97185 497.427 8.09869Z" fill="#B07438"/>
<path d="M509.332 132.722C509.332 132.722 507.268 126.451 506.95 117.64C506.474 104.622 507.744 87.4767 507.744 87.4767C507.744 87.4767 495.123 106.448 469.643 100.971C444.48 95.4939 437.892 68.426 437.892 68.426L431.541 67.6322C431.541 67.6322 432.335 75.57 431.541 81.1265C430.827 86.3654 428.604 89.3024 427.572 89.858C425.429 91.0487 429.954 131.135 429.954 131.135C429.954 131.135 429.398 136.453 430.748 140.66C431.779 143.835 434.716 146.216 434.716 146.216C434.716 146.216 458.689 152.646 478.374 151.773C494.409 151.059 506.95 143.041 506.95 143.041C506.95 143.041 509.57 142.089 510.126 139.866C510.761 137.009 509.332 132.722 509.332 132.722Z" fill="#C08D60"/>
<path d="M476.789 127.166C475.916 127.325 485.68 126.848 489.49 130.341C492.347 132.96 489.49 139.866 489.49 139.866C489.49 139.866 502.428 122.006 476.789 127.166Z" fill="#AE7236"/>
<path d="M482.347 117.669C491.872 119.177 502.191 124.019 502.191 124.019C502.191 124.019 492.031 109.89 480.759 108.937C473.774 108.302 467.265 118.463 467.265 118.463C467.265 118.463 474.647 116.478 482.347 117.669Z" fill="white"/>
<path d="M460.93 236.08C455.04 234.906 447.435 239.255 447.435 239.255C447.435 239.255 442.982 241.01 437.91 244.018C430.671 248.312 422.034 254.337 422.034 254.337C422.034 254.337 413.597 258.933 408.54 253.543C402.976 247.614 400.753 231.603 400.602 230.524C400.444 229.349 397.038 206.679 392.665 188.453C389.331 174.578 384.727 163.846 384.727 163.846C384.727 163.846 382.774 157.821 378.377 155.908C373.654 153.853 366.47 156.702 366.47 156.702L360.12 144.796C360.12 144.796 359.564 143.621 358.532 143.208C357.587 142.827 356.151 143.208 356.151 143.208L350.594 146.383C350.594 146.383 349.967 147.137 349.8 148.764C349.578 151.003 349.8 154.321 349.8 154.321C349.8 154.321 347.832 151.154 345.832 150.352C343.863 149.566 341.863 151.146 341.863 151.146L338.688 153.527C338.688 153.527 336.798 154.44 336.306 155.908C335.631 157.925 335.512 160.671 335.512 160.671L334.719 182.897C334.719 182.897 329.861 180.952 325.987 185.278C323.304 188.279 322.018 194.01 322.018 194.01V243.224C322.018 243.224 321.089 253.861 321.224 263.863C321.335 271.951 322.455 279.691 322.812 280.532C323.606 282.421 329.162 299.583 329.162 299.583C329.162 299.583 331.94 306.544 335.512 309.902C338.664 312.863 344.244 314.665 344.244 314.665L376.789 322.602C376.789 322.602 383.481 323.055 390.283 319.427C400.594 313.926 412.509 303.552 412.509 303.552C412.509 303.552 418.066 298.964 425.21 290.851C432.235 282.874 438.386 273.023 446.642 264.656C458.54 252.599 471.249 244.018 471.249 244.018C471.249 244.018 466.939 237.279 460.93 236.08Z" fill="#F4BF95"/>
<path d="M391.869 222.586C391.869 222.586 386.916 219.212 383.138 209.886C378.772 199.114 374.208 181.714 371.231 171.784C369.405 165.696 368.056 163.846 368.056 163.846C368.056 163.846 369.564 177.198 371.231 188.454C372.731 198.574 374.406 206.71 374.406 206.71C374.406 206.71 375.517 213.489 369.643 213.854C367.175 214.005 364.825 208.671 364.881 208.298C364.944 207.909 362.245 195.709 359.324 186.072C356.665 177.301 353.768 170.99 353.768 170.99C353.768 170.99 360.443 197.828 357.737 212.267C355.824 222.483 344.242 221.792 344.242 221.792L337.892 200.36C337.892 200.36 338.106 207.853 337.892 215.442C337.805 218.617 336.487 222.53 336.305 224.967C336.138 227.246 337.098 228.143 337.098 228.143C337.098 228.143 346.243 222.165 358.53 221.792C372.35 221.372 389.488 226.555 389.488 226.555C389.488 226.555 392.758 226.92 393.457 225.761C393.885 225.047 391.869 222.586 391.869 222.586Z" fill="#DFA578"/>
<path fill-rule="evenodd" clip-rule="evenodd" d="M107.453 6.62289C107.678 3.07643 104.983 -0.00247598 101.43 -2.90601e-05C83.2157 0.0125128 65.3024 4.97683 49.6324 14.4186C32.1211 24.97 18.2442 40.6111 9.85368 59.2545C1.46318 77.898 -1.04179 98.657 2.67306 118.761C6.3879 138.865 16.1459 157.358 30.6447 171.772C45.1435 186.186 63.6936 195.836 83.8192 199.432C103.945 203.029 124.689 200.402 143.283 191.903C161.877 183.403 177.436 169.434 187.884 151.861C197.234 136.136 202.093 118.194 201.999 99.9804C201.98 96.4268 198.886 93.7504 195.341 93.9961C191.796 94.2418 189.146 97.3171 189.131 100.871C189.065 116.469 184.835 131.81 176.823 145.285C167.713 160.608 154.146 172.788 137.933 180.199C121.72 187.61 103.632 189.901 86.0832 186.765C68.5346 183.628 52.3598 175.215 39.7175 162.646C27.0752 150.078 18.5667 133.953 15.3275 116.423C12.0883 98.893 14.2726 80.7921 21.5887 64.5359C28.9048 48.2796 41.0048 34.6413 56.2739 25.4411C69.7011 17.3506 85.0173 13.0305 100.615 12.8731C104.168 12.8372 107.228 10.1694 107.453 6.62289ZM108.5 49C112.09 49 115 51.4197 115 54.4045V117.596C115 120.58 112.09 123 108.5 123C104.91 123 102 120.58 102 117.596V54.4045C102 51.4197 104.91 49 108.5 49ZM108.5 148C112.642 148 116 144.642 116 140.5C116 136.358 112.642 133 108.5 133C104.358 133 101 136.358 101 140.5C101 144.642 104.358 148 108.5 148Z" fill="url(#paint1_linear_501_18823)"/>
<defs>
<linearGradient id="paint0_linear_501_18823" x1="418.4" y1="419.277" x2="418.4" y2="463.135" gradientUnits="userSpaceOnUse">
<stop stop-color="#EAEAEA"/>
<stop offset="1" stop-color="white"/>
</linearGradient>
<linearGradient id="paint1_linear_501_18823" x1="32.2104" y1="20.4943" x2="119.823" y2="216.331" gradientUnits="userSpaceOnUse">
<stop stop-color="white"/>
<stop offset="1" stop-color="#84AAF7"/>
</linearGradient>
</defs>
</svg>
