<svg width="309" height="402" viewBox="0 0 309 402" fill="none" xmlns="http://www.w3.org/2000/svg">
<path fill-rule="evenodd" clip-rule="evenodd" d="M57.4934 230.553H117.045V213.723C117.045 212.105 118.016 210.486 119.958 208.544C122.547 205.955 125.784 203.366 129.344 200.777C130.296 200.063 131.267 199.33 132.258 198.582C135.309 196.278 138.546 193.834 141.967 191.391C146.498 187.831 151.029 183.947 154.913 179.416C159.12 174.885 162.68 169.706 165.27 163.88C168.182 158.055 169.477 151.258 169.477 143.814C169.477 133.781 167.211 124.395 163.328 116.304C159.12 108.212 153.294 101.092 146.174 95.2662C139.054 89.4405 130.315 84.9094 120.282 81.9965C110.249 79.0836 99.2445 77.4653 87.2694 77.4653C74.9706 77.4653 63.3192 79.0836 52.9623 81.9965C42.6054 85.233 33.2195 89.7641 25.4519 95.5899C17.6842 101.739 11.5349 108.86 7.00374 117.275C2.47261 125.689 0.207031 135.399 0.207031 145.756C0.207031 148.021 0.207051 149.963 0.530703 151.905C0.692529 152.876 0.773439 153.847 0.85435 154.818C0.93526 155.789 1.01617 156.76 1.178 157.731L1.50167 160.968H65.5847L64.9374 156.76C64.6138 155.466 64.6138 154.495 64.6138 153.2V153.2V148.992C64.6138 146.08 64.9374 143.167 65.2611 140.254C65.5847 137.665 66.232 135.399 67.5266 133.457C68.8212 131.515 70.4395 130.221 72.3814 128.926C74.647 127.955 77.2362 127.308 80.7964 127.308C83.3856 127.308 85.6511 127.631 87.593 128.602C89.535 129.573 91.4769 130.868 92.7715 132.486C94.0661 134.104 95.3607 136.046 96.008 137.988C96.979 140.254 97.3026 142.519 97.3026 144.785C97.3026 148.345 96.3316 151.582 94.7134 154.494C93.0951 157.731 90.8296 160.968 87.9167 163.88C85.0039 167.117 81.7674 170.03 78.531 172.942L78.5308 172.943C77.2257 174.248 75.8679 175.5 74.5212 176.743C72.5283 178.581 70.5595 180.397 68.8212 182.329C65.9084 185.565 62.9955 189.125 61.0536 192.685C58.788 196.569 57.4934 200.777 57.4934 204.984V230.553ZM109.601 223.109H65.5847V204.661C65.5847 201.748 66.232 198.835 67.8503 196.246C69.4686 193.333 71.7341 190.42 74.647 187.507C77.5594 184.595 80.7954 181.682 84.0315 178.77L84.0329 178.768C85.1117 177.69 86.2265 176.611 87.3413 175.532C89.5709 173.374 91.8006 171.217 93.7425 169.059C96.6553 165.822 99.5682 161.938 101.51 158.378C103.452 154.494 104.747 149.963 104.747 145.109C104.747 141.872 104.099 138.636 103.128 135.723C101.834 132.486 100.215 129.897 98.2736 127.631C96.3317 125.366 93.7424 123.424 90.8296 122.129C87.9167 120.511 84.6802 119.864 80.7964 119.864C75.9416 119.864 72.0577 120.511 68.8212 122.453C65.5847 124.395 62.9955 126.66 61.3773 129.573C59.4354 132.163 58.4644 135.399 57.8171 138.959C57.4934 142.196 57.1698 145.756 57.1698 148.992V153.2V153.524H8.29833C8.29833 153.2 8.21742 152.795 8.13652 152.391C8.05561 151.986 7.97471 151.582 7.97471 151.258C7.65105 149.64 7.65103 148.021 7.65103 146.08C7.65103 136.694 9.59296 128.279 13.4768 120.835C17.3606 113.391 22.8627 106.918 29.6594 101.739C36.7797 96.5608 45.1947 92.3533 54.9042 89.4404C64.6138 86.5276 75.618 85.233 87.2694 85.233C98.5972 85.233 108.954 86.5276 118.016 89.4404C127.402 92.3533 135.17 96.2372 141.643 101.416C148.116 106.594 152.971 112.743 156.531 119.864C159.767 126.984 161.709 135.075 161.709 143.814C161.709 149.963 160.415 155.789 158.149 160.644C155.884 165.499 152.647 170.353 149.087 174.237C145.527 178.445 141.319 182.005 137.112 185.241C134.23 187.506 131.479 189.508 128.859 191.416C127.359 192.507 125.903 193.567 124.489 194.627C120.606 197.54 117.045 200.453 114.456 203.042C111.22 206.602 109.601 210.163 109.601 213.723V223.109ZM57.4922 299.167H117.691V242.528H57.4922V299.167ZM110.247 291.723H64.9362V249.972H110.247V291.723Z" fill="url(#paint0_linear_251_8588)"/>
<path fill-rule="evenodd" clip-rule="evenodd" d="M198.607 334.122H256.864V318.263C256.864 316.644 257.512 315.026 259.454 313.084C261.719 310.819 264.956 308.229 268.516 305.64C270.721 304.17 272.926 302.491 275.249 300.723C277.018 299.376 278.856 297.977 280.815 296.578C285.669 293.341 289.877 289.458 293.761 284.926C297.644 280.395 301.205 275.217 303.794 269.715C306.707 263.889 308.001 257.416 308.001 249.972C308.001 240.262 306.059 231.2 302.176 223.109C298.292 215.018 292.79 207.897 285.669 202.395C278.873 196.893 270.134 192.362 260.425 189.449C250.715 186.536 239.711 184.918 228.059 184.918C216.084 184.918 204.756 186.536 194.4 189.449C184.043 192.362 174.657 196.893 167.213 202.719C159.445 208.545 153.296 215.665 149.088 223.756C144.881 232.171 142.615 241.557 142.615 251.914C142.615 254.18 142.615 256.121 142.939 258.063C143.107 258.906 143.188 259.837 143.273 260.809C143.35 261.704 143.431 262.635 143.586 263.565L143.91 266.802H206.698L206.051 262.594C205.727 261.3 205.727 260.329 205.727 259.034V255.15C205.727 252.238 206.051 249.325 206.375 246.412C206.698 243.823 207.346 241.557 208.64 239.615C209.611 237.673 211.229 236.379 213.171 235.084C215.113 234.113 217.702 233.466 221.263 233.466C223.852 233.466 226.117 233.789 228.059 234.76C230.325 235.731 231.943 237.026 233.238 238.644C234.856 240.262 235.827 242.204 236.474 244.146C237.122 246.412 237.445 248.677 237.445 250.943C237.445 254.503 236.798 257.416 235.18 260.329C233.238 263.242 230.972 266.478 228.383 269.391C225.47 272.304 222.557 275.217 219.321 278.13C215.761 281.043 212.524 283.955 209.611 287.192C206.375 290.429 203.785 293.665 201.844 297.225C199.578 300.785 198.607 304.993 198.607 309.2V334.122ZM249.744 326.678H206.051V309.524C206.051 306.611 206.698 303.698 208.317 301.109C210.258 298.196 212.524 295.283 215.113 292.37L215.115 292.368C218.028 289.456 220.94 286.544 224.176 283.632C227.736 280.719 230.972 277.482 233.885 274.246C237.122 270.686 239.711 267.126 241.653 263.565C243.918 259.682 244.889 255.474 244.889 250.619C244.889 247.383 244.242 244.47 243.271 241.557C242.3 238.644 240.682 236.055 238.74 233.789C236.798 231.524 234.209 229.582 231.296 228.287C228.383 226.669 224.823 226.022 221.263 226.022C216.732 226.022 212.848 226.669 209.611 228.611C206.698 230.553 204.109 232.818 202.491 235.731C200.873 238.644 199.902 241.557 199.254 245.117C198.931 248.354 198.607 251.59 198.607 254.827V258.387V258.711H151.03C150.707 258.063 150.707 257.092 150.707 256.445C150.383 254.827 150.383 253.209 150.383 251.267V251.267C150.383 242.204 152.325 233.789 156.209 226.669C159.769 219.225 165.271 213.076 172.068 207.897C178.864 202.719 187.279 198.835 196.665 195.922C206.375 193.009 217.055 191.715 228.383 191.715C239.387 191.715 249.42 193.333 258.483 195.922C267.545 198.511 274.989 202.719 281.462 207.574C287.611 212.752 292.466 218.578 296.026 225.698C299.586 232.818 301.205 240.586 301.205 249.325C301.205 255.474 299.91 260.976 297.645 265.831C295.055 270.686 292.142 275.217 288.582 279.101C285.022 282.985 281.138 286.545 276.931 289.781C272.4 293.018 268.516 295.931 264.632 298.843C260.748 301.756 257.188 304.669 254.599 307.258C251.362 310.495 249.744 314.055 249.744 317.615V326.678ZM198.609 401.118H257.838V345.45H198.609V401.118ZM250.394 393.674H206.053V352.894H250.394V393.674Z" fill="url(#paint1_linear_251_8588)"/>
<path fill-rule="evenodd" clip-rule="evenodd" d="M198.929 117.598H245.858H246.505V104.005C246.505 103.034 247.153 102.063 248.447 100.769C250.065 98.8266 252.331 96.8847 255.244 94.9428L255.246 94.9409C258.158 92.676 261.071 90.4109 264.63 87.8224C268.19 84.9096 271.427 81.9967 274.663 78.4365C277.9 74.8764 280.489 70.9926 282.754 66.4614C285.02 61.9303 285.991 56.7519 285.991 50.9261C285.991 43.4821 284.696 36.3618 281.46 29.8888C278.223 23.7394 273.692 18.2373 268.19 13.7062C262.364 9.49869 255.891 5.9385 248.124 3.67293C240.356 1.40737 231.941 0.112793 222.879 0.112793C213.493 0.112793 204.754 1.40737 196.663 3.67293C188.248 5.9385 181.128 9.49871 175.302 14.0298C169.153 18.8846 164.621 24.3867 161.061 30.8597C157.501 37.3328 155.883 44.7768 155.883 52.8681V52.8685C155.883 54.4866 155.883 56.1047 156.206 57.7228L156.854 65.4905H207.02L206.372 61.283C206.049 60.3121 206.049 59.6648 206.049 58.694V58.6938V55.4572C206.049 53.4466 206.304 51.6908 206.587 49.7375C206.623 49.4899 206.66 49.2391 206.696 48.9842C207.02 47.0423 207.343 45.424 208.314 44.1294C208.962 42.8348 210.256 41.8639 211.551 40.8929L211.551 40.8929C212.846 39.9219 214.787 39.5983 217.377 39.5983C219.319 39.5983 220.937 39.922 222.231 40.5693C223.526 41.2166 224.821 42.1875 225.792 43.1585C226.763 44.1295 227.41 45.4241 228.057 47.0423C228.705 48.6606 229.028 50.2788 229.028 51.8971C229.028 54.4863 228.704 56.7518 227.41 58.6938C226.115 60.9593 224.173 63.2249 222.231 65.4905L222.231 65.491C219.966 67.7564 217.7 70.0218 215.111 72.2872C212.522 74.5527 209.933 77.1419 207.667 79.4075C205.078 81.9967 203.136 84.9096 201.518 87.4988C199.899 90.4117 198.929 93.6482 198.929 97.2084V117.598ZM238.414 110.154H206.696V97.8557C206.696 95.5901 207.02 93.6482 208.314 91.7063C209.305 89.9732 210.674 88.4295 212.132 86.7854C212.58 86.2803 213.036 85.7657 213.493 85.2333L213.493 85.2327C215.759 82.9673 218.024 80.7019 220.613 78.4365C221.489 77.5611 222.364 76.7227 223.227 75.8963C224.916 74.2784 226.558 72.7064 228.057 70.9925C230.646 68.4033 232.588 65.4905 234.207 62.5776C235.825 59.3411 236.796 55.7809 236.796 51.8971C236.796 49.3079 236.472 46.7187 235.501 44.4531C234.53 41.8639 233.236 39.922 231.617 37.9801C229.999 36.0381 228.057 34.4199 225.792 33.4489C223.526 32.478 220.613 31.8307 217.7 31.8307C213.816 31.8307 210.58 32.478 207.991 34.0962C205.725 35.7145 203.46 37.6564 202.165 39.922C200.87 41.8639 199.899 44.4531 199.576 47.3659C199.252 49.9552 198.929 52.5444 198.929 55.1336V57.7228H163.65V56.7519C163.327 55.4574 163.327 54.1629 163.327 52.8684V52.8681C163.327 45.7477 164.621 39.5983 167.534 34.0962C170.123 28.5942 174.331 23.7394 179.509 19.8555C184.688 15.9717 191.161 13.0589 198.281 10.7933C205.725 8.52775 213.816 7.5568 222.555 7.5568C230.97 7.5568 238.738 8.52775 245.534 10.7933C252.331 12.7352 258.157 15.6481 263.012 19.5319C267.543 23.0921 271.427 27.9468 274.016 33.1253C276.605 38.3037 277.9 44.4531 277.9 50.9261C277.9 55.4573 276.929 59.6647 275.31 63.2249C273.368 66.7851 271.103 70.3452 268.514 73.2581C265.601 76.4946 262.688 79.4075 259.451 81.6731C257.594 83.1589 255.737 84.5381 253.941 85.8719C252.607 86.8624 251.307 87.8279 250.065 88.7934C247.153 91.059 244.24 93.3245 242.298 95.2664C239.709 98.1793 238.414 101.092 238.414 104.005V110.154ZM198.932 169.382H246.508V124.718H198.932V169.382ZM239.064 161.938H206.376V132.162H239.064V161.938Z" fill="url(#paint2_linear_251_8588)"/>
<defs>
<linearGradient id="paint0_linear_251_8588" x1="26.4905" y1="100.07" x2="139.568" y2="293.052" gradientUnits="userSpaceOnUse">
<stop stop-color="white"/>
<stop offset="1" stop-color="#84AAF7"/>
</linearGradient>
<linearGradient id="paint1_linear_251_8588" x1="168.296" y1="206.962" x2="278.464" y2="395.339" gradientUnits="userSpaceOnUse">
<stop stop-color="white"/>
<stop offset="1" stop-color="#84AAF7"/>
</linearGradient>
<linearGradient id="paint2_linear_251_8588" x1="176.085" y1="17.3718" x2="262.136" y2="165.217" gradientUnits="userSpaceOnUse">
<stop stop-color="white"/>
<stop offset="1" stop-color="#84AAF7"/>
</linearGradient>
</defs>
</svg>
