<svg width="57" height="24" viewBox="0 0 57 24" fill="none" xmlns="http://www.w3.org/2000/svg">
<rect width="57" height="24" fill="#679BF4"/>
<path d="M32.244 21V17.76H33.272C33.4667 17.76 33.6253 17.7973 33.748 17.872C33.8707 17.944 33.9613 18.0493 34.02 18.188C34.0813 18.3267 34.112 18.4947 34.112 18.692C34.112 18.924 34.072 19.1053 33.992 19.236C33.9147 19.3667 33.808 19.46 33.672 19.516C33.536 19.5693 33.38 19.596 33.204 19.596H32.904V21H32.244ZM32.904 19.132H33.136C33.232 19.132 33.3053 19.1173 33.356 19.088C33.4093 19.056 33.4453 19.0067 33.464 18.94C33.4827 18.8733 33.492 18.788 33.492 18.684C33.492 18.5853 33.484 18.5027 33.468 18.436C33.4547 18.3693 33.4227 18.3173 33.372 18.28C33.3213 18.2427 33.2413 18.224 33.132 18.224H32.904V19.132ZM34.4513 21L35.0793 17.76H35.8113L36.4353 21H35.8233L35.7073 20.288H35.1953L35.0713 21H34.4513ZM35.2553 19.884H35.6433L35.4473 18.576L35.2553 19.884ZM37.1037 21V17.76H37.9437C38.1624 17.76 38.349 17.7853 38.5037 17.836C38.661 17.884 38.781 17.9707 38.8637 18.096C38.949 18.2213 38.9917 18.3947 38.9917 18.616C38.9917 18.7493 38.9797 18.868 38.9557 18.972C38.9344 19.0733 38.8944 19.1627 38.8357 19.24C38.7797 19.3147 38.6997 19.3747 38.5957 19.42L39.0437 21H38.3677L37.9957 19.532H37.7637V21H37.1037ZM37.7637 19.14H37.9557C38.0624 19.14 38.1464 19.1227 38.2077 19.088C38.269 19.0533 38.3117 19.0013 38.3357 18.932C38.3624 18.86 38.3757 18.772 38.3757 18.668C38.3757 18.5187 38.3477 18.4053 38.2917 18.328C38.2384 18.248 38.137 18.208 37.9877 18.208H37.7637V19.14ZM40.9557 21L41.5837 17.76H42.3157L42.9397 21H42.3277L42.2117 20.288H41.6997L41.5757 21H40.9557ZM41.7597 19.884H42.1477L41.9517 18.576L41.7597 19.884ZM43.947 21L43.331 17.76H43.903L44.287 20L44.647 17.76H45.243L44.627 21H43.947ZM45.9248 21V17.76H46.5808V21H45.9248ZM48.321 21.044C48.0836 21.044 47.8956 21.0013 47.757 20.916C47.6183 20.8307 47.5183 20.7093 47.457 20.552C47.3983 20.392 47.369 20.2013 47.369 19.98V18.772C47.369 18.5507 47.3983 18.3613 47.457 18.204C47.5183 18.0467 47.6183 17.9267 47.757 17.844C47.8956 17.7613 48.0836 17.72 48.321 17.72C48.561 17.72 48.7503 17.7627 48.889 17.848C49.0303 17.9307 49.1303 18.0507 49.189 18.208C49.2503 18.3627 49.281 18.5507 49.281 18.772V19.98C49.281 20.2013 49.2503 20.392 49.189 20.552C49.1303 20.7093 49.0303 20.8307 48.889 20.916C48.7503 21.0013 48.561 21.044 48.321 21.044ZM48.321 20.568C48.4063 20.568 48.469 20.5493 48.509 20.512C48.549 20.472 48.5756 20.42 48.589 20.356C48.6023 20.2893 48.609 20.2187 48.609 20.144V18.612C48.609 18.5373 48.6023 18.468 48.589 18.404C48.5756 18.34 48.549 18.2893 48.509 18.252C48.469 18.212 48.4063 18.192 48.321 18.192C48.241 18.192 48.181 18.212 48.141 18.252C48.101 18.2893 48.0743 18.34 48.061 18.404C48.0476 18.468 48.041 18.5373 48.041 18.612V20.144C48.041 20.2187 48.0463 20.2893 48.057 20.356C48.0703 20.42 48.097 20.472 48.137 20.512C48.177 20.5493 48.2383 20.568 48.321 20.568ZM50.0617 21V17.76H50.5217L51.2417 19.448V17.76H51.7857V21H51.3457L50.6257 19.208V21H50.0617Z" fill="white"/>
<path d="M6.08982 15.9211L9.16024 7H11.3527L12.0322 15.9211H10.1991L10.1131 13.9606H8.57959L7.9468 15.9211H6.08982ZM8.90761 12.8482H10.0697L9.96287 9.24678L8.90761 12.8482Z" fill="white"/>
<path d="M14.0579 15.9211L15.2474 7H17.2122L16.0227 15.9211H14.0579Z" fill="white"/>
<path d="M18.5271 15.9211L19.7166 7H22.2325C22.8874 7 23.4372 7.06975 23.8818 7.20926C24.3354 7.34142 24.663 7.58005 24.8646 7.92515C25.0742 8.27024 25.1384 8.7475 25.0571 9.35692C25.0082 9.72404 24.9286 10.0508 24.8186 10.3371C24.7175 10.6161 24.5649 10.8621 24.3608 11.075C24.1656 11.2806 23.904 11.4458 23.5759 11.5707L24.3376 15.9211H22.3129L21.7377 11.879H21.0428L20.5039 15.9211H18.5271ZM21.1867 10.7997H21.7618C22.0813 10.7997 22.3392 10.752 22.5356 10.6565C22.7321 10.5611 22.879 10.4179 22.9763 10.227C23.0826 10.0288 23.1548 9.78645 23.193 9.5001C23.2478 9.08892 23.2056 8.77687 23.0662 8.56394C22.9359 8.34366 22.6471 8.23353 22.1998 8.23353H21.5289L21.1867 10.7997Z" fill="white"/>
<path d="M26.4942 15.9211L27.8514 7H29.948L30.3957 12.628L32.428 7H34.4527L33.4309 15.9211H31.9933L32.6437 9.87456L30.6035 15.9211H29.3695L28.8877 9.83051L27.9439 15.9211H26.4942Z" fill="white"/>
<path d="M35.3995 15.9211L38.4699 7H40.6623L41.3418 15.9211H39.5088L39.4227 13.9606H37.8892L37.2565 15.9211H35.3995ZM38.2173 12.8482H39.3794L39.2725 9.24678L38.2173 12.8482Z" fill="white"/>
<path d="M43.3675 15.9211L44.557 7H46.5218L45.3323 15.9211H43.3675Z" fill="white"/>
<path d="M47.8367 15.9211L49.0262 7H51.003L49.978 14.6875H52.2543L52.0898 15.9211H47.8367Z" fill="white"/>
<line x1="9" y1="3.5" x2="51" y2="3.5" stroke="#7DA8F3"/>
<line x1="5" y1="19.5" x2="29" y2="19.5" stroke="#7DA8F3"/>
</svg>
