<svg width="50" height="32" viewBox="0 0 50 32" fill="none" xmlns="http://www.w3.org/2000/svg">
<g id="Bitcoin">
<g id="Bitcoin_2">
<rect id="Rectangle" width="50" height="32" rx="3" fill="#F7931A"/>
<g id="Group">
<g id="Group_2">
<path id="Vector" d="M14.3315 22.5309C14.6317 22.5309 14.891 22.5847 15.109 22.6903C15.3279 22.797 15.5086 22.9406 15.6535 23.1213C15.7965 23.3029 15.9029 23.5151 15.9716 23.7584C16.0399 24.0023 16.0741 24.2646 16.0741 24.5453C16.0741 24.9765 15.9951 25.3839 15.8356 25.7679C15.6761 26.1525 15.4597 26.4861 15.1844 26.7707C14.9093 27.0549 14.5845 27.2789 14.21 27.4444C13.836 27.6101 13.4294 27.6929 12.9929 27.6929C12.9365 27.6929 12.8372 27.6913 12.697 27.6884C12.5568 27.6855 12.3957 27.671 12.2153 27.6466C12.0337 27.6213 11.8416 27.5838 11.6389 27.5336C11.4362 27.4843 11.2438 27.4153 11.0625 27.3276L12.6833 20.5175L14.1349 20.2925L13.5546 22.7092C13.6788 22.6532 13.804 22.6098 13.9289 22.5782C14.0539 22.5471 14.1881 22.5309 14.3315 22.5309ZM13.1139 26.5413C13.3325 26.5413 13.5385 26.4875 13.732 26.3819C13.9261 26.2762 14.0936 26.1334 14.2339 25.9556C14.3742 25.7771 14.4853 25.5759 14.5662 25.3512C14.6472 25.1264 14.6882 24.892 14.6882 24.648C14.6882 24.3483 14.6381 24.1145 14.5382 23.9455C14.4384 23.7773 14.2537 23.6926 13.9855 23.6926C13.8976 23.6926 13.7843 23.7094 13.6439 23.7393C13.503 23.7711 13.3769 23.8372 13.2639 23.9365L12.646 26.503C12.6833 26.5096 12.7162 26.5158 12.7443 26.5217C12.7719 26.5281 12.8023 26.5326 12.8326 26.5357C12.8646 26.5393 12.9013 26.5412 12.9456 26.5412C12.9899 26.5412 13.0453 26.5413 13.1139 26.5413Z" fill="white"/>
<path id="Vector_2" d="M17.5799 27.563H16.1934L17.3643 22.6358H18.7603L17.5799 27.563ZM18.2546 22.0355C18.0611 22.0355 17.8856 21.9779 17.7299 21.8625C17.5729 21.7477 17.4952 21.5711 17.4952 21.333C17.4952 21.2021 17.5218 21.0793 17.5746 20.9634C17.6281 20.8477 17.6981 20.7481 17.7858 20.6634C17.8733 20.5794 17.9748 20.5124 18.09 20.4618C18.2059 20.4121 18.3292 20.3872 18.4606 20.3872C18.654 20.3872 18.8285 20.4448 18.9848 20.5602C19.1405 20.6763 19.2188 20.8529 19.2188 21.0897C19.2188 21.2211 19.1923 21.3444 19.1391 21.46C19.0863 21.5757 19.0163 21.6753 18.9286 21.76C18.8417 21.8441 18.7394 21.9109 18.6244 21.961C18.5084 22.0115 18.3855 22.0355 18.2546 22.0355Z" fill="white"/>
<path id="Vector_3" d="M19.9754 21.4081L21.4277 21.1831L21.0711 22.6354H22.6264L22.3455 23.778H20.7996L20.3878 25.5015C20.3499 25.6452 20.3283 25.7793 20.3223 25.904C20.3155 26.0293 20.3314 26.1369 20.3688 26.2274C20.4061 26.3182 20.4731 26.3882 20.5702 26.4377C20.6669 26.488 20.8054 26.5134 20.987 26.5134C21.1365 26.5134 21.2823 26.4992 21.4232 26.4709C21.5632 26.4432 21.7052 26.4045 21.8488 26.354L21.9522 27.4223C21.7648 27.491 21.562 27.5501 21.3433 27.5999C21.1244 27.6503 20.8652 27.6746 20.5656 27.6746C20.1348 27.6746 19.8009 27.6106 19.563 27.4833C19.3254 27.355 19.1574 27.1798 19.0569 26.9579C18.9578 26.7369 18.9135 26.482 18.9259 26.1949C18.9387 25.9072 18.9821 25.6047 19.0569 25.2861L19.9754 21.4081Z" fill="white"/>
<path id="Vector_4" d="M22.5645 25.5949C22.5645 25.1705 22.6332 24.7703 22.7705 24.3956C22.9075 24.0206 23.105 23.6927 23.3612 23.4113C23.6165 23.1312 23.9275 22.9094 24.2936 22.7465C24.658 22.5846 25.0659 22.5029 25.5155 22.5029C25.7969 22.5029 26.0483 22.5295 26.2695 22.5829C26.4915 22.6366 26.6925 22.7062 26.8742 22.7934L26.396 23.8807C26.2711 23.83 26.1414 23.7854 26.0074 23.7449C25.8732 23.7036 25.7094 23.6837 25.5156 23.6837C25.0528 23.6837 24.687 23.8432 24.4147 24.1612C24.1435 24.4794 24.0068 24.9077 24.0068 25.445C24.0068 25.7634 24.0756 26.0209 24.2134 26.2179C24.3506 26.4149 24.604 26.5128 24.972 26.5128C25.1536 26.5128 25.3288 26.4939 25.4967 26.4569C25.6658 26.4194 25.8151 26.3722 25.9466 26.3164L26.0501 27.431C25.8748 27.499 25.6814 27.5605 25.4693 27.6142C25.2567 27.6662 25.0036 27.6931 24.7101 27.6931C24.3227 27.6931 23.9948 27.6365 23.7266 27.5248C23.4582 27.4115 23.2365 27.261 23.0618 27.0704C22.8862 26.8793 22.7602 26.6562 22.6822 26.4001C22.6042 26.1442 22.5645 25.8754 22.5645 25.5949Z" fill="white"/>
<path id="Vector_5" d="M28.7241 27.6931C28.3932 27.6931 28.1058 27.6427 27.8619 27.5429C27.6188 27.443 27.4174 27.303 27.2581 27.1214C27.0986 26.9407 26.9793 26.7266 26.8975 26.4799C26.8157 26.2333 26.7764 25.9602 26.7764 25.6609C26.7764 25.2856 26.8366 24.9104 26.9584 24.5362C27.0797 24.1612 27.2595 23.8242 27.4976 23.5248C27.7338 23.2248 28.0251 22.9796 28.3682 22.7884C28.7109 22.5985 29.1051 22.5029 29.5479 22.5029C29.8728 22.5029 30.1588 22.5535 30.406 22.6533C30.652 22.7529 30.8546 22.8941 31.0148 23.0748C31.1733 23.2564 31.2937 23.4696 31.3747 23.7166C31.4562 23.9628 31.4965 24.2366 31.4965 24.536C31.4965 24.9102 31.437 25.2855 31.319 25.6608C31.201 26.0343 31.0257 26.3721 30.7944 26.6722C30.5635 26.9717 30.2748 27.2168 29.928 27.4072C29.5817 27.5976 29.1801 27.6931 28.7241 27.6931ZM29.4171 23.6838C29.2116 23.6838 29.0298 23.7435 28.8743 23.8613C28.7181 23.9806 28.5869 24.1305 28.4812 24.3113C28.3743 24.4929 28.2951 24.6909 28.2415 24.9062C28.1885 25.1219 28.1624 25.3258 28.1624 25.5196C28.1624 25.8322 28.2129 26.0757 28.312 26.251C28.4125 26.4253 28.5931 26.513 28.8555 26.513C29.0618 26.513 29.2426 26.4537 29.3991 26.3346C29.5543 26.2163 29.6856 26.0662 29.7921 25.8851C29.8983 25.7044 29.9782 25.5058 30.0318 25.2902C30.0842 25.0752 30.1109 24.8701 30.1109 24.6767C30.1109 24.3649 30.0607 24.1208 29.9606 23.9458C29.8607 23.7715 29.6793 23.6838 29.4171 23.6838Z" fill="white"/>
<path id="Vector_6" d="M33.0029 27.563H31.6152L32.7862 22.6358H34.1829L33.0029 27.563ZM33.6766 22.0355C33.4832 22.0355 33.3078 21.9779 33.1524 21.8625C32.9962 21.7477 32.9178 21.5711 32.9178 21.333C32.9178 21.2021 32.9447 21.0793 32.9976 20.9634C33.0505 20.8477 33.1209 20.7481 33.2086 20.6634C33.2957 20.5794 33.398 20.5124 33.513 20.4618C33.6282 20.4121 33.7515 20.3872 33.8825 20.3872C34.0763 20.3872 34.2515 20.4448 34.4074 20.5602C34.5634 20.6763 34.6422 20.8529 34.6422 21.0897C34.6422 21.2211 34.6142 21.3444 34.5618 21.46C34.5094 21.5757 34.439 21.6753 34.3516 21.76C34.2637 21.8441 34.1626 21.9109 34.0474 21.961C33.9313 22.0115 33.8082 22.0355 33.6766 22.0355Z" fill="white"/>
<path id="Vector_7" d="M35.1869 22.8596C35.2921 22.8288 35.4097 22.7918 35.5375 22.7516C35.6657 22.7113 35.8091 22.6738 35.9691 22.6401C36.1275 22.6053 36.3062 22.577 36.5027 22.5552C36.6993 22.5328 36.9232 22.522 37.172 22.522C37.9032 22.522 38.4073 22.7349 38.6856 23.1595C38.9637 23.5842 39.0118 24.1653 38.8314 24.9019L38.1936 27.5623H36.7979L37.4161 24.9579C37.4538 24.7952 37.4834 24.638 37.5052 24.4844C37.5273 24.3322 37.5261 24.198 37.5003 24.0819C37.4756 23.9671 37.4176 23.8732 37.3274 23.8005C37.236 23.7289 37.0977 23.6929 36.9102 23.6929C36.7294 23.6929 36.5455 23.7123 36.3578 23.7498L35.449 27.5621H34.0527L35.1869 22.8596Z" fill="white"/>
</g>
<g id="Bitcoin_3">
<g id="Group_3">
<path id="Vector_8" d="M31.3022 12.6724C30.4345 16.1526 26.9092 18.2706 23.4282 17.4028C19.9486 16.5351 17.8303 13.01 18.6985 9.53004C19.5659 6.04944 23.0911 3.93123 26.5711 4.79889C30.0519 5.66656 32.17 9.19203 31.3022 12.6724Z" fill="white"/>
<path id="Vector_9" d="M27.8654 10.1754C27.9948 9.31098 27.3365 8.84629 26.4365 8.5363L26.7285 7.36534L26.0156 7.1877L25.7314 8.32781C25.544 8.28111 25.3515 8.23706 25.1602 8.19341L25.4465 7.0458L24.7341 6.86816L24.4419 8.03872C24.2868 8.0034 24.1345 7.96848 23.9867 7.93173L23.9875 7.92808L23.0044 7.68264L22.8148 8.44393C22.8148 8.44393 23.3437 8.56513 23.3325 8.57264C23.6212 8.64471 23.6734 8.83574 23.6647 8.98718L23.3321 10.3212C23.352 10.3262 23.3778 10.3335 23.4062 10.3449C23.3825 10.339 23.3571 10.3325 23.3309 10.3262L22.8647 12.1949C22.8294 12.2826 22.7399 12.4142 22.538 12.3643C22.5452 12.3746 22.0199 12.2349 22.0199 12.2349L21.666 13.0508L22.5937 13.2821C22.7663 13.3253 22.9354 13.3706 23.1019 13.4132L22.8069 14.5976L23.5189 14.7752L23.8111 13.6034C24.0056 13.6562 24.1944 13.7049 24.3792 13.7508L24.088 14.9171L24.8009 15.0947L25.0959 13.9126C26.3114 14.1426 27.2255 14.0498 27.6102 12.9505C27.9203 12.0654 27.5948 11.5549 26.9552 11.2219C27.421 11.1145 27.7718 10.8082 27.8654 10.1754ZM26.2367 12.4591C26.0164 13.3442 24.5259 12.8657 24.0427 12.7457L24.4342 11.1766C24.9174 11.2972 26.467 11.536 26.2367 12.4591ZM26.4572 10.1626C26.2562 10.9677 25.0157 10.5587 24.6133 10.4584L24.9682 9.0353C25.3706 9.13558 26.6665 9.32276 26.4572 10.1626Z" fill="#F7931A"/>
</g>
</g>
</g>
</g>
</g>
</svg>
