<svg width="83" height="52" viewBox="0 0 83 52" fill="none" xmlns="http://www.w3.org/2000/svg">
<mask id="mask0_85_5853" style="mask-type:alpha" maskUnits="userSpaceOnUse" x="0" y="0" width="83" height="52">
<rect x="0.799805" width="82.2" height="51.375" rx="2.35717" fill="url(#paint0_linear_85_5853)"/>
</mask>
<g mask="url(#mask0_85_5853)">
<path d="M36.3756 37.6239V30.145L32.835 33.8284L36.3756 37.6239Z" fill="white"/>
<path d="M21.5371 31.0833V32.7668L26.5997 32.7566V34.685H21.5371V36.5317H27.2127L29.855 33.7973L27.3184 31.0833H21.5371Z" fill="white"/>
<path d="M43.0437 16.9115C43.3396 16.7483 43.5193 16.4218 43.5193 16.0238C43.5193 15.6259 43.329 15.3402 43.0437 15.1872C42.7689 15.0341 42.3567 15.0239 41.9445 15.0239H39.0908V17.1054H41.9128C42.3567 17.1054 42.7266 17.085 43.0437 16.9115Z" fill="white"/>
<path d="M5.0498 18.3802H8.20996L6.6246 14.6663L5.0498 18.3802Z" fill="white"/>
<path d="M41.7026 31.0833H38.6904V33.43H41.6815C42.5587 33.43 43.1083 33.0219 43.1083 32.2158C43.0977 31.4098 42.527 31.0833 41.7026 31.0833Z" fill="white"/>
<path d="M5.64045 22.1659H7.62744L8.52581 24.2575H16.2941V22.6658L16.9917 24.2575H21.0079L21.7055 22.6454V24.2575H41.0046V20.8497H41.3851C41.6599 20.8497 41.7339 20.8803 41.7339 21.2986V24.2575H51.7111V23.4515C52.5038 23.8698 53.7509 24.2575 55.4209 24.2575H59.6168L60.5257 22.1659H62.5127L63.4111 24.2575H71.4753V22.2781L72.7119 24.2575H79.1908V11.2383H72.7859V12.7688L71.8664 11.2383H65.2818V12.7688L64.4786 11.2383H55.5794C54.0786 11.2383 52.7575 11.4321 51.7111 11.9831V11.2383H45.581V11.9831C44.8623 11.4219 43.964 11.2383 42.9493 11.2383H20.5112L18.9892 14.5951L17.4673 11.2383H10.4071V12.7688L9.60386 11.2383H3.57948L0.799805 17.4112V24.2575H4.74208L5.64045 22.1659ZM52.1444 14.1666C52.8843 13.4218 54.068 13.0749 55.664 13.0749H57.8729V15.0747H55.7062C54.8501 15.0747 54.3745 15.1971 53.9201 15.6358C53.5184 16.0236 53.2436 16.7684 53.2436 17.7479C53.2436 18.7478 53.4444 19.4518 53.8989 19.9416C54.2371 20.3089 54.8818 20.4211 55.5054 20.4211H56.5412L59.7965 13.0749H63.242L67.1631 21.9108V13.0749H70.6932L74.7517 19.5743V13.0749H77.1298V22.421H73.8322L69.4672 15.4216V22.421H64.7639L63.8761 20.3293H59.0672L58.1794 22.421H55.4948C54.364 22.421 52.9371 22.1659 52.1339 21.3802C51.3201 20.5844 50.9079 19.5131 50.9079 17.8193C50.9079 16.4317 51.1615 15.1665 52.1444 14.1666ZM47.4095 13.0749H49.777V22.421H47.4095V13.0749ZM36.7876 13.0749H42.1144C43.2875 13.0749 44.1542 13.1157 44.8941 13.5238C45.6339 13.9421 46.0884 14.5543 46.0884 15.595C46.0884 17.0745 45.0526 17.8397 44.4396 18.0744C44.9469 18.2581 45.3802 18.5948 45.581 18.8703C45.9087 19.3192 45.9615 19.7477 45.9615 20.564V22.421H43.6363V21.2374C43.6363 20.6864 43.6892 19.8702 43.2558 19.4314C42.9282 19.0947 42.4209 19.0233 41.5754 19.0233H39.0916V22.421H36.777V13.0749H36.7876ZM27.4656 13.0749H35.1811V15.0237H29.7697V16.7072H35.0437V18.6254H29.7697V20.4722L35.1811 20.4619V22.4108H27.4656V13.0749ZM3.33639 22.421H0.820943L4.95346 13.0749H8.39898L12.3201 21.9108V13.0749H16.1038L19.116 19.411L21.8957 13.0749H25.7429V22.421H23.3754V15.1053L20.025 22.421H17.9957L14.6347 15.0951V22.421H9.92093L9.03313 20.3293H4.22419L3.33639 22.421Z" fill="white"/>
<path d="M61.4654 14.6664L59.8906 18.3803H63.0402L61.4654 14.6664Z" fill="white"/>
<path d="M77.881 31.2975C77.6379 31.4506 77.5322 31.675 77.5322 31.9709C77.5322 32.3178 77.7436 32.5627 78.0395 32.6648C78.2721 32.7464 78.5363 32.7668 78.9273 32.7668L80.1639 32.7974C81.4428 32.828 82.2883 33.0321 82.8062 33.5524C82.8802 33.6239 82.9436 33.6953 82.9965 33.7667V31.1343H78.8005C78.3883 31.1343 78.103 31.1547 77.881 31.2975Z" fill="white"/>
<path d="M79.877 38.4702H75.4168V36.4704H79.8558C80.2892 36.4704 80.5957 36.4092 80.7859 36.2459C80.9444 36.1031 81.0607 35.899 81.0607 35.6337C81.0607 35.3582 80.9444 35.144 80.7753 35.0113C80.6062 34.8685 80.3631 34.8073 79.9721 34.8073C77.816 34.746 75.0997 34.8787 75.0997 31.9096C75.0997 30.5729 75.977 29.1343 78.4079 29.1343H83.0054V27.2977H78.7249C77.4461 27.2977 76.4843 27.5834 75.829 28.0426V27.2977H69.5193C68.5152 27.2977 67.3103 27.5324 66.7501 28.0426V27.2977H55.4518V28.0426C54.5534 27.4304 53.042 27.2977 52.3233 27.2977H44.8721V28.0426C44.164 27.3794 42.5998 27.2977 41.638 27.2977H33.2884L31.3754 29.2976L29.5998 27.2977H17.1494V40.317H29.3779L31.3331 38.2865L33.1933 40.3068L40.7185 40.317V37.2458H41.4689C42.4624 37.2458 43.6461 37.2254 44.6713 36.7969V40.317H50.9071V36.9091H51.2136C51.5941 36.9091 51.6258 36.9397 51.6258 37.2866V40.317H70.4916C71.6754 40.317 72.9542 40.0211 73.6518 39.4905V40.317H79.6339C80.8705 40.317 82.0965 40.1435 83.0266 39.715V37.2968C82.4241 38.0927 81.3672 38.4702 79.877 38.4702ZM41.5534 35.348H38.6786V38.4702H34.1762L31.3437 35.399L28.3844 38.4804H19.221V29.1343H28.5218L31.3543 32.2055L34.303 29.1343H41.7014C43.5193 29.1343 45.5803 29.6445 45.5803 32.2259C45.5697 34.8073 43.5721 35.348 41.5534 35.348ZM55.4624 34.9297C55.79 35.3786 55.8429 35.8072 55.8534 36.6234V38.4702H53.5282V37.2866C53.5282 36.7357 53.5811 35.9194 53.1477 35.4807C52.8095 35.144 52.3128 35.0725 51.4673 35.0725H48.9835V38.4702H46.6689V29.1241H51.9957C53.1689 29.1241 54.025 29.1649 54.7754 29.5832C55.5152 30.0016 55.9697 30.6138 55.9697 31.6545C55.9697 33.1339 54.9339 33.8992 54.3315 34.1339C54.8388 34.3175 55.2721 34.6542 55.4624 34.9297ZM64.964 31.0831H59.5632V32.7666H64.8477V34.695H59.5632V36.5418H64.9745V38.4804H57.2591V29.1343H64.9745V31.0831H64.964ZM70.8404 38.4702H66.338V36.4704H70.8192C71.2526 36.4704 71.5591 36.4092 71.7493 36.2459C71.9079 36.1031 72.0241 35.899 72.0241 35.6337C72.0241 35.3582 71.9079 35.144 71.7388 35.0113C71.5697 34.8685 71.3266 34.8073 70.9355 34.8073C68.7794 34.746 66.0632 34.8787 66.0632 31.9096C66.0632 30.5627 66.9404 29.1343 69.3713 29.1343H74.0005V31.1341H69.7623C69.3396 31.1341 69.0648 31.1443 68.8323 31.2872C68.5892 31.4402 68.494 31.6647 68.494 31.9606C68.494 32.3075 68.7054 32.5524 69.0014 32.6544C69.2445 32.736 69.4981 32.7564 69.8892 32.7564L71.1258 32.787C72.4046 32.8176 73.2501 33.0217 73.768 33.5421C74.2225 34.0114 74.4656 34.5522 74.4656 35.5215C74.4762 37.5213 73.1867 38.4702 70.8404 38.4702Z" fill="white"/>
<path d="M52.9372 31.2363C52.6624 31.0935 52.2397 31.0833 51.838 31.0833H48.9844V33.1647H51.8063C52.2502 33.1647 52.6307 33.1545 52.9372 32.981C53.2331 32.8178 53.4128 32.4913 53.4128 32.0934C53.4022 31.6852 53.2226 31.3996 52.9372 31.2363Z" fill="white"/>
</g>
<defs>
<linearGradient id="paint0_linear_85_5853" x1="41.8998" y1="0" x2="41.8998" y2="51.375" gradientUnits="userSpaceOnUse">
<stop stop-color="#1B8ABA"/>
<stop offset="1" stop-color="#005D9C"/>
</linearGradient>
</defs>
</svg>
