<svg width="112" height="19" viewBox="0 0 112 19" fill="none" xmlns="http://www.w3.org/2000/svg">
<path d="M5.07373 1.08093H0V18.3856H5.04684C7.73045 18.3856 9.66829 17.7673 11.3693 16.3879C13.3906 14.7544 14.5861 12.2921 14.5861 9.74515C14.5866 4.63888 10.6792 1.08093 5.07373 1.08093ZM9.11159 14.0806C8.02535 15.0383 6.61506 15.4559 4.38174 15.4559H3.45428V4.01313H4.38174C6.61506 4.01313 7.97017 4.40312 9.11159 5.41249C10.3071 6.45171 11.0259 8.06277 11.0259 9.71999C11.0259 11.3816 10.3071 13.0416 9.11159 14.0806Z" fill="white"/>
<path d="M19.6333 1.08105H16.1768V18.3857H19.6333V1.08105Z" fill="white"/>
<path d="M28.085 7.72173C26.011 6.97244 25.4019 6.47798 25.4019 5.54324C25.4019 4.45289 26.487 3.6251 27.9766 3.6251C29.0124 3.6251 29.8632 4.04052 30.7637 5.02639L32.5723 2.71385C31.0861 1.44413 29.3079 0.795166 27.3652 0.795166C24.2299 0.795166 21.8384 2.92142 21.8384 5.75357C21.8384 8.13769 22.9518 9.35822 26.198 10.4989C27.5515 10.9649 28.24 11.2753 28.5876 11.4842C29.2782 11.9245 29.624 12.5483 29.624 13.2746C29.624 14.6768 28.4826 15.7154 26.9404 15.7154C25.2918 15.7154 23.9639 14.9103 23.1683 13.4076L20.9355 15.5076C22.5281 17.7903 24.4405 18.8021 27.0706 18.8021C30.6624 18.8021 33.1822 16.47 33.1822 13.1201C33.1816 10.3706 32.017 9.12578 28.085 7.72173Z" fill="white"/>
<path d="M34.2744 9.74522C34.2744 14.8316 38.3646 18.7756 43.6277 18.7756C45.1158 18.7756 46.39 18.4899 47.9613 17.7674V13.794C46.5793 15.1447 45.3555 15.6892 43.7887 15.6892C40.3076 15.6892 37.8371 13.2244 37.8371 9.72007C37.8371 6.39788 40.386 3.77662 43.6283 3.77662C45.2769 3.77662 46.5247 4.35123 47.9619 5.72377V1.75208C46.4446 1.0003 45.1973 0.689087 43.7098 0.689087C38.4722 0.689916 34.2744 4.71413 34.2744 9.74522Z" fill="white"/>
<path d="M75.364 12.7044L70.6384 1.08093H66.8623L74.3827 18.8297H76.2425L83.8976 1.08093H80.1507L75.364 12.7044Z" fill="white"/>
<path d="M85.46 18.3857H95.2624V15.4566H88.9137V10.7856H95.0283V7.85422H88.9137V4.01326H95.2624V1.08105H85.46V18.3857Z" fill="white"/>
<path d="M108.946 6.18969C108.946 2.94987 106.661 1.08093 102.675 1.08093H97.5498V18.3856H101.002V11.4342H101.453L106.237 18.3859H110.488L104.909 11.0953C107.512 10.5785 108.946 8.83942 108.946 6.18969ZM102.012 9.04782H101.002V3.80667H102.067C104.219 3.80667 105.389 4.68752 105.389 6.37155C105.389 8.11142 104.219 9.04782 102.012 9.04782Z" fill="white"/>
<path d="M58.5145 18.9992C63.7207 18.9992 67.9411 14.8777 67.9411 9.79355C67.9411 4.7094 63.7207 0.587891 58.5145 0.587891C53.3083 0.587891 49.0879 4.7094 49.0879 9.79355C49.0879 14.8777 53.3083 18.9992 58.5145 18.9992Z" fill="url(#paint0_linear_85_5885)"/>
<path opacity="0.65" d="M58.5145 18.9992C63.7207 18.9992 67.9411 14.8777 67.9411 9.79355C67.9411 4.7094 63.7207 0.587891 58.5145 0.587891C53.3083 0.587891 49.0879 4.7094 49.0879 9.79355C49.0879 14.8777 53.3083 18.9992 58.5145 18.9992Z" fill="url(#paint1_linear_85_5885)"/>
<path d="M111.155 1.73115C111.155 1.42767 110.941 1.26184 110.566 1.26184H110.065V2.78281H110.437V2.19272L110.873 2.78281H111.327L110.814 2.15568C111.034 2.09819 111.155 1.94231 111.155 1.73115ZM110.5 1.93899H110.437V1.54127H110.504C110.688 1.54127 110.784 1.60594 110.784 1.73695C110.784 1.871 110.687 1.93899 110.5 1.93899Z" fill="white"/>
<path d="M110.641 0.694214C109.884 0.694214 109.284 1.28347 109.284 2.02005C109.284 2.75635 109.891 3.34644 110.641 3.34644C111.377 3.34644 111.981 2.74971 111.981 2.02005C111.981 1.29342 111.377 0.694214 110.641 0.694214ZM110.635 3.10929C110.04 3.10929 109.553 2.62561 109.553 2.02198C109.553 1.41642 110.033 0.933013 110.635 0.933013C111.227 0.933013 111.71 1.42747 111.71 2.02198C111.71 2.62036 111.228 3.10929 110.635 3.10929Z" fill="white"/>
<defs>
<linearGradient id="paint0_linear_85_5885" x1="63.3396" y1="17.1712" x2="57.0304" y2="7.05575" gradientUnits="userSpaceOnUse">
<stop stop-color="#F89F21"/>
<stop offset="0.2502" stop-color="#F79A23"/>
<stop offset="0.5331" stop-color="#F78E22"/>
<stop offset="0.6196" stop-color="#F68721"/>
<stop offset="0.7232" stop-color="#F48220"/>
<stop offset="1" stop-color="#F27623"/>
</linearGradient>
<linearGradient id="paint1_linear_85_5885" x1="62.3086" y1="17.0356" x2="53.123" y2="-1.3492" gradientUnits="userSpaceOnUse">
<stop stop-color="#F68721" stop-opacity="0"/>
<stop offset="0.3587" stop-color="#E27027" stop-opacity="0.2704"/>
<stop offset="0.703" stop-color="#D4612C" stop-opacity="0.5299"/>
<stop offset="0.9816" stop-color="#D15D2D" stop-opacity="0.74"/>
</linearGradient>
</defs>
</svg>
