<svg width="61" height="38" viewBox="0 0 61 38" fill="none" xmlns="http://www.w3.org/2000/svg">
<path d="M38.7483 33.5203H22.25V4.56494H38.7483V33.5203Z" fill="#FF5F00"/>
<path d="M23.3059 19.0404C23.3059 13.1666 26.122 7.9345 30.5075 4.56269C27.3005 2.09706 23.2531 0.625416 18.8545 0.625416C8.44119 0.625416 0 8.86994 0 19.0404C0 29.2108 8.44119 37.4553 18.8545 37.4553C23.2531 37.4553 27.3005 35.9837 30.5075 33.518C26.122 30.1462 23.3059 24.9141 23.3059 19.0404Z" fill="#EB001B"/>
<path d="M60.9984 19.0404C60.9984 29.2108 52.5572 37.4553 42.1439 37.4553C37.7453 37.4553 33.6979 35.9837 30.4897 33.518C34.8764 30.1462 37.6925 24.9141 37.6925 19.0404C37.6925 13.1666 34.8764 7.9345 30.4897 4.56269C33.6979 2.09706 37.7453 0.625416 42.1439 0.625416C52.5572 0.625416 60.9984 8.86994 60.9984 19.0404Z" fill="#F79E1B"/>
<path d="M14.189 19.1567C14.189 18.3524 14.7288 17.6916 15.6108 17.6916C16.4535 17.6916 17.0225 18.3239 17.0225 19.1567C17.0225 19.9896 16.4535 20.6219 15.6108 20.6219C14.7288 20.6219 14.189 19.9611 14.189 19.1567ZM17.983 19.1567V16.8686H16.9641V17.4242C16.6409 17.0121 16.1505 16.7535 15.484 16.7535C14.1699 16.7535 13.1398 17.7595 13.1398 19.1567C13.1398 20.555 14.1699 21.5599 15.484 21.5599C16.1505 21.5599 16.6409 21.3013 16.9641 20.8893V21.4449H17.983V19.1567ZM52.4154 19.1567C52.4154 18.3524 52.9551 17.6916 53.8371 17.6916C54.681 17.6916 55.2488 18.3239 55.2488 19.1567C55.2488 19.9896 54.681 20.6219 53.8371 20.6219C52.9551 20.6219 52.4154 19.9611 52.4154 19.1567ZM56.2105 19.1567V15.0308H55.1905V17.4242C54.8673 17.0121 54.3769 16.7535 53.7103 16.7535C52.3963 16.7535 51.3661 17.7595 51.3661 19.1567C51.3661 20.555 52.3963 21.5599 53.7103 21.5599C54.3769 21.5599 54.8673 21.3013 55.1905 20.8893V21.4449H56.2105V19.1567ZM30.6309 17.6444C31.2873 17.6444 31.7093 18.0466 31.817 18.7545H29.3853C29.4941 18.0937 29.9048 17.6444 30.6309 17.6444ZM30.6511 16.7535C29.2776 16.7535 28.317 17.7299 28.317 19.1567C28.317 20.612 29.3168 21.5599 30.7195 21.5599C31.4254 21.5599 32.0717 21.3879 32.6407 20.9189L32.1413 20.1813C31.7486 20.4871 31.2481 20.6602 30.7779 20.6602C30.1214 20.6602 29.5233 20.3633 29.3763 19.5392H32.8561C32.8662 19.4153 32.8763 19.2904 32.8763 19.1567C32.8662 17.7299 31.964 16.7535 30.6511 16.7535ZM42.9544 19.1567C42.9544 18.3524 43.4942 17.6916 44.3762 17.6916C45.219 17.6916 45.7879 18.3239 45.7879 19.1567C45.7879 19.9896 45.219 20.6219 44.3762 20.6219C43.4942 20.6219 42.9544 19.9611 42.9544 19.1567ZM46.7485 19.1567V16.8686H45.7295V17.4242C45.4052 17.0121 44.916 16.7535 44.2494 16.7535C42.9354 16.7535 41.9052 17.7595 41.9052 19.1567C41.9052 20.555 42.9354 21.5599 44.2494 21.5599C44.916 21.5599 45.4052 21.3013 45.7295 20.8893V21.4449H46.7485V19.1567ZM37.2 19.1567C37.2 20.5452 38.1897 21.5599 39.7002 21.5599C40.406 21.5599 40.8762 21.4065 41.3857 21.0142L40.8964 20.2098C40.5137 20.4783 40.112 20.6219 39.6699 20.6219C38.8563 20.612 38.2582 20.0378 38.2582 19.1567C38.2582 18.2756 38.8563 17.7014 39.6699 17.6916C40.112 17.6916 40.5137 17.8351 40.8964 18.1036L41.3857 17.2992C40.8762 16.9069 40.406 16.7535 39.7002 16.7535C38.1897 16.7535 37.2 17.7683 37.2 19.1567ZM50.3371 16.7535C49.7491 16.7535 49.3665 17.022 49.1016 17.4242V16.8686H48.0917V21.4449H49.1117V18.8795C49.1117 18.1222 49.445 17.7014 50.1116 17.7014C50.318 17.7014 50.5335 17.7299 50.749 17.8165L51.0632 16.8784C50.8376 16.7919 50.5436 16.7535 50.3371 16.7535ZM23.0226 17.2324C22.5323 16.9168 21.8567 16.7535 21.1116 16.7535C19.9244 16.7535 19.1602 17.3091 19.1602 18.2187C19.1602 18.9649 19.7291 19.4252 20.7772 19.5688L21.2586 19.6356C21.8174 19.7123 22.0812 19.8559 22.0812 20.1145C22.0812 20.4685 21.7086 20.6701 21.0129 20.6701C20.307 20.6701 19.7976 20.4498 19.4542 20.1912L18.9739 20.966C19.5327 21.3682 20.2386 21.5599 21.0028 21.5599C22.3561 21.5599 23.1405 20.9375 23.1405 20.0663C23.1405 19.2619 22.5233 18.8411 21.5032 18.6976L21.023 18.6296C20.582 18.5726 20.2285 18.4871 20.2285 18.1803C20.2285 17.845 20.5618 17.6444 21.1206 17.6444C21.7187 17.6444 22.2977 17.8647 22.5816 18.0368L23.0226 17.2324ZM36.1699 16.7535C35.5819 16.7535 35.1992 17.022 34.9355 17.4242V16.8686H33.9255V21.4449H34.9445V18.8795C34.9445 18.1222 35.2777 17.7014 35.9443 17.7014C36.1508 17.7014 36.3662 17.7299 36.5817 17.8165L36.8959 16.8784C36.6703 16.7919 36.3763 16.7535 36.1699 16.7535ZM27.4743 16.8686H25.8078V15.4801H24.7777V16.8686H23.8272V17.7781H24.7777V19.8657C24.7777 20.9276 25.1996 21.5599 26.4048 21.5599C26.847 21.5599 27.3564 21.4262 27.6796 21.206L27.3856 20.3534C27.0815 20.5254 26.7482 20.612 26.4834 20.612C25.9739 20.612 25.8078 20.3052 25.8078 19.846V17.7781H27.4743V16.8686ZM12.2387 21.4449V18.5726C12.2387 17.491 11.5329 16.7634 10.395 16.7535C9.79688 16.7436 9.1797 16.9255 8.74766 17.5677C8.42448 17.0603 7.91502 16.7535 7.19908 16.7535C6.6986 16.7535 6.20934 16.8971 5.82668 17.4329V16.8686H4.80664V21.4449H5.83566V18.908C5.83566 18.1135 6.28677 17.6916 6.98363 17.6916C7.66029 17.6916 8.00255 18.1222 8.00255 18.8981V21.4449H9.03269V18.908C9.03269 18.1135 9.50287 17.6916 10.1795 17.6916C10.8753 17.6916 11.2086 18.1222 11.2086 18.8981V21.4449H12.2387Z" fill="white"/>
</svg>
