<svg width="82" height="24" viewBox="0 0 82 24" fill="none" xmlns="http://www.w3.org/2000/svg">
<path d="M35.4298 23.6074H28.8066L32.9492 0.420044H39.572L35.4298 23.6074Z" fill="white"/>
<path d="M59.4389 0.987176C58.1325 0.518014 56.0605 0 53.4985 0C46.9579 0 42.3521 3.15726 42.3238 7.67118C42.2695 11.0015 45.6215 12.8513 48.1285 13.9618C50.6909 15.0965 51.5619 15.8371 51.5619 16.8485C51.5358 18.4019 49.4913 19.118 47.5845 19.118C44.9402 19.118 43.5234 18.7488 41.3702 17.8846L40.4981 17.5141L39.5713 22.7191C41.1247 23.3598 43.9866 23.9283 46.9579 23.9532C53.9074 23.9532 58.4317 20.8448 58.4853 16.0345C58.5117 13.3949 56.7418 11.3724 52.9259 9.71963C50.6094 8.65869 49.1907 7.9433 49.1907 6.85777C49.2179 5.87092 50.3906 4.86014 53.0055 4.86014C55.1587 4.81064 56.7407 5.27914 57.9391 5.74798L58.5382 5.9942L59.4389 0.987176Z" fill="white"/>
<path d="M68.2412 15.3929C68.7867 14.0608 70.8855 8.90529 70.8855 8.90529C70.858 8.9548 71.4299 7.54862 71.7569 6.68538L72.2198 8.68334C72.2198 8.68334 73.474 14.2336 73.7463 15.3929C72.7112 15.3929 69.5494 15.3929 68.2412 15.3929ZM76.4167 0.420044H71.2937C69.7139 0.420044 68.5136 0.839044 67.832 2.34391L57.9941 23.607H64.9436C64.9436 23.607 66.0877 20.7452 66.3337 20.1288C67.096 20.1288 73.8564 20.1288 74.8372 20.1288C75.0274 20.9429 75.6275 23.607 75.6275 23.607H81.7599L76.4167 0.420044Z" fill="white"/>
<path d="M23.2738 0.420044L16.7876 16.2316L16.0788 13.0248C14.8796 9.32462 11.1188 5.30445 6.92188 3.30551L12.863 23.5828H19.8668L30.2773 0.420044H23.2738Z" fill="white"/>
<path d="M10.765 0.420044H0.109015L0 0.88855C8.31235 2.81274 13.8174 7.45092 16.0792 13.0258L13.7628 2.36915C13.3814 0.888223 12.2094 0.468895 10.765 0.420044Z" fill="#FAA61A"/>
</svg>
