<svg width="153" height="153" viewBox="0 0 153 153" fill="none" xmlns="http://www.w3.org/2000/svg">
<g clip-path="url(#clip0_295_20460)">
<g style="mix-blend-mode:multiply">
<path d="M144.193 144.755C142.125 153.155 118.361 160.409 91.114 160.967C63.8665 161.518 43.451 155.162 45.5193 146.762C47.5875 138.361 71.3569 131.101 98.6044 130.549C125.852 129.998 146.267 136.354 144.199 144.755H144.193Z" fill="#E0BFAD"/>
</g>
<path d="M158.128 89.0675C160.184 74.3977 157.731 59.0713 150.303 46.1671C147.893 41.9854 145.023 38.0702 141.7 34.5638C137.937 30.5928 133.645 27.105 129.546 23.481C140.843 33.4797 147.93 47.5176 149.942 62.3918C151.967 77.3279 148.992 93.0323 142.086 106.413C135.222 119.708 124.993 131.082 112.298 139.086C99.6895 147.034 84.9385 151.433 69.9887 151.018C56.3867 150.59 43.0393 146.062 32.3751 137.556C31.5739 136.918 30.7913 136.261 30.0273 135.58C35.4247 140.356 40.6357 145.417 46.8156 149.19C52.4862 152.653 58.7158 155.162 65.1876 156.655C79.5163 159.969 94.7332 158.34 108.279 152.758C121.813 147.183 133.726 137.878 142.545 126.231C150.756 115.396 156.247 102.542 158.128 89.0737V89.0675Z" fill="url(#paint0_linear_295_20460)"/>
<path style="mix-blend-mode:screen" opacity="0.5" d="M108.288 152.752C113.014 150.801 117.542 148.391 121.809 145.591L116.648 140.151C116.027 140.566 115.405 140.981 114.772 141.378C101.909 149.487 86.8661 153.972 71.6182 153.545C60.8049 153.204 50.1531 150.311 40.8242 144.946C42.7434 146.464 44.7247 147.895 46.8178 149.177C52.4884 152.64 58.718 155.149 65.1898 156.642C79.5185 159.957 94.7354 158.328 108.282 152.746L108.288 152.752Z" fill="url(#paint1_linear_295_20460)" fill-opacity="0.5"/>
<path d="M94.6014 8.3712C132.824 12.3794 157.171 47.4803 148.991 86.7752C140.811 126.07 103.197 154.679 64.9751 150.67C26.759 146.669 2.40583 111.561 10.5857 72.2665C18.7655 32.9716 56.3853 4.36923 94.6014 8.3712Z" fill="url(#paint2_linear_295_20460)"/>
<path style="mix-blend-mode:screen" opacity="0.2" d="M94.084 10.0253C57.2032 6.15342 20.8939 33.7646 12.9998 71.6904C12.3911 74.6144 11.9688 77.5199 11.7266 80.3882C27.2043 91.5082 45.8869 98.8431 66.8613 101.042C94.879 103.979 122.716 97.3129 146.97 83.6529C153.622 46.5572 130.313 13.8228 94.084 10.0253Z" fill="url(#paint3_linear_295_20460)"/>
<g style="mix-blend-mode:multiply" opacity="0.6">
<g style="mix-blend-mode:multiply">
<path d="M88.7993 37.1163C91.8924 37.4384 93.2029 37.8473 93.0414 38.6836L92.0166 43.6025L93.1284 43.8069C99.2959 45.2008 103.954 47.6292 106.42 50.9807C108.842 54.2827 109.469 58.6378 108.364 63.9531C108.24 64.5416 107.935 65.4027 107.619 66.5116C107.426 66.5921 103.724 68.1533 97.6748 67.5214C91.6378 66.8895 87.8801 64.5416 87.6814 64.4177L88.1286 62.268C88.8801 58.6563 89.408 56.4261 89.0851 55.1623C88.7124 53.7003 87.8429 52.8826 85.8491 52.672C84.2467 52.5047 82.8865 52.9631 81.812 54.0287C80.8058 55.0199 80.104 56.5005 79.6754 58.5448C78.9922 61.822 79.2904 64.269 80.545 65.8178C81.6505 67.2178 84.9796 69.9498 90.7185 74.1562C95.4513 77.5945 98.6562 80.215 100.246 81.931C101.78 83.5788 102.923 85.84 103.637 88.6711C104.364 91.4961 104.221 94.9777 103.37 99.0478C102.022 105.528 99.1344 110.478 94.9172 113.773C90.6688 117.088 84.7001 118.835 77.4768 118.971L76.3215 118.959L74.8495 126.015C74.7564 126.058 72.9987 126.839 70.5267 126.578C68.0609 126.318 66.2784 125.166 66.1852 125.11L67.7069 117.788L67.4647 117.682C62.086 116.611 58.2414 114.269 54.8564 110.564C51.546 106.953 50.5646 100.987 52.254 92.8713L52.8254 90.1394C53.0366 90.0588 59.2352 86.9861 65.6324 87.6552C72.0297 88.3242 72.8682 92.1403 73.0235 92.258L72.2595 95.9317C70.7875 102.994 70.5267 104.983 70.6571 105.875C70.8186 107.064 71.3031 108.514 73.9427 108.793C75.6632 108.972 77.0979 108.551 78.2097 107.56C79.2841 106.599 80.0233 105.131 80.427 103.192C81.3524 98.7566 81.6505 95.6034 81.3462 93.5528C81.0232 91.3784 79.073 88.9871 75.4147 86.2489C69.7441 81.9619 65.856 78.8149 63.9182 76.9006C62.0487 75.0483 60.5457 72.5146 59.5457 69.3675C58.5457 66.2576 58.3532 62.776 59.1296 59.0466C60.26 53.6136 62.6077 49.6302 66.651 46.923C70.7254 44.1972 76.0482 42.7785 83.166 42.7785L84.5945 36.7198C84.6815 36.6641 85.7001 36.8066 88.7931 37.1287L88.7993 37.1163Z" fill="#94512A"/>
</g>
</g>
<g style="mix-blend-mode:multiply" opacity="0.5">
<path d="M70.7839 147.294C36.7167 143.72 11.8791 114.102 19.531 77.3467C27.1829 40.5917 62.368 13.8417 98.1121 17.5896C128.123 20.7367 145.682 45.969 147.017 73.8465C148.508 40.6784 126.111 12.9372 92.8887 9.4556C55.8775 5.57133 19.444 33.2754 11.525 71.3313C3.59984 109.387 27.1891 143.385 64.194 147.263C67.5479 147.617 70.9019 147.703 74.2247 147.555C73.0757 147.499 71.9267 147.412 70.7776 147.294H70.7839Z" fill="#94512A"/>
</g>
<path d="M87.4641 35.8772C90.4329 36.187 91.1161 37.4817 91.1534 37.5499L89.9547 43.2988L91.0167 43.4971C96.942 44.8414 101.414 47.1707 103.786 50.3921C106.116 53.564 106.718 57.7518 105.656 62.8565C105.538 63.4264 105.246 64.2503 104.942 65.3097C104.755 65.3902 101.203 66.8894 95.3892 66.2823C89.5882 65.6752 85.9796 63.4202 85.7871 63.3025L86.2157 61.2334C86.9361 57.7642 87.4454 55.6207 87.1349 54.4065C86.7809 53.0064 85.9424 52.2196 84.0294 52.0152C82.4891 51.8541 81.1848 52.294 80.1475 53.3162C79.1786 54.264 78.5016 55.6888 78.0979 57.6527C77.4396 60.8059 77.7253 63.1538 78.9364 64.6406C79.9985 65.9849 83.1971 68.6116 88.7125 72.6508C93.2589 75.9527 96.3395 78.4679 97.8674 80.1158C99.3394 81.7017 100.439 83.8699 101.128 86.5895C101.824 89.3029 101.687 92.6483 100.867 96.5635C99.5692 102.789 96.7929 107.541 92.7434 110.713C88.6628 113.897 82.93 115.576 75.9862 115.706L74.8744 115.694L73.4645 122.471C73.3776 122.508 71.6882 123.258 69.3156 123.01C66.943 122.762 65.235 121.653 65.1481 121.598L66.6138 114.566L66.384 114.467C61.2165 113.439 57.521 111.184 54.2664 107.628C51.0864 104.159 50.1424 98.4282 51.7634 90.6349L52.31 88.0082C52.515 87.9338 56.3595 86.478 62.5084 87.1223C68.651 87.7666 71.564 89.9286 71.7193 90.0464L70.9864 93.5713C69.5765 100.355 69.3156 102.269 69.446 103.124C69.6013 104.27 70.0671 105.658 72.6012 105.924C74.2533 106.098 75.6322 105.695 76.7005 104.741C77.7315 103.818 78.4395 102.405 78.8308 100.547C79.719 96.2909 80.0047 93.2554 79.7128 91.2854C79.4022 89.1914 77.5265 86.8993 74.0111 84.2664C68.5579 80.1529 64.8251 77.1236 62.968 75.2836C61.173 73.4995 59.7259 71.071 58.7632 68.0479C57.8067 65.0557 57.6142 61.7166 58.3595 58.1297C59.4464 52.9135 61.701 49.085 65.589 46.4831C69.5019 43.8626 74.6198 42.5059 81.4581 42.4997L82.8307 36.6764C82.9114 36.6206 84.489 35.5675 87.4641 35.8772Z" fill="url(#paint4_linear_295_20460)"/>
<path d="M89.0634 16.0221C91.2124 16.0221 93.3862 16.1336 95.5166 16.3566C111.46 18.0292 125.273 25.8226 134.41 38.3055C139.161 44.7917 142.422 52.1947 144.105 60.304C145.863 68.7663 145.807 77.6066 143.937 86.5646C140.565 102.752 131.497 117.657 118.398 128.548C105.436 139.321 89.6535 145.256 73.9583 145.256C71.8031 145.256 69.6293 145.145 67.4989 144.922C51.5554 143.249 37.7422 135.456 28.6059 122.973C23.8545 116.486 20.5999 109.083 18.9106 100.974C17.1529 92.5118 17.2088 83.6777 19.072 74.7135C22.4446 58.526 31.5126 43.6208 44.6115 32.73C57.5738 21.9569 73.3559 16.0283 89.0572 16.0221H89.0634ZM89.0572 9.88901C53.8038 9.88901 20.6434 37.0293 13.0536 73.4622C4.96073 112.33 29.0469 143.937 66.853 147.895C69.2256 148.143 71.592 148.267 73.9583 148.267C109.212 148.267 139.528 122.211 147.111 85.784C155.204 46.9104 133.969 14.2193 96.1625 10.2545C93.79 10.0067 91.4236 9.88281 89.0572 9.88281V9.88901Z" fill="#E99855"/>
<path d="M87.4277 14.2007C89.6016 14.2007 91.8003 14.3184 93.9555 14.5414C110.073 16.2327 124.041 24.1127 133.277 36.7319C138.078 43.2925 141.376 50.7698 143.078 58.972C144.854 67.5273 144.798 76.4605 142.91 85.5238C139.5 101.885 130.333 116.957 117.091 127.966C103.986 138.857 88.0302 144.853 72.1612 144.853C69.9811 144.853 67.7887 144.736 65.6272 144.513C49.5098 142.821 35.5475 134.941 26.3118 122.322C21.5108 115.762 18.2127 108.284 16.5109 100.082C14.7346 91.5268 14.7905 82.5936 16.6786 73.5365C20.0884 57.1755 29.2558 42.0968 42.4976 31.0945C55.6027 20.2037 71.5587 14.2069 87.4277 14.2069V14.2007ZM87.4215 7.99951C51.7768 7.99951 18.25 35.4372 10.5857 72.2665C2.40583 111.561 26.759 146.662 64.9751 150.671C67.3787 150.924 69.77 151.048 72.155 151.048C107.8 151.048 141.32 123.605 148.991 86.7814C157.171 47.4803 132.824 12.3794 94.6014 8.37121C92.1978 8.12341 89.8065 7.99951 87.4215 7.99951Z" fill="url(#paint5_linear_295_20460)"/>
<path d="M85.5998 34.6384C88.5748 34.9482 89.2518 36.243 89.2891 36.3111L88.0904 42.0601L89.1525 42.2583C95.0777 43.6026 99.5496 45.9319 101.922 49.1533C104.251 52.3252 104.854 56.513 103.792 61.6177C103.674 62.1876 103.382 63.0116 103.077 64.0709C102.891 64.1515 99.3384 65.6506 93.525 65.0435C87.7239 64.4364 84.1154 62.1814 83.9228 62.0637L84.3514 59.9946C85.0718 56.5254 85.5812 54.3819 85.2706 53.1677C84.9166 51.7614 84.0781 50.9747 82.1651 50.7764C80.6248 50.6154 79.3205 51.0552 78.2833 52.0774C77.3144 53.0252 76.6374 54.4501 76.2336 56.4139C75.5815 59.561 75.861 61.9151 77.0721 63.4019C78.1342 64.7462 81.3328 67.3729 86.8482 71.412C91.3946 74.7139 94.4753 77.2291 96.0031 78.877C97.4751 80.4629 98.5745 82.6312 99.2639 85.3508C99.9595 88.0642 99.8229 91.4095 99.0093 95.3247C97.7112 101.551 94.9349 106.302 90.8853 109.474C86.8047 112.658 81.072 114.337 74.1281 114.467L73.0164 114.455L71.6065 121.232C71.5195 121.269 69.8301 122.019 67.4576 121.771C65.085 121.523 63.377 120.414 63.29 120.359L64.7558 113.327L64.526 113.228C59.3585 112.2 55.6629 109.945 52.4084 106.389C49.2222 102.92 48.2843 97.1894 49.9054 89.3961L50.4519 86.7694C50.6569 86.6951 54.5015 85.2393 60.6503 85.8835C66.793 86.5278 69.7059 88.6899 69.8612 88.8076L69.1283 92.3325C67.7184 99.1161 67.4576 101.03 67.588 101.885C67.7433 103.031 68.2091 104.419 70.7432 104.685C72.3953 104.859 73.7741 104.456 74.8424 103.502C75.8734 102.579 76.5815 101.167 76.9728 99.3081C77.8609 95.0521 78.1466 92.0166 77.8547 90.0466C77.5379 87.9527 75.6684 85.6605 72.153 83.0276C66.6998 78.9142 62.967 75.8848 61.1099 74.0449C59.315 72.2607 57.874 69.8323 56.9113 66.8091C55.9548 63.8231 55.7623 60.4778 56.5076 56.8909C57.5945 51.6747 59.8491 47.8462 63.7372 45.2443C67.6501 42.6238 72.7679 41.2671 79.6062 41.2609L80.9788 35.4376C81.0596 35.3818 82.6371 34.3287 85.6122 34.6384H85.5998Z" fill="url(#paint6_linear_295_20460)"/>
<g style="mix-blend-mode:screen" opacity="0.1">
<path style="mix-blend-mode:screen" d="M84.5244 36.4414C84.8101 36.4414 85.102 36.4599 85.4001 36.4909C86.3256 36.59 86.9032 36.7883 87.2448 36.9617L86.2635 41.6823L85.8784 43.5408L87.7479 43.8878L88.7789 44.0798C94.3563 45.3498 98.381 47.4809 100.424 50.25C102.406 52.951 102.927 56.6495 101.971 61.24C101.921 61.494 101.791 61.9028 101.648 62.3736C101.623 62.4542 101.598 62.5409 101.567 62.6276C100.598 62.9126 98.7661 63.3277 96.2569 63.3277C95.4308 63.3277 94.5737 63.2843 93.7228 63.1914C90.1329 62.8135 87.4497 61.7603 86.0336 61.0789L86.1827 60.3665L86.3815 59.4248C87.0647 56.1786 87.4746 54.221 87.0895 52.7032C86.5119 50.4297 84.9716 49.1907 82.3692 48.9181C82.0959 48.8871 81.8288 48.8747 81.5618 48.8747C79.8041 48.8747 78.2203 49.519 76.9843 50.7394C75.7421 51.9598 74.9036 53.6882 74.4129 56.0238C73.6366 59.7408 74.0465 62.6153 75.6117 64.5419C76.3632 65.4897 78.2265 67.3916 85.7542 72.9052C91.2819 76.9195 93.6359 79.0506 94.6358 80.1347C95.9029 81.4976 96.8469 83.4057 97.4556 85.8094C98.0519 88.1325 97.9587 91.2052 97.1761 94.9408C95.9836 100.677 93.4744 105.07 89.7292 108.006C86.0461 110.887 80.6487 112.473 74.1148 112.603L73.0341 112.59L71.5 112.572L71.1894 114.071L69.9969 119.789C69.587 119.882 69.0467 119.962 68.4194 119.962C68.1647 119.962 67.9038 119.95 67.6492 119.919C66.761 119.826 65.9847 119.578 65.4008 119.343L66.5747 113.699L66.8852 112.219L65.494 111.618L65.2642 111.519L65.0841 111.438L64.8915 111.401C60.3513 110.496 56.9229 108.564 53.7863 105.125C50.9852 102.071 50.2771 96.7621 51.7367 89.7618L52.0597 88.213C53.1155 87.9404 55.0037 87.5687 57.5626 87.5687C58.5129 87.5687 59.488 87.6183 60.4631 87.7236C64.1524 88.1077 66.5499 89.0741 67.7734 89.706L67.3076 91.9424C65.7611 99.364 65.5809 101.03 65.7424 102.121C66.1772 105.392 68.5995 106.321 70.5497 106.525C70.8603 106.556 71.1708 106.575 71.4689 106.575C73.2453 106.575 74.8415 105.986 76.0837 104.878C77.4066 103.694 78.3196 101.941 78.7917 99.6738C79.7357 95.1328 80.0214 91.9858 79.6923 89.7618C79.301 87.1351 77.2576 84.5208 73.2701 81.5348C67.8169 77.4151 64.1648 74.4477 62.4196 72.7193C60.7923 71.1086 59.5377 68.928 58.6806 66.2331C57.7862 63.4516 57.6682 60.4284 58.3265 57.2628C59.3451 52.3749 61.3885 49.042 64.7673 46.7808C68.4504 44.3152 73.3012 43.1196 79.5991 43.1134H81.0773L81.4127 41.6823L82.5804 36.7263C82.9965 36.5838 83.6486 36.4352 84.5244 36.4352V36.4414ZM84.5244 34.5767C82.2512 34.5767 81.04 35.382 80.9655 35.4316L79.5929 41.2549C72.7546 41.2549 67.6368 42.6178 63.7239 45.2383C59.842 47.8402 57.5812 51.6687 56.4943 56.8849C55.749 60.4718 55.9353 63.8109 56.898 66.8031C57.8607 69.8262 59.3017 72.2547 61.0966 74.0388C62.9537 75.8788 66.6865 78.9081 72.1397 83.0216C75.6551 85.6545 77.5246 87.9466 77.8414 90.0405C78.1333 92.0106 77.8414 95.0399 76.9594 99.3021C76.5743 101.167 75.8601 102.573 74.8291 103.496C73.9223 104.308 72.7919 104.723 71.4565 104.723C71.2205 104.723 70.9783 104.71 70.7298 104.686C68.1958 104.419 67.7299 103.025 67.5747 101.885C67.4504 101.024 67.7051 99.1162 69.115 92.3327L69.8479 88.8077C69.6926 88.6962 66.7797 86.528 60.637 85.8837C59.5253 85.766 58.4942 85.7164 57.5377 85.7164C53.2149 85.7164 50.6001 86.7076 50.4324 86.7696L49.8858 89.3963C48.2648 97.1896 49.2026 102.92 52.3889 106.389C55.6434 109.951 59.3389 112.2 64.5064 113.228L64.7362 113.328L63.2705 120.359C63.3574 120.415 65.0654 121.524 67.438 121.771C67.7734 121.809 68.0964 121.821 68.4007 121.821C70.2578 121.821 71.5062 121.263 71.5869 121.232L72.9968 114.455L74.1086 114.467C81.0525 114.331 86.7852 112.659 90.8658 109.474C94.9153 106.302 97.6916 101.551 98.9897 95.3249C99.8034 91.4096 99.94 88.0643 99.2444 85.3509C98.555 82.6313 97.4556 80.4631 95.9836 78.8771C94.4557 77.2293 91.3751 74.7079 86.8287 71.4122C81.3133 67.373 78.1147 64.7463 77.0526 63.402C75.8415 61.9152 75.562 59.5673 76.2141 56.4141C76.624 54.4502 77.301 53.0254 78.2637 52.0776C79.1581 51.1917 80.2575 50.7456 81.5307 50.7456C81.7295 50.7456 81.9344 50.758 82.1394 50.7766C84.0524 50.9748 84.8908 51.7616 85.2449 53.1679C85.5554 54.3821 85.0461 56.5318 84.3256 59.9948L83.8971 62.0639C84.0834 62.1816 87.692 64.4366 93.4992 65.0437C94.4744 65.149 95.3874 65.1862 96.2321 65.1862C100.412 65.1862 102.896 64.133 103.052 64.0711C103.356 63.0055 103.648 62.1816 103.766 61.6179C104.828 56.5132 104.226 52.3254 101.896 49.1535C99.5239 45.9321 95.052 43.6028 89.1267 42.2585L88.0646 42.0602L89.2633 36.3113C89.2261 36.2431 88.5429 34.9546 85.574 34.6386C85.1952 34.6014 84.8349 34.5829 84.4995 34.5829L84.5244 34.5767Z" fill="url(#paint7_linear_295_20460)"/>
</g>
<g opacity="0.4">
<path d="M69.1224 92.3265L69.8553 88.8015C69.7 88.69 66.7871 86.5217 60.6444 85.8775C54.4956 85.2332 50.6448 86.689 50.446 86.7634L49.8995 89.39C49.5268 91.1866 49.297 92.8716 49.1914 94.4452C54.4894 95.7585 59.9674 96.7311 65.6194 97.3258C66.4393 97.4126 67.2653 97.4869 68.0852 97.5612C68.3274 96.2479 68.6628 94.5567 69.1286 92.3327L69.1224 92.3265Z" fill="url(#paint8_linear_295_20460)"/>
<path d="M98.7507 95.3184C99.5643 91.4031 99.7009 88.0578 99.0115 85.3444C98.3221 82.6248 97.2228 80.4566 95.7508 78.8706C94.2229 77.2228 91.1422 74.7014 86.5958 71.4057C81.0805 67.3665 77.8818 64.7398 76.8197 63.3955C75.6086 61.9087 75.3291 59.5608 75.9813 56.4075C76.3912 54.4437 77.0682 53.0189 78.0309 52.071C79.0681 51.0489 80.3724 50.609 81.9127 50.7701C83.8257 50.9683 84.6642 51.7551 85.0182 53.1614C85.3288 54.3756 84.8195 56.5252 84.099 59.9883L83.6704 62.0574C83.8568 62.1751 87.4653 64.4301 93.2726 65.0372C99.086 65.6443 102.639 64.1451 102.825 64.0646C103.129 62.999 103.421 62.1751 103.539 61.6113C104.601 56.5067 103.999 52.3188 101.67 49.147C99.2972 45.9256 94.8253 43.5963 88.9001 42.252L87.8318 42.0537L89.0305 36.3047C88.9932 36.2366 88.31 34.948 85.3412 34.6321C82.3661 34.3223 80.7948 35.3755 80.7078 35.4313L79.3352 41.2546C72.4969 41.2546 67.3791 42.6175 63.4662 45.2379C59.5843 47.8399 57.3235 51.6684 56.2428 56.8846C55.4975 60.4715 55.6838 63.8106 56.6465 66.8028C57.6092 69.8259 59.0502 72.2544 60.8451 74.0385C62.7022 75.8784 66.435 78.9078 71.8882 83.0213C75.4036 85.6542 77.2794 87.9463 77.5899 90.0402C77.8508 91.7996 77.6458 94.4139 76.9626 97.9884C84.2046 98.0751 91.4031 97.5362 98.496 96.4273C98.583 96.0618 98.6699 95.6963 98.7445 95.3184H98.7507Z" fill="url(#paint9_linear_295_20460)"/>
</g>
<path d="M62.6943 43.8499L56.5703 42.3384L62.1229 45.3491L62.7689 46.8173L61.2658 53.0247L64.2471 47.3873L65.688 46.7368L71.8058 48.2484L66.2594 45.2314L65.6135 43.7694L67.1227 37.562L64.1415 43.1995L62.6943 43.8499Z" fill="white"/>
<path opacity="0.7" d="M94.3946 8.37741C91.9971 8.12341 89.6059 7.99951 87.2147 7.99951C51.5762 7.99951 18.0494 35.4372 10.385 72.2665C9.69563 75.5808 9.24223 78.8704 9 82.1104C10.9627 83.4795 12.975 84.7928 15.0308 86.0504C15.1178 81.9183 15.5898 77.7367 16.4718 73.5303C19.8816 57.1693 29.049 42.0906 42.2908 31.0883C55.3959 20.1975 71.3519 14.2007 87.2209 14.2007C89.3947 14.2007 91.5934 14.3184 93.7486 14.5414C109.866 16.2327 123.835 24.1127 133.07 36.7319C137.871 43.2863 141.169 50.7698 142.865 58.972C144.641 67.5273 144.585 76.4605 142.697 85.5238C142.542 86.2734 142.362 87.0106 142.182 87.754C144.592 86.5274 146.977 85.2388 149.324 83.8883C155.753 45.7705 131.679 12.2803 94.3946 8.37741Z" fill="url(#paint10_linear_295_20460)"/>
</g>
<defs>
<linearGradient id="paint0_linear_295_20460" x1="172.78" y1="-47.0616" x2="48.3684" y2="212.951" gradientUnits="userSpaceOnUse">
<stop stop-color="#FFD243"/>
<stop offset="1" stop-color="#CD571B"/>
</linearGradient>
<linearGradient id="paint1_linear_295_20460" x1="99.139" y1="108.204" x2="67.0016" y2="175.379" gradientUnits="userSpaceOnUse">
<stop stop-color="#E08C3C"/>
<stop offset="1" stop-color="#FFD06F"/>
</linearGradient>
<linearGradient id="paint2_linear_295_20460" x1="40.8703" y1="274.019" x2="126.214" y2="-154.735" gradientUnits="userSpaceOnUse">
<stop stop-color="#F5942A"/>
<stop offset="1" stop-color="#F5D85D"/>
</linearGradient>
<linearGradient id="paint3_linear_295_20460" x1="58.7995" y1="183.541" x2="114.589" y2="-96.7202" gradientUnits="userSpaceOnUse">
<stop stop-color="#E08C3C"/>
<stop offset="1" stop-color="#FFD06F"/>
</linearGradient>
<linearGradient id="paint4_linear_295_20460" x1="163.567" y1="116.53" x2="34.7026" y2="60.185" gradientUnits="userSpaceOnUse">
<stop stop-color="#FFC46D"/>
<stop offset="0.1" stop-color="#FFD067"/>
<stop offset="0.91" stop-color="#CD553F"/>
</linearGradient>
<linearGradient id="paint5_linear_295_20460" x1="107.856" y1="-30.8741" x2="34.8085" y2="257.896" gradientUnits="userSpaceOnUse">
<stop offset="0.2" stop-color="#FFDE43"/>
<stop offset="0.56" stop-color="#FFD13E"/>
<stop offset="1" stop-color="#FFBD37"/>
</linearGradient>
<linearGradient id="paint6_linear_295_20460" x1="94.2454" y1="11.2523" x2="50.9475" y2="182.411" gradientUnits="userSpaceOnUse">
<stop offset="0.16" stop-color="#FFDE43"/>
<stop offset="0.25" stop-color="#FFDA41"/>
<stop offset="1" stop-color="#FFBD37"/>
</linearGradient>
<linearGradient id="paint7_linear_295_20460" x1="49.1219" y1="78.2019" x2="104.3" y2="78.2019" gradientUnits="userSpaceOnUse">
<stop offset="0.16" stop-color="#FFDE43"/>
<stop offset="0.25" stop-color="#FFDA41"/>
<stop offset="1" stop-color="#FFBD37"/>
</linearGradient>
<linearGradient id="paint8_linear_295_20460" x1="61.7003" y1="82.5817" x2="56.1621" y2="104.488" gradientUnits="userSpaceOnUse">
<stop offset="0.02" stop-color="#FFFFA0"/>
<stop offset="0.98" stop-color="#FFEB6A"/>
</linearGradient>
<linearGradient id="paint9_linear_295_20460" x1="92.2478" y1="18.11" x2="61.3613" y2="140.208" gradientUnits="userSpaceOnUse">
<stop offset="0.02" stop-color="#FFFFA0"/>
<stop offset="0.98" stop-color="#FFEB6A"/>
</linearGradient>
<linearGradient id="paint10_linear_295_20460" x1="104.034" y1="-17.177" x2="56.465" y2="170.863" gradientUnits="userSpaceOnUse">
<stop offset="0.02" stop-color="#FFFFA0"/>
<stop offset="0.98" stop-color="#FFEB6A"/>
</linearGradient>
<clipPath id="clip0_295_20460">
<rect width="153" height="153" fill="white"/>
</clipPath>
</defs>
</svg>
