<svg width="70" height="19" viewBox="0 0 70 19" fill="none" xmlns="http://www.w3.org/2000/svg">
<g clip-path="url(#clip0_1_277)">
<path fill-rule="evenodd" clip-rule="evenodd" d="M36.6823 4.87488V4.89867H32.3674C32.1242 5.69643 31.9177 6.50628 31.7111 7.30405L36.0384 7.31613L34.8837 11.6742V11.698H30.5684C30.3375 12.5074 30.1309 13.3169 29.912 14.1271L34.2512 14.1385L33.0966 18.5441V18.5683H23.4458L24.0046 16.4487L32.5863 16.4366L32.8048 15.6864L24.1993 15.6743C24.4182 14.8528 24.6371 14.0195 24.8556 13.1863H29.0006L29.2071 12.4353L25.0626 12.424L25.7066 9.99484H34.2879C34.373 9.74491 34.4216 9.4708 34.4948 9.20917L25.9131 9.19747C26.1074 8.38761 26.3506 7.58985 26.5452 6.78039H30.6898L30.8844 6.05398L26.7394 6.04229L27.3715 3.62482L35.9532 3.62482C36.038 3.36319 36.0869 3.10116 36.1602 2.83914L27.5784 2.82706L28.2105 0.422068L37.8613 0.422068L36.6823 4.87488ZM47.0014 7.69708L47.0138 7.70917L47.5244 6.78039H54.635L54.8293 6.04229L47.9618 6.01811L49.3107 3.63691L55.4737 3.61273C55.5461 3.3511 55.6074 3.08908 55.6679 2.82706L49.7848 2.81497L51.146 0.421678L57.0658 0.421678L52.313 18.5562H47.7553C47.9495 17.8539 48.1199 17.1388 48.3141 16.4245H52.106L52.3011 15.6864L48.5207 15.6743L49.1161 13.1976L52.9447 13.1863C53.0302 12.948 53.0907 12.686 53.1516 12.4353L49.3712 12.424L49.9917 9.99484H53.7964C53.8696 9.73282 53.9301 9.4708 54.0149 9.20917L50.1374 9.19708C50.223 8.76856 50.3324 8.33966 50.4172 7.92284L44.911 18.5437L43.1975 18.5558V16.4362H45.0571C45.1908 16.1863 45.3122 15.936 45.446 15.686L43.1979 15.6739V13.1859H46.7343C46.8681 12.9477 46.9903 12.6856 47.124 12.4349L43.1983 12.4236V9.99445H48.3881C48.5219 9.73243 48.6679 9.4704 48.7893 9.20877L43.1983 9.19669C43.1983 8.744 43.2099 8.2917 43.1983 7.8511L40.3541 18.5558H35.7705L36.3293 16.4362H39.8056C39.8788 16.198 39.9393 15.948 40.0126 15.6981L36.5243 15.686L37.1803 13.1859H40.6566C40.7171 12.9352 40.778 12.6856 40.8508 12.4349L37.3868 12.4236C37.593 11.6142 37.8247 10.8039 38.0304 9.98275H41.4944C41.58 9.73204 41.6281 9.45832 41.7014 9.20838L38.2374 9.1963L38.8695 6.77922L45.9924 6.77922L46.004 6.04112L39.0633 6.02903L39.6954 3.63574H45.8221V2.83797L39.9147 2.82589L40.5467 0.420898L46.5636 0.420898L47.0014 7.69708ZM69.9986 2.81497L69.148 6.01811L64.4315 6.0302C64.5286 5.66095 64.6257 5.29209 64.7356 4.92284L63.204 4.91114C62.9732 5.69721 62.7789 6.50667 62.572 7.30444L65.9388 7.32822L68.2601 9.41192L66.4371 16.4249L62.6452 18.5566H58.1233L55.2181 16.4249L55.2066 16.4136H65.4409L65.6479 15.6872L55.3889 15.6751L56.0576 13.1984L61.0165 13.1871L60.7856 14.1154L62.2929 14.1275L62.5481 13.1871H66.2803C66.3528 12.9363 66.4379 12.6981 66.4988 12.4361L62.755 12.4248C62.7917 12.1865 62.8888 11.9604 62.9254 11.7105L59.0968 11.6984C58.5496 11.1264 57.9665 10.5676 57.4076 9.99562L67.1185 9.98431C67.1918 9.72229 67.2646 9.45988 67.3494 9.20994L57.1036 9.19786C57.3065 8.39427 57.5172 7.59257 57.7356 6.79287L61.795 6.78078C61.8683 6.54254 61.9164 6.28052 62.0143 6.04268L57.9299 6.03059C58.1241 5.22074 58.3677 4.43506 58.5619 3.6373L68.7962 3.62521L69.0032 2.82745L58.7565 2.81536L62.9015 0.422068L67.3987 0.422068L69.9986 2.81497Z" fill="#0462F9"/>
<path fill-rule="evenodd" clip-rule="evenodd" d="M25.0028 2.26228L7.26864 2.26228L6.63659 1.54796H4.60668L5.02023 0L25.5983 0L25.0028 2.26228ZM24.1276 5.56095L10.1734 5.56095L9.24998 4.51286H3.82895L4.16926 3.22693L24.7473 3.22693L24.1276 5.56095ZM23.2889 8.7637H12.9934L11.8144 7.4185H3.0751L3.33063 6.43007L23.9087 6.43007L23.2889 8.7637ZM22.4742 11.8241H15.6919L14.2941 10.229H2.33399L2.50394 9.56186H23.0943L22.4742 11.8241ZM21.6113 15.0152H18.4996L16.8347 13.1218H1.58014L1.71387 12.5509L14.671 12.5385H22.2676L21.6113 15.0152ZM20.8821 17.7536L19.4353 16.0867L0.79007 16.0754L0.862907 15.7295L21.429 15.7416L20.8821 17.7536ZM20.5418 19.004L0 19.0165L0.0728379 18.6944H20.6513L20.5418 19.004Z" fill="#FE901D"/>
</g>
<defs>
<clipPath id="clip0_1_277">
<rect width="70" height="19" fill="white"/>
</clipPath>
</defs>
</svg>
