<svg width="132" height="121" viewBox="0 0 132 121" fill="none" xmlns="http://www.w3.org/2000/svg">
<path fill-rule="evenodd" clip-rule="evenodd" d="M5.45343 0.0519772C5.45343 0.112731 5.62315 0.656875 5.83079 1.26096C8.18194 8.10623 14.8844 14.0079 24.7651 17.9327C26.7478 18.7201 28.588 19.3339 38.0625 22.3677C49.509 26.0331 53.7944 28.7684 57.0136 34.4636L57.5879 35.4796L57.462 34.5652C56.6525 28.6963 51.9358 23.4666 44.2374 19.9022C40.7188 18.2733 38.2339 17.3682 28.9751 14.3432C23.6081 12.5896 20.8423 11.5032 17.5504 9.85509C13.0937 7.62386 9.37952 4.76213 6.7672 1.54685C5.42565 -0.104479 5.45343 -0.0727815 5.45343 0.0519772ZM124.487 1.33533C123.093 3.14595 120.12 5.83071 117.789 7.38349C113.565 10.1979 108.699 12.2757 99.3372 15.2636C87.8008 18.9452 82.3383 21.6602 78.338 25.7001C75.6602 28.4043 74.0204 31.4217 73.6858 34.2605L73.5423 35.4796L74.0786 34.4886C76.1236 30.7099 79.1974 27.9971 84.0169 25.7177C86.8788 24.3641 88.8406 23.6617 96.763 21.1529C100.31 20.0298 104.097 18.7849 105.178 18.3866C107.787 17.4258 112.853 14.9424 114.748 13.695C118.451 11.2575 121.852 7.83152 123.638 4.73836C124.516 3.21809 125.557 0.718239 125.448 0.391509C125.409 0.274471 124.977 0.699341 124.487 1.33533ZM0.0702264 1.54685C0.430959 4.63188 2.23361 8.40106 4.58131 10.9787C8.43419 15.2087 12.8617 17.0844 19.6422 17.3587C21.8991 17.4499 21.9555 17.4418 21.5222 17.0905C21.2766 16.8912 19.5182 16.1105 17.6145 15.3559C15.7109 14.601 13.3591 13.528 12.3887 12.9712C7.99215 10.4492 4.34913 6.94927 1.34303 2.35961C0.684423 1.35382 0.096384 0.485179 0.036566 0.429302C-0.0232519 0.373425 -0.00804388 0.87632 0.0702264 1.54685ZM129.5 2.71702C126.604 7.01144 123.176 10.3188 119.144 12.7073C117.5 13.6812 115.757 14.4834 112.961 15.5525C110.922 16.332 108.982 17.2738 109.124 17.4152C109.3 17.5924 115.379 17.0943 116.653 16.7983C122.917 15.3426 128.258 10.5941 130.258 4.7032C130.673 3.47898 131.226 0.650576 131.083 0.481929C131.06 0.455107 130.348 1.4609 129.5 2.71702ZM0.481652 11.0196C0.559314 11.3973 0.991016 12.4785 1.44077 13.4221C2.09795 14.8005 2.58258 15.4601 3.90668 16.7776C6.66378 19.5208 9.26698 20.5482 13.4447 20.5417C15.7437 20.538 17.3907 20.2759 20.0176 19.4956C20.9743 19.2116 21.4041 18.9991 21.2249 18.8985C20.9631 18.7516 19.7686 18.5663 14.1727 17.8041C9.14491 17.1193 6.46324 15.8354 2.36156 12.1493C0.394459 10.3816 0.344172 10.3513 0.481652 11.0196ZM129.348 11.6263C124.623 15.9451 121.866 17.2183 115.559 17.9957C112.602 18.3602 110.626 18.666 109.983 18.8593C109.469 19.0133 111.046 19.5857 113.531 20.1471C115.684 20.6333 119.353 20.6723 121.237 20.2288C125.426 19.2423 128.886 16.0034 130.371 11.6781C130.589 11.0423 130.745 10.4994 130.717 10.4718C130.689 10.4441 130.072 10.9637 129.348 11.6263ZM23.196 20.855C15.3435 23.0755 10.3066 23.2693 5.30135 21.5436C4.67925 21.3292 4.12831 21.1955 4.07722 21.2469C3.86126 21.4633 6.46608 23.7545 7.62026 24.3635C12.1009 26.7274 18.3648 26.1621 22.8292 22.9905C24.2008 22.0162 26.1955 20.1259 25.8236 20.1528C25.7167 20.1605 24.5343 20.4764 23.196 20.855ZM105.458 20.5449C105.954 21.367 108.757 23.4544 110.413 24.2344C112.994 25.4507 114.261 25.7257 117.283 25.7261C120.342 25.7265 122.062 25.2886 124.041 24.0048C125.214 23.2435 126.914 21.6854 126.914 21.3713C126.914 21.2756 126.344 21.3774 125.647 21.5974C121.525 22.8985 117.371 23.0462 112.61 22.0607C111.389 21.808 106.935 20.6433 105.56 20.2172C105.231 20.1154 105.22 20.1501 105.458 20.5449ZM27.4324 23.1858C24.145 24.7581 19.8324 26.4165 17.2641 27.0966C15.1014 27.669 14.5871 27.7285 11.6727 27.7427L8.46299 27.7584L9.12463 28.3123C11.3344 30.1627 15.265 30.7855 19.0392 29.8835C22.2402 29.1183 26.029 26.9023 27.914 24.6924C28.6105 23.8758 29.746 22.1331 29.5457 22.1881C29.5106 22.1977 28.5598 22.6467 27.4324 23.1858ZM101.568 22.3194C101.568 22.7314 103.041 24.6057 104.236 25.7149C106.621 27.9268 109.752 29.4922 113 30.0953C114.899 30.4478 117.957 30.2619 119.433 29.7043C120.567 29.2762 122.453 28.1442 122.454 27.8917C122.454 27.8183 121.408 27.7866 120.13 27.8214C115.636 27.9431 110.813 26.599 103.849 23.2845C102.594 22.6874 101.568 22.2531 101.568 22.3194ZM31.5097 24.6353C25.4736 29.0017 20.3992 31.6653 16.0483 32.751C15.4629 32.8971 14.9837 33.0864 14.9837 33.1718C14.9837 33.4753 16.5333 33.799 18.4692 33.8998C23.6472 34.169 28.6383 31.4331 31.7109 26.6408C32.583 25.2807 33.3456 23.5869 33.0796 23.6009C32.9969 23.6052 32.2904 24.0707 31.5097 24.6353ZM98.0315 24.0502C98.524 25.6466 100.116 27.9933 101.803 29.6117C104.858 32.5409 108.308 33.9707 112.253 33.9433C114.044 33.9309 116.614 33.3345 115.965 33.0824C115.797 33.0175 114.536 32.5939 113.161 32.1412C108.89 30.7345 105.26 28.7306 99.5898 24.6512C98.781 24.0693 98.0676 23.593 98.0048 23.593C97.9419 23.593 97.9538 23.7986 98.0315 24.0502ZM33.4738 27.6568C27.2967 33.913 24.7168 36.5665 24.7168 36.6632C24.7168 36.715 25.0135 36.6904 25.3758 36.6081C29.1596 35.7507 35.0118 30.2731 36.6829 26.025C36.9158 25.4327 37.0791 24.7577 37.0454 24.5246C36.9967 24.1853 36.2856 24.8089 33.4738 27.6568ZM94.0772 24.8528C94.6971 28.244 99.4233 33.6714 103.595 35.7832C104.87 36.4281 106.231 36.8487 106.231 36.5974C106.231 36.5037 103.458 33.608 100.067 30.1625L93.9027 23.8978L94.0772 24.8528ZM39.722 25.1957C39.722 25.6716 32.2825 35.4896 30.4527 37.4282C29.863 38.053 29.3806 38.6201 29.3806 38.6886C29.3806 38.7569 29.7985 38.6868 30.3091 38.5327C33.2988 37.6312 37.0547 33.8431 38.902 29.8661C39.8741 27.7738 40.4556 25.0153 39.9248 25.0153C39.8133 25.0153 39.722 25.0966 39.722 25.1957ZM91.0355 25.6873C90.9754 29.5753 95.5121 36.0945 99.6389 38.0508C101.564 38.9633 101.781 38.8306 100.605 37.4607C98.6275 35.1573 92.2186 26.792 91.2889 25.301C91.076 24.9596 91.046 25.0056 91.0355 25.6873ZM42.9564 26.2269C42.0723 28.5953 39.0105 34.1763 36.4416 38.1022C35.79 39.0976 35.2874 39.9423 35.3243 39.9792C35.3612 40.0162 35.8868 39.7962 36.4921 39.4902C37.9421 38.7573 40.4035 36.2501 41.5015 34.3875C43.103 31.6708 43.8916 28.3488 43.4125 26.336L43.2192 25.5233L42.9564 26.2269ZM87.7149 26.0408C87.4817 26.9149 87.5664 29.1569 87.8799 30.408C88.047 31.074 88.615 32.4876 89.142 33.5493C89.9216 35.1191 90.4233 35.8067 91.8293 37.2321C93.3903 38.8144 95.0343 39.9746 95.4814 39.8092C95.5745 39.7748 95.0167 38.7408 94.2415 37.5115C91.5645 33.2665 89.3766 29.2089 88.0557 26.0408L87.8481 25.5424L87.7149 26.0408ZM45.3725 27.8866C45.0787 28.8219 44.4509 30.4484 43.9774 31.5013C43.1253 33.3957 39.533 40.2428 38.8254 41.3213C38.3316 42.0739 38.7035 42.0416 39.8883 41.2293C42.606 39.3658 45.2987 35.3152 46.1091 31.8713C46.4618 30.3724 46.4784 28.0758 46.1444 26.9722L45.9066 26.1861L45.3725 27.8866ZM84.9365 26.9574C84.5919 28.0036 84.638 30.5656 85.0285 32.0758C85.6802 34.5965 87.2146 37.3392 89.1665 39.4731C90.1941 40.5965 92.1509 42.0374 92.3618 41.826C92.4202 41.7675 91.8317 40.5823 91.0545 39.1923C88.178 34.0493 86.44 30.348 85.6453 27.6726L85.1974 26.1648L84.9365 26.9574ZM47.7417 28.5711C47.0745 34.0652 45.3183 39.071 42.965 42.1867C42.3972 42.9385 41.9649 43.5859 42.0044 43.6255C42.044 43.6651 42.6194 43.4402 43.2829 43.1256C45.4276 42.1093 47.3134 39.7671 48.4027 36.7668C48.8916 35.4197 48.9439 35.0029 48.9459 32.4317C48.948 29.784 48.9115 29.5097 48.4189 28.4695L47.8897 27.352L47.7417 28.5711ZM82.7459 28.2698C80.883 32.3523 82.5202 39.0972 86.0947 42.0662C86.8687 42.7091 88.942 43.8313 89.0858 43.6852C89.128 43.6424 88.7147 43.0129 88.1674 42.2865C85.8291 39.1831 84.3168 35.1106 83.5268 29.7903L83.1646 27.352L82.7459 28.2698ZM50.0977 29.6379C50.0202 31.4318 49.6362 34.6597 49.3543 35.886C49.0181 37.3481 47.6433 41.3776 46.9168 43.0299C46.6297 43.6826 46.11 44.5734 45.7618 45.0094L45.1287 45.8019L45.706 45.6568C46.5108 45.4542 47.5932 44.6303 48.5039 43.5269C49.5165 42.2999 50.9832 39.2748 51.3713 37.6131C51.9721 35.0397 51.6598 31.4266 50.6685 29.4792C50.4426 29.0356 50.2313 28.6727 50.1987 28.6727C50.1658 28.6727 50.1204 29.1069 50.0977 29.6379ZM80.337 29.6887C78.6775 33.8421 79.0802 37.757 81.6122 42.0859C82.6011 43.7769 83.5615 44.8129 84.6116 45.3225C85.8976 45.9461 86.0663 45.835 85.2619 44.8934C83.9092 43.3097 81.8097 37.1323 81.3717 33.4477C81.2123 32.1066 81.0148 30.4608 80.9327 29.7903L80.7835 28.5711L80.337 29.6887ZM63.5478 30.5937C61.0632 32.1089 60.9783 35.682 63.3902 37.2146C64.2839 37.7826 64.2859 37.7866 63.7195 37.852C62.9723 37.9384 62.6002 38.8389 63.0863 39.3849C63.3625 39.695 63.3677 39.784 63.1234 40.0085C62.4719 40.6069 62.8947 41.4788 63.8722 41.5534L64.5617 41.606L64.616 46.6378C64.6458 49.4052 64.6002 51.6336 64.5146 51.5897C62.5666 50.5933 60.7256 50.4809 58.3771 51.2159C55.5302 52.1067 54.437 52.8524 53.8244 54.3218C52.7599 56.8747 54.4745 59.1141 59.3881 61.5885C60.8501 62.3247 61.1857 62.4232 61.6186 62.2428C61.899 62.1259 63.0865 61.6255 64.2575 61.1305L66.3866 60.2308L66.442 56.5398L66.4971 52.8489L67.0116 53.1868C67.64 53.5993 70.1454 53.7943 71.1714 53.5105C71.9604 53.2923 72.328 53.4111 73.1503 54.1501C74.6334 55.4831 73.8515 56.9647 70.7462 58.7065C70.1328 59.0507 68.0798 59.9384 66.1838 60.6794C61.9558 62.3322 60.6295 63.0275 59.4838 64.192C56.9171 66.8008 57.8191 70.7038 61.486 72.8572L62.4058 73.3973L64.2745 72.2684C65.3024 71.6474 66.2209 71.1395 66.3156 71.1395C66.4105 71.1395 66.488 69.7169 66.488 67.9782V64.8172L67.5232 65.3876C69.1125 66.2635 69.7326 66.9172 69.7316 67.7159C69.7301 69.0645 68.6694 70.1601 65.8797 71.6948C62.3573 73.6326 61.0071 74.8469 60.4677 76.562C60.1359 77.6161 60.1357 77.7486 60.4646 79.0045C60.8335 80.4141 61.7869 81.9142 62.7797 82.6473L63.3675 83.0814L64.9208 81.9362L66.4742 80.791L66.5318 78.1702L66.5894 75.5495L67.2348 76.0943C68.1088 76.8316 68.4206 77.8126 68.0978 78.8099C67.6913 80.0658 67.1448 80.6559 64.7314 82.4454C61.4629 84.8688 60.6917 86.0687 60.8456 88.4917C60.9503 90.1353 61.7044 91.6726 63.0865 93.059L64.1561 94.1321L65.3221 92.869L66.488 91.6062V88.4675C66.488 84.9828 66.5507 84.8644 67.6032 86.3621C68.0968 87.0643 68.2089 87.4256 68.1978 88.2763C68.1771 89.8313 67.5528 90.9818 65.6207 93.0247C64.6718 94.028 63.7463 95.1378 63.5642 95.4906C62.9729 96.6364 62.833 97.9689 63.1465 99.4703C63.4537 100.942 64.321 103.04 64.6219 103.04C64.7231 103.04 65.1144 102.377 65.4918 101.567C66.1427 100.17 66.178 99.9768 66.1808 97.8082C66.1826 96.3741 66.1082 95.5471 65.9811 95.5887C65.8695 95.6253 65.5731 95.9589 65.3221 96.33C64.9674 96.8544 64.8658 97.2923 64.8658 98.2954C64.8658 99.0204 64.777 99.5861 64.663 99.5861C64.3191 99.5861 64.4461 97.503 64.8423 96.6398C65.0477 96.1928 66.0535 95.0041 67.0777 93.9984C69.6948 91.4278 70.6039 89.456 70.2531 87.1106C70.0992 86.0823 69.1504 84.538 68.2996 83.9309L67.7156 83.5141L66.1893 84.5464L64.663 85.5784V88.7386C64.663 91.0468 64.5996 91.8775 64.4276 91.8202C63.9554 91.6623 63.0137 89.6513 62.9014 88.5604C62.7174 86.7739 63.2852 86.0585 66.6245 83.8681C69.4335 82.0256 70.7462 80.0601 70.7462 77.6968C70.7462 76.4376 70.3861 75.6113 69.3771 74.5555L68.6609 73.8061L66.662 74.8113L64.663 75.8165V78.4915V81.1667L64.1293 80.674C63.8359 80.4031 63.4271 79.8157 63.2213 79.3687C62.2541 77.2685 62.9841 76.3027 67.1578 74.1611C70.7347 72.3257 72.2684 70.9458 72.864 69.0275C73.1805 68.0077 73.2008 67.6783 73.0007 66.8097C72.6853 65.4408 72.1095 64.5598 70.9082 63.6082C69.9441 62.8446 69.8828 62.8253 69.2619 63.0931C68.9073 63.2459 67.7275 63.7633 66.6401 64.2424L64.663 65.1139V68.1266C64.663 71.5103 64.6525 71.5292 63.3174 70.5602C62.2401 69.7781 61.4815 68.841 61.3165 68.0882C61.0058 66.6709 62.1683 65.8579 68.5405 63.0356C75.2076 60.0829 77.5032 58.204 77.5123 55.6925C77.5166 54.5392 76.8207 53.2455 75.8239 52.5535C75.4218 52.2741 74.2288 51.7535 73.173 51.3963C70.7983 50.5931 68.9361 50.5236 67.4512 51.1827L66.488 51.6105V46.538V41.4658L67.0063 41.5599C67.3453 41.6216 67.661 41.5174 67.9188 41.2591C68.4143 40.7625 68.421 40.3257 67.9374 40.0229C67.572 39.7943 67.572 39.7779 67.9374 39.4117C68.144 39.2047 68.313 38.9048 68.313 38.7451C68.313 38.2844 67.7241 37.8169 67.1326 37.8084L66.5894 37.8004L67.2016 37.533C68.3736 37.0214 69.5274 35.2467 69.5274 33.9557C69.5274 32.6384 68.3606 30.8737 67.1567 30.3696C66.0889 29.9226 64.4848 30.0221 63.5478 30.5937ZM77.7074 31.5174C75.6255 35.7976 75.8172 41.4447 78.1602 44.857C78.8184 45.8157 80.3639 47.1431 80.5752 46.9314C80.6241 46.8826 80.4479 46.3889 80.1837 45.8344C79.1177 43.5968 78.6846 40.6798 78.4836 34.3836L78.35 30.1967L77.7074 31.5174ZM52.6159 34.3113C52.3813 40.6362 51.9827 43.3599 50.9459 45.7212C50.6807 46.3251 50.5053 46.8607 50.556 46.9117C50.7009 47.0568 51.7775 46.2257 52.4734 45.4314C53.3354 44.4478 54.0623 42.9533 54.4214 41.4268C54.8598 39.5639 54.8176 36.0006 54.3348 34.1093C53.9988 32.7924 53.0407 30.5014 52.8262 30.5014C52.7883 30.5014 52.6936 32.216 52.6159 34.3113ZM54.8057 32.6349C54.8598 32.8584 55.0672 34.4129 55.2666 36.0892C55.7642 40.2747 55.7767 47.481 55.2885 48.7806C55.1011 49.2791 54.9904 49.7297 55.0425 49.7817C55.2319 49.9717 56.4001 48.6618 56.8778 47.7236C58.166 45.1933 58.4209 40.7776 57.4668 37.517C56.8983 35.5743 56.0629 33.8329 55.2222 32.8381C54.8249 32.3679 54.7296 32.3214 54.8057 32.6349ZM75.2305 33.7409C72.8607 37.415 72.306 43.4889 73.9906 47.3142C74.3854 48.2107 75.7028 49.8045 76.0491 49.8045C76.1323 49.8045 76.0453 49.4617 75.8559 49.0425C75.3534 47.9313 75.3717 39.4755 75.8851 35.5107C76.0854 33.9632 76.202 32.6498 76.1444 32.5919C76.0866 32.5342 75.6754 33.0513 75.2305 33.7409ZM60.9884 51.6137C61.3469 51.8411 61.1038 52.2428 60.6076 52.2428C60.1114 52.2428 59.8683 51.8411 60.2268 51.6137C60.3805 51.516 60.5518 51.4363 60.6076 51.4363C60.6634 51.4363 60.8347 51.516 60.9884 51.6137ZM70.804 52.0977C70.3303 52.3094 69.7324 52.1755 69.7324 51.8577C69.7324 51.5662 70.3871 51.4737 70.8434 51.7009C71.2369 51.8968 71.2361 51.9045 70.804 52.0977ZM64.663 56.8146C64.663 58.882 64.6247 60.5736 64.5777 60.5736C64.3163 60.5736 61.0448 59.0903 59.9372 58.4695C58.4862 57.6566 57.1605 56.3232 57.1605 55.6769C57.1605 55.0444 57.713 54.2241 58.4771 53.722C59.0391 53.3528 59.2687 53.3103 59.8289 53.4713C60.7785 53.7442 62.8079 53.6921 63.6492 53.3731C64.0395 53.2252 64.4272 53.0931 64.511 53.0797C64.5947 53.0665 64.663 54.7471 64.663 56.8146ZM66.602 94.8922C66.5401 94.9926 66.5006 96.1127 66.5142 97.3813C66.5436 100.124 66.3278 100.927 64.8952 103.415C64.3384 104.383 63.7719 105.616 63.6362 106.156C63.3158 107.433 63.4941 109.49 64.1496 112.078C64.5923 113.825 64.663 114.549 64.663 117.322V120.538L65.5248 120.475L66.3866 120.413L66.4985 116.756C66.5878 113.836 66.7062 112.729 67.0858 111.27C67.777 108.611 67.7598 106.549 67.0326 104.979L66.4722 103.769L65.8722 104.675C65.1199 105.81 64.8731 106.551 64.6726 108.277L64.5136 109.644L64.4889 108.222C64.4611 106.616 64.836 105.608 66.2333 103.533C67.3005 101.948 67.9177 100.223 68.054 98.4448C68.1505 97.1817 68.0984 96.8538 67.6418 95.8541C67.1428 94.7621 66.8495 94.4909 66.602 94.8922ZM66.635 108.777C66.5898 109.142 66.5519 108.892 66.5509 108.222C66.5496 107.551 66.5865 107.252 66.633 107.558C66.6792 107.863 66.68 108.412 66.635 108.777Z" fill="#6A92E4"/>
</svg>
