<svg width="282" height="164" viewBox="0 0 282 164" fill="none" xmlns="http://www.w3.org/2000/svg">
<path fill-rule="evenodd" clip-rule="evenodd" d="M3 3H36V0H0V1V3V37H3L3 3Z" fill="#4267B2"/>
<path fill-rule="evenodd" clip-rule="evenodd" d="M279 3H246V0H282V1V3V37H279L279 3Z" fill="#4267B2"/>
<path fill-rule="evenodd" clip-rule="evenodd" d="M3 161H36V164H0V163V161V127H3L3 161Z" fill="#4267B2"/>
<path fill-rule="evenodd" clip-rule="evenodd" d="M279 161H246V164H282V163V161V127H279L279 161Z" fill="#4267B2"/>
<g clip-path="url(#clip0_344_37544)">
<path d="M96.2781 104.411C107.734 104.411 117.021 103.094 117.021 101.47C117.021 99.8452 107.734 98.5283 96.2781 98.5283C84.8221 98.5283 75.5352 99.8452 75.5352 101.47C75.5352 103.094 84.8221 104.411 96.2781 104.411Z" fill="#BE252B"/>
<path d="M114.88 76.2681H78.1133V117.847H114.88V76.2681Z" fill="#F9C89F"/>
<path d="M133.63 49.3216C131.538 44.3112 127.268 46.779 127.268 46.779C129.733 24.0202 118.166 9.00146 96.502 9.00146C74.8377 9.00146 63.271 24.0202 65.7362 46.779C65.7362 46.779 61.4656 44.3236 59.3739 49.3216C57.2822 54.3195 61.1046 66.0604 63.4702 69.7995C65.8358 73.5261 70.0193 76.3554 70.0193 76.3554C70.0193 76.3554 70.2932 80.5432 71.3889 83.4597C72.4845 86.3762 84.8481 99.7623 88.4837 101.806C93.2524 104.611 100.275 104.611 104.558 101.806C108.193 99.7623 120.557 86.3638 121.652 83.4597C122.748 80.5432 123.022 76.3554 123.022 76.3554C123.022 76.3554 127.206 73.5386 129.571 69.7995C131.937 66.0728 135.747 54.332 133.667 49.3216H133.63Z" fill="#F9C89F"/>
<path d="M62.1886 60.5643C61.9893 59.8289 60.2836 53.3104 62.6243 51.5406C63.3963 51.042 64.0313 51.0919 64.4297 51.2165C65.6374 51.6154 66.2475 53.1733 66.2848 53.2481L65.4133 53.5846C65.2763 53.2481 64.8032 52.3133 64.1433 52.1139C63.8445 52.0142 63.5208 52.0765 63.1722 52.3133C61.815 53.3478 62.4002 57.7849 63.0975 60.3275L62.201 60.5768L62.1886 60.5643Z" fill="#C46966"/>
<path d="M130.822 60.5636L129.926 60.3143C130.424 58.4821 131.382 53.4592 129.826 52.2752C129.502 52.0633 129.179 52.001 128.88 52.1007C128.232 52.3126 127.747 53.2349 127.61 53.5714L126.738 53.2349C126.763 53.1726 127.373 51.6022 128.593 51.2033C128.992 51.0787 129.627 51.0164 130.361 51.5024C132.727 53.2972 131.034 59.8157 130.835 60.5511L130.822 60.5636Z" fill="#C46966"/>
<path d="M96.4959 9.00146C74.8192 9.00146 63.2649 24.0202 65.7302 46.779C68.5938 48.6486 69.2537 53.7213 68.8055 58.7442C68.8055 58.7442 67.8468 74.7351 70.9968 82.2881C74.1344 89.8287 79.6127 101.619 96.4959 101.482C113.379 101.632 118.857 89.8411 121.995 82.2881C125.133 74.7476 124.186 58.7442 124.186 58.7442C123.738 53.9456 123.726 48.6735 127.262 46.779C129.727 24.0202 118.16 9.00146 96.4959 9.00146ZM120.215 43.9622C120.215 43.9622 119.791 64.8389 116.579 69.4131C113.354 73.9873 114.363 63.8418 96.5084 63.6673C78.654 63.4928 79.6501 73.9873 76.4253 69.4131C73.2131 64.8514 72.7897 44.0494 72.7897 43.9622C73.0014 39.3506 73.4496 34.9385 75.4293 32.9692C77.9941 30.4141 81.7418 30.8254 84.9416 31.648C88.6769 32.6077 92.5366 33.8915 96.4835 33.9912C100.654 34.1034 104.626 32.5704 108.623 31.5982C111.736 30.8504 115.11 30.5138 117.575 32.9692C119.555 34.9509 120.003 39.3506 120.215 43.9747V43.9622Z" fill="#4C224B"/>
<path d="M159.39 115.054C141.971 110.829 117.02 109.695 117.02 109.695C104.146 119.94 86.9264 120.077 75.5339 109.695C75.5339 109.695 51.0433 111.29 33.7617 115.403C44.9425 138.823 68.8354 155 96.4885 155C124.291 155 148.259 138.661 159.377 115.054H159.39Z" fill="#FF6158"/>
<path d="M75.5352 101.468V111.875C90.2519 122.744 104.097 122.893 117.021 111.875V101.468C109.7 106.217 80.2291 105.569 75.5352 101.468Z" fill="#FF6158"/>
<path d="M95.7822 116.076C93.7652 116.076 91.7606 115.989 89.8183 115.814C85.9711 115.478 76.8322 114.244 75.1016 110.143L75.9607 109.782C77.019 112.299 82.2358 114.206 89.9055 114.879C100.538 115.814 113.774 114.107 116.625 109.707L117.409 110.218C114.869 114.144 105.307 116.064 95.7822 116.064V116.076Z" fill="#BE252B"/>
<path d="M95.8606 107.414C92.0881 107.414 88.4151 107.24 85.4145 106.916C80.1354 106.355 76.9853 105.432 76.0391 104.161L76.7861 103.6C77.1347 104.074 78.7035 105.258 85.5141 105.981C96.3213 107.127 112.769 106.205 115.832 103.525L116.442 104.223C113.877 106.467 104.601 107.402 95.8482 107.402L95.8606 107.414Z" fill="#BE252B"/>
</g>
<rect x="141" y="50" width="116" height="70.0377" rx="2.73585" fill="#4267B2"/>
<rect x="148.113" y="70.2451" width="33.3774" height="33.9245" rx="2.73585" fill="white"/>
<rect opacity="0.5" x="192.434" y="72.981" width="20.7925" height="4.92453" rx="2.46226" fill="white"/>
<rect opacity="0.2" x="192.434" y="86.1133" width="30.0943" height="4.92453" rx="2.46226" fill="white"/>
<rect opacity="0.2" x="192.434" y="97.604" width="30.0943" height="4.92453" rx="2.46226" fill="white"/>
<rect x="231.832" y="70.2451" width="16.9623" height="9.84906" fill="white"/>
<path d="M181.409 62.019H179.716V57.2437H181.423C181.903 57.2437 182.316 57.3393 182.663 57.5305C183.01 57.7202 183.276 57.993 183.463 58.349C183.651 58.7049 183.745 59.1309 183.745 59.6267C183.745 60.1242 183.651 60.5516 183.463 60.9092C183.276 61.2667 183.008 61.541 182.658 61.7322C182.31 61.9234 181.894 62.019 181.409 62.019ZM180.725 61.154H181.367C181.665 61.154 181.916 61.1011 182.12 60.9954C182.325 60.8882 182.479 60.7226 182.581 60.4988C182.686 60.2734 182.738 59.9827 182.738 59.6267C182.738 59.2739 182.686 58.9855 182.581 58.7617C182.479 58.5378 182.326 58.3731 182.122 58.2674C181.918 58.1617 181.667 58.1088 181.369 58.1088H180.725V61.154ZM188.881 59.6314C188.881 60.1521 188.782 60.5952 188.585 60.9605C188.389 61.3258 188.122 61.6048 187.783 61.7975C187.446 61.9887 187.066 62.0843 186.645 62.0843C186.221 62.0843 185.84 61.988 185.502 61.7952C185.165 61.6024 184.899 61.3234 184.703 60.9581C184.507 60.5928 184.409 60.1506 184.409 59.6314C184.409 59.1106 184.507 58.6676 184.703 58.3023C184.899 57.937 185.165 57.6588 185.502 57.4676C185.84 57.2748 186.221 57.1785 186.645 57.1785C187.066 57.1785 187.446 57.2748 187.783 57.4676C188.122 57.6588 188.389 57.937 188.585 58.3023C188.782 58.6676 188.881 59.1106 188.881 59.6314ZM187.857 59.6314C187.857 59.2941 187.807 59.0096 187.706 58.778C187.606 58.5464 187.466 58.3707 187.284 58.251C187.102 58.1313 186.889 58.0715 186.645 58.0715C186.401 58.0715 186.188 58.1313 186.006 58.251C185.824 58.3707 185.683 58.5464 185.582 58.778C185.482 59.0096 185.433 59.2941 185.433 59.6314C185.433 59.9687 185.482 60.2532 185.582 60.4848C185.683 60.7164 185.824 60.8921 186.006 61.0118C186.188 61.1314 186.401 61.1913 186.645 61.1913C186.889 61.1913 187.102 61.1314 187.284 61.0118C187.466 60.8921 187.606 60.7164 187.706 60.4848C187.807 60.2532 187.857 59.9687 187.857 59.6314ZM193.842 58.9156H192.821C192.802 58.7834 192.764 58.6661 192.707 58.5635C192.649 58.4593 192.575 58.3707 192.485 58.2977C192.395 58.2246 192.291 58.1686 192.173 58.1298C192.056 58.0909 191.93 58.0715 191.793 58.0715C191.546 58.0715 191.33 58.1329 191.147 58.2557C190.964 58.3769 190.821 58.5542 190.72 58.7873C190.619 59.0189 190.569 59.3003 190.569 59.6314C190.569 59.9718 190.619 60.2578 190.72 60.4895C190.823 60.7211 190.966 60.8959 191.149 61.0141C191.333 61.1322 191.545 61.1913 191.786 61.1913C191.921 61.1913 192.046 61.1734 192.161 61.1377C192.278 61.1019 192.381 61.0498 192.471 60.9814C192.561 60.9115 192.636 60.8268 192.695 60.7273C192.756 60.6278 192.798 60.5143 192.821 60.3869L193.842 60.3915C193.816 60.6107 193.75 60.8221 193.644 61.0257C193.54 61.2278 193.399 61.4089 193.222 61.569C193.046 61.7276 192.837 61.8535 192.593 61.9468C192.35 62.0385 192.076 62.0843 191.769 62.0843C191.344 62.0843 190.963 61.988 190.627 61.7952C190.293 61.6024 190.028 61.3234 189.834 60.9581C189.641 60.5928 189.545 60.1506 189.545 59.6314C189.545 59.1106 189.643 58.6676 189.839 58.3023C190.035 57.937 190.301 57.6588 190.636 57.4676C190.972 57.2748 191.35 57.1785 191.769 57.1785C192.046 57.1785 192.303 57.2173 192.539 57.295C192.777 57.3728 192.987 57.4862 193.171 57.6355C193.354 57.7831 193.503 57.9642 193.619 58.1788C193.735 58.3933 193.81 58.6389 193.842 58.9156ZM197.516 57.2437H198.526V60.3449C198.526 60.6931 198.442 60.9978 198.276 61.2589C198.111 61.5201 197.88 61.7237 197.584 61.8698C197.287 62.0144 196.941 62.0867 196.546 62.0867C196.15 62.0867 195.803 62.0144 195.506 61.8698C195.209 61.7237 194.978 61.5201 194.814 61.2589C194.649 60.9978 194.566 60.6931 194.566 60.3449V57.2437H195.576V60.2586C195.576 60.4405 195.616 60.6022 195.695 60.7436C195.776 60.8851 195.889 60.9962 196.035 61.077C196.181 61.1579 196.352 61.1983 196.546 61.1983C196.742 61.1983 196.912 61.1579 197.057 61.077C197.203 60.9962 197.315 60.8851 197.395 60.7436C197.476 60.6022 197.516 60.4405 197.516 60.2586V57.2437ZM199.356 57.2437H200.601L201.916 60.4521H201.972L203.287 57.2437H204.533V62.019H203.553V58.9109H203.514L202.278 61.9957H201.611L200.375 58.8992H200.336V62.019H199.356V57.2437ZM205.364 62.019V57.2437H208.582V58.0762H206.374V59.214H208.417V60.0464H206.374V61.1866H208.591V62.019H205.364ZM213.379 57.2437V62.019H212.507L210.429 59.0135H210.394V62.019H209.385V57.2437H210.271L212.332 60.247H212.374V57.2437H213.379ZM214.031 58.0762V57.2437H217.953V58.0762H216.491V62.019H215.493V58.0762H214.031Z" fill="white"/>
<g clip-path="url(#clip1_344_37544)">
<path d="M164.748 92.794C167.319 92.794 169.402 92.4979 169.402 92.1326C169.402 91.7673 167.319 91.4712 164.748 91.4712C162.178 91.4712 160.094 91.7673 160.094 92.1326C160.094 92.4979 162.178 92.794 164.748 92.794Z" fill="#BE252B"/>
<path d="M168.926 86.4653H160.676V95.815H168.926V86.4653Z" fill="#F9C89F"/>
<path d="M173.129 80.4064C172.66 79.2797 171.702 79.8347 171.702 79.8347C172.255 74.717 169.659 71.3398 164.798 71.3398C159.937 71.3398 157.342 74.717 157.895 79.8347C157.895 79.8347 156.937 79.2825 156.468 80.4064C155.998 81.5303 156.856 84.1704 157.387 85.0111C157.918 85.8491 158.856 86.4853 158.856 86.4853C158.856 86.4853 158.918 87.427 159.164 88.0828C159.409 88.7387 162.184 91.7487 162.999 92.2083C164.069 92.8389 165.645 92.8389 166.606 92.2083C167.422 91.7487 170.196 88.7359 170.442 88.0828C170.687 87.427 170.749 86.4853 170.749 86.4853C170.749 86.4853 171.688 85.8519 172.218 85.0111C172.749 84.1732 173.604 81.5331 173.138 80.4064H173.129Z" fill="#F9C89F"/>
<path d="M157.098 82.9348C157.054 82.7694 156.671 81.3036 157.196 80.9057C157.369 80.7936 157.512 80.8048 157.601 80.8328C157.872 80.9225 158.009 81.2728 158.017 81.2896L157.822 81.3653C157.791 81.2896 157.685 81.0794 157.537 81.0346C157.47 81.0122 157.397 81.0262 157.319 81.0794C157.014 81.312 157.146 82.3098 157.302 82.8815L157.101 82.9376L157.098 82.9348Z" fill="#C46966"/>
<path d="M172.498 82.9348L172.297 82.8787C172.409 82.4667 172.624 81.3373 172.275 81.071C172.202 81.0234 172.13 81.0093 172.063 81.0318C171.917 81.0794 171.808 81.2868 171.778 81.3625L171.582 81.2868C171.588 81.2728 171.725 80.9197 171.998 80.83C172.088 80.8019 172.23 80.7879 172.395 80.8972C172.926 81.3008 172.546 82.7666 172.501 82.932L172.498 82.9348Z" fill="#C46966"/>
<path d="M164.797 71.3398C159.933 71.3398 157.341 74.717 157.894 79.8347C158.536 80.2551 158.684 81.3957 158.584 82.5252C158.584 82.5252 158.369 86.121 159.076 87.8194C159.78 89.515 161.009 92.1663 164.797 92.1355C168.585 92.1691 169.815 89.5178 170.519 87.8194C171.223 86.1238 171.01 82.5252 171.01 82.5252C170.91 81.4462 170.907 80.2607 171.7 79.8347C172.253 74.717 169.658 71.3398 164.797 71.3398ZM170.119 79.2013C170.119 79.2013 170.024 83.8957 169.303 84.9243C168.58 85.9528 168.806 83.6715 164.8 83.6322C160.794 83.593 161.017 85.9528 160.294 84.9243C159.573 83.8985 159.478 79.2209 159.478 79.2013C159.525 78.1643 159.626 77.1721 160.07 76.7293C160.646 76.1548 161.487 76.2473 162.205 76.4323C163.043 76.6481 163.909 76.9367 164.794 76.9591C165.73 76.9844 166.621 76.6396 167.518 76.421C168.217 76.2529 168.974 76.1772 169.527 76.7293C169.971 77.175 170.072 78.1643 170.119 79.2041V79.2013Z" fill="#4C224B"/>
<path d="M178.911 95.1876C175.003 94.2375 169.404 93.9824 169.404 93.9824C166.515 96.2862 162.652 96.317 160.095 93.9824C160.095 93.9824 154.6 94.3412 150.723 95.266C153.231 100.532 158.592 104.17 164.797 104.17C171.036 104.17 176.413 100.496 178.908 95.1876H178.911Z" fill="#FF6158"/>
<path d="M160.094 92.1323V94.4725C163.396 96.9164 166.502 96.9501 169.402 94.4725V92.1323C167.76 93.2001 161.147 93.0544 160.094 92.1323Z" fill="#FF6158"/>
<path d="M164.64 95.417C164.188 95.417 163.738 95.3974 163.302 95.3582C162.439 95.2825 160.388 95.005 160 94.083L160.193 94.0017C160.43 94.5678 161.601 94.9966 163.322 95.148C165.707 95.3582 168.677 94.9742 169.317 93.9849L169.493 94.0998C168.923 94.9826 166.777 95.4142 164.64 95.4142V95.417Z" fill="#BE252B"/>
<path d="M164.655 93.4692C163.808 93.4692 162.984 93.4299 162.311 93.357C161.126 93.2309 160.419 93.0235 160.207 92.7377L160.375 92.6115C160.453 92.718 160.805 92.9843 162.333 93.1468C164.758 93.4047 168.448 93.1973 169.136 92.5947L169.273 92.7517C168.697 93.2562 166.616 93.4663 164.652 93.4663L164.655 93.4692Z" fill="#BE252B"/>
</g>
<defs>
<clipPath id="clip0_344_37544">
<rect width="139" height="146" fill="white" transform="translate(27 9)"/>
</clipPath>
<clipPath id="clip1_344_37544">
<rect width="31.1887" height="32.8302" fill="white" transform="translate(149.207 71.3398)"/>
</clipPath>
</defs>
</svg>
