<svg width="306" height="250" viewBox="0 0 306 250" fill="none" xmlns="http://www.w3.org/2000/svg">
<g clip-path="url(#clip0_227_2527)">
<path d="M283.521 183.266H119.98V208.029H283.521V183.266Z" fill="white"/>
<path d="M283.798 208.362H119.703V183.044H283.798V208.362ZM120.257 207.808H283.244V183.598H120.257V207.808Z" fill="#DBDBDB"/>
<path d="M134.439 190.025C134.772 190.967 134.938 191.908 135.104 192.85C135.215 193.792 135.27 194.734 135.27 195.676C135.27 196.618 135.215 197.559 135.104 198.501C134.993 199.443 134.772 200.385 134.439 201.326C134.107 200.385 133.941 199.443 133.775 198.501C133.664 197.559 133.608 196.618 133.608 195.676C133.608 194.734 133.664 193.792 133.775 192.85C133.885 191.908 134.107 190.967 134.439 190.025Z" fill="#37474F"/>
<path d="M140.091 195.676C139.149 196.008 138.207 196.174 137.265 196.341C136.323 196.451 135.382 196.507 134.44 196.507C133.498 196.507 132.556 196.451 131.614 196.341C130.673 196.23 129.731 196.008 128.789 195.676C129.731 195.343 130.673 195.177 131.614 195.011C132.556 194.9 133.498 194.845 134.44 194.845C135.382 194.845 136.323 194.9 137.265 195.011C138.207 195.177 139.149 195.343 140.091 195.676Z" fill="#37474F"/>
<path d="M138.429 191.687C137.985 192.573 137.487 193.404 136.877 194.18C136.268 194.955 135.659 195.62 134.994 196.34C134.329 197.005 133.609 197.614 132.889 198.224C132.113 198.778 131.337 199.332 130.396 199.775C130.839 198.889 131.337 198.058 131.947 197.282C132.556 196.506 133.166 195.842 133.83 195.177C134.495 194.512 135.215 193.903 135.991 193.293C136.711 192.628 137.542 192.074 138.429 191.687Z" fill="#37474F"/>
<path d="M138.429 199.664C137.543 199.221 136.712 198.723 135.936 198.113C135.161 197.504 134.496 196.894 133.776 196.23C133.111 195.565 132.501 194.845 131.892 194.124C131.338 193.349 130.784 192.573 130.341 191.631C131.227 192.075 132.058 192.573 132.834 193.183C133.609 193.792 134.274 194.401 134.939 195.066C135.604 195.731 136.213 196.451 136.823 197.227C137.487 198.002 138.041 198.778 138.429 199.664Z" fill="#37474F"/>
<path d="M156.545 190.025C156.877 190.967 157.043 191.908 157.21 192.85C157.32 193.792 157.376 194.734 157.376 195.676C157.376 196.618 157.32 197.559 157.21 198.501C157.099 199.443 156.877 200.385 156.545 201.326C156.212 200.385 156.046 199.443 155.88 198.501C155.769 197.559 155.714 196.618 155.714 195.676C155.714 194.734 155.769 193.792 155.88 192.85C156.046 191.908 156.212 190.967 156.545 190.025Z" fill="#37474F"/>
<path d="M162.251 195.676C161.309 196.008 160.367 196.174 159.425 196.341C158.484 196.451 157.542 196.507 156.6 196.507C155.658 196.507 154.716 196.451 153.775 196.341C152.833 196.23 151.891 196.008 150.949 195.676C151.891 195.343 152.833 195.177 153.775 195.011C154.716 194.9 155.658 194.845 156.6 194.845C157.542 194.845 158.484 194.9 159.425 195.011C160.312 195.177 161.309 195.343 162.251 195.676Z" fill="#37474F"/>
<path d="M160.589 191.687C160.145 192.573 159.647 193.404 159.037 194.18C158.428 194.955 157.819 195.62 157.154 196.34C156.489 197.005 155.769 197.614 155.049 198.224C154.273 198.778 153.497 199.332 152.556 199.775C152.999 198.889 153.497 198.058 154.107 197.282C154.716 196.506 155.326 195.842 155.99 195.177C156.655 194.512 157.375 193.903 158.151 193.293C158.871 192.628 159.647 192.074 160.589 191.687Z" fill="#37474F"/>
<path d="M160.589 199.664C159.703 199.221 158.872 198.723 158.096 198.113C157.321 197.504 156.656 196.894 155.936 196.23C155.271 195.565 154.662 194.845 154.052 194.124C153.498 193.349 152.944 192.573 152.501 191.631C153.387 192.075 154.218 192.573 154.994 193.183C155.77 193.792 156.434 194.401 157.099 195.066C157.764 195.731 158.373 196.451 158.983 197.227C159.592 198.002 160.146 198.778 160.589 199.664Z" fill="#37474F"/>
<path d="M178.704 190.025C179.036 190.967 179.203 191.908 179.369 192.85C179.48 193.792 179.535 194.734 179.535 195.676C179.535 196.618 179.48 197.559 179.369 198.501C179.258 199.443 179.036 200.385 178.704 201.326C178.372 200.385 178.205 199.443 178.039 198.501C177.928 197.559 177.873 196.618 177.873 195.676C177.873 194.734 177.928 193.792 178.039 192.85C178.15 191.908 178.316 190.967 178.704 190.025Z" fill="#37474F"/>
<path d="M184.355 195.676C183.414 196.008 182.472 196.174 181.53 196.341C180.588 196.451 179.646 196.507 178.705 196.507C177.763 196.507 176.821 196.451 175.879 196.341C174.937 196.23 173.996 196.008 173.054 195.676C173.996 195.343 174.937 195.177 175.879 195.011C176.821 194.9 177.763 194.845 178.705 194.845C179.646 194.845 180.588 194.9 181.53 195.011C182.472 195.177 183.414 195.343 184.355 195.676Z" fill="#37474F"/>
<path d="M182.693 191.687C182.25 192.573 181.751 193.404 181.142 194.18C180.533 194.955 179.923 195.62 179.258 196.34C178.594 197.005 177.873 197.614 177.153 198.224C176.378 198.778 175.602 199.332 174.66 199.775C175.103 198.889 175.602 198.058 176.211 197.282C176.821 196.506 177.43 195.842 178.095 195.177C178.76 194.512 179.48 193.903 180.256 193.293C180.976 192.628 181.807 192.074 182.693 191.687Z" fill="#37474F"/>
<path d="M182.693 199.664C181.806 199.221 180.975 198.723 180.2 198.113C179.424 197.504 178.759 196.894 178.039 196.23C177.374 195.565 176.765 194.845 176.156 194.124C175.602 193.349 175.048 192.573 174.604 191.631C175.491 192.075 176.322 192.573 177.097 193.183C177.873 193.792 178.538 194.401 179.203 195.066C179.867 195.731 180.477 196.451 181.086 197.227C181.751 198.002 182.25 198.778 182.693 199.664Z" fill="#37474F"/>
<path d="M200.809 190.025C201.141 190.967 201.307 191.908 201.473 192.85C201.584 193.792 201.64 194.734 201.64 195.676C201.64 196.618 201.584 197.559 201.473 198.501C201.363 199.443 201.141 200.385 200.809 201.326C200.476 200.385 200.31 199.443 200.144 198.501C200.033 197.559 199.978 196.618 199.978 195.676C199.978 194.734 200.033 193.792 200.144 192.85C200.255 191.908 200.476 190.967 200.809 190.025Z" fill="#37474F"/>
<path d="M206.46 195.676C205.518 196.008 204.576 196.174 203.634 196.341C202.693 196.451 201.751 196.507 200.809 196.507C199.867 196.507 198.925 196.451 197.984 196.341C197.042 196.23 196.1 196.008 195.158 195.676C196.1 195.343 197.042 195.177 197.984 195.011C198.925 194.9 199.867 194.845 200.809 194.845C201.751 194.845 202.693 194.9 203.634 195.011C204.576 195.177 205.518 195.343 206.46 195.676Z" fill="#37474F"/>
<path d="M204.798 191.687C204.354 192.573 203.856 193.404 203.246 194.18C202.637 194.955 202.028 195.62 201.363 196.34C200.698 197.005 199.978 197.614 199.258 198.224C198.482 198.778 197.706 199.332 196.765 199.775C197.208 198.889 197.706 198.058 198.316 197.282C198.925 196.506 199.535 195.842 200.199 195.177C200.864 194.512 201.584 193.903 202.36 193.293C203.136 192.628 203.911 192.074 204.798 191.687Z" fill="#37474F"/>
<path d="M204.797 199.664C203.911 199.221 203.08 198.723 202.304 198.113C201.529 197.504 200.864 196.894 200.144 196.23C199.479 195.565 198.87 194.845 198.26 194.124C197.706 193.349 197.152 192.573 196.709 191.631C197.595 192.075 198.426 192.573 199.202 193.183C199.978 193.792 200.642 194.401 201.307 195.066C201.972 195.731 202.581 196.451 203.191 197.227C203.856 198.002 204.41 198.778 204.797 199.664Z" fill="#37474F"/>
<path d="M222.914 190.025C223.246 190.967 223.413 191.908 223.579 192.85C223.69 193.792 223.745 194.734 223.745 195.676C223.745 196.618 223.69 197.559 223.579 198.501C223.468 199.443 223.246 200.385 222.914 201.326C222.582 200.385 222.415 199.443 222.249 198.501C222.138 197.559 222.083 196.618 222.083 195.676C222.083 194.734 222.138 193.792 222.249 192.85C222.415 191.908 222.582 190.967 222.914 190.025Z" fill="#37474F"/>
<path d="M228.62 195.676C227.678 196.008 226.736 196.174 225.795 196.341C224.853 196.451 223.911 196.507 222.969 196.507C222.027 196.507 221.086 196.451 220.144 196.341C219.202 196.23 218.26 196.008 217.318 195.676C218.26 195.343 219.202 195.177 220.144 195.011C221.086 194.9 222.027 194.845 222.969 194.845C223.911 194.845 224.853 194.9 225.795 195.011C226.736 195.177 227.678 195.343 228.62 195.676Z" fill="#37474F"/>
<path d="M226.958 191.687C226.515 192.573 226.016 193.404 225.407 194.18C224.797 194.955 224.188 195.62 223.523 196.34C222.858 197.005 222.138 197.614 221.418 198.224C220.642 198.778 219.867 199.332 218.925 199.775C219.368 198.889 219.867 198.058 220.476 197.282C221.085 196.506 221.695 195.842 222.36 195.177C223.024 194.512 223.745 193.903 224.52 193.293C225.24 192.628 226.016 192.074 226.958 191.687Z" fill="#37474F"/>
<path d="M226.958 199.664C226.071 199.221 225.24 198.723 224.465 198.113C223.689 197.504 223.024 196.894 222.304 196.23C221.639 195.565 221.03 194.845 220.42 194.124C219.866 193.349 219.312 192.573 218.869 191.631C219.756 192.075 220.587 192.573 221.362 193.183C222.138 193.792 222.803 194.401 223.467 195.066C224.132 195.731 224.742 196.451 225.351 197.227C225.96 198.002 226.514 198.778 226.958 199.664Z" fill="#37474F"/>
<path d="M245.073 190.025C245.406 190.967 245.572 191.908 245.738 192.85C245.849 193.792 245.904 194.734 245.904 195.676C245.904 196.618 245.849 197.559 245.738 198.501C245.627 199.443 245.406 200.385 245.073 201.326C244.741 200.385 244.575 199.443 244.408 198.501C244.298 197.559 244.242 196.618 244.242 195.676C244.242 194.734 244.298 193.792 244.408 192.85C244.519 191.908 244.685 190.967 245.073 190.025Z" fill="#37474F"/>
<path d="M250.724 195.676C249.783 196.008 248.841 196.174 247.899 196.341C246.957 196.451 246.015 196.507 245.074 196.507C244.132 196.507 243.19 196.451 242.248 196.341C241.306 196.23 240.365 196.008 239.423 195.676C240.365 195.343 241.306 195.177 242.248 195.011C243.19 194.9 244.132 194.845 245.074 194.845C246.015 194.845 246.957 194.9 247.899 195.011C248.841 195.177 249.783 195.343 250.724 195.676Z" fill="#37474F"/>
<path d="M249.062 191.687C248.619 192.573 248.121 193.404 247.511 194.18C246.902 194.955 246.292 195.62 245.628 196.34C244.963 197.005 244.242 197.614 243.522 198.224C242.747 198.778 241.971 199.332 241.029 199.775C241.472 198.889 241.971 198.058 242.581 197.282C243.19 196.506 243.799 195.842 244.464 195.177C245.129 194.512 245.849 193.903 246.625 193.293C247.345 192.628 248.176 192.074 249.062 191.687Z" fill="#37474F"/>
<path d="M249.063 199.664C248.177 199.221 247.346 198.723 246.57 198.113C245.794 197.504 245.13 196.894 244.409 196.23C243.745 195.565 243.135 194.845 242.526 194.124C241.972 193.349 241.418 192.573 240.975 191.631C241.861 192.075 242.692 192.573 243.468 193.183C244.243 193.792 244.908 194.401 245.573 195.066C246.238 195.731 246.847 196.451 247.456 197.227C248.121 198.002 248.62 198.778 249.063 199.664Z" fill="#37474F"/>
<path d="M208.532 173.926C208.532 173.926 202.967 218.747 193.744 228.809C182.691 240.929 174.687 239.1 170.266 245.351C165.845 239.1 157.765 240.853 146.788 228.809C137.565 218.747 132 173.926 132 173.926C156.24 162.187 170.266 149 170.266 149C170.723 149.381 184.673 162.34 208.532 173.926Z" fill="#EBEBEB"/>
<path d="M170.266 149V245.351C165.845 239.1 157.765 240.853 146.788 228.809C137.565 218.747 132 173.926 132 173.926C156.164 162.187 170.266 149 170.266 149Z" fill="#DBDBDB"/>
<path d="M202.586 177.509C202.586 177.509 197.86 215.318 190.085 223.855C180.785 234.07 174.001 232.545 170.189 237.881C166.454 232.621 159.67 234.146 150.294 223.855C142.519 215.318 137.793 177.509 137.793 177.509C158.222 167.6 170.113 156.471 170.113 156.471C170.113 156.471 182.157 167.6 202.586 177.509Z" fill="#FF6158"/>
<path d="M137.869 177.509C137.869 177.509 142.595 215.318 150.37 223.855C159.67 234.07 166.454 232.545 170.266 237.805V156.471C169.884 156.852 158.069 167.752 137.869 177.509Z" fill="#BE252B"/>
<path d="M180.87 207.784C186.735 201.92 186.735 192.412 180.87 186.548C175.006 180.683 165.498 180.683 159.634 186.548C153.77 192.412 153.77 201.92 159.634 207.784C165.498 213.649 175.006 213.649 180.87 207.784Z" fill="#E5EAF1"/>
<path d="M168.513 206.932L161.881 199.996L164.32 197.632L168.055 201.444L175.983 189.248L178.879 191.153L168.513 206.932Z" fill="#FF6158"/>
<path d="M278.195 183.946L299.128 200.876C303.13 204.109 306.593 206.956 308.286 208.649C308.901 209.265 309.286 209.727 309.286 209.957C309.286 209.957 309.286 209.957 309.286 210.034C309.132 211.881 284.352 244.819 283.121 245.666C281.889 246.512 279.35 243.049 279.273 240.971C279.196 238.893 283.044 222.117 283.044 222.117L262.265 204.955L278.195 183.946Z" fill="#C95F50"/>
<path d="M294.895 197.414L299.205 200.877C303.207 204.109 306.67 206.956 308.363 208.649C308.979 209.342 309.286 209.804 309.363 209.958C309.363 209.958 309.363 209.958 309.363 210.035C309.209 211.882 284.429 244.819 283.198 245.666C281.966 246.513 279.427 243.049 279.35 240.972C279.273 238.894 283.121 222.117 283.121 222.117L278.734 218.654L294.895 197.414Z" fill="#EBEBEB"/>
<path d="M283.198 245.589C284.429 244.743 309.209 211.805 309.363 209.958C309.44 209.265 304.823 205.34 299.205 200.8C299.128 200.723 299.051 200.723 299.051 200.646L282.813 221.732L283.198 221.963C283.198 221.963 279.35 238.817 279.427 240.818C279.427 242.973 281.966 246.436 283.198 245.589Z" fill="#4267B2"/>
<path d="M282.198 244.281C286.199 238.663 303.053 216.192 307.517 210.959C307.517 210.882 307.594 210.959 307.517 210.959C303.669 216.653 286.661 238.894 282.274 244.358C282.198 244.435 282.121 244.358 282.198 244.281Z" fill="#263238"/>
<path d="M281.889 223.887C283.121 221.424 285.506 218.962 288.277 218.5C288.354 218.5 288.431 218.654 288.354 218.654C286.045 220.27 284.121 221.963 282.197 224.041C282.043 224.195 281.812 224.041 281.889 223.887Z" fill="#263238"/>
<path d="M281.659 226.119C282.89 223.656 285.276 221.194 288.046 220.732C288.123 220.732 288.2 220.886 288.123 220.886C285.815 222.502 283.891 224.195 281.967 226.273C281.813 226.504 281.582 226.35 281.659 226.119Z" fill="#263238"/>
<path d="M281.428 228.428C282.66 225.965 285.045 223.503 287.816 223.041C287.893 223.041 287.97 223.195 287.893 223.195C285.584 224.811 283.66 226.504 281.736 228.582C281.582 228.813 281.352 228.659 281.428 228.428Z" fill="#263238"/>
<path d="M266.883 163.707C268.345 171.018 298.82 200.262 298.82 200.262L277.58 224.734C277.58 224.734 234.407 181.638 236.639 165.4C238.563 151.317 259.726 94.6758 259.726 94.6758H284.044C284.044 94.7527 265.421 156.55 266.883 163.707Z" fill="#37474F"/>
<path d="M266.883 163.707C268.345 171.018 298.82 200.262 298.82 200.262L277.58 224.734C277.58 224.734 234.407 181.638 236.639 165.4C238.563 151.317 259.726 94.6758 259.726 94.6758H284.044C284.044 94.7527 265.421 156.55 266.883 163.707Z" fill="#37474F"/>
<path d="M275.195 218.961C278.042 215.421 277.119 216.421 280.043 212.958C281.428 211.265 290.663 200.106 292.202 198.721C292.202 198.721 292.279 198.721 292.279 198.798C291.202 200.568 281.813 211.573 280.428 213.266C277.503 216.652 278.273 215.652 275.349 219.038C275.195 219.115 275.118 219.038 275.195 218.961Z" fill="#263238"/>
<path d="M263.882 160.166C264.266 158.319 264.651 156.549 265.036 154.702C265.806 151.008 266.652 147.237 267.576 143.543C269.346 136.233 271.193 128.922 273.27 121.611C275.348 114.3 277.503 107.066 280.043 99.9086C280.351 99.062 280.658 98.1385 280.966 97.292C280.966 97.2151 281.12 97.292 281.043 97.292C278.888 104.449 276.58 111.606 274.579 118.763C272.501 125.92 270.654 133.154 268.884 140.388C267.96 144.005 267.191 147.699 266.344 151.316C265.959 153.086 265.575 154.933 265.19 156.703C264.805 158.55 264.266 160.397 264.189 162.244C264.112 164.091 264.651 165.707 265.652 167.246C266.575 168.709 267.653 170.171 268.653 171.556C270.731 174.403 290.509 196.413 291.202 197.029C291.278 197.106 291.202 197.183 291.125 197.106C288.431 194.72 271.654 176.558 269.5 173.711C268.422 172.326 267.422 170.94 266.421 169.478C265.498 168.17 264.497 166.785 264.036 165.246C263.343 163.629 263.574 161.859 263.882 160.166Z" fill="#263238"/>
<path d="M263.881 94.7534L268.267 152.779C272.5 132.924 283.967 94.7534 283.967 94.7534H263.881Z" fill="#263238"/>
<path d="M274.349 214.114C274.349 214.114 269.116 239.664 269.116 239.741C269.039 244.897 268.885 249.437 268.577 251.746C268.5 252.593 268.346 253.208 268.192 253.362C266.653 254.363 225.481 255.055 224.018 254.593C222.556 254.132 223.788 249.976 225.327 248.668C226.943 247.359 242.565 240.048 242.565 240.048L248.106 214.499L274.349 214.114Z" fill="#C95F50"/>
<path d="M223.941 254.594C225.403 255.055 266.576 254.44 268.115 253.362C268.269 253.208 268.423 252.67 268.5 251.746C268.5 251.746 268.5 251.746 268.5 251.669C268.808 249.36 268.961 244.82 269.038 239.664L269.962 235.2H243.565L242.565 239.972C242.565 239.972 226.943 247.283 225.327 248.591C223.71 249.976 222.479 254.132 223.941 254.594Z" fill="#EBEBEB"/>
<path d="M223.941 254.593C225.403 255.055 266.575 254.439 268.115 253.362C268.73 252.977 268.961 246.974 269.038 239.74C269.038 239.663 269.038 239.586 269.038 239.509L242.488 239.586V240.048C242.488 240.048 226.865 247.359 225.249 248.667C223.71 249.975 222.479 254.131 223.941 254.593Z" fill="#4267B2"/>
<path d="M240.332 240.202C243.026 239.663 246.412 240.048 248.49 241.895C248.567 241.972 248.49 242.049 248.413 242.049C245.719 241.279 243.18 240.741 240.332 240.51C240.101 240.51 240.101 240.202 240.332 240.202Z" fill="#263238"/>
<path d="M238.331 241.434C241.025 240.896 244.411 241.28 246.489 243.127C246.566 243.204 246.489 243.281 246.412 243.281C243.718 242.512 241.179 241.973 238.331 241.742C238.177 241.742 238.177 241.434 238.331 241.434Z" fill="#263238"/>
<path d="M236.408 242.588C239.102 242.049 242.488 242.434 244.566 244.281C244.643 244.358 244.566 244.435 244.489 244.435C241.795 243.665 239.256 243.127 236.408 242.896C236.177 242.973 236.177 242.665 236.408 242.588Z" fill="#263238"/>
<path d="M262.035 94.7525C262.035 95.2912 263.42 99.9087 264.113 106.912C264.652 111.991 265.267 116.531 265.96 117.07C266.73 117.686 270.577 120.149 271.886 120.995C271.886 120.995 259.88 157.319 256.802 169.478C252.339 187.025 241.565 239.741 241.565 239.741H270.193C270.193 239.741 278.889 189.564 282.737 172.864C285.969 158.55 298.513 115.531 298.513 115.531C303.054 104.372 297.513 94.8295 297.513 94.8295C297.513 94.8295 262.035 94.6755 262.035 94.7525Z" fill="#37474F"/>
<path d="M242.564 234.122C247.028 234.122 245.797 234.045 250.26 234.045C252.492 234.045 266.96 234.122 268.961 234.507C269.038 234.507 269.038 234.584 268.961 234.584C266.883 234.891 252.415 234.507 250.26 234.507C245.797 234.43 247.028 234.353 242.564 234.199C242.487 234.199 242.487 234.122 242.564 234.122Z" fill="#263238"/>
<path d="M263.958 115.609C266.729 117.071 269.346 118.995 271.885 120.919C271.962 120.996 271.885 121.15 271.808 121.073C269.115 119.38 266.421 117.764 263.805 115.917C263.497 115.763 263.728 115.455 263.958 115.609Z" fill="#263238"/>
<path d="M266.114 95.8292C266.114 95.7522 266.345 95.7522 266.268 95.8292C265.729 99.2153 265.498 102.294 265.267 105.449C265.19 106.911 265.113 115.299 267.73 115.069C268.192 115.069 268.423 114.684 268.653 113.991C268.884 113.222 268.73 112.221 268.73 111.452C268.73 109.682 268.73 107.912 268.884 106.218C269.115 102.986 269.577 99.754 270.5 96.5988C270.5 96.5218 270.654 96.5218 270.654 96.5988C269.962 101.062 269.346 105.526 269.346 110.066C269.346 112.221 269.885 115.607 267.653 115.607C265.344 115.607 264.729 109.989 264.652 108.527C264.498 104.295 265.19 99.908 266.114 95.8292Z" fill="#263238"/>
<path d="M267.652 115.377C267.806 115.993 267.883 116.532 267.96 117.148C268.037 117.609 268.114 118.148 267.96 118.61C267.96 118.687 267.806 118.687 267.806 118.61C267.575 118.148 267.498 117.609 267.421 117.148C267.344 116.609 267.19 116.07 267.113 115.454C267.036 115.07 267.575 114.993 267.652 115.377Z" fill="#263238"/>
<path d="M294.434 115.224C291.51 114.916 289.971 114.762 287.2 113.838C284.584 112.992 282.121 111.53 280.197 109.529C279.12 108.451 278.119 107.143 277.503 105.758C277.503 105.681 277.427 105.758 277.427 105.835C277.888 107.22 278.427 108.451 279.35 109.606C280.274 110.76 281.274 111.761 282.429 112.53C284.891 114.3 287.354 115.224 290.278 115.609C291.971 115.839 292.818 115.839 294.511 115.532C294.588 115.455 294.511 115.224 294.434 115.224Z" fill="#263238"/>
<path d="M273.502 218.346C273.579 217.653 273.656 217.038 273.733 216.345C273.887 215.114 274.118 213.805 274.349 212.574C274.733 210.035 275.195 207.495 275.657 204.955C276.58 199.876 277.581 194.874 278.658 189.872C279.274 187.024 279.967 184.254 280.736 181.406C280.813 181.175 281.044 181.329 281.044 181.483C280.582 184.023 280.12 186.639 279.582 189.179C279.043 191.719 278.504 194.258 278.043 196.798C277.042 201.8 276.119 206.879 275.118 211.958C274.81 213.344 274.579 214.806 274.272 216.191C274.118 216.884 273.964 217.576 273.81 218.346C273.656 219.039 273.425 219.731 273.348 220.424C273.348 220.501 273.271 220.424 273.271 220.424C273.425 219.731 273.425 219.039 273.502 218.346Z" fill="#263238"/>
<path d="M253.801 180.253C254.724 175.482 256.033 170.787 257.341 166.17C259.957 156.781 263.036 147.546 266.037 138.234C266.884 135.541 267.807 132.924 268.654 130.231C269.115 128.922 271.27 121.688 271.501 120.996C271.501 120.919 271.655 120.919 271.578 120.996C270.962 123.458 270.116 126.998 269.423 129.461C268.731 131.847 267.961 134.232 267.191 136.618C265.729 141.312 264.267 146.007 262.805 150.701C260.034 160.013 257.187 169.248 254.955 178.714C254.34 181.33 253.647 184.024 253.108 186.64C252.493 189.257 252.031 191.951 251.492 194.644C251.492 194.721 251.338 194.721 251.338 194.644C251.877 189.873 252.8 185.024 253.801 180.253Z" fill="#263238"/>
<path d="M271.578 205.109C273.117 196.028 275.041 187.024 277.119 178.097C279.196 169.093 281.582 160.166 284.122 151.239C286.661 142.389 289.586 133.539 292.664 124.843C294.126 120.687 295.588 116.608 296.589 112.299C297.512 108.066 297.974 103.448 297.051 99.2158C296.82 98.1383 296.512 97.0609 296.05 96.0605C296.05 95.9835 296.127 95.9066 296.127 95.9835C299.59 103.987 297.358 112.76 294.742 120.687C293.28 124.997 291.741 129.306 290.355 133.693C288.893 138.156 287.508 142.62 286.2 147.083C283.583 156.01 281.12 164.937 278.889 173.942C276.657 182.946 274.733 192.027 273.04 201.184C271.347 210.342 269.885 219.5 268.422 228.735C268.268 229.967 268.115 231.121 267.961 232.352C267.961 232.429 267.884 232.429 267.884 232.352C268.807 223.271 269.962 214.19 271.578 205.109Z" fill="#263238"/>
<path d="M272.117 56.735C268.73 69.0482 259.034 83.901 254.416 85.9789C250.414 87.7489 231.791 80.8997 224.711 76.3592C222.71 75.0509 230.944 63.5842 233.407 64.3538C241.257 66.9704 249.876 70.8182 250.491 70.6643C251.8 70.2026 260.188 59.9672 266.268 53.041C273.194 45.3453 273.502 51.8097 272.117 56.735Z" fill="#C95F50"/>
<path d="M211.474 65.9704C209.858 65.2778 197.699 64.893 197.699 62.2765C197.699 59.6599 213.244 60.3525 213.244 60.3525L211.474 65.9704Z" fill="#C95F50"/>
<path d="M234.869 66.2779C232.714 63.6613 230.867 60.7369 229.02 60.2752C227.712 59.8904 213.937 60.5061 211.782 60.3521C209.627 60.1982 201.931 60.4291 201.777 62.2761C201.547 64.9696 210.628 64.8926 211.628 66.2779C215.014 70.9723 227.789 77.9754 227.789 77.9754L234.869 66.2779Z" fill="#C95F50"/>
<path d="M201.546 62.2768C201.623 61.8151 202.008 61.3534 202.393 61.1225C203.316 60.4299 204.548 60.4299 205.702 60.2759C207.395 60.122 209.088 60.122 210.781 60.199V60.2759C209.55 60.2759 208.242 60.2759 207.01 60.4299C205.856 60.5068 204.702 60.5838 203.624 60.9686C203.162 61.1225 202.624 61.3534 202.316 61.7381C202.085 62.046 201.931 62.3538 202.085 62.7386C202.47 63.8929 204.779 64.2777 205.779 64.5086C207.164 64.8164 208.626 65.1243 210.012 65.3551C210.089 65.3551 210.012 65.4321 210.012 65.4321C208.549 65.1243 207.01 65.0473 205.625 64.7395C204.471 64.5086 203.162 64.2777 202.239 63.5082C201.7 63.2773 201.392 62.8155 201.546 62.2768Z" fill="#263238"/>
<path d="M235.408 64.5853L224.48 80.5925C224.48 80.5925 241.411 89.0578 247.875 88.9039C254.032 88.75 256.263 87.8265 258.187 85.9795C259.419 84.8251 266.268 75.1285 271.809 59.0444C276.503 45.5768 269.577 47.5007 263.343 55.0426C260.265 58.7365 250.415 69.8954 249.876 69.8184C249.491 69.8184 235.408 64.5853 235.408 64.5853Z" fill="#4267B2"/>
<path d="M238.794 67.2017C237.178 69.5873 235.562 71.973 234.023 74.4357C233.253 75.59 230.406 80.4384 229.636 81.8236C229.636 81.9006 229.79 81.9775 229.79 81.9006C230.636 80.6692 233.715 75.8209 234.484 74.6665C235.947 72.2039 237.409 69.7413 238.794 67.2017C238.871 67.2017 238.794 67.2017 238.794 67.2017Z" fill="#263238"/>
<path opacity="0.1" d="M244.643 88.5191C245.874 88.827 247.028 88.9809 247.952 88.9039C254.108 88.75 256.34 87.8265 258.264 85.9795C259.496 84.8252 266.345 75.1285 271.886 59.0444C272.963 55.9661 273.425 53.6574 273.425 52.0413C273.425 51.8873 273.425 51.7334 273.425 51.5795C273.425 51.4256 273.425 51.2717 273.348 51.1947C273.348 51.0408 273.348 50.9638 273.271 50.8869C273.117 50.2712 272.886 49.8864 272.578 49.5786C268.884 54.7348 250.953 78.9764 244.643 88.5191Z" fill="black"/>
<path d="M204.547 58.043H245.95V60.2747H204.547V58.043Z" fill="#C7C7C7"/>
<path d="M204.471 58.043V60.2747H229.636L227.943 58.043H204.471Z" fill="#A6A6A6"/>
<path d="M226.095 60.2762H198.39L183.999 35.8037H211.704L226.095 60.2762Z" fill="#C7C7C7"/>
<path d="M206.085 48.0398C206.624 49.1941 206.239 50.3485 205.239 50.7333C204.238 51.0411 203.007 50.4255 202.545 49.2711C202.006 48.1167 202.391 46.9624 203.392 46.5776C204.315 46.1928 205.546 46.8854 206.085 48.0398Z" fill="white"/>
<path d="M300.128 103.14C300.051 103.217 256.724 102.91 256.339 102.525C255.801 101.909 266.036 55.119 270.576 49.3472C271.577 48.1158 274.655 47.808 277.349 48.1928C278.118 48.2698 278.811 48.4237 279.427 48.6546C279.427 48.6546 279.427 48.6546 279.503 48.6546C280.119 48.8854 280.658 49.1163 280.966 49.4241C288.354 55.4268 294.356 76.2053 295.742 82.362C297.973 92.5973 300.436 102.756 300.128 103.14Z" fill="#EBEBEB"/>
<path d="M279.889 48.7314C279.889 48.7314 277.041 67.9708 276.426 72.9731C275.733 77.9753 276.426 104.372 276.426 104.372L303.592 106.68C303.592 106.68 297.897 89.1342 297.82 88.0568C297.82 88.0568 293.279 67.0473 288.662 58.3511C285.199 51.8867 279.889 48.7314 279.889 48.7314Z" fill="#4267B2"/>
<path d="M270.808 49.0396C270.808 49.0396 267.114 68.5098 266.806 70.1259C266.498 71.742 261.804 103.372 261.804 103.372L255.031 103.525L258.725 89.0575C258.725 89.1344 266.575 52.0409 270.808 49.0396Z" fill="#4267B2"/>
<path d="M272.347 55.273C274.425 55.5039 278.35 52.6565 279.427 49.5782C279.504 49.3473 278.888 47.4234 278.273 44.9607C277.888 43.4985 277.503 41.8054 277.272 40.2663C277.195 39.9585 267.96 44.1142 267.96 44.1142C267.96 44.1142 269.423 47.1925 269.807 49.886C269.807 50.1169 269.884 50.3477 269.807 50.5017V50.5786C269.884 51.8869 270.192 55.0421 272.347 55.273Z" fill="#C95F50"/>
<path d="M269.885 50.5781V50.6551C270.192 50.6551 270.5 50.5781 270.885 50.5781C276.58 49.5777 276.888 42.1898 276.888 40.3428C275.195 40.8815 267.961 44.1907 267.961 44.1907C267.961 44.1907 269.423 47.269 269.808 49.9625C269.885 50.1164 269.885 50.3473 269.885 50.5781Z" fill="#263238"/>
<path d="M277.118 28.0299C278.58 31.3391 278.042 41.4975 275.887 44.0371C272.732 47.731 266.96 48.7315 263.728 44.8066C260.572 41.0357 261.573 27.799 264.035 25.4133C267.652 21.9502 274.963 23.1816 277.118 28.0299Z" fill="#C95F50"/>
<path d="M269.654 35.1865C269.654 35.1865 269.731 35.2635 269.654 35.1865C269.654 35.9561 269.731 36.7257 270.27 36.9565C270.27 36.9565 270.27 37.0335 270.27 36.9565C269.577 36.8796 269.5 35.8791 269.654 35.1865Z" fill="#263238"/>
<path d="M270.346 34.5713C271.424 34.5713 271.424 36.7261 270.423 36.8031C269.346 36.8031 269.423 34.5713 270.346 34.5713Z" fill="#263238"/>
<path d="M265.422 35.187C265.345 35.9566 265.268 36.7262 264.652 36.957C264.652 36.957 264.652 37.034 264.652 36.957C265.422 36.8801 265.576 35.8027 265.422 35.187Z" fill="#263238"/>
<path d="M264.883 34.4947C263.805 34.4177 263.652 36.5725 264.652 36.7265C265.652 36.7265 265.806 34.5716 264.883 34.4947Z" fill="#263238"/>
<path d="M271.192 33.5712C270.885 33.4942 270.654 33.3403 270.346 33.2634C270.038 33.1094 269.73 33.1094 269.499 32.8016C269.422 32.6477 269.422 32.3399 269.576 32.2629C269.884 31.9551 270.346 32.032 270.731 32.1859C271.192 32.3399 271.423 32.5707 271.731 32.9555C271.962 33.1864 271.577 33.6481 271.192 33.5712Z" fill="#263238"/>
<path d="M264.035 32.5706C264.343 32.4936 264.651 32.4167 264.882 32.3397C265.19 32.2627 265.498 32.1858 265.729 31.9549C265.882 31.801 265.805 31.4932 265.729 31.4162C265.421 31.1084 264.959 31.1084 264.574 31.1853C264.112 31.2623 263.805 31.4932 263.497 31.801C263.266 32.1858 263.574 32.6475 264.035 32.5706Z" fill="#263238"/>
<path d="M269.885 41.5742C269.731 41.7281 269.577 41.959 269.269 41.959C269.038 41.959 268.73 41.8821 268.499 41.8051C268.499 41.8051 268.423 41.8051 268.499 41.8051C268.653 42.036 269.038 42.2668 269.346 42.1899C269.731 42.1129 269.885 41.882 269.885 41.5742C269.962 41.5742 269.885 41.5742 269.885 41.5742Z" fill="#263238"/>
<path d="M269.191 39.4962C268.807 40.1119 268.268 40.4197 267.652 40.4967C267.344 40.5736 267.114 40.5736 266.806 40.4967C266.729 40.4967 266.729 40.4967 266.652 40.4967C266.575 40.4967 266.575 40.4967 266.498 40.4967C266.421 40.4967 266.344 40.4197 266.344 40.3428V40.2658V40.1889C266.344 39.6502 266.421 38.8806 266.421 38.8806C266.19 38.9575 265.267 39.4193 265.267 39.1114C265.42 36.8027 265.574 34.2631 266.267 32.0314C266.267 31.9544 266.421 31.9544 266.421 32.0314C266.344 34.2631 265.882 36.4179 265.805 38.5727C266.113 38.4188 266.652 38.2649 266.883 38.2649C266.96 38.2649 266.729 39.8041 266.729 40.0349C267.575 40.2658 268.268 40.0349 269.191 39.4962C269.191 39.4193 269.268 39.4193 269.191 39.4962Z" fill="#263238"/>
<path d="M267.114 40.266C267.114 40.266 267.576 40.8816 268.191 41.1125C268.422 41.1895 268.653 41.2664 268.961 41.1894C269.5 41.0355 269.5 40.5738 269.423 40.112C269.346 39.7273 269.192 39.4194 269.192 39.4194C269.192 39.4194 268.422 40.189 267.114 40.266Z" fill="#263238"/>
<path d="M268.191 41.1894C268.422 41.2664 268.653 41.3433 268.961 41.2664C269.5 41.1125 269.5 40.6507 269.423 40.189C268.807 40.189 268.268 40.5737 268.191 41.1894Z" fill="#FF9BBC"/>
<path d="M277.966 36.8036C277.966 36.8036 280.428 30.724 279.582 27.5687C279.197 26.1065 277.042 25.4909 277.042 25.4909C277.042 25.4909 277.35 23.6439 275.503 22.3356C273.502 21.0273 269.423 22.0278 269.423 22.0278C269.423 22.0278 266.114 18.5647 262.574 20.7195C259.034 22.8743 262.189 26.7991 262.189 26.7991C262.189 26.7991 261.112 29.0309 264.806 30.0313C268.346 31.0318 274.887 28.4152 274.887 28.4152C274.887 28.4152 274.887 31.9553 276.119 35.4184C276.657 36.7267 277.966 36.8036 277.966 36.8036Z" fill="#263238"/>
<path d="M268.807 22.181C269.577 21.6423 270.501 21.4114 271.424 21.2575C272.271 21.1036 273.117 21.1036 273.887 21.2575C275.349 21.4884 276.734 22.3349 277.196 23.7971C277.427 24.5667 277.35 25.3363 277.042 26.0289H276.965C277.658 24.7976 276.965 23.1815 275.888 22.4119C274.656 21.5654 273.04 21.4114 271.655 21.5654C270.731 21.6423 269.808 21.9501 268.884 22.3349C268.807 22.3349 268.73 22.258 268.807 22.181Z" fill="#263238"/>
<path d="M260.188 23.0283C260.342 21.8739 261.111 21.1043 262.112 20.5656C263.189 20.0269 264.498 19.873 265.729 20.1039C266.96 20.3348 268.115 20.9504 269.038 21.797C269.038 21.797 269.038 21.8739 269.038 21.797C267.345 20.3348 264.959 19.7191 262.805 20.5656C261.881 20.9504 260.958 21.643 260.65 22.6435C260.342 23.567 260.65 24.6444 261.188 25.4909C261.881 26.4914 262.958 27.107 264.036 27.5688V27.6457C263.035 27.2609 262.035 26.7992 261.265 25.9527C260.496 25.1831 260.034 24.1057 260.188 23.0283Z" fill="#263238"/>
<path d="M264.035 30.339C265.651 30.7238 267.344 30.7238 268.96 30.416C270.654 30.1081 272.27 29.5694 273.886 28.8768C274.809 28.492 275.733 28.0303 276.656 27.6455C276.656 27.6455 276.733 27.6455 276.656 27.7225C275.117 28.6459 273.501 29.5694 271.731 30.1851C270.115 30.7238 268.422 31.0316 266.729 30.9547C265.805 30.8777 264.882 30.6469 264.035 30.339C263.958 30.416 263.958 30.339 264.035 30.339Z" fill="#263238"/>
<path d="M275.656 36.5725C275.656 36.5725 277.58 33.1094 279.12 33.802C280.659 34.4177 279.427 39.266 277.811 40.1126C276.195 40.9591 275.349 39.4199 275.349 39.4199L275.656 36.5725Z" fill="#C95F50"/>
<path d="M278.734 35.1104C278.811 35.1104 278.811 35.1873 278.734 35.1104C277.58 35.803 277.118 36.9573 276.733 38.1887C277.041 37.7269 277.503 37.4191 278.119 37.8039V37.8808C277.58 37.8039 277.272 37.9578 276.964 38.3426C276.733 38.6504 276.656 39.0352 276.502 39.343C276.426 39.42 276.272 39.42 276.272 39.2661C276.118 37.7269 277.118 35.4182 278.734 35.1104Z" fill="#263238"/>
<path d="M285.353 53.1185C296.281 65.3547 304.439 82.5932 304.362 86.672C304.285 91.1355 298.59 106.835 293.126 114.223C292.433 115.146 288.201 114.761 284.661 112.838C280.89 110.76 277.811 107.066 278.581 105.988C281.351 101.833 287.97 85.8254 287.893 83.3628C287.816 81.0541 282.429 66.8939 280.428 58.6594C278.35 50.7328 280.274 47.4236 285.353 53.1185Z" fill="#C95F50"/>
<path d="M299.744 112.991L279.427 103.063C279.427 103.063 287.431 85.2863 287.431 83.3623C287.431 81.4384 282.197 66.3547 280.197 59.4285C278.196 52.5024 278.965 44.6527 287.661 55.1959C296.358 65.7391 303.899 81.3614 304.746 85.5171C305.67 89.6729 299.744 112.991 299.744 112.991Z" fill="#4267B2"/>
<path d="M286.43 78.2835C286.046 76.9752 285.584 75.6669 285.122 74.3586C284.66 72.8964 284.122 71.4343 283.583 69.9721C283.044 68.5868 282.429 67.2016 281.89 65.7394C281.813 65.6624 281.659 65.7394 281.736 65.8163C282.429 67.6633 283.044 69.5873 283.66 71.4343C283.198 70.5877 282.736 69.7412 282.198 68.8947C282.121 68.8177 282.044 68.8947 282.121 68.9716C282.659 70.049 283.275 71.0495 283.891 72.0499C284.045 72.5117 284.199 72.9734 284.352 73.4352C285.199 75.9748 286.046 78.5144 286.738 81.1309C286.892 81.7466 287.046 82.2853 287.123 82.9009C287.2 83.5936 287.046 84.2862 286.815 84.9018C286.43 86.0562 286.046 87.2875 285.584 88.4419C284.737 90.8276 283.814 93.1363 282.813 95.445C281.736 98.0616 280.428 100.678 279.196 103.218L279.966 103.449C279.966 103.449 280.043 103.449 280.043 103.372L279.581 103.141C280.812 100.909 282.044 98.7542 283.121 96.4455C284.199 94.1367 285.122 91.828 285.969 89.4423C286.43 88.211 286.815 86.9797 287.2 85.7484C287.585 84.517 287.816 83.3627 287.508 82.1314C287.277 80.7461 286.815 79.5148 286.43 78.2835Z" fill="#263238"/>
<path d="M300.052 107.296C299.359 106.834 298.589 106.603 297.82 106.218C297.127 105.91 296.512 105.603 295.819 105.295C294.357 104.679 292.895 103.986 291.432 103.294C289.97 102.678 288.508 101.986 287.046 101.37C285.584 100.754 284.198 100.062 282.659 99.5229C282.582 99.5229 282.582 99.5999 282.582 99.5999C283.968 100.446 285.353 101.139 286.815 101.832C288.2 102.524 289.662 103.217 291.048 103.833C292.51 104.448 293.972 105.064 295.434 105.68C296.127 105.987 296.896 106.218 297.589 106.526C298.513 106.834 299.282 107.219 300.052 107.296C300.129 107.373 300.129 107.296 300.052 107.296Z" fill="#263238"/>
</g>
<defs>
<clipPath id="clip0_227_2527">
<rect width="306" height="250" fill="white"/>
</clipPath>
</defs>
</svg>
