<svg width="216" height="231" viewBox="0 0 216 231" fill="none" xmlns="http://www.w3.org/2000/svg">
<g clip-path="url(#clip0_227_2388)">
<path d="M141.849 97.88L138.849 97.23C138.039 97.05 137.569 96.2 137.869 95.42L142.049 84.48L146.839 85.52L143.429 96.95C143.229 97.63 142.529 98.04 141.839 97.89L141.849 97.88Z" fill="#407BFF"/>
<path d="M153.48 83.88C152.65 83.7 152.12 82.88 152.3 82.05L152.71 80.18C152.89 79.35 153.71 78.82 154.54 79C155.37 79.18 155.9 80 155.72 80.83L155.31 82.7C155.13 83.53 154.31 84.06 153.48 83.88Z" fill="#407BFF"/>
<path d="M150.519 74.56C150.519 74.56 139.119 73.26 135.129 71.21C125.739 66.39 116.779 54.89 114.879 54.48C111.779 53.81 107.559 61.14 105.439 70.87C103.329 80.6 104.119 89.03 107.219 89.7C109.119 90.11 122.049 83.38 132.589 82.89C137.069 82.68 147.979 86.24 147.979 86.24L150.519 74.56Z" fill="#407BFF"/>
<path d="M150.519 74.56C150.519 74.56 139.119 73.26 135.129 71.21C125.739 66.39 116.779 54.89 114.879 54.48C111.779 53.81 107.559 61.14 105.439 70.87C103.329 80.6 104.119 89.03 107.219 89.7C109.119 90.11 122.049 83.38 132.589 82.89C137.069 82.68 147.979 86.24 147.979 86.24L150.519 74.56Z" fill="#FF6158"/>
<path d="M116.66 73.31C114.55 83.04 110.32 90.37 107.22 89.7C104.12 89.03 103.32 80.6 105.44 70.87C107.55 61.14 111.78 53.81 114.88 54.48C117.98 55.15 118.78 63.58 116.66 73.31Z" fill="#407BFF"/>
<path d="M116.66 73.31C114.55 83.04 110.32 90.37 107.22 89.7C104.12 89.03 103.32 80.6 105.44 70.87C107.55 61.14 111.78 53.81 114.88 54.48C117.98 55.15 118.78 63.58 116.66 73.31Z" fill="#BE252B"/>
<path d="M148.66 73.24L143.37 72.09C141.93 71.78 140.51 72.74 140.31 74.2C140.13 75.53 139.88 76.9 139.58 78.3C139.28 79.7 138.93 81.05 138.54 82.33C138.12 83.74 139.01 85.21 140.45 85.52L146.72 86.88C150.48 87.7 153.18 85.05 153.95 81.27C154.69 77.61 152.31 74.03 148.65 73.23L148.66 73.24Z" fill="#263238"/>
<path d="M111.21 71.3299L110.88 72.8499C110.69 73.7299 111.16 74.6299 111.99 74.9799L115.84 76.5799C116.14 75.5299 116.41 74.4399 116.66 73.3099C116.9 72.1799 117.11 71.0799 117.27 69.9999L113.11 69.8599C112.2 69.8299 111.41 70.4499 111.21 71.3299Z" fill="#263238"/>
<path opacity="0.8" d="M111.21 71.3299L110.88 72.8499C110.69 73.7299 111.16 74.6299 111.99 74.9799L115.84 76.5799C116.14 75.5299 116.41 74.4399 116.66 73.3099C116.9 72.1799 117.11 71.0799 117.27 69.9999L113.11 69.8599C112.2 69.8299 111.41 70.4499 111.21 71.3299Z" fill="white"/>
<path opacity="0.2" d="M114.12 72.7602C113.91 73.7302 113.67 74.6602 113.42 75.5802L115.84 76.5802C116.14 75.5302 116.41 74.4402 116.66 73.3102C116.9 72.1802 117.11 71.0802 117.27 70.0002L114.65 69.9102C114.5 70.8402 114.32 71.7902 114.11 72.7602H114.12Z" fill="black"/>
<path d="M206.509 73.3601C206.509 73.3601 209.419 74.6501 212.349 72.7301C215.419 70.7201 221.189 73.2501 219.439 81.4301C216.439 95.5101 210.179 105.62 214.239 109.88C214.239 109.88 200.719 110.5 202.719 98.5601C204.219 89.6101 214.389 79.4401 211.939 77.4201C211.119 76.7501 209.929 77.0901 206.089 77.0901L206.499 73.3501L206.509 73.3601Z" fill="#263238"/>
<path d="M206.09 77.0999C208.47 77.0999 210.26 77.3299 211.58 77.7599C212.44 75.2899 212.39 73.1299 212.3 72.1099C209.17 72.4499 206.51 73.3599 206.51 73.3599L206.1 77.0999H206.09Z" fill="#407BFF"/>
<path d="M193.359 63.1C193.359 63.1 187.739 61.49 191.449 57.87C196.289 53.14 203.179 61.99 203.179 61.99C203.179 61.99 219.299 69.04 205.989 85.39C205.989 85.39 201.189 93.99 200.179 90.65C199.179 87.31 205.859 77.81 205.859 77.81L205.459 69.31L203.609 65.99L197.799 62.68L193.359 63.1Z" fill="#263238"/>
<path d="M171.07 110.99C169.47 108.37 166.04 107.55 163.42 109.15L163.33 109.2C161.59 110.27 159.72 111.47 157.88 112.56L152.33 115.89C149.73 117.42 147.12 118.9 144.49 120.34C144.33 118.49 144.32 116.42 144.4 114.34C144.47 112 144.63 109.61 144.82 107.22C144.98 104.82 145.23 102.39 145.44 100.01V99.9499C145.55 98.7299 144.84 97.5499 143.64 97.1099C142.2 96.5799 140.61 97.3199 140.08 98.7599C139.19 101.17 138.49 103.55 137.8 105.99C137.14 108.43 136.56 110.9 136.09 113.43C135.65 115.98 135.25 118.55 135.25 121.45C135.28 122.92 135.3 124.42 135.9 126.47C136.27 127.49 136.7 128.8 138.3 130.21C139.09 130.89 140.21 131.46 141.34 131.68C142.46 131.9 143.44 131.82 144.26 131.66C144.48 131.62 144.72 131.55 144.94 131.46L145.27 131.32C147.4 130.44 149.52 129.56 151.58 128.56C153.66 127.59 155.7 126.58 157.71 125.5C159.73 124.44 161.71 123.32 163.67 122.16C165.63 120.96 167.53 119.82 169.5 118.46C171.89 116.79 172.61 113.51 171.07 110.99Z" fill="#CE7A63"/>
<path d="M175.97 103.69C179.34 110.48 174.49 116.37 165.6 125.81C157.68 119.19 156.39 111.01 156.39 111.01C156.39 111.01 166.64 102.53 175.97 103.7V103.69Z" fill="#FF6158"/>
<path opacity="0.2" d="M176.3 111.75C173.01 109.74 169.32 108.85 166.72 112.12C163.83 115.77 161.46 117.93 159.81 119.19C161.17 121.34 163.03 123.65 165.61 125.81C170.92 120.17 174.77 115.8 176.3 111.75Z" fill="black"/>
<path d="M142.899 87.2498L145.189 88.7598C146.049 89.3298 146.579 90.2698 146.619 91.2998L146.789 96.1098C146.859 98.0298 145.989 99.8698 144.469 101.04L143.519 101.76C139.559 99.5198 136.929 94.1798 136.929 94.1798L136.009 92.7398C135.189 91.4598 135.509 89.8498 136.739 89.0398L139.569 87.1798C140.549 86.5398 141.869 86.5598 142.899 87.2398V87.2498Z" fill="#CE7A63"/>
<path d="M168.13 291.18C173.32 275.14 176.85 257.41 173.33 244.44C194.73 181.58 185.08 163.28 185.08 163.28L159.61 153.99C159.61 153.99 155.97 210.6 154.87 237.97C154.26 253.29 151.64 273.19 148.63 291.17H168.12L168.13 291.18Z" fill="#263238"/>
<path opacity="0.5" d="M181.339 186.54L176.169 178.21L172.999 184.71C172.999 184.71 170.019 209.67 175.329 238.41C180.289 223.09 183.309 210.63 185.069 200.57L181.339 186.54Z" fill="black"/>
<path d="M183.789 291.18H203.089C205.059 274.56 205.079 256.67 199.189 244.7C208.159 178.91 195.179 162.79 195.179 162.79L168.399 158.55C168.399 158.55 175.669 214.81 179.839 241.89C181.999 255.91 183.219 274.1 183.789 291.17V291.18Z" fill="#263238"/>
<path d="M164.03 116.33C163.36 119.88 162.48 122.52 161.63 131.11C160.77 138.36 160.14 145.52 159.31 157.49L195.56 163.23C196.45 152.9 199.48 141.45 209.63 119.5C211.98 114.41 209.43 108.76 204.14 107.37C202.73 107 201.22 106.63 199.67 106.31C193.64 105.05 188.68 104.07 183.21 103.7C181.39 103.58 179.51 103.51 177.69 103.48C171.15 103.36 165.23 109.97 164.03 116.33Z" fill="#FF6158"/>
<path d="M201.449 87.5898C199.179 92.6598 195.879 102.09 198.769 106.17C198.769 106.17 193.869 104.62 182.179 109.52C179.799 104.61 182.309 103.56 182.309 103.56C188.549 103.1 189.409 98.7498 189.339 94.5198L201.449 87.5898Z" fill="#CE7A63"/>
<path d="M184.62 108.55C185.98 108.97 186.84 110.08 187.39 111.28C188.26 113.18 190.54 113.95 192.35 112.91C195.31 111.22 199.13 108.81 201.02 106.67C199.87 105.82 198.25 104.23 198.25 104.23C198.25 104.23 186.99 106.85 184.62 108.55Z" fill="white"/>
<path d="M181.38 107.46C181.38 107.46 180.28 107.58 179.02 108.51C178.14 109.16 176.92 108.28 177.28 107.25C178.53 103.71 180.68 103.29 180.68 103.29C180.68 103.29 181.9 102.68 183.92 103.33C180.91 104.36 181.37 107.46 181.37 107.46H181.38Z" fill="white"/>
<path opacity="0.2" d="M196.51 90.4199L189.34 94.5199C189.36 95.5199 189.32 96.5299 189.17 97.4899C191.5 97.5199 195.18 95.5699 195.97 93.2699C196.36 92.1199 196.58 90.9999 196.51 90.4199Z" fill="black"/>
<path d="M207.65 77.6802C204.69 85.9802 203.61 89.5402 198.08 92.8702C189.76 97.8802 180.19 93.0202 180.61 84.1502C180.98 76.1602 185.76 63.9402 195.02 62.5102C204.14 61.1002 210.6 69.3902 207.64 77.6902L207.65 77.6802Z" fill="#CE7A63"/>
<path d="M196.51 77.3701C196.29 78.0801 195.74 78.5601 195.29 78.4601C194.83 78.3501 194.64 77.6901 194.86 76.9801C195.08 76.2701 195.63 75.7901 196.08 75.8901C196.54 76.0001 196.73 76.6601 196.51 77.3701Z" fill="#263238"/>
<path d="M187.65 75.0098C187.43 75.7198 186.88 76.1998 186.43 76.0998C185.97 75.9898 185.78 75.3298 186 74.6198C186.22 73.9098 186.77 73.4298 187.22 73.5298C187.67 73.6298 187.87 74.2998 187.65 75.0098Z" fill="#263238"/>
<path d="M187.41 73.6202L185.88 72.7402C185.88 72.7402 186.33 74.2702 187.41 73.6202Z" fill="#263238"/>
<path d="M190.22 76.4702C190.22 76.4702 188.09 79.2402 186.33 80.4002C186.99 81.4902 188.68 81.4602 188.68 81.4602L190.22 76.4702Z" fill="#BA4D3C"/>
<path d="M199.19 73.2502C199.08 73.2302 198.98 73.1702 198.91 73.0802C197.91 71.5302 196.33 71.5802 196.31 71.5802C196.08 71.5802 195.89 71.4102 195.89 71.1702C195.89 70.9302 196.1 70.7402 196.33 70.7302C196.41 70.7302 198.4 70.6702 199.64 72.5902C199.76 72.7802 199.7 73.0502 199.49 73.1902C199.39 73.2602 199.28 73.2802 199.17 73.2602L199.19 73.2502Z" fill="#263238"/>
<path d="M185.75 69.0701C185.65 69.0301 185.57 68.9501 185.53 68.8501C185.45 68.6401 185.57 68.3901 185.8 68.3101C188.1 67.4401 189.74 68.5101 189.8 68.5501C189.99 68.6801 190.03 68.9401 189.89 69.1301C189.74 69.3201 189.47 69.3701 189.27 69.2401C189.21 69.2001 187.92 68.3801 186.1 69.0801C185.98 69.1201 185.86 69.1201 185.75 69.0801V69.0701Z" fill="#263238"/>
<path d="M196.259 75.9801L194.729 75.1001C194.729 75.1001 195.179 76.6301 196.259 75.9801Z" fill="#263238"/>
<path d="M163.29 143.59H154.64C153.82 143.59 153.02 142.93 152.85 142.11L148.84 123.39C148.67 122.57 149.19 121.91 150 121.91H158.65C159.47 121.91 160.27 122.57 160.44 123.39L164.45 142.11C164.62 142.93 164.1 143.59 163.29 143.59Z" fill="#263238"/>
<path d="M162.29 143.59H153.64C152.82 143.59 152.02 142.93 151.85 142.11L147.84 123.39C147.67 122.57 148.19 121.91 149 121.91H157.65C158.47 121.91 159.27 122.57 159.44 123.39L163.45 142.11C163.62 142.93 163.1 143.59 162.29 143.59Z" fill="#263238"/>
<path opacity="0.2" d="M162.29 143.59H153.64C152.82 143.59 152.02 142.93 151.85 142.11L147.84 123.39C147.67 122.57 148.19 121.91 149 121.91H157.65C158.47 121.91 159.27 122.57 159.44 123.39L163.45 142.11C163.62 142.93 163.1 143.59 162.29 143.59Z" fill="white"/>
<path d="M159.19 132.56L161.86 131.97C162.87 131.75 163.92 132.02 164.68 132.71L168.26 135.93C169.69 137.22 170.41 139.12 170.19 141.03L170.05 142.21C165.68 143.5 160.01 141.67 160.01 141.67L158.34 141.33C156.85 141.03 155.91 139.68 156.19 138.23L156.82 134.91C157.04 133.76 157.98 132.83 159.18 132.56H159.19Z" fill="#CE7A63"/>
<path d="M205.27 113.08C202.21 112.79 199.5 115.04 199.21 118.09L199.19 118.26C199.1 119.26 198.96 120.48 198.83 121.61C198.7 122.76 198.54 123.91 198.36 125.06C198.02 127.36 197.61 129.65 197.16 131.91C196.69 134.17 196.13 136.38 195.51 138.56C194.98 140.3 194.37 141.98 193.72 143.62C193.07 143.66 192.21 143.61 191.31 143.47C189.17 143.14 186.01 142.52 183.67 141.77C181.32 141.04 178.95 140.18 176.58 139.28C174.21 138.41 171.82 137.41 169.49 136.47L169.42 136.44C168.28 135.98 166.92 136.33 166.15 137.36C165.24 138.59 165.5 140.33 166.73 141.24C168.93 142.86 171.14 144.27 173.44 145.69C175.74 147.07 178.1 148.36 180.58 149.55C183.07 150.71 186.43 151.81 189.38 152.58C190.86 152.95 192.43 153.28 194.37 153.3C195.34 153.3 196.43 153.21 197.71 152.81C198.95 152.44 200.49 151.6 201.63 150.23C201.8 150.02 201.98 149.77 202.11 149.52L202.21 149.34C203.52 146.92 204.65 144.45 205.57 141.95C206.48 139.45 207.27 136.93 207.9 134.39C208.54 131.86 209.05 129.31 209.45 126.74C209.64 125.46 209.82 124.17 209.96 122.88C210.12 121.57 210.22 120.34 210.29 118.88C210.43 115.93 208.23 113.35 205.26 113.07L205.27 113.08Z" fill="#CE7A63"/>
<path d="M206.94 108.66C213.13 113.03 213.42 119.57 210.08 132.1C205.61 134.34 194.75 131.5 194.75 131.5C194.75 131.5 198.17 112.06 206.94 108.66Z" fill="#FF6158"/>
<path d="M184.7 83.85C184.7 83.85 187.65 83.26 195.85 83.51C194.82 85.95 192.97 87.89 188.77 87.76C186.66 87.9 184.85 86.3 184.71 84.2C184.71 84.08 184.71 83.97 184.71 83.85H184.7Z" fill="#263238"/>
<path d="M190.76 85.8502C189.15 85.7102 187.53 86.0902 186.15 86.9202C186.91 87.4502 187.82 87.7402 188.76 87.7302C190.37 87.8702 191.98 87.5002 193.37 86.6602C192.61 86.1202 191.7 85.8302 190.77 85.8402L190.76 85.8502Z" fill="#BA4D3C"/>
<path d="M185.08 83.79C185.23 84.41 185.71 84.9 186.33 85.05C188.76 85.11 191.2 84.97 193.61 84.64C194.39 84.59 195.09 84.15 195.48 83.48C192.01 83.32 188.53 83.42 185.07 83.8L185.08 83.79Z" fill="white"/>
<path d="M195.11 61.9499C194.58 62.0299 194.06 62.1499 193.56 62.2999V62.7699C194.72 62.7599 196.01 62.8999 197.44 63.3399C204.36 65.4499 205.47 69.2999 203.12 75.0899C202.01 77.8299 201.41 83.6399 202.69 84.7299C203.02 85.0099 204.02 84.9699 205.32 84.7599C206.18 82.7899 207 80.4299 208.05 77.4899C211.08 68.9899 204.46 60.4999 195.11 61.9399V61.9499Z" fill="#263238"/>
<path d="M208.45 85.2602C207 86.7502 205.09 87.4202 203.49 87.4102C201.1 87.4002 200.71 84.9302 202.06 82.8702C203.27 81.0202 205.98 78.8002 208.05 79.8002C210.09 80.7902 210.1 83.5602 208.44 85.2602H208.45Z" fill="#CE7A63"/>
<g opacity="0.9">
<path d="M193.69 127.75C176.86 126.71 169.25 123.6 166.22 121.84C166.12 121.78 166.04 121.72 165.96 121.65C165.09 120.89 166.19 119.49 167.19 120.07C169.84 121.6 177.14 124.71 193.81 125.74C194.36 125.77 194.79 126.24 194.76 126.79C194.73 127.34 194.25 127.77 193.69 127.73V127.75Z" fill="white"/>
</g>
<g opacity="0.9">
<path d="M192.82 137.27C192.8 137.83 192.32 138.26 191.77 138.24C177.09 137.55 166.97 133.22 163.94 131.76C163.42 131.51 163.23 130.88 163.5 130.38C163.76 129.91 164.33 129.73 164.81 129.96C167.69 131.33 177.69 135.58 191.86 136.24C192.41 136.27 192.84 136.72 192.82 137.27Z" fill="white"/>
</g>
<g opacity="0.9">
<path d="M175.869 153.95C168.079 152.42 164.059 151.39 162.379 150.91C161.829 150.75 161.529 150.17 161.709 149.63C161.879 149.13 162.409 148.84 162.919 148.99C164.549 149.45 168.539 150.49 176.249 152C176.789 152.11 177.149 152.63 177.039 153.17C176.939 153.71 176.409 154.07 175.859 153.96L175.869 153.95Z" fill="white"/>
</g>
<path d="M193.669 65.3202C193.029 65.6602 192.159 65.2702 191.849 64.6102C191.539 63.9502 191.709 63.1402 192.129 62.5402C192.549 61.9402 193.179 61.5302 193.829 61.2002C193.429 61.8002 192.659 62.8102 192.679 63.5402C192.699 64.2602 192.969 65.5302 193.659 65.3202H193.669Z" fill="#263238"/>
<path d="M202.029 85.6902C202.069 86.0602 201.659 86.3702 201.289 86.3102C200.919 86.2502 200.639 85.9302 200.529 85.5702C200.419 85.2102 200.449 84.8302 200.489 84.4602C200.579 83.6102 200.729 82.7602 201.099 81.9902C201.469 81.2202 202.069 80.5302 202.859 80.2202C203.169 80.5002 203.179 81.0602 203.009 81.4402C202.839 81.8202 202.549 82.1202 202.309 82.4602C201.699 83.3502 201.539 84.5202 201.879 85.5402C202.009 85.5402 201.899 85.6902 202.029 85.7002V85.6902Z" fill="#263238"/>
<path d="M89.35 149.12H18.15C12.68 149.12 8.25 153.55 8.25 159.02V213.14C8.25 218.61 12.68 223.04 18.15 223.04H71.91C72.96 231.7 80.33 238.4 89.27 238.4C89.67 238.4 90.05 238.37 90.44 238.34C87.66 234.68 85.39 229.36 83.9 223.03H89.35C94.82 223.03 99.25 218.6 99.25 213.13V159.01C99.25 153.54 94.82 149.11 89.35 149.11V149.12Z" fill="#407BFF"/>
<path opacity="0.4" d="M89.35 149.12H18.15C12.68 149.12 8.25 153.55 8.25 159.02V213.14C8.25 218.61 12.68 223.04 18.15 223.04H71.91C72.96 231.7 80.33 238.4 89.27 238.4C89.67 238.4 90.05 238.37 90.44 238.34C87.66 234.68 85.39 229.36 83.9 223.03H89.35C94.82 223.03 99.25 218.6 99.25 213.13V159.01C99.25 153.54 94.82 149.11 89.35 149.11V149.12Z" fill="white"/>
<path d="M103.61 172.11L109.15 166.99L113.88 175.75C113.88 175.75 108.4 179.95 105.14 177.37L103.6 172.11H103.61Z" fill="#FF8B7B"/>
<path d="M103.61 172.11L99.8496 180.13L105.02 184.41L109.54 177.09L103.61 172.11Z" fill="#FF8B7B"/>
<path d="M114.419 168.17L115.329 171.48C115.779 173.1 115.169 174.9 113.879 175.75L111.849 177.08L106.189 167.15L111.039 165.93C112.509 165.53 113.959 166.5 114.419 168.18V168.17Z" fill="#FF8B7B"/>
<path d="M103.609 172.11C103.609 172.11 105.579 165.93 105.289 164.04C105.119 162.91 106.269 163.1 107.229 163.43C107.969 163.69 108.479 164.37 108.509 165.16C108.589 167.18 108.539 171.06 106.979 171.31C104.859 171.65 103.609 172.11 103.609 172.11Z" fill="#FF8B7B"/>
<path d="M110.08 178.54C108.58 176.86 106.55 175.63 104.17 175.14L102.48 174.79C101.52 174.59 101.29 174.82 101.17 175.08L100.69 175.83L99.7099 177.33C99.0399 178.32 98.3899 179.32 97.6999 180.29C96.3699 182.26 94.9799 184.16 93.5799 185.98C92.1899 187.79 90.7199 189.5 89.2699 190.88C89.1299 191.01 88.9899 191.14 88.8499 191.26C88.3399 190.69 87.8299 190.11 87.3399 189.5C85.9099 187.7 84.5399 185.76 83.2499 183.73C81.9599 181.69 77.7799 175.67 76.6399 173.5C76.0699 172.42 75.5099 171.32 74.9799 170.22L74.2099 168.57C73.9699 168.05 73.6999 167.42 73.5399 167.02C73.5099 166.95 73.4599 166.84 73.4299 166.76C71.7399 162.98 67.2999 161.28 63.5199 162.98C59.7399 164.67 58.0399 169.11 59.7399 172.89C60.0999 173.7 60.3899 174.28 60.7099 174.96L61.6799 176.88C62.3399 178.15 63.0199 179.39 63.7199 180.63C65.1299 183.1 69.6599 189.4 71.3199 191.76C72.9799 194.12 74.7999 196.43 76.8299 198.64C78.8699 200.85 81.1199 202.98 83.7399 204.9L84.0599 205.13C85.5599 206.22 87.5299 206.63 89.4599 206.07C91.9799 205.35 93.6399 204.22 95.0499 203.15C96.4499 202.06 97.5599 200.95 98.5699 199.84C100.59 197.62 102.19 195.37 103.68 193.1C105.15 190.83 106.44 188.51 107.66 186.19C108.25 185.01 108.83 183.84 109.37 182.65L110.17 180.85L110.56 179.94C110.72 179.64 110.78 179.32 110.1 178.56L110.08 178.54Z" fill="#263238"/>
<path opacity="0.4" d="M73.0196 175.36L67.5196 179.24L65.8896 183.01C66.1596 183.51 66.4196 184.01 66.6996 184.5C68.1096 186.97 69.6596 189.37 71.3196 191.74C72.9796 194.1 74.7997 196.41 76.8297 198.62C77.7797 199.65 78.7796 200.66 79.8396 201.64C77.1796 195.31 73.0196 175.36 73.0196 175.36Z" fill="black"/>
<path d="M23.8602 205.76C24.2902 215.73 22.7102 215.3 22.6702 223.03H71.4002C74.0502 199.42 72.8102 195.79 72.8602 180.12C72.8902 171.3 71.5102 162.3 62.7302 161.38C52.9702 160.36 40.7802 160.46 31.7302 161.58C25.2402 162.38 20.6402 168.36 21.5902 174.83C23.5602 188.16 22.4902 195.72 23.8602 205.76Z" fill="#263238"/>
<path opacity="0.9" d="M58.29 161.01C51.97 160.59 45.05 160.58 38.79 160.95C38.93 162.94 40.45 167.99 51.52 172.28C51.52 172.28 53.99 166.92 56.07 169.34C56.07 169.34 57.74 166.26 61.32 171.92C61.32 171.92 66.66 166.2 58.29 161.01Z" fill="white"/>
<path opacity="0.4" d="M31.9496 175.19C33.0196 184.46 27.0996 199.96 23.9096 207.46C23.9096 206.93 23.8796 206.36 23.8596 205.76C22.9996 199.49 23.0996 194.2 22.8096 187.87L31.9496 175.19Z" fill="black"/>
<path d="M43.5698 143.24C43.5798 151.6 41.9998 156.42 40.1298 160.94C39.9498 161.37 40.0498 161.88 40.3998 162.2C43.5898 165.08 48.4698 167.43 55.0998 167.52C61.6498 167.61 61.2698 165.56 59.7198 163.26C59.4998 162.93 59.1998 162.66 58.8598 162.46C54.3798 159.8 54.2198 156.24 55.4698 154.1L43.5698 143.25V143.24Z" fill="#FF8B7B"/>
<path opacity="0.2" d="M43.57 143.24L55.47 154.09C54.76 155.29 54.51 156.95 55.22 158.64C52.87 158.72 50.47 157.97 48.37 156.18C45.3 153.57 44.26 150.49 43.5 146.15C43.55 145.23 43.57 144.27 43.57 143.24Z" fill="black"/>
<path d="M40.0194 137.64C40.5494 145.63 39.4094 146.91 43.4794 150.96C49.5894 157.05 59.5394 158.22 60.9494 150.11C62.2194 142.81 62.9194 129.6 55.0594 126.53C47.3194 123.5 39.4994 129.65 40.0294 137.64H40.0194Z" fill="#FF8B7B"/>
<path d="M59.4402 146.24C59.4402 146.24 56.6302 145.35 48.6602 145.01C49.5102 147.88 51.1802 150.26 55.2602 150.38C59.3402 150.51 59.4402 146.23 59.4402 146.23V146.24Z" fill="#263238"/>
<path d="M53.4399 148.09C55.4099 148.15 56.8199 148.74 57.8399 149.64C57.2499 150.11 56.4099 150.42 55.2699 150.38C53.2999 150.32 51.8999 149.74 50.8799 148.83C51.4699 148.36 52.2999 148.05 53.4399 148.09Z" fill="#FF5652"/>
<path d="M59.08 146.15C58.84 146.74 58.59 147.34 57.79 147.5C56.13 147.56 51.9 146.83 50.76 146.5C50.03 146.33 49.42 146.01 49 145.04C55.13 145.32 58.11 145.92 59.07 146.16L59.08 146.15Z" fill="white"/>
<path d="M56.3096 138.81C56.3096 138.81 57.9096 141.63 59.4196 142.87C58.6196 143.87 57.0096 143.71 57.0096 143.71L56.3096 138.81Z" fill="#FF5652"/>
<path d="M48.4194 135.36C48.3494 135.35 48.2894 135.32 48.2394 135.27C48.0794 135.12 48.0594 134.87 48.2094 134.7C49.6994 133.04 51.5394 133.3 51.6094 133.31C51.8294 133.34 51.9794 133.55 51.9394 133.77C51.9094 133.99 51.6994 134.14 51.4794 134.11C51.4194 134.11 49.9894 133.92 48.7994 135.24C48.6994 135.35 48.5494 135.39 48.4094 135.37L48.4194 135.36Z" fill="#263238"/>
<path d="M61.7001 136.78C61.5701 136.8 61.4401 136.76 61.3401 136.66C60.1401 135.37 58.7101 135.59 58.6501 135.6C58.4301 135.64 58.2301 135.49 58.1901 135.27C58.1501 135.05 58.3001 134.85 58.5201 134.81C58.6001 134.8 60.4201 134.49 61.9301 136.11C62.0801 136.27 62.0701 136.53 61.9101 136.68C61.8501 136.74 61.7801 136.77 61.7001 136.78Z" fill="#263238"/>
<path d="M9.02985 207.39C9.03985 207.76 9.09985 208.14 9.19985 208.51C10.1699 212.13 11.4199 214.95 12.7099 217.82C13.4399 219.41 14.1899 220.96 14.9599 222.49C15.9699 222.83 17.0399 223.03 18.1599 223.03H28.9399C28.5799 222.23 28.2299 221.43 27.8699 220.64C26.6899 218.03 25.5799 215.41 24.5899 212.82C23.7399 210.61 22.9599 208.33 22.4899 206.38C22.5699 205.76 22.7399 204.83 22.9899 203.9C23.3099 202.69 23.7199 201.39 24.1999 200.08C25.1599 197.45 26.2999 194.74 27.4999 192.04C28.7099 189.34 30.0299 186.64 31.3599 183.96C32.6899 181.29 34.0999 178.55 35.4899 176.01L35.5399 175.92C35.5399 175.92 35.5899 175.82 35.6199 175.77C37.5099 172.08 36.0499 167.56 32.3599 165.67C28.6699 163.78 24.1499 165.24 22.2599 168.93C20.7499 171.87 19.3999 174.68 18.0499 177.59C16.7199 180.49 15.4599 183.43 14.2499 186.44C13.0499 189.45 11.9199 192.51 10.9499 195.76C10.4599 197.38 10.0099 199.07 9.63985 200.88C9.28985 202.71 8.94985 204.6 9.00985 207.16V207.38L9.02985 207.39Z" fill="#263238"/>
<path d="M36.3899 142.99C37.1799 144.91 38.6599 146.27 40.0799 146.88C42.2199 147.8 43.3999 145.7 42.8899 143.31C42.4299 141.15 40.7699 138.07 38.5799 138.18C36.4199 138.28 35.4799 140.8 36.3799 142.99H36.3899Z" fill="#FF8B7B"/>
<path d="M50.3098 138.08C50.2698 138.78 50.6098 139.36 51.0698 139.39C51.5298 139.42 51.9298 138.88 51.9598 138.17C51.9998 137.46 51.6598 136.89 51.2098 136.86C50.7598 136.83 50.3498 137.37 50.3098 138.08Z" fill="#2E353A"/>
<path d="M58.2298 138.54C58.1898 139.24 58.5298 139.82 58.9798 139.85C59.4298 139.88 59.8398 139.34 59.8798 138.63C59.9198 137.93 59.5798 137.35 59.1298 137.32C58.6798 137.29 58.2598 137.83 58.2298 138.54Z" fill="#2E353A"/>
<path d="M155.69 10H176.79C178.8 10 180.42 11.63 180.42 13.63V27.22C180.42 29.23 178.79 30.85 176.79 30.85H170.72L168.01 34.39C167.12 35.56 165.36 35.56 164.46 34.39L161.75 30.85H155.68C153.67 30.85 152.05 29.22 152.05 27.22V13.63C152.05 11.62 153.68 10 155.69 10Z" fill="#407BFF"/>
<path opacity="0.7" d="M155.69 10H176.79C178.8 10 180.42 11.63 180.42 13.63V27.22C180.42 29.23 178.79 30.85 176.79 30.85H170.72L168.01 34.39C167.12 35.56 165.36 35.56 164.46 34.39L161.75 30.85H155.68C153.67 30.85 152.05 29.22 152.05 27.22V13.63C152.05 11.62 153.68 10 155.69 10Z" fill="white"/>
<path d="M156.92 19.3402L163.67 15.2202V17.6902H166.76C170.89 17.6902 174.24 21.0402 174.24 25.1702C174.24 25.7402 174.17 26.2902 174.05 26.8202C173.3 23.4802 170.32 20.9902 166.76 20.9902H163.67V23.4602L156.92 19.3402Z" fill="#407BFF"/>
</g>
<defs>
<clipPath id="clip0_227_2388">
<rect width="216" height="231" fill="white"/>
</clipPath>
</defs>
</svg>
