<svg width="224" height="250" viewBox="0 0 224 250" fill="none" xmlns="http://www.w3.org/2000/svg">
<g clip-path="url(#clip0_521_18951)">
<path d="M133.306 19.666V48.0016L143.739 25.3279L133.306 19.666Z" fill="#74CEEF"/>
<path d="M133.306 0V12.7824L146.273 19.8179L155.391 0H133.306Z" fill="#74CEEF"/>
<path d="M158.718 0L133.306 55.233V57.5938L159.444 0H158.718Z" fill="#74CEEF"/>
<path d="M182.022 0C182.078 0.424712 182.104 0.843565 182.107 1.23899C182.092 2.17921 182.005 2.94076 181.688 3.61737C181.143 4.70405 181.105 4.97059 177.708 11.3911C177.125 12.4924 176.905 13.5058 176.905 14.4695C176.861 17.0471 178.645 19.3932 179.875 20.6674L185.033 10.568L195.305 0H182.025H182.022Z" fill="#74CEEF"/>
<path d="M167.271 0L155.78 25.4768L172.83 34.4514L178.794 22.7763C177.397 21.4904 174.696 18.5291 174.635 14.4695C174.635 13.1543 174.951 11.7396 175.701 10.3307C179.107 3.89563 179.066 3.78726 179.658 2.60392C179.699 2.56292 179.851 1.92438 179.839 1.23899C179.839 0.843565 179.804 0.415925 179.728 0H167.271V0Z" fill="#74CEEF"/>
<path d="M238.435 81.1906L223.421 66.355L213.893 95.4521L249.77 94.5558L238.435 81.1906Z" fill="#74CEEF"/>
<path d="M138.675 63.3993L151.492 68.9411L167.494 36.7685L153.909 29.6216L138.675 63.3993Z" fill="#74CEEF"/>
<path d="M184.142 126.069C185.208 117.422 186.382 108.099 187.425 99.8921L182.182 100.024L179.83 124.894L184.139 126.069H184.142Z" fill="#74CEEF"/>
<path d="M180.911 87.7514L182.156 72.0166L179.163 67.3887L176.049 68.9704L133.306 94.7489V97.4583L180.235 96.2896L180.727 90.0976L171.588 86.776L172.365 84.6437L180.911 87.7514Z" fill="#74CEEF"/>
<path d="M137.74 65.4697L133.306 75.2996V86.4768L148.657 78.6651L150.569 71.0144L137.74 65.4697Z" fill="#74CEEF"/>
<path d="M240.096 79.6435L241.478 81.275L248.347 66.2373C247.647 65.8155 246.9 65.3527 246.133 64.8489C242.501 62.45 238.377 59.2691 236.379 55.6283C235.172 53.4081 232.694 49.0994 229.95 44.3837L223.764 47.9425L222.633 45.9771L228.807 42.4241C228.219 41.4165 227.627 40.4031 227.038 39.3955L209.839 49.7409L220.914 60.6867L228.257 53.3436L229.862 54.9487L222.528 62.2831L226.356 66.0645L231.687 61.0675L233.236 62.7224L227.97 67.6608L240.099 79.6465L240.096 79.6435Z" fill="#74CEEF"/>
<path d="M220.621 24.0242C221.591 25.6644 224.151 29.9965 227.071 34.9671L247.618 22.6094L234.815 9.5459L220.621 24.0242Z" fill="#74CEEF"/>
<path d="M190.448 76.3366L190.466 76.2575C190.466 76.2575 190.466 76.2516 190.48 76.1667C190.495 76.0788 190.513 75.9441 190.536 75.7596C190.577 75.3964 190.621 74.8545 190.618 74.2042C190.624 72.5669 190.334 70.2647 189.195 68.226C188.723 67.3766 187.765 65.7305 186.538 63.6392L181.195 66.3573L184.479 71.4334L182.516 96.2365L187.912 96.1018C189.353 84.7927 190.439 76.4157 190.439 76.4127L190.448 76.3395V76.3366Z" fill="#74CEEF"/>
<path d="M231.947 6.62257L227.357 10.2927L215.046 0H198.468L186.892 11.9066L181.6 22.2666L207.053 47.0024L225.125 36.1327C222.492 31.6483 220.152 27.6854 219.004 25.7434L206.807 38.1157L205.19 36.5252L233.227 7.92307L231.947 6.61672V6.62257Z" fill="#74CEEF"/>
<path d="M222.217 132.302L224.865 119.391L218.975 118.706L215.981 128.72L215.972 128.746V128.752L213.796 128.108V128.102L213.811 128.055L217.279 116.225L217.346 116.234L220.36 106.158L220.196 99.1191L220.009 99.0811L218.474 99.1191L217.701 105.78L214.839 115.516L212.663 114.874L215.472 105.323L216.186 99.1748L199.192 99.5995L196.793 128.407C202.874 129.435 210.565 130.668 217.87 131.649C219.273 131.84 220.729 132.059 222.217 132.302Z" fill="#74CEEF"/>
<path d="M196.91 99.6577L192.016 99.7807C191.738 101.96 191.451 104.221 191.161 106.535C190.314 113.219 189.427 120.31 188.604 126.983C190.162 127.261 192.189 127.621 194.549 128.026L196.913 99.6577H196.91Z" fill="#74CEEF"/>
<path d="M174.224 65.6575L184.18 59.6529C182.695 57.1457 181.052 54.3865 179.458 51.7152C176.075 46.0417 172.912 40.7664 171.913 39.0969L169.497 37.8257L153.574 69.8431L160.291 72.7458L174.221 65.6575H174.224Z" fill="#74CEEF"/>
<path d="M207.466 156.798L205.677 167.518L220.463 169.135L221.974 161.443L207.66 156.827L207.466 156.798Z" fill="#74CEEF"/>
<path d="M221.424 172.093L219.988 180.301L225.313 182.884L231.332 169.882H231.335L232.706 170.518L226.672 183.546L231.596 185.933L237.381 173.165L238.758 173.786L232.955 186.595L241.942 190.956L242.814 166.467L223.925 159.34L221.424 172.093Z" fill="#74CEEF"/>
<path d="M205.043 48.2121L180.521 24.3813L174.839 35.5059L175.155 35.6728L175.483 36.2176C175.492 36.2323 183.216 49.1054 188.556 58.1298L205.046 48.2121H205.043Z" fill="#74CEEF"/>
<path d="M188.668 173.309L187.936 189.243L191.781 178.725L203.656 184.603L205.466 175.392L189.063 171.019L188.668 173.309Z" fill="#74CEEF"/>
<path d="M262.912 142.533V135.74L261.436 135.257L262.912 130.746V126.11L249.093 121.904L245.449 133.309L243.291 132.621L243.411 132.243L247.599 119.077L247.617 119.083L254.278 98.228L245.816 98.4389L236.961 130.245L234.776 129.636L243.446 98.4975L231.563 98.7933L229.05 113.869L226.812 113.497L229.252 98.8519L222.465 99.0189L222.638 106.465L219.636 116.499L227.585 117.425L224.454 132.682C238.862 135.225 255.815 139.838 262.912 142.53V142.533Z" fill="#74CEEF"/>
<path d="M182.595 215.279L187.442 217.605L187.451 217.564L187.507 217.461C188.227 216.149 189.059 215.118 189.95 214.307L183.394 212.122L182.598 215.276L182.595 215.279Z" fill="#74CEEF"/>
<path d="M211.485 95.5103L221.616 64.5707L207.829 50.9478L190.469 61.3869C191.696 63.4724 192.657 65.1302 193.155 66.0236C194.815 69.0258 195.146 72.0779 195.152 74.2044C195.152 75.6865 194.985 76.7351 194.927 77.0543C194.892 77.3297 194.733 78.5569 194.482 80.5106L200.583 82.8832L199.505 95.812L211.485 95.5132V95.5103Z" fill="#74CEEF"/>
<path d="M151.337 77.303L157.667 74.0811L152.681 71.9253L151.337 77.303Z" fill="#74CEEF"/>
<path d="M192.499 95.9849L197.227 95.8677L198.184 84.383L194.186 82.8276C193.756 86.1726 193.17 90.7449 192.499 95.9849Z" fill="#74CEEF"/>
<path d="M135.174 249.997L133.306 248.755V249.997H135.174Z" fill="#74CEEF"/>
<path d="M214.739 223.167L213.553 226.535L232.261 233.392L235.567 226.371L232.384 225.252L230.761 228.668L214.739 223.167Z" fill="#74CEEF"/>
<path d="M149.945 249.997L148.685 249.253C148.577 249.502 148.472 249.748 148.366 249.997H149.945Z" fill="#74CEEF"/>
<path d="M184.529 207.631L187.154 199.386L186.653 199.236L184.529 207.631Z" fill="#74CEEF"/>
<path d="M213.954 249.997L206.564 246.403L205.299 249.997H213.954Z" fill="#74CEEF"/>
<path d="M224.835 249.997L231.63 234.769L213.051 227.959L207.067 244.968L217.413 249.997H224.835ZM216.393 231.442L223.953 234.464L221.434 240.513L213.623 236.731L216.396 231.439L216.393 231.442Z" fill="#74CEEF"/>
<path d="M181.228 249.997L179.052 248.869L179.014 249.997H181.228Z" fill="#74CEEF"/>
<path d="M203.7 249.997L205.196 245.742L180.537 233.75L179.137 247.212L184.52 249.997H203.7Z" fill="#74CEEF"/>
<path d="M221.274 194.852L217.522 193.127L212.473 204.07L218.064 206.085L221.274 194.852Z" fill="#74CEEF"/>
<path d="M192.144 196.744L196.825 182.907L192.622 180.828L188.123 193.141L187.763 193.01L187.66 195.259L187.212 197.034L187.842 197.224L188.422 195.403L192.144 196.744Z" fill="#74CEEF"/>
<path d="M186.983 219.901L182.215 217.613L180.7 232.153L189.687 236.52L192.525 230.609L193.887 231.263L191.049 237.182L205.7 244.306L211.631 227.443L204.54 224.845L205.058 223.424L212.132 226.017L213.306 222.678L206.268 220.261L201.485 231.928L198.972 240.723L197.519 240.308L199.806 232.3C194.203 231.348 190.838 230.059 188.799 228.685C186.658 227.259 185.987 225.613 186.005 224.371C186.005 223.501 186.289 222.877 186.441 222.604L186.983 219.904V219.901Z" fill="#74CEEF"/>
<path d="M169.684 132.129C160.232 130.427 151.439 126.86 142.102 124.824C139.178 124.185 136.241 123.626 133.306 123.069V138.866C138.185 140.5 142.301 143.362 142.301 143.362C146.768 155.922 140.927 161.68 133.306 163.531V186.949L168.902 191.381L168.847 191.837C171.093 186.753 172.464 183.663 172.464 183.66C172.464 183.657 172.88 182.711 173.56 180.944C174.239 179.178 175.168 176.621 176.161 173.487C178.146 167.225 180.375 158.66 181.36 149.545C181.767 145.793 182.376 140.6 183.088 134.698C178.621 133.837 174.157 132.937 169.684 132.132V132.129Z" fill="#74CEEF"/>
<path d="M151.873 191.545L151.182 210.88L150.856 210.868L159.588 212.865C162.868 205.391 165.83 198.671 168.085 193.563L151.876 191.545H151.873Z" fill="#74CEEF"/>
<path d="M191.901 154.61L189.323 169.525L208.09 174.527L218.573 179.612L219.938 171.818L220.169 170.626L203.922 168.848L205.966 156.59L200.656 155.843L198.233 167.082L196.754 166.765L199.156 155.632L191.901 154.61Z" fill="#74CEEF"/>
<path d="M133.306 101.243V112.218L177.61 124.289L179.901 100.08L133.306 101.243Z" fill="#74CEEF"/>
<path d="M162.763 0L133.306 64.9077V67.9451L163.952 0H162.763Z" fill="#74CEEF"/>
<path d="M133.306 114.566V119.698C138.253 120.659 143.221 121.514 148.133 122.706C157.008 124.862 165.405 128.131 174.444 129.721C177.464 130.251 180.475 130.823 183.486 131.4C183.609 130.395 183.732 129.376 183.861 128.342L133.306 114.569V114.566Z" fill="#74CEEF"/>
<path d="M177.499 249.997L177.563 248.099L159.342 238.664L160.036 237.32L177.692 246.461L180.753 217.03L164.353 213.284C162.854 216.702 161.281 220.29 159.673 223.966C156.342 231.579 152.865 239.567 149.591 247.153L154.403 249.994H177.499V249.997Z" fill="#74CEEF"/>
<path d="M217.996 191.682L221.728 193.396L224.759 184.295L219.715 181.85L217.996 191.682Z" fill="#74CEEF"/>
<path d="M206.927 175.781L205.062 185.298L216.581 191.001L218.301 181.165L207.557 175.951L206.927 175.781Z" fill="#74CEEF"/>
<path d="M187.874 223.164L187.789 223.293C187.789 223.293 187.789 223.293 187.766 223.334C187.742 223.378 187.707 223.454 187.669 223.551C187.596 223.744 187.52 224.028 187.52 224.371C187.534 225.103 187.812 226.169 189.649 227.434C191.427 228.641 194.672 229.921 200.296 230.853L201.804 227.171L201.526 227.663L189.429 223.126L190.493 215.9C189.93 216.5 189.388 217.221 188.884 218.1L187.871 223.164H187.874Z" fill="#74CEEF"/>
<path d="M216.157 192.477L204.76 186.835L202.109 200.335L211.043 203.554L216.157 192.477Z" fill="#74CEEF"/>
<path d="M203.353 186.138L198.192 183.584L193.567 197.257L200.667 199.817L203.353 186.138Z" fill="#74CEEF"/>
<path d="M241.473 204.146L222.662 195.493L219.49 206.6L223.623 208.088L241.142 213.407L241.473 204.146Z" fill="#74CEEF"/>
<path d="M223.108 194.032L227.865 196.22L231.034 187.342L226.131 184.963L223.108 194.032Z" fill="#74CEEF"/>
<path d="M152.38 229.336C154.518 224.433 156.638 219.585 158.657 214.978L133.303 209.175V227.373L143.663 231.518L142.822 233.624L133.303 229.816V232.652L148.132 239.098C149.24 236.55 150.353 233.981 151.472 231.418L139.709 225.455L140.734 223.431L152.38 229.333V229.336Z" fill="#74CEEF"/>
<path d="M196.002 136.945C193.178 136.532 190.363 136.048 187.557 135.533C186.86 141.3 186.269 146.367 185.87 150.031C183.799 169.094 176.664 185.356 176.617 185.485C176.615 185.493 175.393 188.25 173.366 192.834L185.762 196.597L186.154 195.042L187.162 173.139L192.967 139.578L194.458 139.835L192.162 153.122L199.479 154.15L199.523 153.951L201.286 140.366L202.783 140.562L201.016 154.191L200.978 154.364L206.218 155.102L208.342 142.357L209.833 142.606L207.715 155.31L207.993 155.348L222.267 159.952L225.231 144.853L226.713 145.146L224.22 157.84L242.896 164.885L244.735 147.72C238.417 146.098 232.237 144.071 225.907 142.311C216.089 139.578 206.054 138.418 196.002 136.947V136.945Z" fill="#74CEEF"/>
<path d="M262.913 144.961C262.77 144.905 262.626 144.85 262.483 144.794C254.894 141.824 232.929 135.951 217.569 133.901C206.295 132.387 194.151 130.281 188.325 129.238C188.199 130.257 188.076 131.262 187.956 132.252C193.278 133.259 198.609 134.226 203.987 134.944C212.953 136.142 221.959 137.383 230.67 139.9C240.108 142.626 249.267 145.582 258.953 147.351C260.274 147.591 261.592 147.84 262.913 148.086V144.961Z" fill="#74CEEF"/>
<path d="M133.306 189.234V206.852L148.929 210.426L149.615 191.264L133.306 189.234Z" fill="#74CEEF"/>
<path d="M171.524 197.002C169.755 201.008 167.623 205.847 165.282 211.169L181.155 214.795L185.206 198.794L172.444 194.919C172.148 195.587 171.846 196.275 171.524 196.999V197.002Z" fill="#74CEEF"/>
<path d="M143.428 249.997C144.664 247.127 145.936 244.174 147.233 241.181L140.458 238.237L137.304 246.043L135.201 245.194L138.376 237.332L133.303 235.126V246.034L139.272 249.997H143.428Z" fill="#74CEEF"/>
<path d="M215.047 0L227.358 10.2927L231.947 6.62258L225.46 0H215.047Z" fill="#DCD8BA"/>
<path d="M219.429 206.814L223.623 208.089L219.49 206.601L219.429 206.814Z" fill="#74CEEF"/>
<path d="M183.396 212.125L189.951 214.31C192.06 212.388 194.505 211.744 196.658 211.761C199.942 211.77 202.616 213.112 203.082 213.355L215.061 217.564L217.408 208.572L187.156 199.386L184.535 207.629L183.398 212.122L183.396 212.125Z" fill="#74CEEF"/>
<path d="M214.739 223.167L230.761 228.667L232.384 225.252L216.028 219.505L214.739 223.167Z" fill="#74CEEF"/>
<path d="M211.043 203.554L202.109 200.335L201.884 201.489L210.753 204.181L211.043 203.554Z" fill="#74CEEF"/>
<path d="M233.036 223.879L237.424 214.649L218.851 209.011L216.49 218.064L233.036 223.879Z" fill="#74CEEF"/>
<path d="M218.063 206.085L212.472 204.07L212.217 204.626L217.981 206.378L218.063 206.085Z" fill="#74CEEF"/>
<path d="M192.145 196.744L188.422 195.402L187.842 197.224L191.597 198.367L192.145 196.744Z" fill="#74CEEF"/>
<path d="M214.602 219.005L207.724 216.585L207.771 216.606L206.271 220.258L213.31 222.675L214.602 219.005Z" fill="#74CEEF"/>
<path d="M201.526 227.66L201.804 227.168L206.341 216.099L202.472 214.74L202.419 214.711C202.419 214.711 201.789 214.359 200.729 213.996C199.672 213.63 198.216 213.267 196.655 213.27C194.601 213.287 192.405 213.858 190.489 215.897L189.426 223.123L201.523 227.66H201.526Z" fill="#74CEEF"/>
<path d="M200.667 199.817L193.567 197.257L193.046 198.806L200.427 201.047L200.667 199.817Z" fill="#74CEEF"/>
<path d="M223.957 234.464L216.397 231.441L213.623 236.734L221.435 240.513L223.957 234.464Z" fill="#74CEEF"/>
<path d="M142.301 143.359C142.301 143.359 138.185 140.498 133.306 138.863V163.529C140.927 161.681 146.768 155.922 142.301 143.359Z" fill="#B4CD9B"/>
<path d="M174.447 129.719C165.405 128.128 157.01 124.859 148.135 122.703C143.226 121.511 138.256 120.656 133.309 119.695V123.064C136.243 123.623 139.181 124.183 142.105 124.818C151.442 126.854 160.235 130.421 169.687 132.123C174.163 132.929 178.624 133.828 183.091 134.689C183.22 133.611 183.354 132.513 183.492 131.391C180.481 130.817 177.47 130.243 174.45 129.713L174.447 129.719Z" fill="#8BBBB9"/>
<path d="M262.913 148.086C261.592 147.84 260.274 147.591 258.953 147.351C249.267 145.582 240.108 142.624 230.67 139.9C221.959 137.384 212.952 136.139 203.987 134.944C198.609 134.226 193.281 133.26 187.956 132.252C187.818 133.368 187.686 134.463 187.558 135.535C190.367 136.048 193.178 136.534 196.002 136.947C206.057 138.418 216.089 139.577 225.908 142.31C232.237 144.074 238.418 146.098 244.736 147.72L244.753 147.568L246.256 147.729L246.218 148.098C248.365 148.625 250.529 149.103 252.726 149.498C256.127 150.11 259.521 150.746 262.913 151.39V148.089V148.086Z" fill="#8BBBB9"/>
<path d="M159.444 0L133.306 57.5939V64.9077L162.763 0H159.444Z" fill="white"/>
<path d="M143.666 231.521L133.306 227.376V229.819L142.825 233.629L143.666 231.521Z" fill="white"/>
<path d="M139.275 249.997L133.306 246.034V248.755L135.174 249.997H139.275Z" fill="white"/>
<path d="M245.084 1.28878L245.766 0H238.479L239.123 0.650248L255.945 17.6006L255.916 17.6182L250.945 20.6058L230.752 0H225.459L231.947 6.62257L233.227 7.92893L205.19 36.5311L206.807 38.1215L219.004 25.7493C220.152 27.6912 222.492 31.6542 225.125 36.1386L207.053 47.0083L181.6 22.2725L186.893 11.9124L198.468 0H195.305L185.033 10.568L179.875 20.6674C178.647 19.3932 176.864 17.0471 176.905 14.4695C176.905 13.5088 177.124 12.4924 177.707 11.3911C181.105 4.97059 181.143 4.70405 181.688 3.61737C182.004 2.94076 182.095 2.17921 182.107 1.23899C182.107 0.843565 182.08 0.424712 182.022 0H179.725C179.801 0.412996 179.839 0.843565 179.836 1.23899C179.848 1.92438 179.696 2.56292 179.655 2.60392C179.063 3.78433 179.104 3.8927 175.698 10.3307C174.948 11.7396 174.632 13.1543 174.632 14.4695C174.693 18.5292 177.397 21.4933 178.791 22.7763L172.827 34.4515L155.777 25.4769L167.271 0H163.955L133.309 67.9451V75.2999L137.743 65.4701L150.572 71.0147L148.66 78.6654L133.309 86.4772V94.7488L176.049 68.9703L179.163 67.3857L182.156 72.0135L180.911 87.7484L172.364 84.6407L171.588 86.773L180.724 90.0946L180.235 96.2866L133.306 97.4552V101.237L179.901 100.077L177.61 124.285L133.306 112.215V114.567L183.861 128.339C183.735 129.37 183.609 130.392 183.486 131.397C183.348 132.516 183.217 133.617 183.085 134.695C182.37 140.597 181.764 145.79 181.357 149.542C180.373 158.658 178.144 167.222 176.158 173.484C175.165 176.619 174.236 179.176 173.557 180.942C172.877 182.708 172.461 183.654 172.461 183.657C172.461 183.657 171.087 186.75 168.844 191.835L168.899 191.378L133.303 186.946V189.231L149.612 191.261L148.926 210.423L133.303 206.849V209.175L158.657 214.977C156.638 219.582 154.515 224.432 152.38 229.336L140.734 223.434L139.709 225.458L151.472 231.421C150.356 233.984 149.24 236.553 148.132 239.101L133.303 232.654V235.126L138.376 237.332L135.201 245.193L137.304 246.043L140.458 238.237L147.233 241.181C145.936 244.174 144.664 247.127 143.428 249.997H148.367C148.472 249.748 148.581 249.502 148.686 249.253L149.946 249.997H154.407L149.594 247.156C152.869 239.567 156.346 231.582 159.676 223.97C161.284 220.294 162.857 216.706 164.356 213.287L180.756 217.034L177.695 246.465L160.039 237.323L159.345 238.668L177.566 248.102L177.502 250H179.013L179.052 248.872L181.228 250H184.517L179.134 247.212L180.534 233.753L205.193 245.741L203.696 250H205.296L206.561 246.406L213.954 250H217.413L207.068 244.971L213.052 227.962L231.631 234.772L224.835 250H226.493L229.088 244.18L230.213 244.745L240.652 249.997H244.018L230.852 243.372L229.704 242.795L233.063 235.261L252.48 241.406L248.719 249.994H251.197L254.656 242.095L259.117 243.506C258.648 245.492 257.972 247.689 257.16 249.994H259.562C260.256 247.961 260.845 246.005 261.284 244.192L262.91 244.707V243.123L255.265 240.703L258.077 234.283L262.91 235.982V234.379L258.686 232.894L262.149 224.986L262.91 225.267V216.345L261.106 221.38L252.711 218.296L262.91 187.456V180.233L250.582 217.514L247.565 216.407L254.761 195.772L252.617 195.025L245.432 215.622L242.606 214.585L244.302 167.026L262.907 174.044V172.427L244.36 165.43V165.342L246.212 148.09L246.25 147.721L244.747 147.56L244.729 147.712L242.89 164.876L224.214 157.832L226.707 145.137L225.225 144.847L222.261 159.946L207.988 155.342L207.709 155.304L209.827 142.601L208.336 142.352L206.213 155.096L200.972 154.358L201.011 154.185L202.777 140.556L201.28 140.36L199.517 153.945L199.473 154.144L192.156 153.116L194.452 139.83L192.962 139.572L187.156 173.133L186.149 195.036L185.756 196.592L173.36 192.828C175.384 188.244 176.609 185.491 176.612 185.479C176.658 185.35 183.794 169.088 185.864 150.026C186.26 146.362 186.854 141.294 187.552 135.527C187.68 134.455 187.815 133.359 187.95 132.244C188.07 131.254 188.193 130.249 188.319 129.23C194.145 130.272 206.289 132.381 217.563 133.893C232.923 135.943 254.887 141.819 262.477 144.786C262.62 144.841 262.764 144.897 262.907 144.953V142.524C255.81 139.833 238.857 135.219 224.449 132.677L227.58 117.42L219.631 116.494L222.633 106.459L222.46 99.0135L229.247 98.8465L226.807 113.492L229.044 113.864L231.558 98.788L243.441 98.4921L234.771 129.631L236.956 130.24L245.81 98.4335L254.272 98.2227L247.612 119.077L247.594 119.072L243.406 132.238L243.285 132.613L245.444 133.304L249.088 121.898L262.907 126.104V123.735L256.73 121.854L249.776 119.737L249.823 119.593L250.714 116.807L256.668 98.1611L262.907 98.0059V94.2245L261.235 94.2655L261.372 89.8866L261.844 88.5949L262.91 88.7941V86.486L262.629 86.4332L262.91 85.6629V83.5804L261.449 83.0502L259.117 89.4589L258.968 94.3241L252.685 94.4793L246.203 86.8345L258.528 59.0437L262.913 60.9857V58.5048L259.448 56.97L262.913 49.1553V43.5608L258.839 52.7492L257.152 52.4241L261.85 42.1343L259.785 41.1912L254.958 51.7592L246.841 46.9233L245.679 48.8711L254.006 53.8329L249.293 64.1549C245.43 61.8058 240.263 58.1035 238.371 54.5359C237.143 52.2747 234.662 47.9602 231.915 43.2415L254.876 30.0257L262.913 38.2592V32.8493L253.663 23.3738L258.681 20.3569L262.913 24.6714V19.2731L262.031 18.3739L262.913 17.8555V13.4707L259.296 15.5972L245.087 1.27999L245.084 1.28878ZM159.588 212.866L150.857 210.868L151.182 210.88L151.873 191.545L168.082 193.563C165.827 198.671 162.866 205.391 159.585 212.866H159.588ZM212.135 226.017L205.061 223.425L204.543 224.845L211.634 227.443L205.703 244.306L191.052 237.182L193.89 231.263L192.528 230.61L189.69 236.521L180.703 232.153L182.218 217.614L186.986 219.901L186.444 222.602C186.295 222.877 186.011 223.501 186.008 224.368C185.99 225.61 186.661 227.256 188.802 228.682C190.841 230.059 194.206 231.345 199.81 232.297L197.522 240.305L198.975 240.721L201.488 231.925L206.271 220.258L207.768 216.606L207.721 216.585L214.601 219.002L213.31 222.675L212.135 226.014V226.017ZM187.519 224.371C187.519 224.031 187.596 223.744 187.669 223.551C187.704 223.454 187.742 223.381 187.765 223.334C187.789 223.293 187.792 223.293 187.789 223.293L187.874 223.164L188.887 218.1C189.391 217.221 189.93 216.498 190.495 215.897C192.408 213.859 194.608 213.287 196.661 213.27C198.222 213.27 199.678 213.63 200.735 213.996C201.796 214.362 202.419 214.717 202.425 214.711L202.478 214.74L206.347 216.099L201.81 227.168L200.302 230.85C194.675 229.918 191.433 228.638 189.655 227.432C187.818 226.166 187.54 225.1 187.525 224.368L187.519 224.371ZM232.263 233.392L213.556 226.535L214.742 223.167L216.031 219.506L232.387 225.255L235.57 226.374L232.263 233.392ZM202.112 200.335L204.763 186.835L216.16 192.476L211.048 203.557L210.758 204.184L201.886 201.489L202.112 200.335ZM200.671 199.817L200.428 201.047L193.046 198.806L193.571 197.257L198.196 183.584L203.357 186.138L200.671 199.817ZM229.244 196.855L232.404 188.007L241.774 192.553L241.897 192.301L241.534 202.508L229.247 196.855H229.244ZM241.472 204.146L241.141 213.407L223.62 208.088L219.425 206.814L219.487 206.597L222.662 195.49L241.469 204.143L241.472 204.146ZM227.864 196.223L223.107 194.035L226.13 184.963L231.033 187.342L227.864 196.22V196.223ZM221.728 193.399L217.999 191.683L219.718 181.85L224.759 184.296L221.728 193.396V193.399ZM216.581 191L205.061 185.297L206.93 175.781L207.56 175.948L218.304 181.162L216.581 190.997V191ZM212.475 204.073L217.525 193.13L221.277 194.855L218.066 206.088L217.984 206.378L212.22 204.626L212.478 204.07L212.475 204.073ZM218.854 209.014L237.427 214.652L240.632 215.625L236.218 224.998L233.04 223.882L216.491 218.065L218.851 209.011L218.854 209.014ZM253.095 240.018L233.705 233.881L237.003 226.878L255.933 233.53L253.095 240.015V240.018ZM260.019 224.204L256.542 232.145L237.65 225.504L241.469 217.391L260.016 224.204H260.019ZM223.93 159.343L242.82 166.469L241.947 190.959L232.961 186.598L238.763 173.789L237.386 173.165L231.604 185.936L226.681 183.546L232.712 170.517L231.341 169.882L225.322 182.884L219.997 180.3L221.432 172.093L223.936 159.34L223.93 159.343ZM207.469 156.801L207.662 156.827L221.977 161.443L220.468 169.135L205.682 167.518L207.469 156.801ZM191.907 154.613L199.159 155.632L196.758 166.765L198.234 167.085L200.656 155.843L205.967 156.59L203.922 168.848L220.169 170.626L219.935 171.818L218.57 179.612L208.09 174.524L189.321 169.522L191.898 154.61L191.907 154.613ZM188.673 173.312L189.069 171.021L205.469 175.394L203.661 184.606L191.787 178.728L187.941 189.249L188.673 173.312ZM187.663 195.262L187.765 193.012L188.126 193.144L192.625 180.831L196.828 182.91L192.147 196.747L191.6 198.37L187.844 197.23L187.215 197.04L187.663 195.265V195.262ZM186.658 199.24L187.159 199.392L217.41 208.577L215.064 217.57L203.084 213.361C202.619 213.117 199.944 211.776 196.661 211.767C194.508 211.75 192.062 212.397 189.953 214.315C189.063 215.127 188.234 216.158 187.511 217.47L187.455 217.573L187.446 217.614L182.599 215.288L183.395 212.133L184.532 207.64L186.655 199.245L186.658 199.24ZM185.211 198.8L181.16 214.802L165.288 211.175C167.625 205.853 169.761 201.015 171.53 197.008C171.849 196.284 172.154 195.596 172.449 194.928L185.211 198.803V198.8ZM220.621 24.024L234.815 9.54576L247.618 22.6093L227.07 34.967C224.153 29.9964 221.593 25.6643 220.621 24.024ZM207.832 50.9478L221.619 64.5708L211.488 95.5104L199.508 95.8091L200.586 82.8803L194.485 80.5078C194.737 78.5512 194.895 77.3268 194.93 77.0515C194.988 76.7352 195.152 75.6836 195.155 74.2015C195.152 72.078 194.819 69.023 193.158 66.0207C192.663 65.1273 191.699 63.4724 190.472 61.384L207.832 50.9449V50.9478ZM198.181 84.38L197.223 95.8648L192.496 95.9819C193.164 90.7389 193.752 86.1667 194.183 82.8247L198.181 84.38ZM180.519 24.3814L205.041 48.2121L188.55 58.1299C183.211 49.1055 175.487 36.2323 175.478 36.2177L175.15 35.6729L174.834 35.5059L180.516 24.3814H180.519ZM138.672 63.3992L153.909 29.6185L167.491 36.7683L151.489 68.941L138.672 63.4021V63.3992ZM151.334 77.3005L152.678 71.9257L157.664 74.0815L151.334 77.3034V77.3005ZM174.222 65.6546L160.291 72.7429L153.575 69.8402L169.497 37.8228L171.913 39.094C172.915 40.7635 176.079 46.0417 179.459 51.7123C181.052 54.3807 182.692 57.1428 184.18 59.65L174.224 65.6546H174.222ZM184.139 126.066L179.831 124.892L182.183 100.021L187.426 99.8893C186.383 108.096 185.208 117.417 184.142 126.066H184.139ZM187.906 96.0962L182.511 96.2309L184.473 71.4277L181.19 66.3517L186.532 63.6335C187.762 65.7249 188.72 67.3739 189.189 68.2204C190.328 70.259 190.618 72.5613 190.612 74.1986C190.612 74.8518 190.569 75.3907 190.53 75.7539C190.51 75.9385 190.489 76.0732 190.475 76.1611C190.46 76.246 190.457 76.2519 190.46 76.2519L190.443 76.331L190.434 76.4042C190.434 76.4042 189.347 84.7842 187.906 96.0932V96.0962ZM188.597 126.98C189.42 120.311 190.308 113.216 191.154 106.532C191.447 104.218 191.734 101.957 192.01 99.778L196.904 99.655L194.54 128.023C192.179 127.619 190.153 127.258 188.594 126.98H188.597ZM217.343 116.233L217.276 116.225L213.808 128.055L213.793 128.102V128.108L215.963 128.752V128.746L215.972 128.72L218.966 118.705L224.856 119.391L222.208 132.302C220.72 132.059 219.264 131.836 217.861 131.649C210.556 130.671 202.865 129.438 196.784 128.406L199.183 99.5993L216.177 99.1746L215.462 105.323L212.654 114.874L214.83 115.516L217.691 105.78L218.465 99.1189L220 99.0809L220.187 99.1189L220.351 106.157L217.337 116.233H217.343ZM249.767 94.5555L213.887 95.4488L223.415 66.3517L238.429 81.1902L249.767 94.5555ZM256.173 54.5506L257.89 54.8815L252.872 66.1906C252.612 66.0529 252.316 65.8948 251.976 65.7102C251.75 65.5901 251.51 65.4583 251.258 65.3177L256.173 54.5535V54.5506ZM250.315 67.3798C250.963 67.743 251.519 68.0388 251.95 68.2644L244.565 84.916L243.098 83.1849L250.315 67.3798ZM236.376 55.6255C238.376 59.2663 242.498 62.4473 246.13 64.8462C246.897 65.35 247.644 65.8128 248.344 66.2345L241.475 81.2723L240.093 79.6408L227.964 67.6551L233.23 62.7167L231.681 61.0618L226.347 66.0588L222.519 62.2774L229.853 54.9431L228.248 53.3379L220.905 60.6811L209.83 49.7352L227.029 39.3898C227.618 40.3974 228.213 41.4109 228.798 42.4185L222.624 45.9714L223.755 47.9368L229.941 44.378C232.685 49.0938 235.163 53.4024 236.37 55.6226L236.376 55.6255ZM230.77 41.2908C230.175 40.2715 229.575 39.2463 228.977 38.227L250.33 25.386L253.235 28.362L230.77 41.2937V41.2908Z" fill="white"/>
<path d="M155.391 0L146.273 19.8179L133.306 12.7824V19.6656L143.739 25.3275L133.306 48.0012V55.233L158.718 0H155.391Z" fill="white"/>
</g>
<path d="M41.1111 187.18C41.1111 193.136 30.536 208.852 30.536 208.852C30.536 208.852 19.9609 193.136 19.9609 187.18C19.9609 181.223 24.6958 176.395 30.536 176.395C36.3763 176.395 41.1111 181.223 41.1111 187.18Z" fill="#FF6464"/>
<path d="M35.5076 186.704C35.5076 189.503 33.2822 191.774 30.536 191.774C27.7898 191.774 25.5645 189.505 25.5645 186.704C25.5645 183.905 27.7898 181.634 30.536 181.634C33.2822 181.634 35.5076 183.903 35.5076 186.704Z" fill="white"/>
<path d="M183.666 159.14C183.666 165.097 173.091 180.813 173.091 180.813C173.091 180.813 162.516 165.097 162.516 159.14C162.516 153.183 167.25 148.355 173.091 148.355C178.931 148.355 183.666 153.183 183.666 159.14Z" fill="#FF6464"/>
<path d="M174.4 167.302V169.644H171.985V167.302H174.4ZM174.344 156.117L174.065 165.538H172.28L172.002 156.117H174.344Z" fill="white"/>
<path d="M102.166 217.722C102.166 223.679 91.5907 239.395 91.5907 239.395C91.5907 239.395 81.0156 223.679 81.0156 217.722C81.0156 211.766 85.7505 206.938 91.5907 206.938C97.4309 206.938 102.166 211.766 102.166 217.722Z" fill="#FF6464"/>
<path d="M96.5603 217.247C96.5603 220.046 94.335 222.317 91.5888 222.317C88.8426 222.317 86.6172 220.048 86.6172 217.247C86.6172 214.448 88.8426 212.177 91.5888 212.177C94.335 212.177 96.5603 214.446 96.5603 217.247Z" fill="white"/>
<path d="M148.77 134.444C148.77 138.565 141.453 149.437 141.453 149.437C141.453 149.437 134.136 138.565 134.136 134.444C134.136 130.323 137.412 126.983 141.453 126.983C145.494 126.983 148.77 130.323 148.77 134.444Z" fill="#FF6464"/>
<path d="M144.893 134.114C144.893 136.052 143.352 137.622 141.453 137.622C139.553 137.622 138.013 136.052 138.013 134.114C138.013 132.177 139.553 130.607 141.453 130.607C143.352 130.607 144.893 132.177 144.893 134.114Z" fill="white"/>
<path d="M75.2657 150.02C75.2657 154.492 67.3257 166.293 67.3257 166.293C67.3257 166.293 59.3857 154.492 59.3857 150.02C59.3857 145.547 62.9405 141.921 67.3257 141.921C71.7109 141.921 75.2657 145.547 75.2657 150.02Z" fill="#FF6464"/>
<path d="M71.0573 149.663C71.0573 151.765 69.3855 153.469 67.3241 153.469C65.2626 153.469 63.5908 151.765 63.5908 149.663C63.5908 147.561 65.2626 145.857 67.3241 145.857C69.3855 145.857 71.0573 147.561 71.0573 149.663Z" fill="white"/>
<path d="M151.794 196.216C151.794 201.442 142.512 215.237 142.512 215.237C142.512 215.237 133.229 201.444 133.229 196.216C133.229 190.989 137.385 186.751 142.512 186.751C147.638 186.751 151.794 190.989 151.794 196.216Z" fill="#FF6464"/>
<path d="M146.875 195.799C146.875 198.255 144.921 200.247 142.512 200.247C140.102 200.247 138.148 198.255 138.148 195.799C138.148 193.342 140.102 191.35 142.512 191.35C144.921 191.35 146.875 193.342 146.875 195.799Z" fill="white"/>
<path d="M91.5891 240.446C93.8339 240.446 95.6538 240.005 95.6538 239.461C95.6538 238.917 93.8339 238.476 91.5891 238.476C89.3442 238.476 87.5244 238.917 87.5244 239.461C87.5244 240.005 89.3442 240.446 91.5891 240.446Z" stroke="#BE252B" stroke-width="0.171946" stroke-miterlimit="10"/>
<path opacity="0.91" d="M91.59 241.2C94.7652 241.2 97.3392 240.507 97.3392 239.652C97.3392 238.797 94.7652 238.104 91.59 238.104C88.4148 238.104 85.8408 238.797 85.8408 239.652C85.8408 240.507 88.4148 241.2 91.59 241.2Z" stroke="#BE252B" stroke-width="0.15649" stroke-miterlimit="10"/>
<path opacity="0.82" d="M91.5899 241.952C95.6955 241.952 99.0236 241.007 99.0236 239.842C99.0236 238.676 95.6955 237.731 91.5899 237.731C87.4844 237.731 84.1562 238.676 84.1562 239.842C84.1562 241.007 87.4844 241.952 91.5899 241.952Z" stroke="#BE252B" stroke-width="0.142966" stroke-miterlimit="10"/>
<path opacity="0.73" d="M91.5897 242.706C96.6266 242.706 100.71 241.509 100.71 240.033C100.71 238.556 96.6266 237.359 91.5897 237.359C86.5529 237.359 82.4697 238.556 82.4697 240.033C82.4697 241.509 86.5529 242.706 91.5897 242.706Z" stroke="#BE252B" stroke-width="0.129442" stroke-miterlimit="10"/>
<path opacity="0.64" d="M91.5897 243.46C97.5569 243.46 102.394 242.011 102.394 240.224C102.394 238.437 97.5569 236.988 91.5897 236.988C85.6225 236.988 80.7852 238.437 80.7852 240.224C80.7852 242.011 85.6225 243.46 91.5897 243.46Z" stroke="#BE252B" stroke-width="0.115919" stroke-miterlimit="10"/>
<path opacity="0.55" d="M91.5896 244.212C98.4871 244.212 104.079 242.512 104.079 240.414C104.079 238.316 98.4871 236.615 91.5896 236.615C84.6921 236.615 79.1006 238.316 79.1006 240.414C79.1006 242.512 84.6921 244.212 91.5896 244.212Z" stroke="#BE252B" stroke-width="0.100463" stroke-miterlimit="10"/>
<path opacity="0.45" d="M91.5896 244.966C99.4174 244.966 105.763 243.013 105.763 240.605C105.763 238.196 99.4174 236.243 91.5896 236.243C83.7617 236.243 77.416 238.196 77.416 240.605C77.416 243.013 83.7617 244.966 91.5896 244.966Z" stroke="#BE252B" stroke-width="0.0869389" stroke-miterlimit="10"/>
<path opacity="0.36" d="M91.5895 245.718C100.348 245.718 107.448 243.513 107.448 240.794C107.448 238.074 100.348 235.87 91.5895 235.87C82.8313 235.87 75.7314 238.074 75.7314 240.794C75.7314 243.513 82.8313 245.718 91.5895 245.718Z" stroke="#BE252B" stroke-width="0.0734151" stroke-miterlimit="10"/>
<path opacity="0.27" d="M91.5904 246.472C101.279 246.472 109.133 244.015 109.133 240.985C109.133 237.955 101.279 235.498 91.5904 235.498C81.9019 235.498 74.0479 237.955 74.0479 240.985C74.0479 244.015 81.9019 246.472 91.5904 246.472Z" stroke="#BE252B" stroke-width="0.0598913" stroke-miterlimit="10"/>
<path opacity="0.18" d="M91.5894 247.224C102.208 247.224 110.816 244.516 110.816 241.175C110.816 237.834 102.208 235.125 91.5894 235.125C80.9706 235.125 72.3623 237.834 72.3623 241.175C72.3623 244.516 80.9706 247.224 91.5894 247.224Z" stroke="#BE252B" stroke-width="0.0444354" stroke-miterlimit="10"/>
<path opacity="0.09" d="M91.5903 247.978C103.139 247.978 112.502 245.018 112.502 241.366C112.502 237.714 103.139 234.753 91.5903 234.753C80.0411 234.753 70.6787 237.714 70.6787 241.366C70.6787 245.018 80.0411 247.978 91.5903 247.978Z" stroke="#BE252B" stroke-width="0.0309116" stroke-miterlimit="10"/>
<path d="M70.0082 166.393C70.0082 166.752 68.8063 167.043 67.3239 167.043C65.8416 167.043 64.6396 166.752 64.6396 166.393C64.6396 166.035 65.8416 165.743 67.3239 165.743C68.8063 165.743 70.0082 166.035 70.0082 166.393Z" stroke="#BE252B" stroke-width="0.113987" stroke-miterlimit="10"/>
<path opacity="0.91" d="M63.5283 166.519C63.5283 165.954 65.2274 165.497 67.3253 165.497C69.4232 165.497 71.1223 165.954 71.1223 166.519C71.1223 167.083 69.4232 167.54 67.3253 167.54C65.2274 167.54 63.5283 167.083 63.5283 166.519Z" stroke="#BE252B" stroke-width="0.104327" stroke-miterlimit="10"/>
<path opacity="0.82" d="M67.3268 168.038C70.0373 168.038 72.2346 167.414 72.2346 166.645C72.2346 165.875 70.0373 165.251 67.3268 165.251C64.6163 165.251 62.4189 165.875 62.4189 166.645C62.4189 167.414 64.6163 168.038 67.3268 168.038Z" stroke="#BE252B" stroke-width="0.0946668" stroke-miterlimit="10"/>
<path opacity="0.73" d="M67.3262 168.535C70.6512 168.535 73.3467 167.745 73.3467 166.77C73.3467 165.796 70.6512 165.006 67.3262 165.006C64.0011 165.006 61.3057 165.796 61.3057 166.77C61.3057 167.745 64.0011 168.535 67.3262 168.535Z" stroke="#BE252B" stroke-width="0.0850069" stroke-miterlimit="10"/>
<path opacity="0.64" d="M67.3266 169.032C71.2661 169.032 74.4598 168.076 74.4598 166.896C74.4598 165.716 71.2661 164.76 67.3266 164.76C63.387 164.76 60.1934 165.716 60.1934 166.896C60.1934 168.076 63.387 169.032 67.3266 169.032Z" stroke="#BE252B" stroke-width="0.0753471" stroke-miterlimit="10"/>
<path opacity="0.55" d="M67.327 169.529C71.881 169.529 75.5729 168.407 75.5729 167.022C75.5729 165.637 71.881 164.514 67.327 164.514C62.7729 164.514 59.0811 165.637 59.0811 167.022C59.0811 168.407 62.7729 169.529 67.327 169.529Z" stroke="#BE252B" stroke-width="0.0676192" stroke-miterlimit="10"/>
<path opacity="0.45" d="M67.3264 170.026C72.495 170.026 76.6849 168.737 76.6849 167.147C76.6849 165.557 72.495 164.268 67.3264 164.268C62.1578 164.268 57.9678 165.557 57.9678 167.147C57.9678 168.737 62.1578 170.026 67.3264 170.026Z" stroke="#BE252B" stroke-width="0.0579593" stroke-miterlimit="10"/>
<path opacity="0.36" d="M67.3269 170.523C73.109 170.523 77.7963 169.068 77.7963 167.273C77.7963 165.477 73.109 164.022 67.3269 164.022C61.5448 164.022 56.8574 165.477 56.8574 167.273C56.8574 169.068 61.5448 170.523 67.3269 170.523Z" stroke="#BE252B" stroke-width="0.0482994" stroke-miterlimit="10"/>
<path opacity="0.27" d="M67.3263 171.022C73.7229 171.022 78.9084 169.4 78.9084 167.398C78.9084 165.397 73.7229 163.774 67.3263 163.774C60.9296 163.774 55.7441 165.397 55.7441 167.398C55.7441 169.4 60.9296 171.022 67.3263 171.022Z" stroke="#BE252B" stroke-width="0.0386395" stroke-miterlimit="10"/>
<path opacity="0.18" d="M67.3267 171.52C74.3378 171.52 80.0215 169.731 80.0215 167.524C80.0215 165.318 74.3378 163.529 67.3267 163.529C60.3155 163.529 54.6318 165.318 54.6318 167.524C54.6318 169.731 60.3155 171.52 67.3267 171.52Z" stroke="#BE252B" stroke-width="0.0289796" stroke-miterlimit="10"/>
<path opacity="0.09" d="M67.3261 172.017C74.9517 172.017 81.1336 170.062 81.1336 167.65C81.1336 165.238 74.9517 163.283 67.3261 163.283C59.7004 163.283 53.5186 165.238 53.5186 167.65C53.5186 170.062 59.7004 172.017 67.3261 172.017Z" stroke="#BE252B" stroke-width="0.0212517" stroke-miterlimit="10"/>
<path d="M144.137 149.567C144.137 149.925 142.935 150.217 141.453 150.217C139.97 150.217 138.769 149.925 138.769 149.567C138.769 149.208 139.97 148.917 141.453 148.917C142.935 148.917 144.137 149.208 144.137 149.567Z" stroke="#BE252B" stroke-width="0.113987" stroke-miterlimit="10"/>
<path opacity="0.91" d="M137.656 149.692C137.656 149.128 139.355 148.67 141.453 148.67C143.551 148.67 145.25 149.128 145.25 149.692C145.25 150.257 143.551 150.714 141.453 150.714C139.355 150.714 137.656 150.257 137.656 149.692Z" stroke="#BE252B" stroke-width="0.104327" stroke-miterlimit="10"/>
<path opacity="0.82" d="M141.453 151.211C144.163 151.211 146.361 150.587 146.361 149.818C146.361 149.049 144.163 148.425 141.453 148.425C138.742 148.425 136.545 149.049 136.545 149.818C136.545 150.587 138.742 151.211 141.453 151.211Z" stroke="#BE252B" stroke-width="0.0946668" stroke-miterlimit="10"/>
<path opacity="0.73" d="M141.453 151.708C144.778 151.708 147.474 150.918 147.474 149.943C147.474 148.969 144.778 148.179 141.453 148.179C138.128 148.179 135.433 148.969 135.433 149.943C135.433 150.918 138.128 151.708 141.453 151.708Z" stroke="#BE252B" stroke-width="0.0850069" stroke-miterlimit="10"/>
<path opacity="0.64" d="M141.453 152.205C145.392 152.205 148.586 151.249 148.586 150.069C148.586 148.889 145.392 147.933 141.453 147.933C137.513 147.933 134.319 148.889 134.319 150.069C134.319 151.249 137.513 152.205 141.453 152.205Z" stroke="#BE252B" stroke-width="0.0753471" stroke-miterlimit="10"/>
<path opacity="0.55" d="M141.453 152.702C146.007 152.702 149.699 151.58 149.699 150.195C149.699 148.81 146.007 147.687 141.453 147.687C136.899 147.687 133.207 148.81 133.207 150.195C133.207 151.58 136.899 152.702 141.453 152.702Z" stroke="#BE252B" stroke-width="0.0676192" stroke-miterlimit="10"/>
<path opacity="0.45" d="M141.453 153.199C146.622 153.199 150.812 151.91 150.812 150.32C150.812 148.73 146.622 147.441 141.453 147.441C136.285 147.441 132.095 148.73 132.095 150.32C132.095 151.91 136.285 153.199 141.453 153.199Z" stroke="#BE252B" stroke-width="0.0579593" stroke-miterlimit="10"/>
<path opacity="0.36" d="M141.453 153.697C147.235 153.697 151.922 152.241 151.922 150.446C151.922 148.651 147.235 147.195 141.453 147.195C135.671 147.195 130.983 148.651 130.983 150.446C130.983 152.241 135.671 153.697 141.453 153.697Z" stroke="#BE252B" stroke-width="0.0482994" stroke-miterlimit="10"/>
<path opacity="0.27" d="M141.453 154.196C147.85 154.196 153.035 152.573 153.035 150.572C153.035 148.57 147.85 146.948 141.453 146.948C135.057 146.948 129.871 148.57 129.871 150.572C129.871 152.573 135.057 154.196 141.453 154.196Z" stroke="#BE252B" stroke-width="0.0386395" stroke-miterlimit="10"/>
<path opacity="0.18" d="M141.454 154.693C148.465 154.693 154.148 152.904 154.148 150.698C154.148 148.491 148.465 146.702 141.454 146.702C134.442 146.702 128.759 148.491 128.759 150.698C128.759 152.904 134.442 154.693 141.454 154.693Z" stroke="#BE252B" stroke-width="0.0289796" stroke-miterlimit="10"/>
<path opacity="0.09" d="M141.454 155.19C149.08 155.19 155.262 153.235 155.262 150.823C155.262 148.411 149.08 146.456 141.454 146.456C133.828 146.456 127.646 148.411 127.646 150.823C127.646 153.235 133.828 155.19 141.454 155.19Z" stroke="#BE252B" stroke-width="0.0212517" stroke-miterlimit="10"/>
<path d="M146.045 215.233C146.045 215.719 144.415 216.114 142.406 216.114C140.397 216.114 138.768 215.719 138.768 215.233C138.768 214.747 140.397 214.352 142.406 214.352C144.415 214.352 146.045 214.747 146.045 215.233Z" stroke="#BE252B" stroke-width="0.152626" stroke-miterlimit="10"/>
<path opacity="0.91" d="M142.404 216.79C145.247 216.79 147.552 216.17 147.552 215.404C147.552 214.639 145.247 214.019 142.404 214.019C139.561 214.019 137.256 214.639 137.256 215.404C137.256 216.17 139.561 216.79 142.404 216.79Z" stroke="#BE252B" stroke-width="0.141034" stroke-miterlimit="10"/>
<path opacity="0.82" d="M142.403 217.462C146.079 217.462 149.059 216.617 149.059 215.574C149.059 214.531 146.079 213.686 142.403 213.686C138.727 213.686 135.747 214.531 135.747 215.574C135.747 216.617 138.727 217.462 142.403 217.462Z" stroke="#BE252B" stroke-width="0.12751" stroke-miterlimit="10"/>
<path opacity="0.73" d="M142.404 218.137C146.913 218.137 150.568 217.066 150.568 215.744C150.568 214.423 146.913 213.352 142.404 213.352C137.895 213.352 134.24 214.423 134.24 215.744C134.24 217.066 137.895 218.137 142.404 218.137Z" stroke="#BE252B" stroke-width="0.115919" stroke-miterlimit="10"/>
<path opacity="0.64" d="M142.404 218.814C147.747 218.814 152.078 217.517 152.078 215.916C152.078 214.316 147.747 213.019 142.404 213.019C137.062 213.019 132.73 214.316 132.73 215.916C132.73 217.517 137.062 218.814 142.404 218.814Z" stroke="#BE252B" stroke-width="0.102395" stroke-miterlimit="10"/>
<path opacity="0.55" d="M142.404 219.487C148.58 219.487 153.586 217.964 153.586 216.085C153.586 214.207 148.58 212.684 142.404 212.684C136.229 212.684 131.223 214.207 131.223 216.085C131.223 217.964 136.229 219.487 142.404 219.487Z" stroke="#BE252B" stroke-width="0.0908029" stroke-miterlimit="10"/>
<path opacity="0.45" d="M142.404 220.161C149.412 220.161 155.094 218.413 155.094 216.256C155.094 214.1 149.412 212.352 142.404 212.352C135.396 212.352 129.715 214.1 129.715 216.256C129.715 218.413 135.396 220.161 142.404 220.161Z" stroke="#BE252B" stroke-width="0.077279" stroke-miterlimit="10"/>
<path opacity="0.36" d="M142.404 220.835C150.245 220.835 156.601 218.861 156.601 216.426C156.601 213.991 150.245 212.017 142.404 212.017C134.563 212.017 128.207 213.991 128.207 216.426C128.207 218.861 134.563 220.835 142.404 220.835Z" stroke="#BE252B" stroke-width="0.0656872" stroke-miterlimit="10"/>
<path opacity="0.27" d="M142.404 221.51C151.079 221.51 158.111 219.31 158.111 216.597C158.111 213.883 151.079 211.684 142.404 211.684C133.729 211.684 126.697 213.883 126.697 216.597C126.697 219.31 133.729 221.51 142.404 221.51Z" stroke="#BE252B" stroke-width="0.0521633" stroke-miterlimit="10"/>
<path opacity="0.18" d="M142.404 222.186C151.912 222.186 159.619 219.76 159.619 216.768C159.619 213.776 151.912 211.351 142.404 211.351C132.897 211.351 125.189 213.776 125.189 216.768C125.189 219.76 132.897 222.186 142.404 222.186Z" stroke="#BE252B" stroke-width="0.0405715" stroke-miterlimit="10"/>
<path opacity="0.09" d="M142.404 222.858C152.745 222.858 161.127 220.208 161.127 216.938C161.127 213.668 152.745 211.018 142.404 211.018C132.064 211.018 123.682 213.668 123.682 216.938C123.682 220.208 132.064 222.858 142.404 222.858Z" stroke="#BE252B" stroke-width="0.0270477" stroke-miterlimit="10"/>
<path d="M30.5364 210.294C33.5697 210.294 36.0288 209.699 36.0288 208.965C36.0288 208.23 33.5697 207.635 30.5364 207.635C27.503 207.635 25.0439 208.23 25.0439 208.965C25.0439 209.699 27.503 210.294 30.5364 210.294Z" stroke="#BE252B" stroke-width="0.231837" stroke-miterlimit="10"/>
<path opacity="0.91" d="M30.5362 211.314C34.8278 211.314 38.3068 210.378 38.3068 209.223C38.3068 208.069 34.8278 207.133 30.5362 207.133C26.2446 207.133 22.7656 208.069 22.7656 209.223C22.7656 210.378 26.2446 211.314 30.5362 211.314Z" stroke="#BE252B" stroke-width="0.212517" stroke-miterlimit="10"/>
<path opacity="0.82" d="M30.5362 212.332C36.085 212.332 40.5832 211.055 40.5832 209.48C40.5832 207.905 36.085 206.628 30.5362 206.628C24.9874 206.628 20.4893 207.905 20.4893 209.48C20.4893 211.055 24.9874 212.332 30.5362 212.332Z" stroke="#BE252B" stroke-width="0.193198" stroke-miterlimit="10"/>
<path opacity="0.73" d="M30.5362 213.348C37.3422 213.348 42.8595 211.731 42.8595 209.737C42.8595 207.742 37.3422 206.125 30.5362 206.125C23.7302 206.125 18.2129 207.742 18.2129 209.737C18.2129 211.731 23.7302 213.348 30.5362 213.348Z" stroke="#BE252B" stroke-width="0.173878" stroke-miterlimit="10"/>
<path opacity="0.64" d="M30.5362 214.366C38.5994 214.366 45.1359 212.409 45.1359 209.994C45.1359 207.579 38.5994 205.622 30.5362 205.622C22.473 205.622 15.9365 207.579 15.9365 209.994C15.9365 212.409 22.473 214.366 30.5362 214.366Z" stroke="#BE252B" stroke-width="0.15649" stroke-miterlimit="10"/>
<path opacity="0.55" d="M30.5362 215.386C39.8566 215.386 47.4123 213.088 47.4123 210.252C47.4123 207.417 39.8566 205.119 30.5362 205.119C21.2158 205.119 13.6602 207.417 13.6602 210.252C13.6602 213.088 21.2158 215.386 30.5362 215.386Z" stroke="#BE252B" stroke-width="0.13717" stroke-miterlimit="10"/>
<path opacity="0.45" d="M30.5362 216.404C41.1138 216.404 49.6886 213.765 49.6886 210.509C49.6886 207.253 41.1138 204.614 30.5362 204.614C19.9586 204.614 11.3838 207.253 11.3838 210.509C11.3838 213.765 19.9586 216.404 30.5362 216.404Z" stroke="#BE252B" stroke-width="0.117851" stroke-miterlimit="10"/>
<path opacity="0.36" d="M30.5362 217.42C42.371 217.42 51.965 214.441 51.965 210.766C51.965 207.091 42.371 204.112 30.5362 204.112C18.7014 204.112 9.10742 207.091 9.10742 210.766C9.10742 214.441 18.7014 217.42 30.5362 217.42Z" stroke="#BE252B" stroke-width="0.0985308" stroke-miterlimit="10"/>
<path opacity="0.27" d="M30.5361 218.438C43.6291 218.438 54.243 215.118 54.243 211.023C54.243 206.927 43.6291 203.607 30.5361 203.607C17.4431 203.607 6.8291 206.927 6.8291 211.023C6.8291 215.118 17.4431 218.438 30.5361 218.438Z" stroke="#BE252B" stroke-width="0.079211" stroke-miterlimit="10"/>
<path opacity="0.18" d="M30.5361 219.458C44.8863 219.458 56.5194 215.797 56.5194 211.281C56.5194 206.765 44.8863 203.104 30.5361 203.104C16.1859 203.104 4.55273 206.765 4.55273 211.281C4.55273 215.797 16.1859 219.458 30.5361 219.458Z" stroke="#BE252B" stroke-width="0.0598913" stroke-miterlimit="10"/>
<path opacity="0.09" d="M30.5361 220.474C46.1435 220.474 58.7958 216.473 58.7958 211.538C58.7958 206.603 46.1435 202.602 30.5361 202.602C14.9287 202.602 2.27637 206.603 2.27637 211.538C2.27637 216.473 14.9287 220.474 30.5361 220.474Z" stroke="#BE252B" stroke-width="0.0425035" stroke-miterlimit="10"/>
<path d="M173.089 181.996C175.564 181.996 177.571 181.51 177.571 180.911C177.571 180.312 175.564 179.826 173.089 179.826C170.614 179.826 168.607 180.312 168.607 180.911C168.607 181.51 170.614 181.996 173.089 181.996Z" stroke="#BE252B" stroke-width="0.189334" stroke-miterlimit="10"/>
<path opacity="0.91" d="M173.089 182.827C176.59 182.827 179.428 182.063 179.428 181.12C179.428 180.178 176.59 179.414 173.089 179.414C169.588 179.414 166.75 180.178 166.75 181.12C166.75 182.063 169.588 182.827 173.089 182.827Z" stroke="#BE252B" stroke-width="0.173878" stroke-miterlimit="10"/>
<path opacity="0.82" d="M173.089 183.655C177.616 183.655 181.286 182.614 181.286 181.33C181.286 180.046 177.616 179.004 173.089 179.004C168.562 179.004 164.893 180.046 164.893 181.33C164.893 182.614 168.562 183.655 173.089 183.655Z" stroke="#BE252B" stroke-width="0.158422" stroke-miterlimit="10"/>
<path opacity="0.73" d="M173.09 184.486C178.641 184.486 183.142 183.167 183.142 181.539C183.142 179.912 178.641 178.593 173.09 178.593C167.538 178.593 163.037 179.912 163.037 181.539C163.037 183.167 167.538 184.486 173.09 184.486Z" stroke="#BE252B" stroke-width="0.142966" stroke-miterlimit="10"/>
<path opacity="0.64" d="M173.09 185.318C179.667 185.318 185 183.721 185 181.751C185 179.78 179.667 178.183 173.09 178.183C166.512 178.183 161.18 179.78 161.18 181.751C161.18 183.721 166.512 185.318 173.09 185.318Z" stroke="#BE252B" stroke-width="0.12751" stroke-miterlimit="10"/>
<path opacity="0.55" d="M173.09 186.149C180.693 186.149 186.857 184.273 186.857 181.96C186.857 179.647 180.693 177.771 173.09 177.771C165.486 177.771 159.322 179.647 159.322 181.96C159.322 184.273 165.486 186.149 173.09 186.149Z" stroke="#BE252B" stroke-width="0.112055" stroke-miterlimit="10"/>
<path opacity="0.45" d="M173.089 186.978C181.718 186.978 188.714 184.825 188.714 182.17C188.714 179.515 181.718 177.362 173.089 177.362C164.459 177.362 157.464 179.515 157.464 182.17C157.464 184.825 164.459 186.978 173.089 186.978Z" stroke="#BE252B" stroke-width="0.0965988" stroke-miterlimit="10"/>
<path opacity="0.36" d="M173.09 187.808C182.745 187.808 190.572 185.378 190.572 182.379C190.572 179.381 182.745 176.951 173.09 176.951C163.435 176.951 155.607 179.381 155.607 182.379C155.607 185.378 163.435 187.808 173.09 187.808Z" stroke="#BE252B" stroke-width="0.081143" stroke-miterlimit="10"/>
<path opacity="0.27" d="M173.09 188.64C183.771 188.64 192.43 185.931 192.43 182.59C192.43 179.249 183.771 176.541 173.09 176.541C162.409 176.541 153.75 179.249 153.75 182.59C153.75 185.931 162.409 188.64 173.09 188.64Z" stroke="#BE252B" stroke-width="0.0656872" stroke-miterlimit="10"/>
<path opacity="0.18" d="M173.09 189.47C184.797 189.47 194.288 186.484 194.288 182.8C194.288 179.115 184.797 176.129 173.09 176.129C161.383 176.129 151.893 179.115 151.893 182.8C151.893 186.484 161.383 189.47 173.09 189.47Z" stroke="#BE252B" stroke-width="0.0502314" stroke-miterlimit="10"/>
<path opacity="0.09" d="M173.09 190.299C185.823 190.299 196.145 187.035 196.145 183.009C196.145 178.983 185.823 175.719 173.09 175.719C160.357 175.719 150.035 178.983 150.035 183.009C150.035 187.035 160.357 190.299 173.09 190.299Z" stroke="#BE252B" stroke-width="0.0347756" stroke-miterlimit="10"/>
<path d="M30.4434 174.43C32.1042 161.822 36.371 148.634 44.2072 139.76C48.0897 135.364 53.5585 131.707 58.8087 133.45C61.6277 134.386 65.6032 137.502 66.9836 139.809" stroke="#FF8F8F" stroke-width="0.521634" stroke-miterlimit="10"/>
<path d="M90.7578 197.508C89.7544 179.929 87.8131 158.503 82.8834 146.157C80.4414 140.042 76.3275 135.994 72.3994 141.317" stroke="#FF8F8F" stroke-width="0.513906" stroke-miterlimit="10"/>
<path d="M142.029 184.615C137.245 167.457 128.662 150.767 115.255 138.709C106.869 131.168 95.0593 124.885 83.7357 127.861C78.5839 129.214 72.5379 133.847 68.9922 140.523" stroke="#FF8F8F" stroke-width="0.513906" stroke-miterlimit="10"/>
<path d="M33.1621 175.111C33.7631 174.241 34.5625 173.532 35.3984 172.897C42.0964 167.807 51.3912 167.177 59.3039 169.901C67.2165 172.624 73.8653 178.329 79.2266 184.867C84.0106 190.702 87.9788 197.427 89.5358 204.87" stroke="#FF8F8F" stroke-width="0.513906" stroke-miterlimit="10"/>
<path d="M93.7021 204.54C95.9967 176.322 103.285 146.955 117.364 128.396C122.312 121.875 128.886 116.699 134.374 120.05C136.103 121.105 138.151 123.392 139.781 125.872" stroke="#FF8F8F" stroke-width="0.562205" stroke-miterlimit="10"/>
<path d="M97.9863 204.539C102.131 194.842 108.243 186.046 116.558 180.162C120.899 177.09 126.475 174.888 130.706 177.185C132.977 178.418 135.799 183.114 136.517 185.271" stroke="#FF8F8F" stroke-width="0.513906" stroke-miterlimit="10"/>
<path d="M98.2275 196.664C104.232 174.046 117.639 152.204 139.951 141.676C145.556 139.032 152.228 137.236 158.762 138.261C164.526 139.166 169.54 142.534 173.089 146.877" stroke="#FF8F8F" stroke-width="0.513906" stroke-miterlimit="10"/>
<defs>
<clipPath id="clip0_521_18951">
<rect x="133" width="91" height="250" rx="10" fill="white"/>
</clipPath>
</defs>
</svg>
