<svg width="247" height="53" viewBox="0 0 247 53" fill="none" xmlns="http://www.w3.org/2000/svg">
<ellipse cx="27" cy="27" rx="27" ry="26" fill="#4267B2"/>
<ellipse cx="22.5" cy="31" rx="22.5" ry="22" fill="white"/>
<circle cx="22.5" cy="31.5" r="19.5" fill="#FF6158"/>
<circle cx="22" cy="36" r="16" fill="white"/>
<circle cx="22.5" cy="11.5" r="6.5" fill="white"/>
<circle cx="22.5" cy="11.5" r="5.5" fill="#FF6158"/>
<circle cx="47.5" cy="8.5" r="8.5" fill="white"/>
<circle cx="47.5" cy="8.5" r="7.5" fill="#4267B2"/>
<path d="M22.5009 28.6543C24.9673 26.3724 28.7787 26.4482 31.1548 28.901C33.5299 31.3549 33.6118 35.2629 31.4026 37.812L22.4988 47L13.597 37.812C11.3879 35.2629 11.4708 31.3484 13.8448 28.901C16.223 26.4514 20.0271 26.3692 22.5009 28.6543Z" fill="#FF6158"/>
<path d="M70.846 19.468C70.9633 19.248 71.1613 19.094 71.44 19.006C71.7187 18.918 72.0707 18.874 72.496 18.874C72.9213 18.874 73.2587 18.9107 73.508 18.984C73.7573 19.0573 73.948 19.1453 74.08 19.248C74.212 19.3507 74.3147 19.4973 74.388 19.688C74.4613 19.9373 74.498 20.3187 74.498 20.832V33.042C74.498 33.3793 74.4833 33.636 74.454 33.812C74.4393 33.9733 74.3733 34.164 74.256 34.384C74.0507 34.78 73.4787 34.978 72.54 34.978C71.5133 34.978 70.912 34.7067 70.736 34.164C70.648 33.9147 70.604 33.5333 70.604 33.02V28.554H64.774V33.042C64.774 33.3793 64.7593 33.636 64.73 33.812C64.7153 33.9733 64.6493 34.164 64.532 34.384C64.3267 34.78 63.7547 34.978 62.816 34.978C61.7893 34.978 61.188 34.7067 61.012 34.164C60.924 33.9147 60.88 33.5333 60.88 33.02V20.81C60.88 20.4727 60.8873 20.2233 60.902 20.062C60.9313 19.886 61.0047 19.688 61.122 19.468C61.3273 19.072 61.8993 18.874 62.838 18.874C63.8647 18.874 64.4733 19.1453 64.664 19.688C64.7373 19.9373 64.774 20.3187 64.774 20.832V25.32H70.604V20.81C70.604 20.4727 70.6113 20.2233 70.626 20.062C70.6553 19.886 70.7287 19.688 70.846 19.468ZM83.3468 24.638C83.4348 23.8167 84.0141 23.406 85.0848 23.406C85.6568 23.406 86.0821 23.45 86.3608 23.538C86.6395 23.626 86.8301 23.78 86.9328 24C87.0501 24.22 87.1161 24.418 87.1308 24.594C87.1601 24.7553 87.1748 25.0047 87.1748 25.342V33.042C87.1748 33.3793 87.1601 33.636 87.1308 33.812C87.1161 33.9733 87.0575 34.164 86.9548 34.384C86.7495 34.7653 86.2435 34.956 85.4368 34.956C84.6448 34.956 84.1095 34.8607 83.8308 34.67C83.5668 34.4647 83.4128 34.1713 83.3688 33.79C82.8261 34.5673 81.9168 34.956 80.6408 34.956C79.3795 34.956 78.2061 34.3767 77.1208 33.218C76.0355 32.0593 75.4928 30.7173 75.4928 29.192C75.4928 27.652 76.0355 26.31 77.1208 25.166C78.2208 24.0073 79.4235 23.428 80.7288 23.428C81.2275 23.428 81.6821 23.516 82.0928 23.692C82.5035 23.868 82.7895 24.0367 82.9508 24.198C83.1121 24.3447 83.2441 24.4913 83.3468 24.638ZM79.3428 29.214C79.3428 29.698 79.5335 30.138 79.9148 30.534C80.2961 30.9153 80.7581 31.106 81.3008 31.106C81.8435 31.106 82.2908 30.908 82.6428 30.512C83.0095 30.116 83.1928 29.6833 83.1928 29.214C83.1928 28.73 83.0168 28.2827 82.6648 27.872C82.3275 27.4613 81.8655 27.256 81.2788 27.256C80.7068 27.256 80.2375 27.4613 79.8708 27.872C79.5188 28.2827 79.3428 28.73 79.3428 29.214ZM88.4883 38.146V25.298C88.4883 24.9607 88.4956 24.7113 88.5103 24.55C88.5396 24.3887 88.6056 24.2053 88.7083 24C88.9136 23.604 89.4049 23.406 90.1823 23.406C90.9596 23.406 91.4803 23.5087 91.7443 23.714C92.0229 23.9047 92.1843 24.1907 92.2283 24.572C92.7856 23.8093 93.6583 23.428 94.8463 23.428C96.0489 23.428 97.1856 23.9927 98.2563 25.122C99.3269 26.2513 99.8623 27.564 99.8623 29.06C99.8623 30.556 99.3269 31.8687 98.2563 32.998C97.2003 34.1273 96.0709 34.692 94.8683 34.692C93.6656 34.692 92.7929 34.3547 92.2503 33.68V38.124C92.2503 38.4613 92.2356 38.7107 92.2063 38.872C92.1916 39.0333 92.1256 39.2167 92.0083 39.422C91.9056 39.642 91.7223 39.796 91.4583 39.884C91.1943 39.972 90.8349 40.016 90.3803 40.016C89.9256 40.016 89.5589 39.972 89.2803 39.884C89.0163 39.796 88.8256 39.6493 88.7083 39.444C88.6056 39.2387 88.5396 39.0553 88.5103 38.894C88.4956 38.7327 88.4883 38.4833 88.4883 38.146ZM92.8443 27.784C92.5069 28.18 92.3383 28.6127 92.3383 29.082C92.3383 29.5513 92.5069 29.984 92.8443 30.38C93.1963 30.7613 93.6363 30.952 94.1643 30.952C94.7069 30.952 95.1616 30.7613 95.5283 30.38C95.9096 29.9987 96.1003 29.566 96.1003 29.082C96.1003 28.598 95.9243 28.1653 95.5723 27.784C95.2203 27.388 94.7583 27.19 94.1863 27.19C93.6289 27.19 93.1816 27.388 92.8443 27.784ZM100.853 38.146V25.298C100.853 24.9607 100.86 24.7113 100.875 24.55C100.904 24.3887 100.97 24.2053 101.073 24C101.278 23.604 101.77 23.406 102.547 23.406C103.324 23.406 103.845 23.5087 104.109 23.714C104.388 23.9047 104.549 24.1907 104.593 24.572C105.15 23.8093 106.023 23.428 107.211 23.428C108.414 23.428 109.55 23.9927 110.621 25.122C111.692 26.2513 112.227 27.564 112.227 29.06C112.227 30.556 111.692 31.8687 110.621 32.998C109.565 34.1273 108.436 34.692 107.233 34.692C106.03 34.692 105.158 34.3547 104.615 33.68V38.124C104.615 38.4613 104.6 38.7107 104.571 38.872C104.556 39.0333 104.49 39.2167 104.373 39.422C104.27 39.642 104.087 39.796 103.823 39.884C103.559 39.972 103.2 40.016 102.745 40.016C102.29 40.016 101.924 39.972 101.645 39.884C101.381 39.796 101.19 39.6493 101.073 39.444C100.97 39.2387 100.904 39.0553 100.875 38.894C100.86 38.7327 100.853 38.4833 100.853 38.146ZM105.209 27.784C104.872 28.18 104.703 28.6127 104.703 29.082C104.703 29.5513 104.872 29.984 105.209 30.38C105.561 30.7613 106.001 30.952 106.529 30.952C107.072 30.952 107.526 30.7613 107.893 30.38C108.274 29.9987 108.465 29.566 108.465 29.082C108.465 28.598 108.289 28.1653 107.937 27.784C107.585 27.388 107.123 27.19 106.551 27.19C105.994 27.19 105.546 27.388 105.209 27.784ZM123.332 23.538C124.197 23.9193 124.63 24.3813 124.63 24.924C124.63 25.188 124.571 25.4373 124.454 25.672C124.336 25.9067 124.278 26.0313 124.278 26.046L118.514 38.938C118.396 39.2167 118.294 39.4293 118.206 39.576C118.132 39.7227 118.008 39.862 117.832 39.994C117.656 40.126 117.436 40.192 117.172 40.192C116.908 40.192 116.519 40.082 116.006 39.862C115.14 39.4807 114.708 39.026 114.708 38.498C114.708 38.146 115.412 36.4667 116.82 33.46L112.442 26.09C112.148 25.606 112.002 25.2467 112.002 25.012C112.002 24.5427 112.398 24.0733 113.19 23.604C113.688 23.3107 114.077 23.164 114.356 23.164C114.634 23.164 114.862 23.2227 115.038 23.34C115.214 23.4573 115.338 23.582 115.412 23.714C115.5 23.8313 115.903 24.5133 116.622 25.76C117.355 26.992 118.052 28.1433 118.712 29.214C118.785 28.9793 119.181 28.0773 119.9 26.508C120.618 24.924 121 24.0807 121.044 23.978C121.102 23.8753 121.19 23.7507 121.308 23.604C121.498 23.3547 121.762 23.23 122.1 23.23C122.452 23.23 122.862 23.3327 123.332 23.538ZM136.059 18.874C136.396 18.874 136.646 18.8887 136.807 18.918C136.983 18.9327 137.174 18.9987 137.379 19.116C137.599 19.2333 137.753 19.4313 137.841 19.71C137.929 19.9887 137.973 20.3627 137.973 20.832C137.973 21.3013 137.929 21.6753 137.841 21.954C137.753 22.2327 137.599 22.4307 137.379 22.548C137.159 22.6507 136.961 22.7167 136.785 22.746C136.624 22.7607 136.367 22.768 136.015 22.768H129.283V24.99H133.617C133.969 24.99 134.226 25.0047 134.387 25.034C134.563 25.0487 134.761 25.1147 134.981 25.232C135.362 25.452 135.553 26.0313 135.553 26.97C135.553 27.9967 135.274 28.6053 134.717 28.796C134.482 28.8693 134.108 28.906 133.595 28.906H129.283V33.064C129.283 33.416 129.268 33.6727 129.239 33.834C129.224 33.9953 129.158 34.186 129.041 34.406C128.836 34.802 128.264 35 127.325 35C126.298 35 125.697 34.7213 125.521 34.164C125.433 33.9293 125.389 33.5553 125.389 33.042V20.81C125.389 20.062 125.528 19.556 125.807 19.292C126.086 19.0133 126.614 18.874 127.391 18.874H136.059ZM144.504 24.638C144.592 23.8167 145.172 23.406 146.242 23.406C146.814 23.406 147.24 23.45 147.518 23.538C147.797 23.626 147.988 23.78 148.09 24C148.208 24.22 148.274 24.418 148.288 24.594C148.318 24.7553 148.332 25.0047 148.332 25.342V33.042C148.332 33.3793 148.318 33.636 148.288 33.812C148.274 33.9733 148.215 34.164 148.112 34.384C147.907 34.7653 147.401 34.956 146.594 34.956C145.802 34.956 145.267 34.8607 144.988 34.67C144.724 34.4647 144.57 34.1713 144.526 33.79C143.984 34.5673 143.074 34.956 141.798 34.956C140.537 34.956 139.364 34.3767 138.278 33.218C137.193 32.0593 136.65 30.7173 136.65 29.192C136.65 27.652 137.193 26.31 138.278 25.166C139.378 24.0073 140.581 23.428 141.886 23.428C142.385 23.428 142.84 23.516 143.25 23.692C143.661 23.868 143.947 24.0367 144.108 24.198C144.27 24.3447 144.402 24.4913 144.504 24.638ZM140.5 29.214C140.5 29.698 140.691 30.138 141.072 30.534C141.454 30.9153 141.916 31.106 142.458 31.106C143.001 31.106 143.448 30.908 143.8 30.512C144.167 30.116 144.35 29.6833 144.35 29.214C144.35 28.73 144.174 28.2827 143.822 27.872C143.485 27.4613 143.023 27.256 142.436 27.256C141.864 27.256 141.395 27.4613 141.028 27.872C140.676 28.2827 140.5 28.73 140.5 29.214ZM153.43 24.946C154.119 23.9047 154.948 23.384 155.916 23.384C157.412 23.384 158.526 24.022 159.26 25.298C159.421 25.078 159.612 24.8507 159.832 24.616C160.066 24.3667 160.433 24.1027 160.932 23.824C161.43 23.5307 161.944 23.384 162.472 23.384C163.645 23.384 164.628 23.8387 165.42 24.748C166.212 25.6427 166.608 27.1313 166.608 29.214V33.064C166.608 33.4013 166.593 33.658 166.564 33.834C166.549 33.9953 166.483 34.186 166.366 34.406C166.175 34.802 165.61 35 164.672 35C163.748 35 163.183 34.7947 162.978 34.384C162.875 34.164 162.809 33.9733 162.78 33.812C162.765 33.636 162.758 33.3793 162.758 33.042V29.192C162.758 27.916 162.303 27.278 161.394 27.278C160.88 27.278 160.528 27.4467 160.338 27.784C160.162 28.1213 160.074 28.598 160.074 29.214V33.064C160.074 33.416 160.059 33.6727 160.03 33.834C160.015 33.9953 159.949 34.186 159.832 34.406C159.626 34.802 159.054 35 158.116 35C157.192 35 156.627 34.7947 156.422 34.384C156.319 34.164 156.253 33.9733 156.224 33.812C156.209 33.636 156.202 33.3793 156.202 33.042V29.192C156.202 27.916 155.747 27.278 154.838 27.278C153.958 27.278 153.518 27.916 153.518 29.192V33.086C153.518 33.4233 153.503 33.68 153.474 33.856C153.459 34.0173 153.393 34.208 153.276 34.428C153.056 34.8093 152.484 35 151.56 35C150.636 35 150.071 34.802 149.866 34.406C149.763 34.186 149.697 33.9953 149.668 33.834C149.653 33.6727 149.646 33.416 149.646 33.064V25.32C149.646 24.9827 149.653 24.7333 149.668 24.572C149.697 24.396 149.77 24.2053 149.888 24C150.108 23.604 150.628 23.406 151.45 23.406C152.271 23.406 152.806 23.538 153.056 23.802C153.305 24.066 153.43 24.4473 153.43 24.946ZM167.919 25.342C167.919 25.0047 167.926 24.7553 167.941 24.594C167.97 24.418 168.036 24.22 168.139 24C168.344 23.6187 168.916 23.428 169.855 23.428C170.559 23.428 171.057 23.5527 171.351 23.802C171.6 24.0073 171.732 24.3227 171.747 24.748C171.761 24.8947 171.769 25.1073 171.769 25.386V33.086C171.769 33.4233 171.754 33.68 171.725 33.856C171.71 34.0173 171.644 34.208 171.527 34.428C171.336 34.8093 170.771 35 169.833 35C168.909 35 168.344 34.802 168.139 34.406C168.036 34.186 167.97 33.9953 167.941 33.834C167.926 33.6727 167.919 33.416 167.919 33.064V25.342ZM171.527 21.272C171.424 21.4773 171.233 21.624 170.955 21.712C170.676 21.8 170.302 21.844 169.833 21.844C169.378 21.844 169.011 21.8 168.733 21.712C168.454 21.624 168.256 21.47 168.139 21.25C168.036 21.03 167.97 20.8393 167.941 20.678C167.926 20.502 167.919 20.2453 167.919 19.908C167.919 19.5707 167.926 19.3213 167.941 19.16C167.97 18.984 168.036 18.7933 168.139 18.588C168.344 18.192 168.916 17.994 169.855 17.994C170.779 17.994 171.336 18.192 171.527 18.588C171.644 18.808 171.71 19.006 171.725 19.182C171.754 19.3433 171.769 19.5927 171.769 19.93C171.769 20.2673 171.754 20.524 171.725 20.7C171.71 20.8613 171.644 21.052 171.527 21.272ZM173.086 19.886C173.086 19.5487 173.093 19.2993 173.108 19.138C173.137 18.962 173.203 18.764 173.306 18.544C173.511 18.148 174.083 17.95 175.022 17.95C175.917 17.95 176.474 18.148 176.694 18.544C176.811 18.764 176.877 18.962 176.892 19.138C176.921 19.314 176.936 19.5707 176.936 19.908V30.094C176.936 30.622 176.98 30.9593 177.068 31.106C177.156 31.238 177.347 31.304 177.64 31.304C177.948 31.304 178.153 31.3187 178.256 31.348C178.359 31.3627 178.483 31.4213 178.63 31.524C178.923 31.7147 179.07 32.2353 179.07 33.086C179.07 34.01 178.923 34.5747 178.63 34.78C178.249 35.044 177.339 35.088 175.902 34.912C174.773 34.7653 174.039 34.3913 173.702 33.79C173.291 33.0713 173.086 31.9273 173.086 30.358V19.886ZM189.528 23.538C190.393 23.9193 190.826 24.3813 190.826 24.924C190.826 25.188 190.767 25.4373 190.65 25.672C190.532 25.9067 190.474 26.0313 190.474 26.046L184.71 38.938C184.592 39.2167 184.49 39.4293 184.402 39.576C184.328 39.7227 184.204 39.862 184.028 39.994C183.852 40.126 183.632 40.192 183.368 40.192C183.104 40.192 182.715 40.082 182.202 39.862C181.336 39.4807 180.904 39.026 180.904 38.498C180.904 38.146 181.608 36.4667 183.016 33.46L178.638 26.09C178.344 25.606 178.198 25.2467 178.198 25.012C178.198 24.5427 178.594 24.0733 179.386 23.604C179.884 23.3107 180.273 23.164 180.552 23.164C180.83 23.164 181.058 23.2227 181.234 23.34C181.41 23.4573 181.534 23.582 181.608 23.714C181.696 23.8313 182.099 24.5133 182.818 25.76C183.551 26.992 184.248 28.1433 184.908 29.214C184.981 28.9793 185.377 28.0773 186.096 26.508C186.814 24.924 187.196 24.0807 187.24 23.978C187.298 23.8753 187.386 23.7507 187.504 23.604C187.694 23.3547 187.958 23.23 188.296 23.23C188.648 23.23 189.058 23.3327 189.528 23.538Z" fill="#4267B2"/>
<path d="M191.827 32.734C191.446 32.2647 191.255 31.8467 191.255 31.48C191.255 31.0987 191.57 30.6 192.201 29.984C192.568 29.632 192.956 29.456 193.367 29.456C193.778 29.456 194.35 29.8227 195.083 30.556C195.288 30.8053 195.582 31.0473 195.963 31.282C196.344 31.502 196.696 31.612 197.019 31.612C198.383 31.612 199.065 31.0547 199.065 29.94C199.065 29.6027 198.874 29.324 198.493 29.104C198.126 28.8693 197.664 28.7007 197.107 28.598C196.55 28.4953 195.948 28.334 195.303 28.114C194.658 27.8793 194.056 27.608 193.499 27.3C192.942 26.992 192.472 26.508 192.091 25.848C191.724 25.1733 191.541 24.3667 191.541 23.428C191.541 22.1373 192.018 21.0153 192.971 20.062C193.939 19.094 195.252 18.61 196.909 18.61C197.789 18.61 198.588 18.7273 199.307 18.962C200.04 19.182 200.546 19.4093 200.825 19.644L201.375 20.062C201.83 20.4873 202.057 20.8467 202.057 21.14C202.057 21.4333 201.881 21.8367 201.529 22.35C201.03 23.0833 200.517 23.45 199.989 23.45C199.681 23.45 199.3 23.3033 198.845 23.01C198.801 22.9807 198.713 22.9073 198.581 22.79C198.464 22.6727 198.354 22.5773 198.251 22.504C197.943 22.3133 197.547 22.218 197.063 22.218C196.594 22.218 196.198 22.3353 195.875 22.57C195.567 22.79 195.413 23.1053 195.413 23.516C195.413 23.912 195.596 24.2347 195.963 24.484C196.344 24.7333 196.814 24.902 197.371 24.99C197.928 25.078 198.537 25.2173 199.197 25.408C199.857 25.584 200.466 25.804 201.023 26.068C201.58 26.332 202.042 26.794 202.409 27.454C202.79 28.0993 202.981 28.8987 202.981 29.852C202.981 30.8053 202.79 31.6487 202.409 32.382C202.028 33.1007 201.529 33.658 200.913 34.054C199.725 34.8313 198.456 35.22 197.107 35.22C196.418 35.22 195.765 35.1393 195.149 34.978C194.533 34.802 194.034 34.5893 193.653 34.34C192.876 33.8707 192.333 33.416 192.025 32.976L191.827 32.734ZM210.273 27.3L208.843 27.212V30.248C208.843 30.644 208.902 30.93 209.019 31.106C209.151 31.282 209.386 31.37 209.723 31.37C210.075 31.37 210.339 31.3847 210.515 31.414C210.706 31.4287 210.904 31.4947 211.109 31.612C211.447 31.8027 211.615 32.294 211.615 33.086C211.615 34.01 211.41 34.5747 210.999 34.78C210.779 34.8827 210.581 34.9487 210.405 34.978C210.244 34.9927 210.002 35 209.679 35C208.154 35 206.995 34.6553 206.203 33.966C205.411 33.2767 205.015 32.1107 205.015 30.468V27.212C204.737 27.256 204.436 27.278 204.113 27.278C203.791 27.278 203.519 27.1533 203.299 26.904C203.094 26.6547 202.991 26.2293 202.991 25.628C202.991 25.0267 203.028 24.594 203.101 24.33C203.175 24.0513 203.277 23.8533 203.409 23.736C203.644 23.5453 203.937 23.45 204.289 23.45L205.015 23.538V21.272C205.015 20.9347 205.023 20.6853 205.037 20.524C205.067 20.3627 205.14 20.1867 205.257 19.996C205.448 19.6293 206.013 19.446 206.951 19.446C207.949 19.446 208.543 19.7173 208.733 20.26C208.807 20.4947 208.843 20.8687 208.843 21.382V23.538C209.489 23.4793 209.973 23.45 210.295 23.45C210.633 23.45 210.882 23.4647 211.043 23.494C211.219 23.5087 211.417 23.5747 211.637 23.692C212.019 23.8827 212.209 24.4473 212.209 25.386C212.209 26.31 212.011 26.8747 211.615 27.08C211.395 27.1827 211.197 27.2487 211.021 27.278C210.86 27.2927 210.611 27.3 210.273 27.3ZM212.654 29.214C212.654 27.454 213.27 26.002 214.502 24.858C215.734 23.714 217.142 23.142 218.726 23.142C220.31 23.142 221.711 23.714 222.928 24.858C224.146 25.9873 224.754 27.432 224.754 29.192C224.754 30.4093 224.439 31.4947 223.808 32.448C223.178 33.3867 222.408 34.0833 221.498 34.538C220.604 34.978 219.672 35.198 218.704 35.198C217.736 35.198 216.798 34.9633 215.888 34.494C214.979 34.01 214.209 33.306 213.578 32.382C212.962 31.4433 212.654 30.3873 212.654 29.214ZM217.252 30.798C217.722 31.15 218.198 31.326 218.682 31.326C219.166 31.326 219.65 31.1427 220.134 30.776C220.618 30.4093 220.86 29.8667 220.86 29.148C220.86 28.4293 220.633 27.894 220.178 27.542C219.724 27.19 219.232 27.014 218.704 27.014C218.176 27.014 217.685 27.1973 217.23 27.564C216.776 27.9307 216.548 28.4733 216.548 29.192C216.548 29.896 216.783 30.4313 217.252 30.798ZM233.612 23.538C233.89 23.626 234.118 23.78 234.294 24C234.484 24.2053 234.58 24.5427 234.58 25.012C234.58 25.4813 234.44 25.9947 234.162 26.552C233.883 27.1093 233.48 27.388 232.952 27.388C232.688 27.388 232.431 27.3293 232.182 27.212C231.947 27.0947 231.632 27.036 231.236 27.036C230.84 27.036 230.466 27.1753 230.114 27.454C229.776 27.7327 229.608 28.07 229.608 28.466V33.086C229.608 33.4233 229.593 33.68 229.564 33.856C229.549 34.0173 229.483 34.208 229.366 34.428C229.146 34.8093 228.574 35 227.65 35C226.946 35 226.44 34.8753 226.132 34.626C225.897 34.4207 225.765 34.1053 225.736 33.68C225.736 33.5333 225.736 33.3207 225.736 33.042V25.32C225.736 24.9827 225.743 24.7333 225.758 24.572C225.787 24.396 225.853 24.2053 225.956 24C226.161 23.604 226.733 23.406 227.672 23.406C228.552 23.406 229.102 23.5747 229.322 23.912C229.483 24.1467 229.564 24.3887 229.564 24.638C229.637 24.5353 229.74 24.4107 229.872 24.264C230.018 24.1173 230.319 23.9193 230.774 23.67C231.228 23.4207 231.624 23.296 231.962 23.296C232.314 23.296 232.607 23.318 232.842 23.362C233.076 23.3913 233.333 23.45 233.612 23.538ZM245.86 27.828C245.86 28.7227 245.633 29.39 245.178 29.83C244.738 30.2553 244.247 30.468 243.704 30.468H238.49C238.49 30.8787 238.732 31.2233 239.216 31.502C239.7 31.7807 240.184 31.92 240.668 31.92C241.519 31.92 242.186 31.832 242.67 31.656L242.912 31.568C243.264 31.4067 243.558 31.326 243.792 31.326C244.262 31.326 244.665 31.656 245.002 32.316C245.193 32.712 245.288 33.0493 245.288 33.328C245.288 34.6333 243.726 35.286 240.602 35.286C239.517 35.286 238.549 35.1027 237.698 34.736C236.862 34.3547 236.21 33.856 235.74 33.24C234.816 32.052 234.354 30.7247 234.354 29.258C234.354 27.41 234.948 25.936 236.136 24.836C237.339 23.7213 238.835 23.164 240.624 23.164C242.663 23.164 244.159 23.8827 245.112 25.32C245.611 26.0827 245.86 26.9187 245.86 27.828ZM241.218 28.466C241.776 28.466 242.054 28.2313 242.054 27.762C242.054 27.4247 241.922 27.1533 241.658 26.948C241.409 26.7427 241.042 26.64 240.558 26.64C240.089 26.64 239.62 26.838 239.15 27.234C238.681 27.6153 238.446 28.026 238.446 28.466H241.218Z" fill="#FF6158"/>
</svg>
