<svg width="539" height="540" viewBox="0 0 539 540" fill="none" xmlns="http://www.w3.org/2000/svg">
<circle cx="269.499" cy="269.509" r="268.5" stroke="#E5EAF1" stroke-width="2"/>
<circle cx="272" cy="270" r="195" fill="url(#paint0_linear_227_2351)"/>
<circle cx="272.5" cy="269.5" r="146.5" fill="white"/>
<circle cx="272" cy="270" r="117" fill="#4267B2"/>
<path fill-rule="evenodd" clip-rule="evenodd" d="M88.5135 116.157C88.5135 116.341 89.0274 117.989 89.6562 119.818C96.7757 140.546 117.071 158.417 146.991 170.302C152.995 172.686 158.567 174.545 187.257 183.732C221.918 194.831 234.894 203.113 244.642 220.359L246.381 223.435L246 220.667C243.549 202.895 229.266 187.059 205.955 176.266C195.3 171.333 187.776 168.593 159.739 159.432C143.487 154.123 135.112 150.833 125.144 145.842C111.649 139.086 100.402 130.42 92.4917 120.684C88.4294 115.684 88.5135 115.78 88.5135 116.157ZM448.959 120.043C444.737 125.526 435.735 133.656 428.677 138.358C415.885 146.88 401.152 153.172 372.802 162.22C337.869 173.368 321.328 181.589 309.215 193.822C301.106 202.011 296.14 211.148 295.127 219.744L294.693 223.435L296.317 220.435C302.509 208.992 311.817 200.778 326.411 193.876C335.077 189.777 341.017 187.65 365.007 180.053C375.749 176.652 387.215 172.882 390.489 171.676C398.389 168.767 413.728 161.247 419.467 157.47C430.681 150.089 440.978 139.715 446.387 130.348C449.046 125.745 452.198 118.175 451.869 117.186C451.751 116.831 450.442 118.118 448.959 120.043ZM72.2127 120.684C73.305 130.026 78.7636 141.439 85.8726 149.245C97.5395 162.053 110.946 167.733 131.478 168.564C138.312 168.84 138.483 168.815 137.171 167.752C136.427 167.148 131.103 164.784 125.338 162.499C119.574 160.213 112.453 156.964 109.514 155.278C96.2009 147.641 85.1696 137.043 76.0668 123.145C74.0725 120.099 72.2919 117.469 72.1107 117.3C71.9296 117.131 71.9756 118.654 72.2127 120.684ZM464.139 124.227C455.368 137.231 444.987 147.246 432.778 154.479C427.8 157.428 422.522 159.857 414.056 163.094C407.883 165.455 402.009 168.307 402.436 168.735C402.971 169.271 421.379 167.763 425.237 166.867C444.204 162.459 460.377 148.08 466.432 130.242C467.69 126.535 469.364 117.97 468.93 117.459C468.861 117.378 466.705 120.424 464.139 124.227ZM73.4585 149.368C73.6937 150.512 75.0009 153.786 76.3628 156.643C78.3528 160.817 79.8203 162.815 83.8298 166.804C92.1785 175.111 100.061 178.222 112.712 178.202C119.673 178.191 124.66 177.397 132.615 175.035C135.512 174.174 136.814 173.531 136.271 173.226C135.478 172.781 131.861 172.22 114.916 169.912C99.6916 167.839 91.5713 163.951 79.151 152.789C73.1945 147.436 73.0422 147.345 73.4585 149.368ZM463.676 151.205C449.368 164.283 441.023 168.139 421.923 170.493C412.968 171.596 406.987 172.522 405.038 173.108C403.482 173.574 408.258 175.307 415.783 177.007C422.302 178.48 433.412 178.598 439.115 177.254C451.801 174.267 462.278 164.46 466.775 151.362C467.436 149.437 467.908 147.793 467.822 147.709C467.737 147.626 465.871 149.199 463.676 151.205ZM142.24 179.151C118.461 185.875 103.209 186.462 88.053 181.236C86.1692 180.587 84.5009 180.182 84.3462 180.338C83.6923 180.993 91.5799 187.931 95.0748 189.775C108.643 196.933 127.61 195.221 141.129 185.617C145.282 182.667 151.322 176.943 150.196 177.024C149.873 177.048 146.292 178.005 142.24 179.151ZM391.337 178.212C392.837 180.701 401.325 187.022 406.34 189.384C414.157 193.067 417.993 193.9 427.142 193.901C436.406 193.902 441.614 192.576 447.606 188.689C451.159 186.383 456.308 181.665 456.308 180.714C456.308 180.424 454.581 180.733 452.47 181.399C439.988 185.339 427.409 185.786 412.992 182.802C409.296 182.036 395.808 178.51 391.644 177.219C390.649 176.911 390.616 177.016 391.337 178.212ZM155.068 186.209C145.113 190.97 132.054 195.992 124.277 198.051C117.728 199.784 116.171 199.964 107.346 200.007L97.6267 200.055L99.6302 201.732C106.322 207.335 118.224 209.221 129.652 206.49C139.345 204.173 150.818 197.463 156.526 190.771C158.635 188.298 162.074 183.021 161.467 183.188C161.361 183.217 158.482 184.576 155.068 186.209ZM379.556 183.585C379.556 184.833 384.017 190.508 387.637 193.867C394.857 200.565 404.34 205.305 414.175 207.131C419.923 208.199 429.183 207.636 433.654 205.947C437.087 204.651 442.798 201.223 442.801 200.458C442.801 200.236 439.634 200.14 435.764 200.246C422.158 200.614 407.552 196.544 386.464 186.508C382.665 184.699 379.556 183.385 379.556 183.585ZM167.414 190.598C149.136 203.82 133.771 211.885 120.596 215.173C118.823 215.615 117.372 216.189 117.372 216.447C117.372 217.366 122.064 218.346 127.926 218.652C143.606 219.467 158.719 211.182 168.023 196.671C170.664 192.552 172.974 187.423 172.168 187.466C171.917 187.479 169.778 188.888 167.414 190.598ZM368.848 188.826C370.34 193.66 375.159 200.766 380.27 205.667C389.519 214.537 399.965 218.866 411.913 218.783C417.335 218.746 425.119 216.94 423.151 216.176C422.644 215.98 418.825 214.697 414.662 213.326C401.73 209.067 390.735 202.999 373.567 190.646C371.118 188.884 368.958 187.442 368.767 187.442C368.577 187.442 368.613 188.064 368.848 188.826ZM173.362 199.747C154.657 218.692 146.845 226.727 146.845 227.019C146.845 227.176 147.743 227.102 148.84 226.853C160.298 224.256 178.019 207.67 183.079 194.806C183.784 193.012 184.279 190.968 184.177 190.263C184.029 189.235 181.876 191.123 173.362 199.747ZM356.874 191.256C358.751 201.525 373.063 217.96 385.696 224.355C389.555 226.308 393.678 227.581 393.678 226.82C393.678 226.536 385.279 217.768 375.012 207.335L356.346 188.365L356.874 191.256ZM192.282 192.295C192.282 193.736 169.754 223.466 164.213 229.336C162.428 231.228 160.967 232.945 160.967 233.153C160.967 233.359 162.233 233.147 163.779 232.681C172.832 229.951 184.205 218.48 189.799 206.437C192.742 200.102 194.503 191.749 192.896 191.749C192.558 191.749 192.282 191.995 192.282 192.295ZM347.664 193.783C347.482 205.557 361.219 225.297 373.716 231.221C379.544 233.984 380.202 233.583 376.641 229.434C370.653 222.46 351.246 197.129 348.431 192.614C347.786 191.58 347.695 191.719 347.664 193.783ZM202.076 195.418C199.399 202.589 190.127 219.489 182.348 231.377C180.375 234.391 178.853 236.949 178.965 237.061C179.077 237.173 180.668 236.506 182.501 235.58C186.892 233.36 194.346 225.769 197.67 220.128C202.52 211.902 204.908 201.843 203.457 195.748L202.872 193.287L202.076 195.418ZM337.608 194.854C336.902 197.501 337.159 204.29 338.108 208.078C338.614 210.095 340.334 214.375 341.93 217.59C344.291 222.344 345.81 224.426 350.067 228.742C354.794 233.533 359.773 237.047 361.126 236.546C361.408 236.442 359.719 233.311 357.372 229.588C349.266 216.734 342.64 204.447 338.641 194.854L338.012 193.345L337.608 194.854ZM209.392 200.443C208.502 203.275 206.601 208.201 205.168 211.389C202.587 217.125 191.71 237.859 189.567 241.125C188.072 243.404 189.198 243.306 192.785 240.846C201.015 235.203 209.168 222.938 211.623 212.509C212.69 207.97 212.741 201.016 211.729 197.674L211.009 195.294L209.392 200.443ZM329.195 197.629C328.152 200.797 328.291 208.556 329.474 213.128C331.447 220.761 336.094 229.066 342.004 235.528C345.116 238.93 351.041 243.293 351.68 242.653C351.857 242.476 350.075 238.887 347.721 234.678C339.011 219.104 333.748 207.897 331.342 199.795L329.985 195.229L329.195 197.629ZM216.566 202.516C214.546 219.152 209.228 234.31 202.102 243.745C200.383 246.022 199.073 247.982 199.193 248.102C199.313 248.222 201.055 247.541 203.065 246.588C209.559 243.511 215.269 236.418 218.568 227.333C220.048 223.254 220.207 221.992 220.213 214.206C220.219 206.189 220.108 205.358 218.617 202.208L217.014 198.824L216.566 202.516ZM322.562 201.604C316.921 213.966 321.879 234.39 332.702 243.38C335.046 245.327 341.324 248.725 341.76 248.283C341.888 248.153 340.636 246.247 338.979 244.047C331.898 234.65 327.319 222.318 324.927 206.208L323.83 198.824L322.562 201.604ZM223.7 205.746C223.466 211.178 222.303 220.953 221.449 224.666C220.431 229.094 216.268 241.295 214.068 246.299C213.199 248.275 211.625 250.972 210.571 252.293L208.654 254.692L210.402 254.253C212.839 253.639 216.117 251.144 218.874 247.804C221.941 244.088 226.382 234.928 227.557 229.896C229.376 222.103 228.431 211.162 225.429 205.266C224.745 203.922 224.105 202.824 224.006 202.824C223.907 202.824 223.769 204.138 223.7 205.746ZM315.268 205.9C310.242 218.477 311.462 230.331 319.129 243.44C322.124 248.56 325.032 251.698 328.212 253.241C332.106 255.129 332.617 254.792 330.181 251.941C326.085 247.146 319.727 228.44 318.401 217.283C317.918 213.222 317.32 208.238 317.072 206.208L316.62 202.516L315.268 205.9ZM264.428 208.64C256.905 213.229 256.648 224.048 263.951 228.689C266.657 230.409 266.663 230.421 264.949 230.619C262.686 230.881 261.559 233.608 263.031 235.261C263.867 236.2 263.883 236.469 263.143 237.149C261.171 238.961 262.451 241.602 265.411 241.827L267.499 241.987L267.663 257.223C267.753 265.604 267.615 272.351 267.356 272.218C261.457 269.201 255.883 268.861 248.771 271.086C240.15 273.784 236.84 276.042 234.985 280.491C231.762 288.222 236.954 295.003 251.833 302.496C256.26 304.725 257.276 305.023 258.587 304.477C259.436 304.123 263.032 302.608 266.578 301.109L273.025 298.384L273.192 287.208L273.359 276.031L274.917 277.054C276.82 278.303 284.407 278.894 287.514 278.035C289.903 277.374 291.016 277.734 293.506 279.971C297.997 284.008 295.629 288.494 286.226 293.768C284.369 294.811 278.152 297.499 272.411 299.743C259.608 304.747 255.592 306.853 252.122 310.379C244.35 318.279 247.081 330.098 258.185 336.618L260.97 338.254L266.629 334.835C269.742 332.955 272.523 331.417 272.81 331.417C273.097 331.417 273.332 327.109 273.332 321.844V312.272L276.466 313.999C281.279 316.652 283.156 318.631 283.153 321.05C283.149 325.133 279.937 328.451 271.49 333.098C260.824 338.966 256.735 342.643 255.102 347.837C254.097 351.029 254.096 351.43 255.092 355.233C256.209 359.501 259.096 364.044 262.103 366.264L263.883 367.578L268.586 364.11L273.29 360.642L273.464 352.707L273.639 344.771L275.593 346.42C278.239 348.653 279.184 351.624 278.206 354.643C276.975 358.446 275.32 360.233 268.012 365.652C258.115 372.99 255.78 376.624 256.246 383.961C256.563 388.938 258.846 393.593 263.032 397.791L266.27 401.04L269.801 397.216L273.332 393.392V383.888C273.332 373.336 273.521 372.977 276.709 377.512C278.203 379.639 278.543 380.732 278.509 383.309C278.446 388.017 276.556 391.501 270.706 397.687C267.832 400.725 265.03 404.086 264.478 405.154C262.688 408.624 262.264 412.659 263.213 417.205C264.144 421.661 266.77 428.015 267.681 428.015C267.987 428.015 269.172 426.008 270.315 423.555C272.286 419.323 272.393 418.739 272.401 412.172C272.407 407.829 272.182 405.325 271.797 405.451C271.459 405.562 270.561 406.572 269.801 407.696C268.727 409.284 268.42 410.61 268.42 413.647C268.42 415.843 268.151 417.556 267.806 417.556C266.764 417.556 267.149 411.248 268.348 408.634C268.97 407.28 272.016 403.681 275.117 400.635C283.042 392.852 285.795 386.881 284.733 379.779C284.267 376.665 281.394 371.989 278.817 370.15L277.049 368.888L272.427 372.014L267.806 375.139V384.708C267.806 391.698 267.613 394.213 267.093 394.04C265.663 393.562 262.811 387.472 262.471 384.169C261.914 378.759 263.633 376.593 273.745 369.96C282.251 364.381 286.226 358.429 286.226 351.273C286.226 347.46 285.135 344.958 282.08 341.761L279.911 339.492L273.858 342.535L267.806 345.579V353.679V361.78L266.189 360.288C265.301 359.468 264.063 357.689 263.44 356.335C260.511 349.976 262.721 347.052 275.36 340.567C286.191 335.009 290.835 330.83 292.639 325.021C293.597 321.933 293.659 320.936 293.053 318.306C292.098 314.161 290.354 311.493 286.717 308.611C283.797 306.299 283.611 306.241 281.731 307.052C280.657 307.514 277.085 309.081 273.792 310.532L267.806 313.171V322.293C267.806 332.54 267.774 332.597 263.731 329.663C260.469 327.294 258.172 324.457 257.672 322.177C256.731 317.886 260.251 315.424 279.547 306.878C299.735 297.936 306.687 292.247 306.714 284.642C306.727 281.15 304.62 277.232 301.601 275.137C300.384 274.291 296.772 272.714 293.574 271.633C286.384 269.2 280.745 268.99 276.248 270.986L273.332 272.281V256.921V241.562L274.901 241.847C275.928 242.034 276.884 241.718 277.664 240.936C279.165 239.433 279.185 238.11 277.721 237.193C276.614 236.501 276.614 236.451 277.721 235.342C278.346 234.715 278.858 233.807 278.858 233.324C278.858 231.929 277.075 230.513 275.284 230.487L273.639 230.463L275.492 229.653C279.041 228.104 282.535 222.73 282.535 218.821C282.535 214.832 279.002 209.488 275.357 207.962C272.123 206.608 267.266 206.91 264.428 208.64ZM307.305 211.437C301.001 224.398 301.581 241.498 308.676 251.831C310.669 254.734 315.349 258.754 315.989 258.112C316.137 257.965 315.603 256.47 314.803 254.791C311.576 248.015 310.264 239.182 309.655 220.117L309.251 207.438L307.305 211.437ZM231.326 219.898C230.615 239.05 229.408 247.298 226.269 254.448C225.466 256.276 224.934 257.898 225.088 258.053C225.527 258.492 228.787 255.976 230.894 253.571C233.504 250.592 235.706 246.067 236.793 241.444C238.12 235.803 237.993 225.013 236.531 219.286C235.513 215.298 232.612 208.361 231.962 208.361C231.848 208.361 231.561 213.553 231.326 219.898ZM237.956 214.822C238.12 215.498 238.749 220.205 239.352 225.281C240.859 237.955 240.897 259.777 239.418 263.712C238.851 265.221 238.516 266.586 238.674 266.744C239.247 267.319 242.784 263.352 244.231 260.511C248.132 252.849 248.904 239.478 246.015 229.605C244.293 223.722 241.763 218.449 239.218 215.437C238.015 214.013 237.726 213.872 237.956 214.822ZM299.805 218.17C292.629 229.296 290.949 247.688 296.05 259.272C297.246 261.986 301.235 266.813 302.284 266.813C302.535 266.813 302.272 265.775 301.698 264.505C300.177 261.14 300.232 235.535 301.787 223.53C302.394 218.844 302.747 214.866 302.572 214.691C302.397 214.516 301.152 216.082 299.805 218.17ZM256.678 272.291C257.764 272.979 257.028 274.196 255.525 274.196C254.023 274.196 253.287 272.979 254.372 272.291C254.838 271.995 255.356 271.754 255.525 271.754C255.694 271.754 256.213 271.995 256.678 272.291ZM286.401 273.757C284.967 274.398 283.156 273.992 283.156 273.03C283.156 272.147 285.139 271.867 286.52 272.555C287.712 273.148 287.709 273.171 286.401 273.757ZM267.806 288.04C267.806 294.3 267.689 299.422 267.547 299.422C266.756 299.422 256.849 294.931 253.495 293.051C249.101 290.589 245.087 286.552 245.087 284.595C245.087 282.679 246.76 280.195 249.074 278.675C250.776 277.557 251.471 277.429 253.167 277.916C256.043 278.742 262.188 278.585 264.735 277.619C265.917 277.171 267.091 276.771 267.345 276.73C267.599 276.69 267.806 281.779 267.806 288.04ZM273.677 403.342C273.489 403.646 273.37 407.038 273.411 410.879C273.5 419.183 272.847 421.616 268.509 429.151C266.822 432.08 265.107 435.814 264.696 437.449C263.726 441.316 264.266 447.545 266.251 455.381C267.591 460.673 267.806 462.863 267.806 471.26V481L270.415 480.811L273.025 480.622L273.364 469.547C273.634 460.707 273.992 457.354 275.142 452.934C277.235 444.883 277.183 438.641 274.981 433.887L273.284 430.222L271.467 432.964C269.189 436.402 268.442 438.645 267.834 443.872L267.353 448.012L267.278 443.705C267.194 438.842 268.329 435.791 272.56 429.507C275.792 424.708 277.661 419.484 278.074 414.1C278.366 410.275 278.208 409.282 276.825 406.255C275.314 402.948 274.426 402.127 273.677 403.342ZM273.777 445.386C273.64 446.492 273.525 445.735 273.522 443.705C273.518 441.675 273.63 440.769 273.771 441.694C273.911 442.619 273.913 444.28 273.777 445.386Z" fill="#F4FAFF"/>
<defs>
<linearGradient id="paint0_linear_227_2351" x1="415.839" y1="138.742" x2="103.839" y2="369.387" gradientUnits="userSpaceOnUse">
<stop stop-color="#5986E1"/>
<stop offset="1" stop-color="#B1DCFC"/>
</linearGradient>
</defs>
</svg>
