<svg width="24" height="24" viewBox="0 0 24 24" fill="none" xmlns="http://www.w3.org/2000/svg">
<ellipse cx="11.5714" cy="12.717" rx="11.5714" ry="11.283" fill="#4267B2"/>
<ellipse cx="9.64286" cy="14.4528" rx="9.64286" ry="9.54717" fill="white"/>
<ellipse cx="9.6423" cy="14.6698" rx="8.35714" ry="8.46226" fill="#FF6158"/>
<ellipse cx="9.42745" cy="16.6226" rx="6.85714" ry="6.9434" fill="white"/>
<ellipse cx="9.64509" cy="5.99068" rx="2.78571" ry="2.82075" fill="white"/>
<ellipse cx="9.6423" cy="5.99055" rx="2.35714" ry="2.38679" fill="#FF6158"/>
<ellipse cx="20.3577" cy="4.68868" rx="3.64286" ry="3.68868" fill="white"/>
<ellipse cx="20.3588" cy="4.6888" rx="3.21429" ry="3.25472" fill="#4267B2"/>
<path d="M9.6449 13.4349C10.7019 12.4447 12.3354 12.4776 13.3537 13.542C14.3716 14.6069 14.4067 16.3028 13.4599 17.409L9.644 21.3963L5.82897 17.409C4.88219 16.3028 4.91774 14.6041 5.93517 13.542C6.9544 12.479 8.58472 12.4433 9.6449 13.4349Z" fill="#FF6158"/>
</svg>
