<svg width="50" height="32" viewBox="0 0 50 32" fill="none" xmlns="http://www.w3.org/2000/svg">
<g id="PayPal">
<g id="PayPal_2">
<rect id="Rectangle" width="50" height="32" rx="3" fill="#082069"/>
<g id="Group">
<g id="Group_2">
<path id="Vector" d="M14.8735 20.8999H12.8008C12.659 20.8999 12.5384 21.0029 12.5162 21.143L11.678 26.4579C11.6613 26.5628 11.7425 26.6573 11.8489 26.6573H12.8384C12.9802 26.6573 13.1009 26.5543 13.123 26.4139L13.3491 24.9804C13.3709 24.8401 13.4918 24.7371 13.6334 24.7371H14.2895C15.6548 24.7371 16.4428 24.0764 16.6486 22.7671C16.7413 22.1943 16.6525 21.7443 16.3843 21.4291C16.0897 21.083 15.5672 20.8999 14.8735 20.8999ZM15.1126 22.8411C14.9993 23.5848 14.431 23.5848 13.8816 23.5848H13.5688L13.7882 22.1958C13.8013 22.1119 13.874 22.0501 13.9589 22.0501H14.1022C14.4765 22.0501 14.8296 22.0501 15.012 22.2634C15.1208 22.3907 15.1542 22.5798 15.1126 22.8411Z" fill="white"/>
<path id="Vector_2" d="M21.0695 22.8165H20.077C19.9924 22.8165 19.9194 22.8783 19.9064 22.9623L19.8624 23.2399L19.793 23.1393C19.5781 22.8274 19.099 22.7231 18.6207 22.7231C17.5239 22.7231 16.5871 23.5539 16.4047 24.7192C16.3098 25.3004 16.4447 25.8563 16.7744 26.2439C17.0769 26.6003 17.5097 26.7488 18.0246 26.7488C18.9083 26.7488 19.3984 26.1806 19.3984 26.1806L19.3542 26.4564C19.3375 26.5618 19.4187 26.6564 19.5245 26.6564H20.4185C20.5607 26.6564 20.6807 26.5533 20.7031 26.413L21.2396 23.0159C21.2565 22.9114 21.1756 22.8165 21.0695 22.8165ZM19.686 24.7483C19.5903 25.3153 19.1402 25.696 18.5662 25.696C18.278 25.696 18.0476 25.6035 17.8997 25.4283C17.753 25.2544 17.6973 25.0068 17.744 24.731C17.8334 24.1688 18.291 23.7757 18.8562 23.7757C19.1381 23.7757 19.3672 23.8694 19.5181 24.046C19.6694 24.2246 19.7294 24.4737 19.686 24.7483Z" fill="white"/>
<path id="Vector_3" d="M26.3549 22.8164H25.3575C25.2623 22.8164 25.1729 22.8637 25.119 22.9428L23.7433 24.9691L23.1602 23.0219C23.1236 22.9001 23.0111 22.8164 22.8838 22.8164H21.9037C21.7846 22.8164 21.7019 22.9328 21.7397 23.0449L22.8384 26.269L21.8055 27.727C21.7243 27.8419 21.8061 27.9998 21.9464 27.9998H22.9426C23.0372 27.9998 23.1257 27.9537 23.1793 27.8762L26.4967 23.0877C26.5761 22.9731 26.4946 22.8164 26.3549 22.8164Z" fill="white"/>
<path id="Vector_4" d="M29.6567 20.8994H27.5837C27.4422 20.8994 27.3216 21.0025 27.2995 21.1425L26.4612 26.4574C26.4445 26.5623 26.5257 26.6568 26.6315 26.6568H27.6953C27.7941 26.6568 27.8786 26.5847 27.8941 26.4865L28.132 24.9799C28.1538 24.8396 28.2747 24.7366 28.4163 24.7366H29.0721C30.4377 24.7366 31.2254 24.0759 31.4315 22.7666C31.5245 22.1938 31.4351 21.7438 31.1669 21.4286C30.8726 21.0825 30.3505 20.8994 29.6567 20.8994ZM29.8958 22.8406C29.7828 23.5843 29.2145 23.5843 28.6648 23.5843H28.3523L28.572 22.1953C28.5851 22.1114 28.6572 22.0496 28.7424 22.0496H28.8857C29.2597 22.0496 29.6131 22.0496 29.7955 22.2629C29.9043 22.3902 29.9374 22.5793 29.8958 22.8406Z" fill="white"/>
<path id="Vector_5" d="M35.8534 22.8165H34.8615C34.7763 22.8165 34.7039 22.8783 34.6911 22.9623L34.6472 23.2399L34.5775 23.1393C34.3626 22.8274 33.8838 22.7231 33.4055 22.7231C32.3087 22.7231 31.3722 23.5539 31.1898 24.7192C31.0952 25.3004 31.2295 25.8563 31.5592 26.2439C31.8623 26.6003 32.2945 26.7488 32.8094 26.7488C33.6931 26.7488 34.1832 26.1806 34.1832 26.1806L34.1389 26.4564C34.1223 26.5618 34.2035 26.6564 34.3099 26.6564H35.2036C35.3452 26.6564 35.4658 26.5533 35.4879 26.413L36.0246 23.0159C36.041 22.9114 35.9598 22.8165 35.8534 22.8165ZM34.4699 24.7483C34.3747 25.3153 33.9241 25.696 33.35 25.696C33.0624 25.696 32.8315 25.6035 32.6836 25.4283C32.5369 25.2544 32.4817 25.0068 32.5278 24.731C32.6178 24.1688 33.0749 23.7757 33.6401 23.7757C33.9219 23.7757 34.1511 23.8694 34.302 24.046C34.4538 24.2246 34.5138 24.4737 34.4699 24.7483Z" fill="white"/>
<path id="Vector_6" d="M37.0228 21.045L36.1721 26.4572C36.1554 26.5621 36.2367 26.6566 36.3424 26.6566H37.1977C37.3398 26.6566 37.4604 26.5536 37.4823 26.4133L38.3212 21.0986C38.3378 20.9938 38.2566 20.8989 38.1508 20.8989H37.1931C37.1086 20.8992 37.0358 20.9611 37.0228 21.045Z" fill="white"/>
</g>
<g id="Group_3">
<path id="Vector_7" opacity="0.68" d="M30.1151 7.42382C30.2795 6.37542 30.114 5.66222 29.5469 5.016C28.9227 4.30472 27.795 4 26.3521 4H22.1637C21.8689 4 21.6177 4.21454 21.5719 4.50594L19.8277 15.5653C19.7934 15.7835 19.9621 15.9808 20.1828 15.9808H22.7685L22.59 17.1125C22.56 17.3034 22.7074 17.4759 22.9007 17.4759H25.0802C25.3381 17.4759 25.5578 17.2883 25.598 17.0334L25.6194 16.9225L26.0299 14.3189L26.0564 14.1751C26.0966 13.9203 26.3163 13.7324 26.5742 13.7324H26.9002C29.0116 13.7324 30.6649 12.8747 31.1479 10.3939C31.3499 9.35726 31.2454 8.49198 30.7116 7.88364C30.5503 7.69999 30.3494 7.5479 30.1151 7.42382Z" fill="white"/>
<path id="Vector_8" opacity="0.7" d="M30.1151 7.42382C30.2795 6.37542 30.114 5.66222 29.5469 5.016C28.9227 4.30472 27.795 4 26.3521 4H22.1637C21.8689 4 21.6177 4.21454 21.5719 4.50594L19.8277 15.5653C19.7934 15.7835 19.9621 15.9808 20.1828 15.9808H22.7685L23.418 11.862L23.3978 11.9911C23.4438 11.6999 23.6927 11.4852 23.9876 11.4852H25.2167C27.6302 11.4852 29.5202 10.5046 30.0722 7.66883C30.0887 7.5851 30.1026 7.5037 30.1151 7.42382Z" fill="white"/>
<path id="Vector_9" d="M24.1158 7.43768C24.1434 7.26254 24.256 7.11896 24.4074 7.04649C24.4761 7.01355 24.5531 6.99515 24.6337 6.99515H27.9168C28.3058 6.99515 28.6685 7.02068 29 7.07408C29.0947 7.08931 29.1869 7.10688 29.2765 7.12679C29.366 7.14669 29.4531 7.16879 29.5372 7.1935C29.5793 7.20571 29.6207 7.21875 29.6614 7.2322C29.8242 7.28628 29.9759 7.34997 30.1153 7.42395C30.2798 6.37556 30.1142 5.66236 29.5472 5.01614C28.9227 4.30472 27.795 4 26.3521 4H22.1637C21.8689 4 21.6177 4.21454 21.5719 4.50594L19.8277 15.5653C19.7934 15.7835 19.9621 15.9808 20.1828 15.9808H22.7685L23.418 11.862L24.1158 7.43768Z" fill="white"/>
</g>
</g>
</g>
</g>
</svg>
