<svg width="187" height="205" viewBox="0 0 187 205" fill="none" xmlns="http://www.w3.org/2000/svg">
<g clip-path="url(#clip0_295_19361)">
<path d="M67.9274 104.698C67.6808 103.28 59.9747 103.65 50.8506 105.5C41.6648 107.349 34.5135 109.938 34.7601 111.356C35.0067 112.774 42.7128 112.404 51.8369 110.555C61.0227 108.705 68.2357 106.054 67.9274 104.698Z" fill="#B84031"/>
<path d="M63.4239 97.7305L34.6953 98.0387L36.9763 112.403C36.9763 112.403 48.5664 114.746 57.6289 113.451C63.3006 112.65 68.1092 107.964 68.1092 107.964L63.4239 97.7305Z" fill="#F9C7A2"/>
<path d="M81.0543 135.275C80.4995 122.391 78.0951 111.109 78.0951 111.109L58.8605 112.404L30.0703 121.219L80.3762 164.682C80.3762 164.62 81.6708 149.085 81.0543 135.275Z" fill="#FF796B"/>
<path d="M66.8756 126.706L66.5673 115.301L59.231 112.28L55.5938 119L62.93 127.754L66.444 152.598L80.3768 164.62L80.87 146.064L66.8756 126.706Z" fill="#49484E"/>
<path d="M77.0423 108.644L68.5964 104.329C68.5964 104.329 64.0343 110.987 57.2529 112.343C47.574 114.254 34.6276 111.048 34.6276 111.048L30.0039 121.097L51.3346 127.694L58.7325 112.281C58.7325 112.281 63.8494 114.008 67.5483 116.474C70.2609 118.323 71.8638 121.097 71.8638 121.097C71.8638 121.097 76.3025 116.597 77.7821 113.021C78.8302 110.617 77.0423 108.644 77.0423 108.644Z" fill="#FF9D94"/>
<path d="M109.905 141.933C109.905 141.933 112.432 135.09 102.63 125.288C93.4444 116.102 85.0601 112.65 85.0601 112.65L78.0938 111.047C78.0938 111.047 80.8679 126.829 81.4228 140.885C81.916 153.77 80.1282 165.052 80.1282 165.052L105.898 266.711H121.248L107.562 209.254L104.85 184.656C104.85 184.656 107.5 172.018 109.227 161.908C112.186 145.077 109.905 141.933 109.905 141.933Z" fill="#E6E6E6"/>
<path d="M86.848 132.562L89.4372 129.172L83.7655 112.218L78.0938 111.047C78.0938 111.047 80.3131 124.178 80.9296 137.556C81.4844 150.934 80.4364 164.558 80.4364 164.558L82.6558 167.024C82.6558 167.024 86.6013 161.723 88.1426 155.989C90.6086 146.803 91.1634 135.583 91.1634 135.583L86.848 132.562Z" fill="#F5F5F5"/>
<path d="M99.1777 235.271C92.8278 203.583 84.7517 170.724 84.7517 170.724L75.5043 160.49L30.1921 121.466L7.0736 135.646C7.0736 135.646 0.908664 140.886 4.29938 148.222C9.53957 159.627 25.1985 174.978 25.1985 174.978C25.1985 174.978 32.1649 184.595 37.5284 193.966C42.8919 203.398 46.7141 212.646 46.7141 212.646C46.7141 212.646 49.1801 216.53 50.3514 220.537C52.3242 227.072 53.4339 235.086 53.4339 235.086C53.4339 235.086 53.9271 250.868 56.9479 266.65H104.973C103.37 257.28 101.397 246.368 99.1777 235.271Z" fill="#EEEEEE"/>
<path d="M80.3891 164.62L30.4532 121.034L24.2266 125.041L38.5908 150.379L46.7902 147.852L48.0232 158.27L84.3963 170.847L80.3891 164.62Z" fill="#F7F7F7"/>
<path d="M100.172 155.126L99.3085 151.92L96.7193 152.229C96.7193 152.229 96.7809 150.502 96.2261 150.441C95.6712 150.379 92.897 150.934 92.897 150.934L93.4519 153.092C93.4519 153.092 91.4791 153.647 91.4174 154.016C91.3558 154.386 92.1572 156.914 92.1572 156.914L94.3766 156.729L94.9315 158.887L98.1372 158.024L97.9523 155.804L100.172 155.126Z" fill="#FF796B"/>
<path d="M59.1364 168.346L39.4141 173.586L40.174 176.446L59.8963 171.206L59.1364 168.346Z" fill="#F7F7F7"/>
<path d="M47.8299 170.723L46.9052 167.209C46.6586 166.346 45.7339 165.791 44.8708 166.037C44.0077 166.284 43.4529 167.209 43.6995 168.072L44.6242 171.586C44.6859 171.894 45.0557 172.141 45.364 172.017L47.3984 171.462C47.7067 171.401 47.9532 171.031 47.8299 170.723Z" fill="#4B91A8"/>
<path d="M44.5725 164.16L43.5 164.445L44.0699 166.59L45.1424 166.305L44.5725 164.16Z" fill="#9AC3CF"/>
<path d="M47.073 167.726L43.8555 168.581L44.0454 169.296L47.263 168.441L47.073 167.726Z" fill="#9AC3CF"/>
<path d="M45.5256 167.721L44.4531 168.006L47.7936 180.578L48.8661 180.293L45.5256 167.721Z" fill="#9AC3CF"/>
<path d="M82.2293 177.197C81.9211 176.026 80.6881 175.286 79.5167 175.594C78.3454 175.902 77.6056 177.135 77.9138 178.307C78.2221 179.478 79.4551 180.218 80.6264 179.909C81.7977 179.601 82.5375 178.368 82.2293 177.197Z" fill="#F7F7F7"/>
<path d="M89.073 203.028C88.7648 201.857 87.5318 201.117 86.3605 201.425C85.1891 201.733 84.4494 202.966 84.7576 204.138C85.0658 205.309 86.2988 206.049 87.4702 205.741C88.6415 205.432 89.3813 204.199 89.073 203.028Z" fill="#F7F7F7"/>
<path d="M58.9838 60.8645C57.4425 56.2408 59.1687 50.0759 59.1687 50.0759L53.3737 42.8013C53.3737 42.8013 43.818 44.7124 38.8861 44.7124C32.4745 44.7124 29.7004 43.2945 29.7004 43.2945C29.7004 43.2945 24.7068 44.2809 23.967 46.3769C22.3024 51.1239 26.8645 52.9118 26.8645 52.9118C26.8645 52.9118 27.4193 60.0014 28.9606 65.0567C30.3168 69.4338 32.6595 71.7764 32.6595 71.7764C32.6595 71.7764 43.0782 81.2704 51.2159 79.5443C64.9021 76.6467 64.9021 67.461 64.9021 67.461C64.9021 67.461 60.4634 65.2416 58.9838 60.8645Z" fill="#F9C89F"/>
<path d="M29.7532 66.351L27.0406 64.7482C27.0406 64.7482 24.2047 61.5424 22.4786 62.0972C19.2111 63.2686 20.0126 67.3374 20.0126 67.3374C20.0126 67.3374 21.2456 71.098 22.7868 73.5024C27.0406 80.0988 30.6779 78.6809 30.6779 78.6809L29.7532 66.351Z" fill="#F9C89F"/>
<path d="M29.5221 71.3445L25.145 67.8921C25.145 67.8921 23.5421 68.7552 25.3299 71.776C26.3163 73.4405 30.6934 74.1187 30.6934 74.1187L29.5221 71.3445Z" fill="#F5B889"/>
<path d="M40.4918 56.1792C29.4566 58.6452 35.9914 68.1392 35.9914 68.1392C35.9914 68.1392 39.6287 67.5227 42.8961 66.6596C45.9169 65.8581 48.8761 64.6868 48.8761 64.6868C48.8761 64.6868 47.8897 54.5147 40.4918 56.1792Z" fill="#F5B889"/>
<path d="M58.0612 58.8301C57.6913 56.2408 58.3077 52.6035 58.3077 52.6035C58.3077 52.6035 53.6224 53.405 52.4511 56.4874C50.4166 61.6043 52.4511 63.762 52.4511 63.762L59.6024 61.8509C59.6641 61.8509 58.3694 60.7412 58.0612 58.8301Z" fill="#F5B889"/>
<path d="M58.4276 52.9736C58.4276 52.9736 55.5301 53.0353 54.1122 54.145C52.2627 55.6245 51.7695 58.2138 51.7695 58.2138L58.2427 56.4876C58.2427 56.4876 58.7976 55.378 58.8592 54.3916C58.8592 53.6518 58.4276 52.9736 58.4276 52.9736Z" fill="#BF8748"/>
<path d="M40.3562 55.809C35.3626 57.1653 33.3281 62.6521 33.3281 62.6521C33.3281 62.6521 37.4587 60.8026 41.4042 59.7546C44.3017 58.9531 47.3225 58.9531 47.3225 58.9531C47.3225 58.9531 44.6716 54.6377 40.3562 55.809Z" fill="#BF8748"/>
<path d="M42.0885 62.2826C37.773 63.3307 36.0469 68.5092 36.0469 68.5092L48.6234 65.1801C48.6234 65.1801 45.5409 61.4812 42.0885 62.2826Z" fill="#F4F5F6"/>
<path d="M57.4442 59.324C56.5194 58.6459 55.3481 58.7075 55.3481 58.7075C55.3481 58.7075 54.0534 59.0774 53.3753 60.0021C52.5122 61.1735 52.2656 62.9613 52.2656 62.9613L52.4506 63.7011L59.6019 61.79C59.6636 61.8516 58.6155 60.1871 57.4442 59.324Z" fill="#F4F5F6"/>
<path d="M44.1342 64.0705C43.8259 62.8992 42.408 62.221 41.0517 62.5909C39.6954 62.9608 38.7707 64.1938 39.1406 65.4268C39.4488 66.5982 40.8668 67.2763 42.223 66.9064C43.5793 66.4749 44.4424 65.2419 44.1342 64.0705Z" fill="#7A460F"/>
<path d="M57.3813 60.4956C57.0731 59.3242 55.6552 58.6461 54.4839 59.1393C53.1892 59.5708 52.8809 61.297 52.8809 62.2218C52.696 63.0232 53.9906 63.6397 55.4702 63.3315C56.8265 62.9616 57.6896 61.7286 57.3813 60.4956Z" fill="#7A460F"/>
<path d="M42.6494 64.441C42.4644 63.8245 41.9096 63.5163 41.2931 63.6396C40.6766 63.8245 40.3683 64.3794 40.4916 64.9959C40.6766 65.6124 41.2314 65.9206 41.8479 65.7973C42.4644 65.6124 42.8343 64.9959 42.6494 64.441Z" fill="#1A1C23"/>
<path d="M55.958 60.9259C55.773 60.3094 55.2182 60.0011 54.6017 60.1244C53.9852 60.2477 53.6769 60.8642 53.8002 61.4807C53.9852 62.0972 54.54 62.4055 55.1565 62.2822C55.7114 62.0972 56.0813 61.4807 55.958 60.9259Z" fill="#1A1C23"/>
<path d="M55.4676 60.6181C55.406 60.4332 55.221 60.3099 55.0361 60.3715C54.8511 60.4332 54.7278 60.6181 54.7895 60.803C54.8511 60.988 55.036 61.1113 55.221 61.0496C55.4059 61.0496 55.5293 60.8647 55.4676 60.6181Z" fill="#FAFAFC"/>
<g opacity="0.702">
<path d="M55.9539 59.5706C55.8922 59.2624 55.584 59.0774 55.2757 59.2007C54.9675 59.2624 54.7825 59.5706 54.9058 59.8789C54.9675 60.1871 55.2757 60.3721 55.584 60.2488C55.8922 60.1871 56.0772 59.8789 55.9539 59.5706Z" fill="#FAFAFC"/>
</g>
<path d="M42.2098 64.1933C42.1481 64.0083 41.9632 63.8851 41.7782 63.9467C41.5933 64.0084 41.47 64.1933 41.5317 64.3782C41.5933 64.5632 41.7782 64.6865 41.9632 64.6248C42.1481 64.5632 42.2714 64.3782 42.2098 64.1933Z" fill="#FAFAFC"/>
<g opacity="0.702">
<path d="M42.7039 63.0833C42.6422 62.7751 42.334 62.5901 42.0257 62.7134C41.7175 62.7751 41.5325 63.0833 41.6558 63.3916C41.7175 63.6998 42.0257 63.8848 42.334 63.7615C42.6422 63.6382 42.7655 63.3916 42.7039 63.0833Z" fill="#FAFAFC"/>
</g>
<path d="M57.929 69.9893C57.929 69.9893 52.5038 65.3039 51.7641 61.2351C51.0243 57.1046 54.7232 53.6522 55.0315 53.4673C54.6616 53.6522 50.7777 55.5634 51.2092 62.1598C51.4558 65.6738 56.4494 70.3592 56.4494 70.3592C56.4494 70.3592 56.8193 70.7907 56.7576 71.4072C56.6343 72.5786 56.0179 74.3047 56.0179 74.3047C56.0179 74.3047 57.1275 73.1951 57.6824 71.9621C58.0523 71.2223 57.929 69.9893 57.929 69.9893Z" fill="#E5B292"/>
<path d="M50.4762 33.1846C44.6195 33.8011 35.6803 36.7602 35.6803 36.7602C35.6803 36.7602 29.0838 36.6986 23.9053 38.733C20.0214 40.2742 17.2472 43.9732 17.2472 43.9732C17.2472 43.9732 15.7676 46.6858 16.2608 48.8435C16.939 51.8027 19.6515 54.4536 19.6515 54.4536C19.6515 54.4536 22.3641 57.2278 24.5218 60.4336C26.9261 63.9476 27.9125 68.3247 27.9125 68.3247L30.81 67.5849C30.81 67.5849 29.7003 62.5296 29.0222 58.0909C28.5906 55.0084 28.5907 52.0493 28.5907 52.0493C28.5907 52.0493 24.0903 49.8299 24.6451 47.3639C25.3849 44.0348 29.0222 45.0212 29.0222 45.0212C29.0222 45.0212 34.3857 46.3775 40.3657 45.8227C46.3457 45.2678 53.0038 42.8635 53.0038 42.8635L55.4081 34.5408C55.4698 34.5408 53.1887 32.8763 50.4762 33.1846Z" fill="#BF8748"/>
<path d="M70.825 88.0522C70.825 88.0522 69.1605 85.4629 67.9275 81.5174C66.1397 75.7223 64.6601 67.7696 64.6601 67.7696C64.6601 67.7696 61.2694 77.88 49.0628 78.4349C37.0412 78.9897 30.8146 67.5229 30.8146 67.5229L27.8555 67.9545C27.8555 67.9545 29.1501 71.4069 29.4583 74.0578C29.7666 76.5238 29.0884 78.1266 28.7185 78.4965C27.8554 79.298 34.7602 96.868 34.7602 96.868C34.7602 96.868 35.1301 99.334 36.2398 101.06C37.1028 102.355 38.7057 103.095 38.7057 103.095C38.7057 103.095 50.2958 103.095 59.1117 100.382C66.263 98.1627 70.9483 92.9841 70.9483 92.9841C70.9483 92.9841 72.058 92.2443 71.9964 91.1963C71.9964 89.84 70.825 88.0522 70.825 88.0522Z" fill="#CC9E73"/>
<path d="M55.4755 89.4703C55.1056 89.6552 59.421 88.2373 61.5788 89.4086C63.1816 90.2717 62.7501 93.7241 62.7501 93.7241C62.7501 93.7241 66.449 84.0451 55.4755 89.4703Z" fill="#BD8545"/>
<path d="M53.8695 80.6543C49.3691 81.0859 44.1289 80.1611 44.1289 80.1611C44.1289 80.1611 50.4172 85.3397 55.5957 84.4149C58.8015 83.8601 60.5276 78.4966 60.5276 78.4966C60.5276 78.4966 57.5068 80.2844 53.8695 80.6543Z" fill="white"/>
<path d="M82.2911 41.6915C82.2911 41.6915 77.1125 62.9605 79.8251 99.6419C80.5649 109.506 83.5241 116.287 83.5241 116.287L92.7715 107.04L100.786 36.1431L82.2911 41.6915Z" fill="#F5B889"/>
<path d="M32.3579 178.553C31.7414 177.32 6.46519 142.18 6.46519 142.18C6.46519 142.18 2.39633 146.249 0.91675 153.894C-0.686133 161.97 0.300256 173.621 0.300256 173.621C0.300256 173.621 1.71819 186.629 7.69817 191.5C14.8495 197.356 26.8095 195.199 26.8095 195.199C26.8095 195.199 32.9744 179.786 32.3579 178.553Z" fill="#EEEEEE"/>
<path d="M186.483 39.2258C183.585 33.3075 171.687 42.3083 171.687 42.3083L153.809 113.205L164.289 111.355C164.289 111.355 173.598 104.944 176.002 99.6421C179.085 92.8607 171.687 91.6277 171.687 91.6277C171.687 91.6277 178.283 84.9696 179.085 80.5308C179.825 76.3387 174.769 74.3659 174.769 74.3659C174.769 74.3659 180.441 70.1121 182.167 65.735C183.832 61.4812 181.551 57.1041 181.551 57.1041C181.551 57.1041 189.565 45.5757 186.483 39.2258Z" fill="#F9C89F"/>
<path d="M167.366 148.961C166.442 137.495 162.434 125.535 162.434 125.535L128.527 168.073C128.527 168.073 143.631 176.95 154.42 175.471C163.236 174.238 165.517 164.374 165.517 164.374C165.517 164.374 167.86 155.373 167.366 148.961Z" fill="#E6E6E6"/>
<path d="M175.939 15.9219C174.46 11.4832 167.987 9.01718 167.987 9.01718L111.886 1.00277C111.886 1.00277 106.029 0.817825 102.638 3.46875C98.9393 6.36626 97.7063 12.0996 97.7063 12.0996L77.9785 145.879C77.9785 145.879 76.9921 152.845 79.828 156.976C82.8488 161.476 89.6919 163.14 89.6919 163.14L142.094 170.538C142.094 170.538 148.629 171.217 152.574 168.072C156.335 165.113 157.506 158.209 157.506 158.209L177.234 24.4295C177.296 24.4295 177.296 19.9291 175.939 15.9219Z" fill="#3A3940"/>
<path d="M171.683 18.2646C170.45 16.6 167.984 16.4151 167.984 16.4151L107.567 7.78418C107.567 7.78418 105.04 7.84583 103.868 9.01717C102.574 10.3118 102.635 12.7161 102.635 12.7161L83.5241 144.029C83.5241 144.029 82.8459 146.803 83.5241 148.345C84.3255 150.132 86.6065 150.811 86.6065 150.811L145.79 159.441C145.79 159.441 149.304 160.181 151.338 158.825C153.003 157.715 153.188 154.51 153.188 154.51L172.299 25.046C172.299 25.046 172.916 19.9907 171.683 18.2646Z" fill="#D0D9F7"/>
<g clip-path="url(#clip1_295_19361)">
<path d="M124.215 151.427C131.706 151.427 137.778 145.419 137.778 138.008C137.778 130.598 131.706 124.59 124.215 124.59C116.725 124.59 110.652 130.598 110.652 138.008C110.652 145.419 116.725 151.427 124.215 151.427Z" fill="#FCE8E3"/>
<path d="M127.796 136.241H120.621V144.261H127.796V136.241Z" fill="#F9C7A2"/>
<path d="M131.237 130.611C130.841 129.674 130.032 130.135 130.032 130.135C130.501 125.878 128.311 123.068 124.21 123.068C120.109 123.068 117.919 125.878 118.386 130.135C118.386 130.135 117.577 129.676 117.181 130.611C116.785 131.546 117.509 133.744 117.956 134.443C118.403 135.14 119.195 135.669 119.195 135.669C119.195 135.669 119.246 136.453 119.453 136.996C119.659 137.542 121.999 140.047 122.687 140.429C123.588 140.955 124.92 140.955 125.729 140.429C126.416 140.047 128.759 137.542 128.963 136.996C129.169 136.45 129.22 135.669 129.22 135.669C129.22 135.669 130.012 135.14 130.459 134.443C130.906 133.746 131.631 131.549 131.234 130.611H131.237Z" fill="#F9C89F"/>
<path d="M124.245 140.909C123.682 140.909 123.106 140.775 122.642 140.506C122.226 140.275 121.267 139.325 120.555 138.542L120.691 138.421C121.417 139.219 122.353 140.138 122.734 140.349C123.606 140.857 124.902 140.859 125.681 140.352C126.07 140.135 127.006 139.217 127.73 138.421L127.866 138.542C127.151 139.325 126.194 140.272 125.776 140.506C125.363 140.775 124.812 140.909 124.245 140.909Z" fill="#C46966"/>
<path d="M119.06 133.83L118.879 133.852L119.106 135.677L119.287 135.655L119.06 133.83Z" fill="#C46966"/>
<path d="M129.346 133.832L129.141 135.658L129.322 135.678L129.527 133.852L129.346 133.832Z" fill="#C46966"/>
<path d="M117.707 132.717C117.668 132.58 117.347 131.359 117.792 131.025C117.94 130.931 118.059 130.941 118.134 130.965C118.36 131.037 118.475 131.316 118.487 131.347L118.317 131.412C118.292 131.35 118.2 131.177 118.079 131.138C118.023 131.119 117.962 131.133 117.896 131.174C117.641 131.366 117.751 132.196 117.882 132.672L117.707 132.72V132.717Z" fill="#C46966"/>
<path d="M130.706 132.717L130.531 132.669C130.662 132.193 130.774 131.364 130.511 131.169C130.451 131.13 130.39 131.118 130.334 131.135C130.188 131.183 130.096 131.407 130.096 131.409L129.926 131.344C129.938 131.313 130.052 131.037 130.278 130.962C130.353 130.938 130.475 130.929 130.616 131.02C131.065 131.356 130.745 132.578 130.706 132.715V132.717Z" fill="#C46966"/>
<path d="M118.969 132.373C120.187 132.381 119.266 128.493 120.221 127.551C120.707 127.073 121.414 127.152 122.021 127.304C122.728 127.481 123.46 127.724 124.205 127.743C124.995 127.765 125.746 127.477 126.504 127.296C127.092 127.154 127.731 127.092 128.198 127.551C129.152 128.491 128.232 132.378 129.449 132.373C129.364 131.474 129.361 130.491 130.03 130.135C130.501 125.878 128.312 123.068 124.21 123.068C120.109 123.068 117.92 125.878 118.386 130.135C118.928 130.484 119.052 131.433 118.967 132.373H118.969Z" fill="#4C224B"/>
<path d="M135.803 144.977C131.974 143.287 127.8 142.688 127.8 142.688C125.885 144.664 122.316 144.691 120.625 142.688C120.625 142.688 116.45 143.287 112.621 144.977C115.002 148.842 119.303 151.427 124.213 151.427C129.124 151.427 133.425 148.845 135.806 144.977H135.803Z" fill="#F4BA5D"/>
<path d="M119.652 142.825L120.622 141.104L123.761 143.893L121.842 145.974L119.652 142.825Z" fill="white"/>
<path d="M128.761 142.825L127.792 141.104L124.652 143.893L126.574 145.974L128.761 142.825Z" fill="white"/>
</g>
<g clip-path="url(#clip2_295_19361)">
<path d="M132.35 103.755C134.697 93.7201 128.54 83.6651 118.599 81.2966C108.657 78.9282 98.6964 85.1431 96.35 95.1781C94.0037 105.213 100.161 115.268 110.102 117.637C120.043 120.005 130.004 113.79 132.35 103.755Z" fill="#FCE8E3"/>
<path d="M119.823 97.0093H108.859V108.167H119.823V97.0093Z" fill="#F9C89F"/>
<path d="M123.929 89.1758C123.389 87.8715 122.285 88.5136 122.285 88.5136C122.925 82.5904 119.94 78.6807 114.347 78.6807C108.754 78.6807 105.769 82.5904 106.405 88.5136C106.405 88.5136 105.302 87.8748 104.761 89.1758C104.221 90.4802 105.209 93.5338 105.818 94.507C106.428 95.477 107.508 95.2495 107.508 95.2495C107.508 95.2495 107.578 97.3031 107.859 98.0623C108.141 98.8215 110.103 103.387 114.344 103.387C118.585 103.387 120.546 98.8215 120.828 98.0623C121.109 97.3031 121.179 95.1659 121.179 95.1659C121.179 95.1659 122.259 95.4803 122.869 94.507C123.478 93.5371 124.466 90.4802 123.926 89.1758H123.929Z" fill="#F9C89F"/>
<path d="M114.346 103.507C111.678 103.507 109.213 100.617 108.746 100.039L108.938 99.8813C109.392 100.447 111.791 103.256 114.346 103.256C116.9 103.256 119.286 100.487 119.733 99.9315L119.925 100.089C119.465 100.661 117.033 103.507 114.346 103.507Z" fill="#C46966"/>
<path d="M107.529 93.6615L107.281 93.6782L107.386 95.2567L107.634 95.24L107.529 93.6615Z" fill="#C46966"/>
<path d="M121.181 93.6612L121.062 95.1548L121.31 95.1747L121.428 93.6811L121.181 93.6612Z" fill="#C46966"/>
<path d="M105.493 92.1158C105.135 90.7244 105.192 89.8716 105.669 89.4268L105.838 89.6107C105.44 89.982 105.404 90.778 105.735 92.0522L105.493 92.1158Z" fill="#C46966"/>
<path d="M123.255 92.1158L123.013 92.0522C123.341 90.778 123.308 89.9786 122.91 89.6107L123.079 89.4268C123.56 89.8716 123.616 90.7244 123.255 92.1158Z" fill="#C46966"/>
<path d="M123.359 83.0018C121.288 81.3128 119.221 79.6305 117.621 79.2191C116.66 78.868 115.566 78.6807 114.347 78.6807C110.543 78.6807 107.366 79.8613 106.876 83.5035C105.143 84.2426 105.461 87.0955 105.829 88.3564C105.829 88.3564 106.123 88.3497 106.405 88.5136C107.144 88.9986 107.313 90.3197 107.197 91.6274C108.857 91.6374 107.601 86.2293 108.903 84.9182C113.833 88.0521 120.41 86.3999 120.41 86.3999C120.596 88.44 120.324 91.6307 121.49 91.6274C121.374 90.3765 121.371 89.0086 122.282 88.5136C122.408 87.3263 122.388 86.2226 122.236 85.2159C122.812 84.6707 123.313 83.9349 123.356 83.0018H123.359Z" fill="#F4BA5D"/>
<path d="M110.104 95.1929C108.209 95.1929 106.668 93.6377 106.668 91.7246C106.668 89.8116 108.209 88.2563 110.104 88.2563C111.999 88.2563 113.54 89.8116 113.54 91.7246C113.54 93.6377 111.999 95.1929 110.104 95.1929ZM110.104 88.5038C108.344 88.5038 106.916 89.9487 106.916 91.7213C106.916 93.4939 108.348 94.9387 110.104 94.9387C111.86 94.9387 113.291 93.4939 113.291 91.7213C113.291 89.9487 111.86 88.5038 110.104 88.5038Z" fill="white"/>
<path d="M118.592 95.1929C116.697 95.1929 115.156 93.6377 115.156 91.7246C115.156 89.8116 116.697 88.2563 118.592 88.2563C120.487 88.2563 122.028 89.8116 122.028 91.7246C122.028 93.6377 120.487 95.1929 118.592 95.1929ZM118.592 88.5038C116.833 88.5038 115.405 89.9487 115.405 91.7213C115.405 93.4939 116.836 94.9387 118.592 94.9387C120.348 94.9387 121.78 93.4939 121.78 91.7213C121.78 89.9487 120.348 88.5038 118.592 88.5038Z" fill="white"/>
<path d="M115.298 90.9722C114.947 90.6445 114.543 90.4806 114.162 90.5174C113.857 90.5475 113.599 90.698 113.41 90.9555L113.211 90.805C113.44 90.4939 113.768 90.3033 114.139 90.2665C114.589 90.223 115.063 90.407 115.467 90.7849L115.298 90.9689V90.9722Z" fill="white"/>
<path d="M130.151 109.163C124.929 106.812 119.84 105.979 119.84 105.979C117.229 108.728 111.173 108.768 108.863 105.979C108.863 105.979 103.761 106.812 98.5391 109.163C101.786 114.541 107.651 118.136 114.347 118.136C121.043 118.136 126.907 114.544 130.154 109.163H130.151Z" fill="#94A5E4"/>
<path d="M114.169 109.674C111.14 109.674 108.513 108.417 106.84 106.457L107.029 106.293C110.05 109.831 116.26 111.009 122.276 106.413L122.426 106.614C119.606 108.768 116.743 109.674 114.169 109.674Z" fill="#6C82BC"/>
</g>
<g clip-path="url(#clip3_295_19361)">
<path d="M134.08 81.7633C146.338 81.7633 156.274 71.9164 156.274 59.7696C156.274 47.6228 146.338 37.7759 134.08 37.7759C121.823 37.7759 111.887 47.6228 111.887 59.7696C111.887 71.9164 121.823 81.7633 134.08 81.7633Z" fill="#FCE8E3"/>
<path d="M147.004 58.0045C148.574 48.9501 144.813 37.4411 134.464 36.7831C131.164 36.5742 127.939 37.776 126.273 40.0967C120.564 42.3268 120.083 52.2638 120.723 55.6838C122.472 65.0613 114.039 63.4458 116.178 72.2481L133.804 71.2867H134.48L151.791 71.5073C153.25 64.8682 146.288 65.3135 147 58.0085L147.004 58.0045Z" fill="#4C224B"/>
<path d="M139.268 56.874H128.871V70.0183H139.268V56.874Z" fill="#F9C89F"/>
<path d="M153.154 71.0107C148.26 68.9737 139.334 67.437 139.334 67.437C135.906 70.2975 131.573 70.2778 128.877 67.437C128.877 67.437 119.836 68.7648 114.734 70.5339C118.38 76.9524 125.179 81.3771 133.056 81.7317C133.409 81.7436 133.759 81.7554 134.117 81.7554C142.216 81.7436 149.293 77.4331 153.158 71.0068L153.154 71.0107Z" fill="#D85D63"/>
<path d="M143.274 55.2861C142.888 55.2861 142.574 55.8417 142.574 56.5233C142.574 57.205 142.888 57.7605 143.274 57.7605C143.66 57.7605 143.974 57.205 143.974 56.5233C143.974 55.8417 143.66 55.2861 143.274 55.2861ZM143.274 57.2207C143.008 57.2207 142.793 56.8385 142.793 56.3697C142.793 55.9008 143.008 55.5186 143.274 55.5186C143.54 55.5186 143.755 55.9008 143.755 56.3697C143.755 56.8385 143.54 57.2207 143.274 57.2207Z" fill="white"/>
<path d="M124.133 56.5233C124.133 57.205 124.447 57.7605 124.833 57.7605C125.218 57.7605 125.532 57.205 125.532 56.5233C125.532 55.8417 125.218 55.2861 124.833 55.2861C124.447 55.2861 124.133 55.8417 124.133 56.5233ZM124.351 56.3657C124.351 55.8968 124.566 55.5147 124.833 55.5147C125.099 55.5147 125.314 55.8968 125.314 56.3657C125.314 56.8346 125.099 57.2168 124.833 57.2168C124.566 57.2168 124.351 56.8346 124.351 56.3657Z" fill="white"/>
<path d="M134.064 40.9556C127.361 40.9634 125.838 45.9359 125.977 50.9438C125.977 54.5529 125.953 57.2164 126.291 58.1069C126.629 58.9974 128.979 64.3677 134.06 64.3796C139.142 64.3717 141.491 59.0013 141.829 58.1069C142.167 57.2125 142.147 54.5529 142.147 50.9438C142.287 45.9359 140.764 40.9634 134.06 40.9556H134.064Z" fill="#F9C89F"/>
<path d="M134.062 64.5296C132.07 64.5296 130.273 63.7219 128.719 62.1458L128.933 61.9409C130.428 63.4618 132.154 64.2341 134.062 64.238C135.939 64.238 137.641 63.4854 139.12 62.0158L139.331 62.2246C137.796 63.7534 136.023 64.5296 134.062 64.5335V64.5296Z" fill="#C46966"/>
<path d="M126.269 50.7744C126.269 50.7744 124.921 48.8083 123.537 49.9588C122.154 51.1093 123.502 57.6342 126.269 56.4837C129.036 55.3331 126.269 50.7744 126.269 50.7744Z" fill="#F9C89F"/>
<path d="M141.882 50.7744C141.882 50.7744 143.23 48.8083 144.614 49.9588C145.997 51.1093 144.649 57.6342 141.882 56.4837C139.115 55.3331 141.882 50.7744 141.882 50.7744Z" fill="#F9C89F"/>
<path d="M126.047 54.4386L125.75 54.4604L125.908 56.5705L126.205 56.5487L126.047 54.4386Z" fill="#C46966"/>
<path d="M142.105 54.2114L141.93 56.5454L142.227 56.5674L142.402 54.2334L142.105 54.2114Z" fill="#C46966"/>
<path d="M124.229 53.335C123.911 52.287 123.907 51.5581 124.221 51.1719C124.452 50.8843 124.774 50.9001 124.786 50.9001L124.766 51.1956L124.774 51.0498L124.766 51.1956C124.766 51.1956 124.583 51.1877 124.448 51.3611C124.313 51.5344 124.138 52.0151 124.512 53.2523L124.225 53.339L124.229 53.335Z" fill="#C46966"/>
<path d="M144.033 53.3357L143.747 53.249C144.121 52.0118 143.95 51.5351 143.811 51.3578C143.675 51.1844 143.5 51.1923 143.492 51.1923L143.477 50.8968C143.477 50.8968 143.807 50.8771 144.041 51.1686C144.355 51.5587 144.351 52.2876 144.033 53.3318V53.3357Z" fill="#C46966"/>
<path d="M125.425 56.8461C125.377 56.8461 125.326 56.8382 125.282 56.8303C125.27 56.8303 125.258 56.8185 125.25 56.8106C125.166 57.0549 125.015 57.2204 124.84 57.2204C124.574 57.2204 124.359 56.8382 124.359 56.3694C124.359 55.9005 124.574 55.5222 124.836 55.5183C124.996 55.4986 124.956 55.2819 124.836 55.2898C124.451 55.2898 124.137 55.8453 124.137 56.527C124.137 57.2086 124.451 57.7642 124.836 57.7642C125.159 57.7642 125.429 57.3741 125.512 56.85C125.485 56.85 125.457 56.85 125.425 56.85V56.8461Z" fill="white"/>
<path d="M143.281 55.2862C143.161 55.2822 143.122 55.499 143.281 55.5147C143.547 55.5147 143.758 55.8969 143.758 56.3658C143.758 56.8347 143.543 57.2168 143.277 57.2168C143.129 57.2168 142.998 57.0947 142.911 56.9056C142.887 56.9253 142.863 56.945 142.835 56.9647C142.776 57.0001 142.716 57.0356 142.652 57.0711C142.768 57.4769 143.002 57.7606 143.277 57.7606C143.662 57.7606 143.976 57.205 143.976 56.5234C143.976 55.8417 143.666 55.2901 143.277 55.2862H143.281Z" fill="white"/>
<path d="M125.927 50.3726C125.863 46.8541 128.515 45.0259 128.515 45.0259C130.901 49.1709 137.477 50.5775 143.485 48.5207C143.485 48.5207 142.9 38.5641 133.517 39.1472C124.134 39.7303 125.931 50.3687 125.931 50.3687L125.927 50.3726Z" fill="#4C224B"/>
</g>
<path opacity="0.1" d="M109.623 66.8791C123.275 63.6556 131.728 49.9753 128.505 36.3235C125.281 22.6717 111.601 14.2179 97.9493 17.4415C84.2975 20.6651 75.8437 34.3453 79.0673 47.9971C82.2909 61.649 95.9711 70.1027 109.623 66.8791Z" fill="#3A3940"/>
<g clip-path="url(#clip4_295_19361)">
<path d="M99.2453 63.8854C113.035 63.8854 124.213 52.7056 124.213 38.9146C124.213 25.1236 113.035 13.9438 99.2453 13.9438C85.4559 13.9438 74.2773 25.1236 74.2773 38.9146C74.2773 52.7056 85.4559 63.8854 99.2453 63.8854Z" fill="#FCE8E3"/>
<path d="M99.1668 45.7277C103.282 45.7277 106.619 45.255 106.619 44.6719C106.619 44.0889 103.282 43.6162 99.1668 43.6162C95.0512 43.6162 91.7148 44.0889 91.7148 44.6719C91.7148 45.255 95.0512 45.7277 99.1668 45.7277Z" fill="#94A5E4"/>
<path d="M105.849 35.6265H92.6406V50.5499H105.849V35.6265Z" fill="#F9C89F"/>
<path d="M112.585 25.955C111.834 24.1567 110.299 25.0424 110.299 25.0424C111.185 16.8739 107.03 11.4834 99.2468 11.4834C91.4639 11.4834 87.3086 16.8739 88.1942 25.0424C88.1942 25.0424 86.66 24.1611 85.9085 25.955C85.1571 27.7488 86.5303 31.9628 87.3801 33.3049C88.23 34.6424 89.7329 35.6579 89.7329 35.6579C89.7329 35.6579 89.8313 37.161 90.2249 38.2078C90.6185 39.2545 95.0602 44.059 96.3663 44.7927C98.0794 45.7992 100.602 45.7992 102.141 44.7927C103.447 44.059 107.889 39.2501 108.282 38.2078C108.676 37.161 108.774 35.6579 108.774 35.6579C108.774 35.6579 110.277 34.6469 111.127 33.3049C111.977 31.9673 113.346 27.7533 112.599 25.955H112.585Z" fill="#F9C89F"/>
<path d="M86.9192 29.9901C86.8476 29.7262 86.2348 27.3866 87.0757 26.7513C87.353 26.5724 87.5812 26.5903 87.7243 26.635C88.1582 26.7782 88.3773 27.3374 88.3908 27.3642L88.0777 27.485C88.0285 27.3642 87.8585 27.0287 87.6214 26.9571C87.5141 26.9213 87.3978 26.9437 87.2725 27.0287C86.785 27.4 86.9952 28.9925 87.2457 29.9051L86.9236 29.9946L86.9192 29.9901Z" fill="#C46966"/>
<path d="M111.577 29.99L111.254 29.9005C111.433 29.2429 111.778 27.4401 111.219 27.0151C111.102 26.9391 110.986 26.9167 110.879 26.9525C110.646 27.0286 110.472 27.3596 110.422 27.4804L110.109 27.3596C110.118 27.3372 110.337 26.7736 110.776 26.6304C110.919 26.5857 111.147 26.5633 111.411 26.7378C112.261 27.382 111.653 29.7216 111.581 29.9855L111.577 29.99Z" fill="#C46966"/>
<path d="M99.2446 11.4834C91.4572 11.4834 87.3063 16.8739 88.192 25.0424C89.2208 25.7134 89.4578 27.5341 89.2968 29.3369C89.2968 29.3369 88.9524 35.0763 90.084 37.7872C91.2112 40.4937 93.1793 44.7256 99.2446 44.6763C105.31 44.73 107.278 40.4982 108.405 37.7872C109.532 35.0808 109.192 29.3369 109.192 29.3369C109.031 27.6146 109.027 25.7224 110.297 25.0424C111.183 16.8739 107.028 11.4834 99.2446 11.4834ZM107.766 24.0314C107.766 24.0314 107.614 31.5244 106.459 33.1662C105.301 34.8079 105.663 31.1666 99.2491 31.1039C92.8349 31.0413 93.1927 34.8079 92.0342 33.1662C90.8802 31.5289 90.7281 24.0627 90.7281 24.0314C90.8042 22.3762 90.9652 20.7926 91.6764 20.0858C92.5978 19.1688 93.9442 19.3164 95.0937 19.6116C96.4356 19.9561 97.8222 20.4169 99.2402 20.4527C100.739 20.4929 102.165 19.9427 103.601 19.5938C104.72 19.3253 105.932 19.2046 106.817 20.0858C107.529 20.7971 107.69 22.3762 107.766 24.0359V24.0314Z" fill="#4C224B"/>
<path d="M121.839 49.5476C115.581 48.0311 106.618 47.624 106.618 47.624C101.993 51.3012 95.8065 51.3504 91.7138 47.624C91.7138 47.624 82.9155 48.1966 76.707 49.6729C80.7237 58.0785 89.3073 63.885 99.2417 63.885C109.23 63.885 117.84 58.0203 121.835 49.5476H121.839Z" fill="#94A5E4"/>
<path d="M91.7148 44.6714V48.4067C97.0019 52.3076 101.976 52.3612 106.619 48.4067V44.6714C103.989 46.3758 93.4011 46.1431 91.7148 44.6714Z" fill="#94A5E4"/>
<path d="M98.9882 49.9143C98.2635 49.9143 97.5434 49.883 96.8456 49.8204C95.4635 49.6996 92.1803 49.2568 91.5586 47.785L91.8672 47.6553C92.2474 48.5589 94.1216 49.2433 96.8769 49.4849C100.697 49.8204 105.452 49.2075 106.476 47.6284L106.758 47.8118C105.845 49.221 102.41 49.9099 98.9882 49.9099V49.9143Z" fill="#6C82BC"/>
<path d="M99.0155 46.8054C97.6602 46.8054 96.3406 46.7428 95.2627 46.6264C93.3661 46.4251 92.2345 46.0941 91.8945 45.6378L92.1629 45.4365C92.2882 45.6065 92.8517 46.0315 95.2984 46.2909C99.181 46.7025 105.09 46.3715 106.19 45.4097L106.409 45.6602C105.488 46.4654 102.155 46.8009 99.011 46.8009L99.0155 46.8054Z" fill="#6C82BC"/>
</g>
<path d="M91.5366 120.602C89.9953 118.383 83.5222 119.986 83.5222 119.986L31.7367 148.961C31.7367 148.961 26.6198 150.749 23.7223 147.728C17.8656 141.563 19.4069 129.233 19.4069 129.233C19.4069 129.233 20.5166 124.24 20.0234 120.602C19.6535 117.89 17.5574 116.287 17.5574 116.287C17.5574 116.287 15.9545 114.438 14.4749 114.438C12.6254 114.438 10.776 116.287 10.776 116.287L5.84402 141.563C5.84402 141.563 4.85763 147.543 5.22753 150.811C5.72072 155.373 7.07701 160.058 7.07701 160.058C7.07701 160.058 9.29638 171.956 13.8584 181.019C17.9273 189.156 24.3388 194.582 24.3388 194.582C24.3388 194.582 30.5654 200.5 37.9017 201.98C44.0049 203.213 51.4645 200.13 51.4645 200.13C51.4645 200.13 57.3212 197.602 62.5614 194.582C67.4317 191.746 71.8088 188.417 71.8088 188.417C71.8088 188.417 77.4805 184.594 76.7407 178.553C76.0626 172.819 70.5758 173.004 70.5758 173.004C70.5758 173.004 74.0898 169.182 71.8088 164.373C69.8977 160.305 63.7944 161.291 63.7944 161.291C63.7944 161.291 67.8632 158.578 65.6439 153.277C63.1779 147.42 57.6294 149.578 57.6294 149.578L90.3036 128C90.3036 128 94.3108 124.61 91.5366 120.602Z" fill="#FFDFC6"/>
<path d="M90.9201 122.452C89.3789 120.232 84.1387 121.835 84.1387 121.835L30.5037 151.427C30.5037 151.427 25.5718 154.879 21.8728 150.811C16.1395 144.522 16.9409 133.549 16.9409 133.549C16.9409 133.549 18.3588 126.767 18.1739 122.452C18.0506 119.863 16.3244 118.753 16.3244 118.753C16.3244 118.753 14.7215 115.67 13.2419 115.67C11.3925 115.67 10.776 116.287 10.776 116.287L5.84402 141.563C5.84402 141.563 4.85763 147.543 5.22753 150.811C5.72072 155.373 7.07701 160.058 7.07701 160.058C7.07701 160.058 9.29638 171.956 13.8584 181.019C17.9273 189.156 24.3388 194.582 24.3388 194.582C24.3388 194.582 30.5654 200.5 37.9017 201.979C44.005 203.212 51.4645 200.13 51.4645 200.13C51.4645 200.13 57.3212 197.602 62.5614 194.582C67.4317 191.746 71.8088 188.417 71.8088 188.417C71.8088 188.417 76.4941 185.211 75.5078 179.169C74.6447 174.114 70.5758 173.004 70.5758 173.004C70.5758 173.004 72.8568 169.799 70.5758 164.99C68.6647 160.921 63.7944 161.291 63.7944 161.291C63.7944 161.291 66.2604 159.688 63.7944 154.509C61.5134 149.824 57.6295 149.578 57.6295 149.578L90.3036 128C90.3036 128 93.6943 126.459 90.9201 122.452Z" fill="#F9C89F"/>
<path d="M64.7163 12.2157C66.1163 11.6157 68.0163 12.3157 68.6163 13.7157C69.2163 15.1157 68.5163 17.0157 67.1163 17.6157C65.7163 18.2157 63.8163 17.5157 63.2163 16.1157C62.6163 14.7157 63.3163 12.8157 64.7163 12.2157Z" stroke="#213860" stroke-miterlimit="10" stroke-linecap="round" stroke-linejoin="round"/>
</g>
<defs>
<clipPath id="clip0_295_19361">
<rect width="187" height="205" fill="white"/>
</clipPath>
<clipPath id="clip1_295_19361">
<rect width="27.1257" height="28.3587" fill="white" transform="translate(110.648 123.068)"/>
</clipPath>
<clipPath id="clip2_295_19361">
<rect width="36.9896" height="39.4556" fill="white" transform="translate(95.8555 78.6812)"/>
</clipPath>
<clipPath id="clip3_295_19361">
<rect width="44.3875" height="45.004" fill="white" transform="translate(111.887 36.7593)"/>
</clipPath>
<clipPath id="clip4_295_19361">
<rect width="49.9359" height="52.4019" fill="white" transform="translate(74.2773 11.4829)"/>
</clipPath>
</defs>
</svg>
