<svg width="50" height="32" viewBox="0 0 50 32" fill="none" xmlns="http://www.w3.org/2000/svg">
<g id="Sepa">
<g id="Sepa_2">
<rect id="Rectangle" width="50" height="32" rx="3" fill="#10298E"/>
<g id="Group">
<g id="Group_2">
<path id="path5457" d="M6.04492 23.513V22.165H7.0479V22.3932H6.3181V22.692H6.99722V22.9191H6.3181V23.2859H7.07386V23.513H6.04492Z" fill="white"/>
<path id="path5459" d="M7.31641 22.165H7.57574V22.404H7.31641V22.165ZM7.31641 22.5365H7.57574V23.513H7.31641V22.5365Z" fill="white"/>
<path id="path5471" d="M8.74575 23.5131H8.48642V23.0147C8.48642 22.9093 8.48098 22.8411 8.46985 22.81C8.45873 22.7792 8.44093 22.7553 8.41596 22.7381C8.39099 22.7208 8.36108 22.7122 8.32597 22.7122C8.28098 22.7122 8.24068 22.7245 8.20508 22.7492C8.16948 22.7736 8.14476 22.8061 8.13165 22.8465C8.1183 22.8869 8.11188 22.9618 8.11188 23.0706V23.5131H7.85254V22.5366H8.09333V22.6799C8.17887 22.5698 8.28666 22.5146 8.41645 22.5146C8.47356 22.5146 8.52573 22.5247 8.57319 22.5454C8.62066 22.5659 8.65626 22.5922 8.68073 22.624C8.70496 22.6558 8.72202 22.692 8.73142 22.7324C8.74106 22.7728 8.74575 22.831 8.74575 22.9063V23.5131Z" fill="white"/>
<path id="path5475" d="M9.28082 22.165V22.6607C9.36438 22.5631 9.46451 22.5144 9.5807 22.5144C9.64028 22.5144 9.69418 22.5254 9.74214 22.5476C9.7901 22.5695 9.82619 22.5979 9.85067 22.6321C9.8749 22.6664 9.89146 22.7045 9.90036 22.7462C9.90926 22.7878 9.91371 22.8526 9.91371 22.9403V23.513H9.65462V22.9972C9.65462 22.8947 9.64968 22.8299 9.63979 22.8021C9.6299 22.7747 9.61259 22.7528 9.58762 22.7366C9.56265 22.7203 9.5315 22.7122 9.49393 22.7122C9.45091 22.7122 9.41234 22.7225 9.37872 22.7432C9.34485 22.7641 9.32013 22.7957 9.30431 22.8376C9.28873 22.8797 9.28082 22.9418 9.28082 23.0238V23.513H9.02148V22.165H9.28082Z" fill="white"/>
<path id="path5479" d="M10.7575 23.2024L11.0159 23.2458C10.9828 23.3401 10.9301 23.4118 10.8586 23.4613C10.787 23.5106 10.6972 23.5353 10.5897 23.5353C10.4191 23.5353 10.293 23.4798 10.2112 23.3687C10.1466 23.28 10.1143 23.168 10.1143 23.0325C10.1143 22.8706 10.1568 22.7437 10.2418 22.6521C10.3266 22.5605 10.4339 22.5146 10.5637 22.5146C10.7096 22.5146 10.8245 22.5627 10.9088 22.6585C10.9931 22.7546 11.0334 22.9014 11.0297 23.0995H10.38C10.382 23.1761 10.4028 23.2357 10.4428 23.2783C10.4829 23.3209 10.5328 23.3421 10.5924 23.3421C10.6329 23.3421 10.667 23.3313 10.6947 23.3091C10.7224 23.2869 10.7434 23.2515 10.7575 23.2024ZM10.7724 22.9413C10.7704 22.8664 10.7511 22.8098 10.7143 22.7708C10.6772 22.7319 10.6324 22.7125 10.5795 22.7125C10.5229 22.7125 10.4762 22.7329 10.4391 22.774C10.4023 22.8149 10.3842 22.8709 10.3847 22.9413H10.7724Z" fill="white"/>
<path id="path5481" d="M11.2539 22.165H11.5132V22.404H11.2539V22.165ZM11.2539 22.5365H11.5132V23.513H11.2539V22.5365Z" fill="white"/>
<path id="path5485" d="M12.2411 22.5368V22.7427H12.0638V23.1364C12.0638 23.2159 12.0655 23.2625 12.069 23.2756L12.092 23.3083L12.136 23.3211C12.16 23.3211 12.1946 23.3128 12.2401 23.2963L12.2623 23.4968C12.202 23.5224 12.1338 23.5352 12.0574 23.5352C12.0107 23.5352 11.9686 23.5276 11.9311 23.5118C11.8935 23.4963 11.866 23.4761 11.8485 23.4512C11.8309 23.4263 11.8188 23.3928 11.8119 23.3505C11.8065 23.3206 11.8037 23.2598 11.8037 23.1684V22.7427H11.6846V22.5368H11.8037V22.3427L12.0638 22.1919V22.5368H12.2411Z" fill="white"/>
<path id="path5487" d="M12.4346 22.165H12.6939V23.513H12.4346V22.165Z" fill="white"/>
<path id="path5489" d="M12.9727 22.165H13.232V22.404H12.9727V22.165ZM12.9727 22.5365H13.232V23.513H12.9727V22.5365Z" fill="white"/>
<path id="path5493" d="M14.3659 22.8255L14.1102 22.8716C14.1016 22.8206 14.082 22.7824 14.0516 22.7566C14.0212 22.7309 13.9817 22.7179 13.9332 22.7179C13.8684 22.7179 13.817 22.7403 13.7785 22.7846C13.7401 22.829 13.7209 22.9034 13.7209 23.0076C13.7209 23.1234 13.7404 23.2054 13.7794 23.2532C13.8185 23.301 13.8709 23.3246 13.9367 23.3246C13.9861 23.3246 14.0262 23.3108 14.0576 23.283C14.089 23.2552 14.1112 23.2071 14.1241 23.1391L14.3787 23.1822C14.3523 23.2988 14.3016 23.3867 14.2264 23.4461C14.1515 23.5057 14.0509 23.5353 13.9248 23.5353C13.7814 23.5353 13.6672 23.4902 13.5819 23.4003C13.4969 23.3101 13.4541 23.1854 13.4541 23.0261C13.4541 22.8647 13.4969 22.7393 13.5824 22.6494C13.6679 22.5597 13.7836 22.5146 13.9295 22.5146C14.0487 22.5146 14.1436 22.5403 14.2141 22.5915C14.2845 22.6427 14.3352 22.7206 14.3659 22.8255Z" fill="white"/>
<path id="path5497" d="M14.8336 22.165V22.6607C14.9171 22.5631 15.0172 22.5144 15.1334 22.5144C15.193 22.5144 15.2469 22.5254 15.2949 22.5476C15.3428 22.5695 15.3789 22.5979 15.4034 22.6321C15.4276 22.6664 15.4442 22.7045 15.4531 22.7462C15.462 22.7878 15.4664 22.8526 15.4664 22.9403V23.513H15.2074V22.9972C15.2074 22.8947 15.2024 22.8299 15.1925 22.8021C15.1826 22.7747 15.1653 22.7528 15.1404 22.7366C15.1154 22.7203 15.0842 22.7122 15.0467 22.7122C15.0036 22.7122 14.9651 22.7225 14.9315 22.7432C14.8976 22.7641 14.8726 22.7957 14.857 22.8376C14.8415 22.8797 14.8336 22.9418 14.8336 23.0238V23.513H14.5742V22.165H14.8336Z" fill="white"/>
<path id="path5501" d="M16.31 23.2024L16.5684 23.2458C16.5352 23.3401 16.4826 23.4118 16.4111 23.4613C16.3394 23.5106 16.2497 23.5353 16.1422 23.5353C15.9716 23.5353 15.8455 23.4798 15.7637 23.3687C15.6991 23.28 15.667 23.168 15.667 23.0325C15.667 22.8706 15.7093 22.7437 15.7943 22.6521C15.8791 22.5605 15.9864 22.5146 16.1162 22.5146C16.2621 22.5146 16.377 22.5627 16.4613 22.6585C16.5456 22.7546 16.5859 22.9014 16.5822 23.0995H15.9325C15.9345 23.1761 15.9553 23.2357 15.9953 23.2783C16.0354 23.3209 16.0853 23.3421 16.1449 23.3421C16.1854 23.3421 16.2195 23.3313 16.2472 23.3091C16.2749 23.2869 16.2959 23.2515 16.31 23.2024ZM16.3249 22.9413C16.3229 22.8664 16.3036 22.8098 16.2668 22.7708C16.2297 22.7319 16.1849 22.7125 16.132 22.7125C16.0754 22.7125 16.0287 22.7329 15.9916 22.774C15.9548 22.8149 15.9367 22.8709 15.9372 22.9413H16.3249Z" fill="white"/>
<path id="path5505" d="M17.0552 23.5131H16.7959V22.5366H17.0367V22.6755C17.078 22.61 17.1151 22.5666 17.1479 22.5459C17.1808 22.525 17.2182 22.5146 17.2602 22.5146C17.3193 22.5146 17.3761 22.5309 17.4308 22.5632L17.3504 22.7886C17.3069 22.7603 17.2661 22.7462 17.2288 22.7462C17.1924 22.7462 17.1615 22.7563 17.1363 22.7763C17.1111 22.796 17.0913 22.8322 17.077 22.8842C17.0624 22.9364 17.0552 23.0453 17.0552 23.2116V23.5131Z" fill="white"/>
<path id="path5509" d="M18.0957 23.513V22.165H19.0987V22.3932H18.3689V22.692H19.048V22.9191H18.3689V23.2859H19.1246V23.513H18.0957Z" fill="white"/>
<path id="path5513" d="M20.0127 23.5131V23.367C19.9771 23.419 19.9302 23.4602 19.8721 23.49C19.814 23.52 19.7527 23.5353 19.6879 23.5353C19.6221 23.5353 19.563 23.5208 19.5109 23.4919C19.4585 23.4631 19.4207 23.4227 19.3974 23.3707C19.3739 23.3185 19.3623 23.2466 19.3623 23.1545V22.5366H19.6216V22.9855C19.6216 23.1227 19.6263 23.2067 19.6357 23.2377C19.6454 23.2688 19.6627 23.2931 19.6879 23.3114C19.7131 23.3294 19.7453 23.3385 19.7838 23.3385C19.8283 23.3385 19.8679 23.3264 19.903 23.3023C19.9381 23.2779 19.9621 23.2478 19.9749 23.2121C19.9878 23.1761 19.9942 23.0884 19.9942 22.9485V22.5366H20.2535V23.5131H20.0127Z" fill="white"/>
<path id="path5517" d="M20.7838 23.5131H20.5244V22.5366H20.7652V22.6755C20.8065 22.61 20.8436 22.5666 20.8765 22.5459C20.9093 22.525 20.9467 22.5146 20.9887 22.5146C21.0478 22.5146 21.1046 22.5309 21.1593 22.5632L21.0789 22.7886C21.0354 22.7603 20.9949 22.7462 20.9573 22.7462C20.921 22.7462 20.8901 22.7563 20.8648 22.7763C20.8396 22.796 20.8198 22.8322 20.8055 22.8842C20.7909 22.9364 20.7838 23.0453 20.7838 23.2116V23.5131Z" fill="white"/>
<path id="path5521" d="M21.2236 23.011C21.2236 22.9253 21.2449 22.8423 21.2874 22.7617C21.3297 22.6817 21.3898 22.6203 21.4676 22.578C21.5455 22.5358 21.6323 22.5146 21.7285 22.5146C21.8765 22.5146 21.9982 22.5624 22.0929 22.6585C22.1876 22.7543 22.235 22.8755 22.235 23.0221C22.235 23.1697 22.1871 23.2924 22.0914 23.3894C21.9957 23.4865 21.8753 23.535 21.7302 23.535C21.6404 23.535 21.5547 23.5148 21.4733 23.4744C21.3917 23.434 21.3297 23.3746 21.2874 23.2965C21.2449 23.2185 21.2236 23.1231 21.2236 23.011ZM21.4894 23.0248C21.4894 23.1216 21.5124 23.1958 21.5586 23.2473C21.6048 23.2988 21.6617 23.3246 21.7292 23.3246C21.7969 23.3246 21.8536 23.2988 21.8995 23.2473C21.9453 23.1958 21.9683 23.1211 21.9683 23.0229C21.9683 22.9273 21.9453 22.8539 21.8995 22.8024C21.8536 22.7509 21.7969 22.725 21.7292 22.725C21.6617 22.725 21.6048 22.7509 21.5586 22.8024C21.5124 22.8539 21.4894 22.928 21.4894 23.0248Z" fill="white"/>
<path id="path5523" d="M22.4219 22.8955H22.9312V23.1539H22.4219V22.8955Z" fill="white"/>
<path id="path5527" d="M22.9785 23.513V23.2677L23.689 22.3932H23.0589V22.165H24.049V22.3766L23.3081 23.2859H24.0774V23.513H22.9785Z" fill="white"/>
<path id="path5531" d="M24.4554 22.8346L24.2201 22.7923C24.2465 22.6979 24.292 22.628 24.3568 22.5826C24.4213 22.5373 24.5172 22.5146 24.6445 22.5146C24.7602 22.5146 24.8463 22.5282 24.9029 22.5555C24.9595 22.5829 24.9993 22.6176 25.0223 22.6595C25.0455 22.7016 25.0569 22.7787 25.0569 22.8906L25.0542 23.1923C25.0542 23.2783 25.0584 23.3414 25.0668 23.382C25.075 23.4229 25.0905 23.4665 25.1133 23.5133H24.8569C24.85 23.4961 24.8418 23.4707 24.8319 23.437L24.8225 23.4067C24.7783 23.4495 24.7311 23.4818 24.6806 23.5032C24.6302 23.5244 24.5763 23.5353 24.5192 23.5353C24.4181 23.5353 24.3387 23.5082 24.2806 23.4535C24.2225 23.399 24.1934 23.33 24.1934 23.2465C24.1934 23.1914 24.2065 23.1423 24.2329 23.099C24.2594 23.0559 24.2965 23.0226 24.3442 22.9997C24.3919 22.9768 24.4606 22.9566 24.5503 22.9396C24.6717 22.9167 24.7555 22.8957 24.8023 22.876V22.8502C24.8023 22.8007 24.7902 22.7652 24.7654 22.744C24.7407 22.7231 24.6945 22.7125 24.626 22.7125C24.58 22.7125 24.5439 22.7213 24.5182 22.7396C24.4923 22.7575 24.4715 22.7893 24.4554 22.8346ZM24.8023 23.0443C24.7691 23.0554 24.7165 23.0687 24.6445 23.084C24.5726 23.0992 24.5256 23.1143 24.5034 23.1288C24.4695 23.1527 24.4527 23.1832 24.4527 23.2199C24.4527 23.2561 24.4663 23.2874 24.4932 23.3135C24.5204 23.3401 24.5548 23.3532 24.5966 23.3532C24.6433 23.3532 24.6881 23.3379 24.7303 23.3071C24.7617 23.284 24.7825 23.2554 24.7921 23.2217C24.7991 23.1995 24.8023 23.1576 24.8023 23.0958V23.0443Z" fill="white"/>
<path id="path5535" d="M25.5845 22.165V22.6607C25.6681 22.5631 25.768 22.5144 25.8844 22.5144C25.944 22.5144 25.9979 22.5254 26.0458 22.5476C26.0938 22.5695 26.1299 22.5979 26.1544 22.6321C26.1786 22.6664 26.1952 22.7045 26.2041 22.7462C26.213 22.7878 26.2174 22.8526 26.2174 22.9403V23.513H25.9581V22.9972C25.9581 22.8947 25.9531 22.8299 25.9435 22.8021C25.9336 22.7747 25.9163 22.7528 25.8913 22.7366C25.8664 22.7203 25.8352 22.7122 25.7976 22.7122C25.7546 22.7122 25.7161 22.7225 25.6822 22.7432C25.6486 22.7641 25.6236 22.7957 25.608 22.8376C25.5922 22.8797 25.5845 22.9418 25.5845 23.0238V23.513H25.3252V22.165H25.5845Z" fill="white"/>
<path id="path5537" d="M26.4932 22.165H26.7525V23.513H26.4932V22.165Z" fill="white"/>
<path id="path5541" d="M27.6768 23.5131V23.367C27.6412 23.419 27.5942 23.4602 27.5361 23.49C27.478 23.52 27.4165 23.5353 27.352 23.5353C27.2862 23.5353 27.2271 23.5208 27.1749 23.4919C27.1225 23.4631 27.0847 23.4227 27.0612 23.3707C27.038 23.3185 27.0264 23.2466 27.0264 23.1545V22.5366H27.2855V22.9855C27.2855 23.1227 27.2904 23.2067 27.2998 23.2377C27.3092 23.2688 27.3267 23.2931 27.352 23.3114C27.3772 23.3294 27.4093 23.3385 27.4479 23.3385C27.4921 23.3385 27.5319 23.3264 27.567 23.3023C27.6021 23.2779 27.6259 23.2478 27.639 23.2121C27.6518 23.1761 27.6583 23.0884 27.6583 22.9485V22.5366H27.9176V23.5131H27.6768Z" fill="white"/>
<path id="path5545" d="M29.0905 23.5131H28.8311V23.0147C28.8311 22.9093 28.8257 22.8411 28.8146 22.81C28.8035 22.7792 28.7854 22.7553 28.7604 22.7381C28.7357 22.7208 28.7056 22.7122 28.6707 22.7122C28.6257 22.7122 28.5854 22.7245 28.5496 22.7492C28.514 22.7736 28.4897 22.8061 28.4764 22.8465C28.463 22.8869 28.4566 22.9618 28.4566 23.0706V23.5131H28.1973V22.5366H28.4381V22.6799C28.5236 22.5698 28.6311 22.5146 28.7609 22.5146C28.8183 22.5146 28.8705 22.5247 28.9179 22.5454C28.9651 22.5659 29.001 22.5922 29.0255 22.624C29.0497 22.6558 29.0665 22.692 29.0761 22.7324C29.0855 22.7728 29.0905 22.831 29.0905 22.9063V23.5131Z" fill="white"/>
<path id="path5549" d="M29.3427 23.5776L29.6389 23.6136C29.6438 23.6478 29.6552 23.6715 29.673 23.6843C29.6975 23.7028 29.7363 23.7119 29.7892 23.7119C29.8569 23.7119 29.9076 23.7018 29.9415 23.6813C29.9642 23.668 29.9815 23.6464 29.9932 23.6163C30.0011 23.5949 30.005 23.5552 30.005 23.4976V23.3552C29.9276 23.4606 29.83 23.5133 29.7118 23.5133C29.58 23.5133 29.4757 23.4579 29.3988 23.3468C29.3388 23.2593 29.3086 23.1502 29.3086 23.0194C29.3086 22.8558 29.3479 22.7309 29.427 22.6442C29.5061 22.558 29.6043 22.5146 29.722 22.5146C29.8431 22.5146 29.9432 22.5679 30.0218 22.6738V22.5368H30.2644V23.4131C30.2644 23.5281 30.255 23.6143 30.2359 23.6715C30.2166 23.7284 30.1899 23.7732 30.1556 23.8057C30.1212 23.8383 30.075 23.8636 30.0176 23.8821C29.96 23.9003 29.8873 23.9095 29.7993 23.9095C29.6332 23.9095 29.5155 23.8811 29.446 23.8245C29.3763 23.7678 29.3417 23.6959 29.3417 23.6089L29.3427 23.5776ZM29.5744 23.0046C29.5744 23.1083 29.5944 23.1842 29.6347 23.2325C29.675 23.2805 29.7247 23.3047 29.7838 23.3047C29.847 23.3047 29.9004 23.2798 29.9442 23.2305C29.988 23.1813 30.0097 23.1081 30.0097 23.0113C30.0097 22.91 29.9889 22.8351 29.9469 22.7861C29.9051 22.7371 29.8522 22.7125 29.7882 22.7125C29.7262 22.7125 29.675 22.7366 29.6347 22.7846C29.5944 22.8327 29.5744 22.9061 29.5744 23.0046Z" fill="white"/>
<path id="path5553" d="M30.4434 23.2347L30.7037 23.1951C30.7146 23.2453 30.7371 23.2835 30.7709 23.3096C30.8048 23.3357 30.852 23.3488 30.9131 23.3488C30.9801 23.3488 31.0305 23.3365 31.0644 23.3121C31.0871 23.2948 31.0985 23.2717 31.0985 23.2428L31.08 23.1943C31.0671 23.182 31.0382 23.1707 30.9932 23.1601C30.7843 23.1143 30.6515 23.0724 30.5956 23.0342C30.5183 22.9815 30.4792 22.9083 30.4792 22.8144C30.4792 22.73 30.5128 22.6588 30.5798 22.6011C30.6471 22.5435 30.7509 22.5146 30.8918 22.5146C31.0258 22.5146 31.1257 22.5366 31.1907 22.5802C31.256 22.6235 31.301 22.6878 31.3254 22.7731L31.0809 22.8181C31.0706 22.7802 31.0505 22.7509 31.0214 22.7309C30.9922 22.7105 30.9504 22.7004 30.8963 22.7004C30.8283 22.7004 30.7793 22.71 30.7497 22.729L30.7202 22.7814L30.746 22.8282C30.7694 22.8455 30.85 22.8696 30.9882 22.9009C31.1262 22.9322 31.2228 22.9706 31.2775 23.0157C31.3316 23.0618 31.3588 23.1258 31.3588 23.2079C31.3588 23.2975 31.3212 23.3744 31.2461 23.4387C31.1712 23.5032 31.0599 23.5353 30.9131 23.5353C30.7796 23.5353 30.674 23.5084 30.5961 23.4545C30.5183 23.4005 30.4673 23.3273 30.4434 23.2347Z" fill="white"/>
<path id="path5557" d="M31.8675 23.5131L31.4727 22.5366H31.7448L31.9293 23.035L31.9829 23.2015C31.997 23.1591 32.0059 23.1313 32.0096 23.1177C32.0183 23.0902 32.0274 23.0626 32.0373 23.035L32.2237 22.5366H32.4905L32.1011 23.5131H31.8675Z" fill="white"/>
<path id="path5561" d="M33.2299 23.2024L33.4883 23.2458C33.4552 23.3401 33.4025 23.4118 33.3311 23.4613C33.2594 23.5106 33.1696 23.5353 33.0621 23.5353C32.8915 23.5353 32.7654 23.4798 32.6836 23.3687C32.6191 23.28 32.5869 23.168 32.5869 23.0325C32.5869 22.8706 32.6292 22.7437 32.714 22.6521C32.799 22.5605 32.9063 22.5146 33.0361 22.5146C33.182 22.5146 33.2969 22.5627 33.3812 22.6585C33.4655 22.7546 33.5058 22.9014 33.5021 23.0995H32.8527C32.8544 23.1761 32.8752 23.2357 32.9152 23.2783C32.9553 23.3209 33.0052 23.3421 33.0648 23.3421C33.1053 23.3421 33.1395 23.3313 33.1671 23.3091C33.1948 23.2869 33.2158 23.2515 33.2299 23.2024ZM33.2448 22.9413C33.2428 22.8664 33.2235 22.8098 33.1864 22.7708C33.1496 22.7319 33.1048 22.7125 33.0519 22.7125C32.9953 22.7125 32.9486 22.7329 32.9118 22.774C32.8747 22.8149 32.8566 22.8709 32.8571 22.9413H33.2448Z" fill="white"/>
<path id="path5565" d="M33.9752 23.5131H33.7158V22.5366H33.9566V22.6755C33.9979 22.61 34.035 22.5666 34.0679 22.5459C34.1007 22.525 34.1381 22.5146 34.1799 22.5146C34.2389 22.5146 34.2961 22.5309 34.3507 22.5632L34.2703 22.7886C34.2268 22.7603 34.186 22.7462 34.1487 22.7462C34.1124 22.7462 34.0815 22.7563 34.0562 22.7763C34.031 22.796 34.0113 22.8322 33.9969 22.8842C33.9823 22.9364 33.9752 23.0453 33.9752 23.2116V23.5131Z" fill="white"/>
<path id="path5569" d="M34.4668 23.513V22.165H34.7261V22.8804L35.0297 22.5365H35.3489L35.0141 22.8932L35.3731 23.513H35.0935L34.847 23.0743L34.7261 23.2004V23.513H34.4668Z" fill="white"/>
<path id="path5573" d="M36.1071 23.2024L36.3655 23.2458C36.3324 23.3401 36.2799 23.4118 36.2083 23.4613C36.1363 23.5106 36.0468 23.5353 35.9393 23.5353C35.7687 23.5353 35.6426 23.4798 35.5608 23.3687C35.4963 23.28 35.4639 23.168 35.4639 23.0325C35.4639 22.8706 35.5064 22.7437 35.5914 22.6521C35.6762 22.5605 35.7835 22.5146 35.9133 22.5146C36.0592 22.5146 36.1741 22.5627 36.2584 22.6585C36.3427 22.7546 36.383 22.9014 36.3793 23.0995H35.7296C35.7316 23.1761 35.7526 23.2357 35.7924 23.2783C35.8325 23.3209 35.8822 23.3421 35.942 23.3421C35.9825 23.3421 36.0167 23.3313 36.0443 23.3091C36.072 23.2869 36.093 23.2515 36.1071 23.2024ZM36.122 22.9413C36.12 22.8664 36.1007 22.8098 36.0639 22.7708C36.027 22.7319 35.9818 22.7125 35.9289 22.7125C35.8723 22.7125 35.8256 22.7329 35.7887 22.774C35.7519 22.8149 35.7338 22.8709 35.7343 22.9413H36.122Z" fill="white"/>
<path id="path5577" d="M36.8629 22.165V22.6607C36.9464 22.5631 37.0463 22.5144 37.1627 22.5144C37.2223 22.5144 37.2762 22.5254 37.3242 22.5476C37.3721 22.5695 37.4082 22.5979 37.4327 22.6321C37.4569 22.6664 37.4735 22.7045 37.4824 22.7462C37.4913 22.7878 37.4957 22.8526 37.4957 22.9403V23.513H37.2364V22.9972C37.2364 22.8947 37.2315 22.8299 37.2218 22.8021C37.2119 22.7747 37.1946 22.7528 37.1697 22.7366C37.1447 22.7203 37.1135 22.7122 37.076 22.7122C37.0329 22.7122 36.9944 22.7225 36.9605 22.7432C36.9269 22.7641 36.9019 22.7957 36.8863 22.8376C36.8705 22.8797 36.8629 22.9418 36.8629 23.0238V23.513H36.6035V22.165H36.8629Z" fill="white"/>
<path id="path5581" d="M38.0201 23.5131H37.7607V22.5366H38.0015V22.6755C38.0428 22.61 38.0799 22.5666 38.1128 22.5459C38.1457 22.525 38.183 22.5146 38.225 22.5146C38.2839 22.5146 38.3407 22.5309 38.3956 22.5632L38.3153 22.7886C38.2717 22.7603 38.231 22.7462 38.1936 22.7462C38.1573 22.7462 38.1264 22.7563 38.1012 22.7763C38.076 22.796 38.0562 22.8322 38.0418 22.8842C38.0272 22.9364 38.0201 23.0453 38.0201 23.2116V23.5131Z" fill="white"/>
<path id="path5585" d="M38.4287 23.2347L38.6888 23.1951C38.6999 23.2453 38.7224 23.2835 38.7563 23.3096C38.7902 23.3357 38.8374 23.3488 38.8984 23.3488C38.9654 23.3488 39.0159 23.3365 39.0497 23.3121C39.0725 23.2948 39.0839 23.2717 39.0839 23.2428L39.0653 23.1943C39.0525 23.182 39.0235 23.1707 38.9785 23.1601C38.7694 23.1143 38.6369 23.0724 38.581 23.0342C38.5036 22.9815 38.4646 22.9083 38.4646 22.8144C38.4646 22.73 38.4982 22.6588 38.5652 22.6011C38.6324 22.5435 38.7363 22.5146 38.8772 22.5146C39.0112 22.5146 39.1108 22.5366 39.1761 22.5802C39.2413 22.6235 39.2863 22.6878 39.3108 22.7731L39.0663 22.8181C39.0559 22.7802 39.0359 22.7509 39.0067 22.7309C38.9775 22.7105 38.9358 22.7004 38.8816 22.7004C38.8136 22.7004 38.7647 22.71 38.735 22.729L38.7056 22.7814L38.7313 22.8282C38.7548 22.8455 38.8354 22.8696 38.9736 22.9009C39.1115 22.9322 39.2082 22.9706 39.2628 23.0157C39.317 23.0618 39.3442 23.1258 39.3442 23.2079C39.3442 23.2975 39.3066 23.3744 39.2314 23.4387C39.1565 23.5032 39.0453 23.5353 38.8984 23.5353C38.7647 23.5353 38.6594 23.5084 38.5815 23.4545C38.5036 23.4005 38.4527 23.3273 38.4287 23.2347Z" fill="white"/>
<path id="path5589" d="M39.8326 23.5131H39.5732V22.5366H39.814V22.6755C39.8553 22.61 39.8924 22.5666 39.9253 22.5459C39.9582 22.525 39.9955 22.5146 40.0375 22.5146C40.0966 22.5146 40.1535 22.5309 40.2081 22.5632L40.1278 22.7886C40.0842 22.7603 40.0437 22.7462 40.0061 22.7462C39.9698 22.7462 39.9391 22.7563 39.9137 22.7763C39.8887 22.796 39.8687 22.8322 39.8543 22.8842C39.8397 22.9364 39.8326 23.0453 39.8326 23.2116V23.5131Z" fill="white"/>
<path id="path5593" d="M40.5267 22.8346L40.2913 22.7923C40.318 22.6979 40.3635 22.628 40.4281 22.5826C40.4926 22.5373 40.5885 22.5146 40.7158 22.5146C40.8315 22.5146 40.9178 22.5282 40.9742 22.5555C41.0308 22.5829 41.0708 22.6176 41.0938 22.6595C41.1168 22.7016 41.1282 22.7787 41.1282 22.8906L41.1255 23.1923C41.1255 23.2783 41.1297 23.3414 41.1381 23.382C41.1465 23.4229 41.1618 23.4665 41.1846 23.5133H40.9282C40.9213 23.4961 40.9131 23.4707 40.9032 23.437L40.8941 23.4067C40.8498 23.4495 40.8024 23.4818 40.7519 23.5032C40.7015 23.5244 40.6476 23.5353 40.5905 23.5353C40.4896 23.5353 40.41 23.5082 40.3519 23.4535C40.2938 23.399 40.2646 23.33 40.2646 23.2465C40.2646 23.1914 40.278 23.1423 40.3045 23.099C40.3309 23.0559 40.3677 23.0226 40.4157 22.9997C40.4632 22.9768 40.5319 22.9566 40.6219 22.9396C40.743 22.9167 40.8268 22.8957 40.8736 22.876V22.8502C40.8736 22.8007 40.8614 22.7652 40.8367 22.744C40.8122 22.7231 40.7658 22.7125 40.6975 22.7125C40.6513 22.7125 40.6152 22.7213 40.5895 22.7396C40.5635 22.7575 40.5428 22.7893 40.5267 22.8346ZM40.8736 23.0443C40.8404 23.0554 40.7878 23.0687 40.7158 23.084C40.6439 23.0992 40.5969 23.1143 40.5747 23.1288C40.541 23.1527 40.524 23.1832 40.524 23.2199C40.524 23.2561 40.5376 23.2874 40.5645 23.3135C40.5917 23.3401 40.6261 23.3532 40.6679 23.3532C40.7146 23.3532 40.7593 23.3379 40.8019 23.3071C40.833 23.284 40.8538 23.2554 40.8637 23.2217C40.8703 23.1995 40.8736 23.1576 40.8736 23.0958V23.0443Z" fill="white"/>
<path id="path5597" d="M42.0423 23.5131V23.367C42.0067 23.419 41.9597 23.4602 41.9016 23.49C41.8435 23.52 41.7822 23.5353 41.7174 23.5353C41.6517 23.5353 41.5926 23.5208 41.5404 23.4919C41.488 23.4631 41.4502 23.4227 41.427 23.3707C41.4035 23.3185 41.3916 23.2466 41.3916 23.1545V22.5366H41.6509V22.9855C41.6509 23.1227 41.6556 23.2067 41.6653 23.2377C41.6749 23.2688 41.6922 23.2931 41.7174 23.3114C41.7427 23.3294 41.7748 23.3385 41.8134 23.3385C41.8579 23.3385 41.8974 23.3264 41.9325 23.3023C41.9674 23.2779 41.9916 23.2478 42.0045 23.2121C42.0173 23.1761 42.0237 23.0884 42.0237 22.9485V22.5366H42.2831V23.5131H42.0423Z" fill="white"/>
<path id="path5601" d="M42.5459 22.5368H42.7847V22.6701C42.8705 22.5666 42.9721 22.5146 43.0903 22.5146C43.1531 22.5146 43.2075 22.5277 43.2535 22.5533C43.2999 22.5792 43.3375 22.6181 43.3672 22.6701C43.4102 22.6181 43.4567 22.5792 43.5066 22.5533C43.5563 22.5277 43.6094 22.5146 43.6661 22.5146C43.738 22.5146 43.7988 22.5294 43.8488 22.5585C43.8987 22.5876 43.9358 22.6304 43.9605 22.6868C43.9783 22.7285 43.9872 22.796 43.9872 22.8891V23.5133H43.7279V22.9554C43.7279 22.8583 43.719 22.796 43.7012 22.7676C43.6772 22.7309 43.6404 22.7125 43.5904 22.7125C43.5541 22.7125 43.52 22.7235 43.4881 22.7457C43.4562 22.7676 43.4329 22.7999 43.4188 22.8425C43.4047 22.8852 43.3976 22.9524 43.3976 23.0443V23.5133H43.1382V22.9783C43.1382 22.8832 43.1338 22.8218 43.1244 22.7943C43.1153 22.7667 43.1009 22.7462 43.0816 22.7327C43.0621 22.7194 43.0359 22.7125 43.0025 22.7125C42.9627 22.7125 42.9266 22.7231 42.8947 22.7447C42.8626 22.7662 42.8398 22.7972 42.826 22.8376C42.8122 22.878 42.8052 22.945 42.8052 23.0389V23.5133H42.5459V22.5368Z" fill="white"/>
<path id="path5605" d="M6.01172 20.4944L6.40159 20.4567C6.42483 20.587 6.47254 20.6826 6.54424 20.744C6.61593 20.8051 6.71284 20.8356 6.83448 20.8356C6.96353 20.8356 7.06068 20.8083 7.1262 20.7541C7.19146 20.6996 7.22435 20.6361 7.22435 20.5631C7.22435 20.5166 7.2105 20.4767 7.18306 20.4437C7.15537 20.4111 7.10741 20.3826 7.03893 20.3582C6.99196 20.3419 6.88516 20.3131 6.71803 20.272C6.50344 20.2188 6.35264 20.1537 6.26611 20.0764C6.14423 19.9677 6.08341 19.8349 6.08341 19.6785C6.08341 19.578 6.11209 19.4837 6.16945 19.3962C6.22656 19.3083 6.30913 19.2417 6.41716 19.1957C6.52471 19.1499 6.65499 19.127 6.80753 19.127C7.05648 19.127 7.24388 19.1814 7.36971 19.2903C7.49555 19.3989 7.5618 19.5443 7.56798 19.7258L7.16748 19.7433C7.15018 19.6416 7.11359 19.5686 7.05722 19.5241C7.00086 19.4797 6.91606 19.4573 6.80333 19.4573C6.68713 19.4573 6.59591 19.4812 6.53014 19.529C6.48762 19.5593 6.46636 19.6004 6.46636 19.6517C6.46636 19.6982 6.48614 19.7384 6.52594 19.7716C6.57637 19.814 6.69924 19.8579 6.89406 19.9037C7.08887 19.9495 7.233 19.997 7.32645 20.0461C7.4199 20.0951 7.49283 20.1621 7.54573 20.2468C7.59839 20.3321 7.62485 20.437 7.62485 20.5619C7.62485 20.6752 7.5932 20.7812 7.53016 20.8802C7.46687 20.979 7.37762 21.0524 7.26217 21.1007C7.14672 21.1487 7.00283 21.1728 6.83052 21.1728C6.57959 21.1728 6.387 21.115 6.25251 20.9994C6.11802 20.8839 6.03792 20.7156 6.01172 20.4944Z" fill="white"/>
<path id="path5607" d="M8.04199 19.1611H8.42222V19.5117H8.04199V19.1611ZM8.04199 19.7058H8.42222V21.138H8.04199V19.7058Z" fill="white"/>
<path id="path5611" d="M10.2026 21.1379H9.82238V20.407C9.82238 20.2522 9.81422 20.1522 9.79791 20.1069C9.78184 20.0616 9.75539 20.0261 9.7188 20.001C9.68221 19.9759 9.6382 19.9633 9.58678 19.9633C9.52102 19.9633 9.46193 19.9813 9.40952 20.0172C9.35711 20.0532 9.32126 20.1007 9.30198 20.1601C9.28245 20.2195 9.27281 20.3291 9.27281 20.4892V21.1379H8.89258V19.7056H9.24586V19.916C9.3712 19.7541 9.52918 19.6733 9.71954 19.6733C9.80335 19.6733 9.87999 19.6884 9.94945 19.7184C10.0189 19.7487 10.0716 19.7872 10.1072 19.8337C10.1428 19.8805 10.1675 19.9337 10.1816 19.9928C10.1957 20.0522 10.2026 20.1372 10.2026 20.2478V21.1379Z" fill="white"/>
<path id="path5615" d="M10.6361 21.2322L11.0705 21.2849C11.0777 21.3352 11.0945 21.3697 11.1207 21.3886C11.1568 21.4157 11.2134 21.429 11.2913 21.429C11.3904 21.429 11.4648 21.4143 11.5145 21.3847C11.5479 21.3647 11.5731 21.333 11.5902 21.2889C11.6018 21.2573 11.6077 21.1994 11.6077 21.1149V20.9058C11.4942 21.0605 11.3506 21.1379 11.1775 21.1379C10.9845 21.1379 10.8314 21.0563 10.7187 20.8937C10.6302 20.7651 10.5859 20.6053 10.5859 20.4136C10.5859 20.1737 10.644 19.9901 10.76 19.8635C10.8759 19.7367 11.0201 19.6733 11.1924 19.6733C11.3701 19.6733 11.5167 19.7509 11.6322 19.9066V19.7056H11.9882V20.9908C11.9882 21.1598 11.9741 21.2862 11.9462 21.3697C11.9182 21.4534 11.8789 21.519 11.8285 21.5667C11.7778 21.6143 11.7103 21.6515 11.626 21.6786C11.5417 21.7054 11.4349 21.719 11.3061 21.719C11.0623 21.719 10.8895 21.6774 10.7877 21.5943C10.6858 21.5111 10.6349 21.4056 10.6349 21.278L10.6361 21.2322ZM10.9758 20.3922C10.9758 20.5439 11.0052 20.6553 11.0646 20.726C11.1234 20.7964 11.1963 20.8317 11.2831 20.8317C11.3758 20.8317 11.4544 20.7954 11.5185 20.7233C11.5825 20.6508 11.6146 20.5437 11.6146 20.4015C11.6146 20.2532 11.584 20.1431 11.5227 20.0712C11.4611 19.9993 11.3835 19.9633 11.2898 19.9633C11.1986 19.9633 11.1234 19.9985 11.0646 20.069C11.0052 20.1397 10.9758 20.2473 10.9758 20.3922Z" fill="white"/>
<path id="path5617" d="M12.4482 19.1611H12.8285V21.138H12.4482V19.1611Z" fill="white"/>
<path id="path5621" d="M14.1336 20.6821L14.5126 20.7454C14.4639 20.8839 14.3867 20.9893 14.2817 21.0617C14.1766 21.1342 14.0451 21.1704 13.8873 21.1704C13.6374 21.1704 13.4525 21.0888 13.3323 20.9262C13.2376 20.7959 13.1904 20.6314 13.1904 20.4326C13.1904 20.1953 13.2525 20.0094 13.3771 19.8748C13.5017 19.7406 13.6589 19.6733 13.8493 19.6733C14.0631 19.6733 14.232 19.7438 14.3556 19.8845C14.4792 20.0251 14.5383 20.2407 14.5328 20.5311H13.5801C13.5828 20.6434 13.6134 20.7309 13.672 20.7935C13.7306 20.8558 13.8038 20.8871 13.8913 20.8871C13.9509 20.8871 14.0011 20.8708 14.0416 20.8385C14.0822 20.8063 14.1128 20.7541 14.1336 20.6821ZM14.1553 20.2991C14.1526 20.1894 14.1242 20.1059 14.07 20.049C14.0159 19.9919 13.9499 19.9633 13.8723 19.9633C13.7894 19.9633 13.7207 19.9936 13.6666 20.0537C13.6124 20.1138 13.586 20.1958 13.5867 20.2991H14.1553Z" fill="white"/>
<path id="path5625" d="M15.7812 21.138V19.1611H17.2522V19.4954H16.1818V19.9339H17.1778V20.267H16.1818V20.805H17.2903V21.138H15.7812Z" fill="white"/>
<path id="path5629" d="M18.6572 21.1378V20.9235C18.6047 20.9999 18.536 21.06 18.4507 21.1041C18.3654 21.1482 18.2754 21.1701 18.1808 21.1701C18.0841 21.1701 17.9976 21.1491 17.9209 21.1068C17.8443 21.0644 17.7887 21.0053 17.7545 20.9287C17.7202 20.8523 17.7031 20.7466 17.7031 20.6119V19.7056H18.0834V20.3638C18.0834 20.5651 18.0903 20.6885 18.1044 20.7341C18.1182 20.7794 18.1437 20.8154 18.1808 20.842C18.2178 20.8683 18.2648 20.8816 18.3214 20.8816C18.3864 20.8816 18.4448 20.8639 18.4962 20.8284C18.5476 20.7929 18.5827 20.7486 18.6018 20.6961C18.6206 20.6434 18.6302 20.5148 18.6302 20.3098V19.7056H19.0104V21.1378H18.6572Z" fill="white"/>
<path id="path5633" d="M19.8509 21.1379H19.4707V19.7056H19.824V19.9093C19.8843 19.813 19.9387 19.7497 19.9869 19.7192C20.0351 19.6886 20.09 19.6733 20.1513 19.6733C20.2381 19.6733 20.3214 19.6972 20.4017 19.7448L20.2841 20.0751C20.2198 20.034 20.1605 20.0133 20.1053 20.0133C20.0522 20.0133 20.0069 20.0278 19.9701 20.0571C19.933 20.0862 19.9038 20.1392 19.8828 20.2155C19.8616 20.2919 19.8509 20.452 19.8509 20.6954V21.1379Z" fill="white"/>
<path id="path5637" d="M20.5605 20.4015C20.5605 20.2757 20.5917 20.154 20.654 20.0362C20.7163 19.9182 20.8043 19.8283 20.9185 19.7665C21.0325 19.7044 21.1601 19.6733 21.3007 19.6733C21.5183 19.6733 21.6965 19.7438 21.8355 19.8845C21.9742 20.0251 22.0439 20.2027 22.0439 20.4178C22.0439 20.6343 21.9737 20.8139 21.8332 20.9563C21.6931 21.0989 21.5166 21.1701 21.3035 21.1701C21.1717 21.1701 21.0461 21.1406 20.9267 21.0812C20.807 21.0218 20.7163 20.9349 20.654 20.8203C20.5917 20.7055 20.5605 20.5661 20.5605 20.4015ZM20.9504 20.4217C20.9504 20.5639 20.984 20.6725 21.0518 20.7481C21.1195 20.8235 21.2028 20.8615 21.3022 20.8615C21.4014 20.8615 21.4847 20.8235 21.5519 20.7481C21.6189 20.6725 21.6528 20.5629 21.6528 20.419C21.6528 20.2789 21.6189 20.171 21.5519 20.0953C21.4847 20.0199 21.4014 19.9823 21.3022 19.9823C21.2028 19.9823 21.1195 20.0199 21.0518 20.0953C20.984 20.171 20.9504 20.2796 20.9504 20.4217Z" fill="white"/>
<path id="path5641" d="M23.2803 21.138V19.1611H23.9231C24.1668 19.1611 24.3255 19.171 24.3994 19.1907C24.5132 19.2205 24.6084 19.285 24.685 19.3843C24.7616 19.4836 24.7999 19.6119 24.7999 19.7694C24.7999 19.8906 24.7779 19.9925 24.7337 20.0753C24.6894 20.1581 24.6333 20.2231 24.5653 20.2704C24.4971 20.3175 24.4279 20.3488 24.3574 20.364C24.262 20.3828 24.1233 20.3924 23.9421 20.3924H23.6808V21.138H23.2803ZM23.6808 19.4954V20.0566H23.9001C24.058 20.0566 24.1636 20.0462 24.2168 20.0256C24.2699 20.0049 24.3117 19.9723 24.3418 19.9285C24.3723 19.8844 24.3873 19.8332 24.3873 19.7748C24.3873 19.7028 24.3661 19.6435 24.3238 19.5967C24.2813 19.5499 24.2276 19.5205 24.1626 19.509C24.1149 19.5001 24.0187 19.4954 23.8743 19.4954H23.6808Z" fill="white"/>
<path id="path5645" d="M25.4936 20.1426L25.1487 20.0805C25.1873 19.9421 25.2542 19.8396 25.3489 19.7731C25.4436 19.7066 25.5843 19.6733 25.7712 19.6733C25.9405 19.6733 26.0669 19.6933 26.1499 19.7334C26.233 19.7734 26.2913 19.8241 26.3252 19.8857C26.3591 19.9473 26.3759 20.0603 26.3759 20.2249L26.3719 20.6671C26.3719 20.7932 26.3781 20.8858 26.3902 20.9457C26.4024 21.0053 26.4251 21.0696 26.4587 21.1379H26.0824C26.0723 21.1127 26.0602 21.0753 26.0456 21.026C26.0394 21.0036 26.035 20.9886 26.0323 20.9814C25.9672 21.0442 25.8978 21.0915 25.8238 21.1231C25.7499 21.1546 25.6711 21.1701 25.587 21.1701C25.4389 21.1701 25.3225 21.1302 25.2372 21.0502C25.1519 20.9701 25.1094 20.8691 25.1094 20.7467C25.1094 20.6659 25.1287 20.5937 25.1675 20.5304C25.206 20.4671 25.2604 20.4185 25.3306 20.3845C25.4004 20.351 25.5012 20.3215 25.633 20.2963C25.8107 20.2631 25.9339 20.232 26.0023 20.2032V20.1655C26.0023 20.0926 25.9845 20.0409 25.9482 20.0098C25.9121 19.9788 25.8441 19.9633 25.744 19.9633C25.6763 19.9633 25.6234 19.9766 25.5855 20.0032C25.5477 20.0296 25.517 20.0761 25.4936 20.1426ZM26.0023 20.4501C25.9536 20.4663 25.8768 20.4855 25.7712 20.5082C25.6656 20.5306 25.5964 20.5525 25.564 20.5742C25.5143 20.6092 25.4896 20.6538 25.4896 20.7077C25.4896 20.7607 25.5094 20.8065 25.5492 20.8452C25.5887 20.8839 25.6392 20.9031 25.7007 20.9031C25.7692 20.9031 25.8345 20.8807 25.8968 20.8358C25.9428 20.8016 25.9732 20.7597 25.9878 20.7104C25.9974 20.6779 26.0023 20.6163 26.0023 20.5257V20.4501Z" fill="white"/>
<path id="path5649" d="M26.6543 19.7056H27.059L27.4029 20.7225L27.7384 19.7056H28.1322L27.6246 21.0839L27.5339 21.3332C27.5005 21.4169 27.4686 21.4807 27.4387 21.5248C27.4083 21.5687 27.3737 21.6046 27.3344 21.632C27.2951 21.6593 27.2469 21.6808 27.1895 21.696C27.1322 21.7113 27.0677 21.7189 26.9952 21.7189C26.9223 21.7189 26.8506 21.7113 26.7804 21.696L26.7463 21.3994C26.8058 21.411 26.8595 21.4169 26.9075 21.4169C26.9957 21.4169 27.0612 21.3911 27.1035 21.3393C27.146 21.2876 27.1784 21.2218 27.2012 21.1418L26.6543 19.7056Z" fill="white"/>
<path id="path5653" d="M28.4307 19.7056H28.7812V19.9012C28.9066 19.7492 29.0559 19.6733 29.2292 19.6733C29.3212 19.6733 29.401 19.6921 29.4688 19.7298C29.5362 19.7677 29.5919 19.8248 29.6351 19.9012C29.6982 19.8248 29.7664 19.7677 29.8396 19.7298C29.9125 19.6921 29.9906 19.6733 30.0737 19.6733C30.1793 19.6733 30.2685 19.6945 30.3414 19.7371C30.4146 19.78 30.4693 19.8426 30.5054 19.9254C30.5313 19.9867 30.5447 20.0855 30.5447 20.2222V21.1379H30.1642V20.3193C30.1642 20.1771 30.1513 20.0855 30.1251 20.0441C30.0898 19.9901 30.0356 19.9633 29.9627 19.9633C29.9093 19.9633 29.8594 19.9793 29.8124 20.0118C29.7654 20.0441 29.7318 20.0916 29.711 20.154C29.69 20.2165 29.6799 20.3151 29.6799 20.4501V21.1379H29.2994V20.353C29.2994 20.2136 29.2927 20.1237 29.2791 20.0833C29.2658 20.0429 29.2448 20.0126 29.2163 19.9928C29.1879 19.9731 29.1493 19.9633 29.1006 19.9633C29.0418 19.9633 28.9891 19.9788 28.9422 20.0103C28.8954 20.0419 28.8616 20.0872 28.8415 20.1466C28.821 20.2059 28.8109 20.3045 28.8109 20.4419V21.1379H28.4307V19.7056Z" fill="white"/>
<path id="path5657" d="M31.8389 20.6821L32.2179 20.7454C32.1692 20.8839 32.0921 20.9893 31.987 21.0617C31.8819 21.1342 31.7504 21.1704 31.5927 21.1704C31.3425 21.1704 31.1578 21.0888 31.0377 20.9262C30.943 20.7959 30.8955 20.6314 30.8955 20.4326C30.8955 20.1953 30.9578 20.0094 31.0824 19.8748C31.207 19.7406 31.3642 19.6733 31.5546 19.6733C31.7684 19.6733 31.9373 19.7438 32.0609 19.8845C32.1843 20.0251 32.2436 20.2407 32.2382 20.5311H31.2854C31.2881 20.6434 31.3188 20.7309 31.3773 20.7935C31.4362 20.8558 31.5091 20.8871 31.5966 20.8871C31.6562 20.8871 31.7064 20.8708 31.7469 20.8385C31.7875 20.8063 31.8181 20.7541 31.8389 20.6821ZM31.8607 20.2991C31.8579 20.1894 31.8295 20.1059 31.7754 20.049C31.7212 19.9919 31.6552 19.9633 31.5776 19.9633C31.4948 19.9633 31.426 19.9936 31.3719 20.0537C31.3178 20.1138 31.2911 20.1958 31.2921 20.2991H31.8607Z" fill="white"/>
<path id="path5661" d="M33.9389 21.1379H33.5587V20.407C33.5587 20.2522 33.5506 20.1522 33.5342 20.1069C33.5179 20.0616 33.4917 20.0261 33.4551 20.001C33.4185 19.9759 33.3745 19.9633 33.3231 19.9633C33.2573 19.9633 33.1983 19.9813 33.1458 20.0172C33.0934 20.0532 33.0576 20.1007 33.0383 20.1601C33.019 20.2195 33.0091 20.3291 33.0091 20.4892V21.1379H32.6289V19.7056H32.9822V19.916C33.1075 19.7541 33.2655 19.6733 33.4559 19.6733C33.5397 19.6733 33.6163 19.6884 33.6858 19.7184C33.7553 19.7487 33.8077 19.7872 33.8435 19.8337C33.8791 19.8805 33.9041 19.9337 33.9179 19.9928C33.932 20.0522 33.9389 20.1372 33.9389 20.2478V21.1379Z" fill="white"/>
<path id="path5665" d="M35.0661 19.7059V20.008H34.8062V20.5851C34.8062 20.7019 34.8087 20.7701 34.8137 20.7894L34.8475 20.8374C34.8651 20.85 34.8863 20.8561 34.9118 20.8561C34.9469 20.8561 34.9978 20.8441 35.0646 20.8199L35.097 21.1138C35.0087 21.1515 34.9086 21.1705 34.7966 21.1705C34.7281 21.1705 34.6663 21.1589 34.6114 21.1362C34.5563 21.1131 34.516 21.0835 34.4903 21.047C34.4646 21.0106 34.4465 20.9613 34.4367 20.8995C34.4285 20.8554 34.4245 20.7665 34.4245 20.6324V20.008H34.25V19.7059H34.4245V19.4214L34.8062 19.2002V19.7059H35.0661Z" fill="white"/>
<path id="path5669" d="M35.2793 20.7292L35.661 20.6713C35.6771 20.7449 35.71 20.8009 35.7597 20.839C35.8093 20.8772 35.8788 20.8964 35.9681 20.8964C36.0665 20.8964 36.1404 20.8785 36.1901 20.8425C36.2234 20.8174 36.2403 20.7836 36.2403 20.7412C36.2403 20.7124 36.2311 20.6888 36.2131 20.6698C36.1943 20.6518 36.1515 20.6353 36.086 20.62C35.7789 20.5525 35.5846 20.491 35.5025 20.4353C35.3888 20.3579 35.332 20.2505 35.332 20.1128C35.332 19.9889 35.3812 19.8845 35.4795 19.8C35.5777 19.7155 35.7302 19.6733 35.9372 19.6733C36.1337 19.6733 36.2798 19.7051 36.3755 19.7689C36.4709 19.833 36.5369 19.9273 36.573 20.0522L36.2143 20.1182C36.199 20.0626 36.17 20.0199 36.127 19.9901C36.0843 19.9606 36.0232 19.9458 35.9436 19.9458C35.8435 19.9458 35.772 19.9596 35.7285 19.9874C35.6996 20.0071 35.6852 20.0328 35.6852 20.0643C35.6852 20.0914 35.6978 20.1143 35.7233 20.133C35.7574 20.1581 35.8758 20.1939 36.0783 20.2397C36.2808 20.2855 36.4222 20.3417 36.5028 20.4082C36.5819 20.4757 36.6217 20.5695 36.6217 20.69C36.6217 20.8213 36.5668 20.9341 36.4568 21.0285C36.3466 21.1228 36.1836 21.1701 35.9681 21.1701C35.7723 21.1701 35.6175 21.1305 35.5033 21.0514C35.3891 20.9723 35.3144 20.8649 35.2793 20.7292Z" fill="white"/>
<path id="path5673" d="M39.5805 21.138H39.1446L38.9716 20.689H38.1785L38.0146 21.138H37.5898L38.3624 19.1611H38.7862L39.5805 21.138ZM38.843 20.3559L38.5696 19.6223L38.3016 20.3559H38.843Z" fill="white"/>
<path id="path5677" d="M40.2376 21.1379H39.8574V19.7056H40.2107V19.9093C40.271 19.813 40.3254 19.7497 40.3736 19.7192C40.4218 19.6886 40.4767 19.6733 40.538 19.6733C40.6248 19.6733 40.7081 19.6972 40.7885 19.7448L40.6708 20.0751C40.6065 20.034 40.5472 20.0133 40.492 20.0133C40.4389 20.0133 40.3936 20.0278 40.3568 20.0571C40.3197 20.0862 40.2906 20.1392 40.2693 20.2155C40.2483 20.2919 40.2376 20.452 40.2376 20.6954V21.1379Z" fill="white"/>
<path id="path5681" d="M41.8672 20.6821L42.2462 20.7454C42.1975 20.8839 42.1206 20.9893 42.0156 21.0617C41.9102 21.1342 41.7787 21.1704 41.621 21.1704C41.3711 21.1704 41.1861 21.0888 41.066 20.9262C40.9713 20.7959 40.9238 20.6314 40.9238 20.4326C40.9238 20.1953 40.9861 20.0094 41.1107 19.8748C41.2351 19.7406 41.3928 19.6733 41.5829 19.6733C41.7968 19.6733 41.9656 19.7438 42.0892 19.8845C42.2128 20.0251 42.2719 20.2407 42.2665 20.5311H41.3137C41.3164 20.6434 41.3471 20.7309 41.4057 20.7935C41.4643 20.8558 41.5374 20.8871 41.625 20.8871C41.6845 20.8871 41.7347 20.8708 41.7753 20.8385C41.8158 20.8063 41.8465 20.7541 41.8672 20.6821ZM41.889 20.2991C41.8863 20.1894 41.8578 20.1059 41.8037 20.049C41.7496 19.9919 41.6835 19.9633 41.6059 19.9633C41.5231 19.9633 41.4544 19.9936 41.4002 20.0537C41.3461 20.1138 41.3196 20.1958 41.3204 20.2991H41.889Z" fill="white"/>
<path id="path5685" d="M42.944 20.1426L42.5991 20.0805C42.6377 19.9421 42.7047 19.8396 42.7994 19.7731C42.8941 19.7066 43.0347 19.6733 43.2216 19.6733C43.391 19.6733 43.5173 19.6933 43.6006 19.7334C43.6834 19.7734 43.7418 19.8241 43.7757 19.8857C43.8095 19.9473 43.8263 20.0603 43.8263 20.2249L43.8224 20.6671C43.8224 20.7932 43.8286 20.8858 43.8407 20.9457C43.8528 21.0053 43.8755 21.0696 43.9092 21.1379H43.5329C43.5227 21.1127 43.5106 21.0753 43.4963 21.026C43.4899 21.0036 43.4854 20.9886 43.4827 20.9814C43.4177 21.0442 43.3482 21.0915 43.2743 21.1231C43.2004 21.1546 43.1215 21.1701 43.0375 21.1701C42.8894 21.1701 42.7729 21.1302 42.6876 21.0502C42.6023 20.9701 42.5596 20.8691 42.5596 20.7467C42.5596 20.6659 42.5791 20.5937 42.6179 20.5304C42.6567 20.4671 42.7109 20.4185 42.7811 20.3845C42.8508 20.351 42.9517 20.3215 43.0834 20.2963C43.2612 20.2631 43.3843 20.232 43.4528 20.2032V20.1655C43.4528 20.0926 43.435 20.0409 43.3986 20.0098C43.3625 19.9788 43.2946 19.9633 43.1944 19.9633C43.1269 19.9633 43.074 19.9766 43.036 20.0032C42.9981 20.0296 42.9675 20.0761 42.944 20.1426ZM43.4528 20.4501C43.4041 20.4663 43.3272 20.4855 43.2216 20.5082C43.1161 20.5306 43.0468 20.5525 43.0145 20.5742C42.9648 20.6092 42.94 20.6538 42.94 20.7077C42.94 20.7607 42.9598 20.8065 42.9996 20.8452C43.0392 20.8839 43.0896 20.9031 43.1512 20.9031C43.2197 20.9031 43.2852 20.8807 43.3472 20.8358C43.3935 20.8016 43.4236 20.7597 43.4382 20.7104C43.4478 20.6779 43.4528 20.6163 43.4528 20.5257V20.4501Z" fill="white"/>
<path id="path5689" d="M14.4426 11.3921H11.8426C11.8426 10.9669 11.7924 10.6816 11.6925 10.5363C11.5378 10.3215 11.1108 10.2138 10.4119 10.2138C9.73306 10.2138 9.28312 10.2756 9.06358 10.3996C8.84405 10.524 8.73403 10.7942 8.73403 11.2103C8.73403 11.5869 8.83144 11.8353 9.0265 11.954C9.16618 12.0385 9.35085 12.088 9.58077 12.1028L10.1051 12.1397C11.229 12.2139 11.9309 12.2664 12.2107 12.2962C13.0995 12.3853 13.7438 12.6208 14.1435 13.0024C14.458 13.3003 14.6456 13.6895 14.7054 14.1699C14.7406 14.4573 14.7579 14.7828 14.7579 15.1442C14.7579 15.9773 14.678 16.5872 14.5185 16.9738C14.229 17.6832 13.5786 18.1313 12.5667 18.3195C12.1427 18.3991 11.4943 18.4388 10.6218 18.4388C9.16568 18.4388 8.15108 18.3525 7.57802 18.1789C6.87492 17.9663 6.41113 17.5354 6.1869 16.8868C6.06181 16.5257 6 15.9241 6 15.0821H8.60004C8.60004 15.1759 8.60029 15.2479 8.60029 15.2974C8.60029 15.7467 8.72983 16.0354 8.98867 16.1643C9.16791 16.2529 9.38423 16.2995 9.63862 16.3052H10.5946C11.0824 16.3052 11.3937 16.2803 11.5279 16.2303C11.767 16.1367 11.9239 15.9859 11.9989 15.7773C12.0387 15.6487 12.0584 15.4826 12.0584 15.2791C12.0584 14.8237 11.8916 14.5465 11.5583 14.447C11.4335 14.4078 10.854 14.3529 9.81909 14.2837C8.98793 14.2245 8.41067 14.1676 8.08755 14.1125C7.23636 13.9538 6.66898 13.6274 6.38591 13.132C6.13696 12.7113 6.01261 12.0745 6.01261 11.2223C6.01261 10.5737 6.07985 10.0534 6.21434 9.66225C6.34883 9.27081 6.56565 8.97371 6.86478 8.77048C7.30311 8.45836 7.86406 8.27533 8.54664 8.22064C9.11476 8.17112 9.74493 8.146 10.4381 8.146C11.5294 8.146 12.3071 8.20857 12.7707 8.33248C13.9022 8.63548 14.4679 9.48389 14.4679 10.8782C14.4679 10.9925 14.4595 11.1635 14.4426 11.3921Z" fill="white"/>
<path id="path5693" d="M25.876 18.4383V8.09082H29.9495H30.5888H31.083C31.7972 8.09082 32.3421 8.14871 32.7166 8.26499C33.573 8.53227 34.1475 9.07989 34.442 9.90712C34.5938 10.3414 34.6699 10.9952 34.6699 11.8683C34.6699 12.9179 34.5856 13.672 34.4188 14.1314C34.0848 15.0395 33.3975 15.5627 32.3594 15.6982C32.2373 15.7186 31.7178 15.7366 30.8009 15.7514L30.3371 15.7667H28.6708V18.4383H25.876ZM28.6708 13.3663H30.413C30.9655 13.3466 31.3015 13.3042 31.4224 13.2379C31.5876 13.1475 31.6986 12.9662 31.7537 12.6945C31.789 12.5137 31.8066 12.2447 31.8066 11.8875C31.8066 11.4497 31.7715 11.1253 31.701 10.9134C31.6007 10.6166 31.3599 10.436 30.9787 10.3702C30.903 10.3604 30.7225 10.355 30.4365 10.355H28.6708V13.3663Z" fill="white"/>
<path id="path5697" d="M40.6363 16.6501H36.8995L36.3974 18.4383H33.5059L36.6261 8.09082H40.8419L44.0002 18.4383H41.1695L40.6363 16.6501ZM40.0812 14.6342L38.7717 10.1488L37.501 14.6342H40.0812Z" fill="white"/>
</g>
<g id="Group_3">
<path id="path5701" d="M22.0197 9.54687C23.1722 9.54687 24.2012 10.076 24.8773 10.9047L25.4798 9.61757C24.5377 8.73024 23.2553 8.18311 21.8409 8.18311C19.6387 8.18311 17.7549 9.50844 16.9818 11.3846H15.807L15.1133 12.8664H16.6246C16.6132 13.0038 16.6058 13.1413 16.6058 13.2817C16.6058 13.4514 16.6147 13.6194 16.6315 13.7852H15.872L15.1785 15.2675H17.0179C17.813 17.0961 19.6733 18.3798 21.8409 18.3798C22.9334 18.3798 23.947 18.0536 24.7864 17.4964V15.6799C24.1105 16.4467 23.1218 16.9313 22.0197 16.9313C20.7314 16.9313 19.5981 16.2694 18.9383 15.2675H22.7895L23.4832 13.7852H18.3717C18.3452 13.6069 18.3311 13.4246 18.3311 13.2388C18.3311 13.1132 18.3376 12.989 18.3499 12.8664H23.9132L24.6066 11.3846H18.8308C19.4696 10.2861 20.6582 9.54687 22.0197 9.54687Z" fill="#FFBE00"/>
<path id="path5705" d="M22.0193 9.59112C23.1178 9.59112 24.1467 10.0804 24.8424 10.9327L24.8874 10.9879L24.9178 10.9236L25.52 9.63645L25.5334 9.60713L25.5104 9.58496C24.52 8.6523 23.2166 8.13867 21.8406 8.13867C20.7659 8.13867 19.732 8.45153 18.8502 9.04349C17.9891 9.62142 17.3285 10.4252 16.9404 11.3675L16.9814 11.3399H15.8066H15.778L15.7661 11.3655L15.0726 12.8475L15.043 12.9109H15.1129H16.6242L16.5797 12.8626C16.5671 13.0165 16.5609 13.1533 16.5609 13.2816C16.5609 13.4479 16.5696 13.6191 16.5866 13.7896L16.6311 13.7408H15.8717H15.8435L15.8316 13.7664L15.1377 15.2484L15.1082 15.3117H15.1782H17.0175L16.9765 15.2849C17.8057 17.1918 19.715 18.424 21.8406 18.424C22.9061 18.424 23.9328 18.1164 24.8107 17.5335L24.8303 17.5205V17.4963V15.6798V15.5618L24.7524 15.6505C24.0599 16.436 23.0639 16.8864 22.0193 16.8864C20.7906 16.8864 19.6527 16.2717 18.975 15.2428L18.938 15.3117H22.7892H22.8179L22.8297 15.2864L23.5234 13.8039L23.5531 13.7408H23.4829H18.3713L18.4156 13.7787C18.3891 13.5991 18.3755 13.4178 18.3755 13.2387C18.3755 13.1168 18.3817 12.9931 18.3941 12.8707L18.3496 12.9109H23.9128H23.9415L23.9534 12.8852L24.6468 11.4032L24.6767 11.3399H24.6063H18.8304L18.869 11.4067C19.5202 10.2868 20.7276 9.59112 22.0193 9.59112ZM18.8304 11.4288H24.6063L24.5657 11.3655L23.8725 12.8475L23.9128 12.8219H18.3496H18.3093L18.3048 12.8621C18.2925 12.9872 18.2863 13.1141 18.2863 13.2387C18.2863 13.422 18.3001 13.6083 18.3271 13.7918L18.333 13.8297H18.3713H23.4829L23.4426 13.7664L22.7491 15.2484L22.7892 15.2228H18.938H18.8551L18.9006 15.2913C19.5946 16.3461 20.7607 16.975 22.0193 16.975C23.0893 16.975 24.1101 16.5139 24.8196 15.7091L24.7413 15.6798V17.4963L24.761 17.4596C23.898 18.0324 22.8883 18.3351 21.8406 18.3351C19.7503 18.3351 17.8734 17.1238 17.0586 15.2494L17.0467 15.2228H17.0175H15.1782L15.219 15.2864L15.9122 13.8039L15.8717 13.8297H16.6311H16.6803L16.6756 13.7807C16.6588 13.6132 16.6499 13.4449 16.6499 13.2816C16.6499 13.156 16.6561 13.0212 16.6687 12.87L16.6727 12.8219H16.6242H15.1129L15.1532 12.8852L15.8469 11.4032L15.8066 11.4288H16.9814H17.0114L17.0225 11.4013C17.4044 10.4752 18.0536 9.68547 18.9001 9.11715C19.7669 8.53553 20.784 8.22785 21.8406 8.22785C23.1939 8.22785 24.475 8.73261 25.4488 9.64975L25.4389 9.59851L24.8369 10.8859L24.9118 10.8765C24.1986 10.0033 23.1447 9.50219 22.0193 9.50219C20.6955 9.50219 19.4591 10.2149 18.7916 11.3621L18.7528 11.4288H18.8304Z" fill="#FFBE00"/>
</g>
</g>
</g>
</g>
</svg>
