<svg width="88" height="16" viewBox="0 0 88 16" fill="none" xmlns="http://www.w3.org/2000/svg">
<path d="M3.84829 14.076C4.08229 14.2467 4.35562 14.3333 4.63095 14.3333C4.84029 14.3333 5.05029 14.2833 5.24495 14.182L7.68028 12.9193C7.77562 12.87 7.88962 12.87 7.98495 12.9193L10.4203 14.1813C10.873 14.4173 11.407 14.3767 11.817 14.076C12.2216 13.7807 12.4196 13.292 12.3343 12.7993L11.8696 10.1253C11.8523 10.0267 11.8856 9.926 11.959 9.85533L13.9296 7.962C14.2923 7.61467 14.423 7.10133 14.2696 6.62467C14.115 6.14267 13.7056 5.798 13.201 5.726L10.4756 5.33333C10.371 5.31867 10.281 5.254 10.235 5.16133L9.01628 2.72733C8.79162 2.27867 8.33828 2 7.83295 2C7.32762 2 6.87429 2.27867 6.64962 2.72733L5.43162 5.162C5.38628 5.254 5.29562 5.31867 5.19028 5.33333L2.46495 5.726C1.96029 5.798 1.55095 6.14267 1.39629 6.62467C1.24295 7.10133 1.37295 7.61467 1.73562 7.962L3.70628 9.85533C3.77962 9.926 3.81362 10.0267 3.79629 10.126L3.33229 12.7993C3.24629 13.2913 3.44429 13.78 3.84829 14.076Z" fill="#FCC02A"/>
<path d="M21.8483 14.076C22.0823 14.2467 22.3556 14.3333 22.631 14.3333C22.8403 14.3333 23.0503 14.2833 23.245 14.182L25.6803 12.9193C25.7756 12.87 25.8896 12.87 25.985 12.9193L28.4203 14.1813C28.873 14.4173 29.407 14.3767 29.817 14.076C30.2216 13.7807 30.4196 13.292 30.3343 12.7993L29.8696 10.1253C29.8523 10.0267 29.8856 9.926 29.959 9.85533L31.9296 7.962C32.2923 7.61467 32.423 7.10133 32.2696 6.62467C32.115 6.14267 31.7056 5.798 31.201 5.726L28.4756 5.33333C28.371 5.31867 28.281 5.254 28.235 5.16133L27.0163 2.72733C26.7916 2.27867 26.3383 2 25.833 2C25.3276 2 24.8743 2.27867 24.6496 2.72733L23.4316 5.162C23.3863 5.254 23.2956 5.31867 23.1903 5.33333L20.465 5.726C19.9603 5.798 19.551 6.14267 19.3963 6.62467C19.243 7.10133 19.373 7.61467 19.7356 7.962L21.7063 9.85533C21.7796 9.926 21.8136 10.0267 21.7963 10.126L21.3323 12.7993C21.2463 13.2913 21.4443 13.78 21.8483 14.076Z" fill="#FCC02A"/>
<path d="M39.8483 14.076C40.0823 14.2467 40.3556 14.3333 40.631 14.3333C40.8403 14.3333 41.0503 14.2833 41.245 14.182L43.6803 12.9193C43.7756 12.87 43.8896 12.87 43.985 12.9193L46.4203 14.1813C46.873 14.4173 47.407 14.3767 47.817 14.076C48.2216 13.7807 48.4196 13.292 48.3343 12.7993L47.8696 10.1253C47.8523 10.0267 47.8856 9.926 47.959 9.85533L49.9296 7.962C50.2923 7.61467 50.423 7.10133 50.2696 6.62467C50.115 6.14267 49.7056 5.798 49.201 5.726L46.4756 5.33333C46.371 5.31867 46.281 5.254 46.235 5.16133L45.0163 2.72733C44.7916 2.27867 44.3383 2 43.833 2C43.3276 2 42.8743 2.27867 42.6496 2.72733L41.4316 5.162C41.3863 5.254 41.2956 5.31867 41.1903 5.33333L38.465 5.726C37.9603 5.798 37.551 6.14267 37.3963 6.62467C37.243 7.10133 37.373 7.61467 37.7356 7.962L39.7063 9.85533C39.7796 9.926 39.8136 10.0267 39.7963 10.126L39.3323 12.7993C39.2463 13.2913 39.4443 13.78 39.8483 14.076Z" fill="#FCC02A"/>
<path d="M75.8483 14.076C76.0823 14.2467 76.3556 14.3333 76.631 14.3333C76.8403 14.3333 77.0503 14.2833 77.245 14.182L79.6803 12.9193C79.7756 12.87 79.8896 12.87 79.985 12.9193L82.4203 14.1813C82.873 14.4173 83.407 14.3767 83.817 14.076C84.2216 13.7807 84.4196 13.292 84.3343 12.7993L83.8696 10.1253C83.8523 10.0267 83.8856 9.926 83.959 9.85533L85.9296 7.962C86.2923 7.61467 86.423 7.10133 86.2696 6.62467C86.115 6.14267 85.7056 5.798 85.201 5.726L82.4756 5.33333C82.371 5.31867 82.281 5.254 82.235 5.16133L81.0163 2.72733C80.7916 2.27867 80.3383 2 79.833 2C79.3276 2 78.8743 2.27867 78.6496 2.72733L77.4316 5.162C77.3863 5.254 77.2956 5.31867 77.1903 5.33333L74.465 5.726C73.9603 5.798 73.551 6.14267 73.3963 6.62467C73.243 7.10133 73.373 7.61467 73.7356 7.962L75.7063 9.85533C75.7796 9.926 75.8136 10.0267 75.7963 10.126L75.3323 12.7993C75.2463 13.2913 75.4443 13.78 75.8483 14.076Z" fill="#FCC02A"/>
<path d="M57.8483 14.076C58.0823 14.2467 58.3556 14.3333 58.631 14.3333C58.8403 14.3333 59.0503 14.2833 59.245 14.182L61.6803 12.9193C61.7756 12.87 61.8896 12.87 61.985 12.9193L64.4203 14.1813C64.873 14.4173 65.407 14.3767 65.817 14.076C66.2216 13.7807 66.4196 13.292 66.3343 12.7993L65.8696 10.1253C65.8523 10.0267 65.8856 9.926 65.959 9.85533L67.9296 7.962C68.2923 7.61467 68.423 7.10133 68.2696 6.62467C68.115 6.14267 67.7056 5.798 67.201 5.726L64.4756 5.33333C64.371 5.31867 64.281 5.254 64.235 5.16133L63.0163 2.72733C62.7916 2.27867 62.3383 2 61.833 2C61.3276 2 60.8743 2.27867 60.6496 2.72733L59.4316 5.162C59.3863 5.254 59.2956 5.31867 59.1903 5.33333L56.465 5.726C55.9603 5.798 55.551 6.14267 55.3963 6.62467C55.243 7.10133 55.373 7.61467 55.7356 7.962L57.7063 9.85533C57.7796 9.926 57.8136 10.0267 57.7963 10.126L57.3323 12.7993C57.2463 13.2913 57.4443 13.78 57.8483 14.076Z" fill="#FCC02A"/>
</svg>
