<svg width="50" height="32" viewBox="0 0 50 32" fill="none" xmlns="http://www.w3.org/2000/svg">
<rect width="50" height="32" rx="2.35717" fill="#53AE94"/>
<path fill-rule="evenodd" clip-rule="evenodd" d="M27.3906 16.7208V16.7208C27.2769 16.7297 26.6898 16.7662 25.38 16.7662C24.3383 16.7662 23.5987 16.7336 23.3392 16.7208V16.7208C19.3135 16.5362 16.3086 15.8059 16.3086 14.9314C16.3086 14.0569 19.3135 13.3275 23.3392 13.14V15.9934C23.6025 16.0131 24.3563 16.0595 25.398 16.0595C26.6481 16.0595 27.2741 16.0052 27.3868 15.9944V13.142C31.404 13.3285 34.4023 14.0589 34.4023 14.9314C34.4023 15.8039 31.405 16.5343 27.3868 16.7198V16.7198L27.3906 16.7208ZM27.3911 12.847V10.2937H32.9974V6.39999H17.7335V10.2937H23.3388V12.8461C18.7827 13.0642 15.3564 14.0048 15.3564 15.1319C15.3564 16.2591 18.7827 17.1987 23.3388 17.4178V25.6H27.3902V17.4149C31.9358 17.1967 35.3564 16.2571 35.3564 15.1309C35.3564 14.0048 31.9387 13.0652 27.3902 12.8461V12.8461L27.3911 12.847Z" fill="white"/>
</svg>
