<svg width="386" height="170" viewBox="0 0 386 170" fill="none" xmlns="http://www.w3.org/2000/svg">
<path d="M316.195 131.044C311.501 130.803 306.447 135.861 299.105 131.405C301.321 134.112 304.401 134.654 306.687 134.654C309.335 134.654 312.705 131.889 316.195 131.044Z" fill="#FF6158"/>
<path d="M338.942 145.729C337.868 145.555 337.249 145.244 336.535 144.405C336.811 145.47 337.216 145.887 338.581 146.21C339.67 146.455 340.136 146.791 340.747 147.655C340.352 146.442 339.916 146.082 338.942 145.729Z" fill="#FF4E33"/>
<path d="M311.382 47.4048C303.72 51.3321 298.667 52.2732 288.516 52.0984C290.543 54.8124 295.307 55.3059 299.588 54.2646C304.041 53.1815 306.981 51.3565 311.382 47.4048Z" fill="url(#paint0_linear_1012_25714)"/>
<path d="M367.465 79.5384C362.861 78.0206 360.835 76.6236 357.355 74.0024C365.679 77.559 370.556 79.131 379.62 80.9826C374.749 80.9919 372.02 80.9778 367.465 79.5384Z" fill="#FF8A59"/>
<path d="M337.017 93.2578C333.527 93.2578 331.489 94.618 330.277 97.1089C332.435 95.1491 333.927 94.5692 337.017 94.5816C338.822 94.5889 342.553 96.9886 345.562 94.2206C342.192 95.5497 339.785 93.2578 337.017 93.2578Z" fill="#FF8859"/>
<path d="M46.2109 41.3877H130.214V164.388C130.214 167.149 127.975 169.388 125.214 169.388H96.2109C68.5967 169.388 46.2109 147.002 46.2109 119.388V41.3877Z" fill="url(#paint1_linear_1012_25714)"/>
<g filter="url(#filter0_f_1012_25714)">
<path fill-rule="evenodd" clip-rule="evenodd" d="M130.214 150.491V44.8779H68.4756H66.4297V100.599C69.3397 138.806 83.7827 149.623 130.214 150.491Z" fill="#CD2F26"/>
</g>
<path d="M257.227 41.5079H65.5889H63.543V97.229C66.544 136.631 81.8112 146.903 131.78 147.173H259.875C270.917 146.957 275.279 147.345 288.157 145.85C317.106 142.488 337.981 138.508 343.878 147.173C339.906 139.471 334.13 138.388 325.705 138.388C316.198 139.351 317.522 134.584 327.149 133.093C322.456 131.889 317.522 135.938 312.828 136.583C305.018 137.655 298.627 135.981 296.701 134.296C292.61 129.843 296.34 123.224 310.06 125.39C319.447 126.873 323.178 129.482 333.046 128.158C342.193 126.931 355.431 116.725 361.81 104.931C343.517 112.272 334.491 116.846 325.344 107.338C321.252 99.636 331.963 87.5106 346.886 90.2488C361.208 92.8766 374.326 92.8965 386 84.2314C373.965 85.1942 364.698 81.2191 347.849 74.3629C331.381 67.6614 316.92 83.389 302.117 81.3431C289.962 79.6631 286.472 74.6036 301.395 71.8356C316.438 67.9845 328.258 59.5513 345.202 43.7945C329.861 51.9985 314.272 54.9869 285.99 57.7549C271.308 58.3566 268.179 48.6844 279.01 49.5712C288.3 50.3319 293.239 46.5147 301.876 37.0551C286.833 48.8674 271.549 40.9062 257.227 41.5079Z" fill="url(#paint2_linear_1012_25714)"/>
<path fill-rule="evenodd" clip-rule="evenodd" d="M67.5838 93.1713C87.7896 93.1713 104.17 76.7913 104.17 56.5855C104.17 51.2098 103.01 46.1048 100.928 41.5071H65.5889H63.543V92.9507C64.8699 93.0964 66.2181 93.1713 67.5838 93.1713Z" fill="#E1433A"/>
<rect x="42.5781" y="20.871" width="10.5669" height="5.20318" transform="rotate(-21.363 42.5781 20.871)" fill="#FF6158"/>
<rect x="43.5781" y="23.4275" width="10.5669" height="2.45763" transform="rotate(-21.363 43.5781 23.4275)" fill="#E1433A"/>
<rect x="36.2891" y="18.6583" width="20.1976" height="5.9812" rx="1.92557" transform="rotate(-22.4098 36.2891 18.6583)" fill="#FF6158"/>
<rect x="71.4453" y="17.6565" width="6.24218" height="4.13585" transform="rotate(17.6965 71.4453 17.6565)" fill="#FF6158"/>
<rect x="70.8477" y="19.5166" width="6.24218" height="2.18318" transform="rotate(17.6965 70.8477 19.5166)" fill="#E1433A"/>
<rect x="69.4219" y="13.9816" width="11.8669" height="3.37546" rx="1.20348" transform="rotate(16.6497 69.4219 13.9816)" fill="#FF6158"/>
<rect x="26.6719" y="40.4655" width="6.24218" height="4.13585" transform="rotate(-61.1437 26.6719 40.4655)" fill="#FF6158"/>
<rect x="28.2656" y="41.3439" width="6.24218" height="2.31557" transform="rotate(-61.1437 28.2656 41.3439)" fill="#E1433A"/>
<rect x="22.6758" y="41.7368" width="11.8669" height="3.37546" rx="1.20348" transform="rotate(-62.1905 22.6758 41.7368)" fill="#FF6158"/>
<circle cx="62.8201" cy="56.551" r="36.5858" fill="#FF6158"/>
<circle cx="62.8223" cy="56.5514" r="30.5684" fill="#E1433A"/>
<circle cx="62.7031" cy="56.6718" r="29.0038" fill="white"/>
<circle cx="52.952" cy="32.4819" r="1.44417" fill="#FF6158"/>
<circle cx="86.6473" cy="46.9238" r="1.44417" fill="#FF6158"/>
<circle cx="72.9286" cy="80.8618" r="1.44417" fill="#FF6158"/>
<circle cx="39.2332" cy="66.4194" r="1.44417" fill="#FF6158"/>
<circle cx="37.0643" cy="53.1815" r="0.962783" fill="#FF6158"/>
<circle cx="42.3612" cy="40.6654" r="0.962783" fill="#FF6158"/>
<circle cx="66.4315" cy="30.7969" r="0.962783" fill="#FF6158"/>
<circle cx="78.9472" cy="35.8517" r="0.962783" fill="#FF6158"/>
<circle cx="88.8183" cy="60.1615" r="0.962783" fill="#FF6158"/>
<circle cx="83.5214" cy="72.4376" r="0.962783" fill="#FF6158"/>
<circle cx="59.4511" cy="82.3062" r="0.962783" fill="#FF6158"/>
<circle cx="46.9354" cy="77.2505" r="0.962783" fill="#FF6158"/>
<path d="M71.0025 63.2908L41.1562 46.2014L73.1688 59.199C74.3723 60.1618 73.1688 63.6519 71.0025 63.2908Z" fill="#FF6158"/>
<circle cx="62.9408" cy="56.6716" r="3.24939" fill="#E1433A"/>
<circle cx="62.9404" cy="56.6718" r="2.04591" fill="#B8022A"/>
<path d="M79.5508 10.4578C83.4019 10.9392 86.7717 13.4665 87.1327 18.8821" stroke="#FF6158" stroke-width="2" stroke-linecap="round"/>
<path d="M80.9961 5.8844C85.6897 5.8844 91.2257 10.2169 91.7071 17.5581" stroke="#FF6158" stroke-width="2" stroke-linecap="round"/>
<path d="M81.957 1.19128C88.5762 1.79302 96.2784 6.72729 96.2784 16.5958" stroke="#FF6158" stroke-width="2" stroke-linecap="round"/>
<path d="M18.3789 35.9064C15.9961 38.9699 15.4004 43.1398 18.9746 47.2245" stroke="#FF6158" stroke-width="2" stroke-linecap="round"/>
<path d="M14.125 33.6937C10.8061 37.0126 9.95516 43.9907 14.8058 49.5221" stroke="#FF6158" stroke-width="2" stroke-linecap="round"/>
<path d="M10.125 31.0557C5.87006 36.1616 3.91279 45.097 10.8909 52.0751" stroke="#FF6158" stroke-width="2" stroke-linecap="round"/>
<defs>
<filter id="filter0_f_1012_25714" x="61.6158" y="40.064" width="73.413" height="115.241" filterUnits="userSpaceOnUse" color-interpolation-filters="sRGB">
<feFlood flood-opacity="0" result="BackgroundImageFix"/>
<feBlend mode="normal" in="SourceGraphic" in2="BackgroundImageFix" result="shape"/>
<feGaussianBlur stdDeviation="2.40696" result="effect1_foregroundBlur_1012_25714"/>
</filter>
<linearGradient id="paint0_linear_1012_25714" x1="289.665" y1="51.5102" x2="307.943" y2="51.5102" gradientUnits="userSpaceOnUse">
<stop stop-color="#FF6158"/>
<stop offset="1" stop-color="#FF8A58"/>
</linearGradient>
<linearGradient id="paint1_linear_1012_25714" x1="88.2124" y1="41.3877" x2="88.2124" y2="169.388" gradientUnits="userSpaceOnUse">
<stop stop-color="#E1433A"/>
<stop offset="1" stop-color="#FF6158"/>
</linearGradient>
<linearGradient id="paint2_linear_1012_25714" x1="77.744" y1="98.4325" x2="303.517" y2="98.4325" gradientUnits="userSpaceOnUse">
<stop stop-color="#FF6158"/>
<stop offset="1" stop-color="#FF8A58"/>
</linearGradient>
</defs>
</svg>
