<svg width="21" height="16" viewBox="0 0 21 16" fill="none" xmlns="http://www.w3.org/2000/svg">
<path d="M16.7891 0.0546875C18.3828 1.10156 19.4453 1.99219 19.9766 2.72656C20.5078 3.44531 20.7734 4.28125 20.7734 5.23438C20.7734 6.65625 20.1094 8.23438 18.7812 9.96875C17.4688 11.7031 15.6328 13.3906 13.2734 15.0312L11.5859 13.25C12.8203 12.3281 13.7812 11.3828 14.4688 10.4141C15.1719 9.44531 15.6406 8.40625 15.875 7.29688C14.6562 6.67188 13.8438 6.14062 13.4375 5.70312C13.0469 5.26562 12.8516 4.75781 12.8516 4.17969C12.8516 3.72656 12.9922 3.28906 13.2734 2.86719C13.5703 2.44531 14.0859 1.96875 14.8203 1.4375L16.7891 0.0546875ZM5.44531 0.0546875C7.03906 1.10156 8.10938 1.99219 8.65625 2.72656C9.20312 3.46094 9.47656 4.29688 9.47656 5.23438C9.47656 6.625 8.8125 8.1875 7.48438 9.92188C6.15625 11.6562 4.3125 13.3594 1.95312 15.0312L0.265625 13.25C1.5 12.3281 2.46094 11.3828 3.14844 10.4141C3.83594 9.44531 4.29688 8.40625 4.53125 7.29688C3.32812 6.67188 2.52344 6.14062 2.11719 5.70312C1.71094 5.26562 1.50781 4.75781 1.50781 4.17969C1.50781 3.69531 1.65625 3.25 1.95312 2.84375C2.25 2.42188 2.75781 1.95312 3.47656 1.4375L5.44531 0.0546875Z" fill="white"/>
</svg>
