<svg width="24" height="24" viewBox="0 0 24 24" fill="none" xmlns="http://www.w3.org/2000/svg">
<path d="M17.8807 19.2971C16.1219 20.4126 14.0814 21.0034 11.9987 21.0001C6.60669 21.0001 2.12069 17.1201 1.17969 12.0001C1.60972 9.67078 2.78132 7.54296 4.51969 5.93407L1.39069 2.80807L2.80569 1.39307L22.6047 21.1931L21.1897 22.6071L17.8797 19.2971H17.8807ZM5.93369 7.35007C4.57469 8.58566 3.628 10.2088 3.22169 12.0001C3.53398 13.3665 4.16095 14.6412 5.05269 15.7227C5.94443 16.8041 7.07631 17.6625 8.35824 18.2294C9.64017 18.7963 11.0367 19.0561 12.4368 18.9882C13.8368 18.9203 15.2017 18.5264 16.4227 17.8381L14.3947 15.8101C13.5314 16.3539 12.5089 16.5882 11.4949 16.4745C10.481 16.3608 9.53573 15.906 8.81426 15.1845C8.09279 14.463 7.63791 13.5178 7.52425 12.5038C7.41058 11.4899 7.64487 10.4674 8.18869 9.60407L5.93369 7.35007ZM12.9127 14.3281L9.67069 11.0861C9.49275 11.539 9.45088 12.034 9.55019 12.5104C9.64951 12.9868 9.8857 13.4238 10.2298 13.7679C10.5739 14.1121 11.011 14.3482 11.4873 14.4476C11.9637 14.5469 12.4588 14.505 12.9117 14.3271L12.9127 14.3281ZM20.8057 16.5921L19.3747 15.1621C20.0432 14.2094 20.5191 13.1353 20.7757 12.0001C20.5039 10.8098 19.993 9.68721 19.2738 8.70056C18.5547 7.71391 17.6425 6.88379 16.5926 6.26067C15.5426 5.63755 14.377 5.23443 13.1664 5.07583C11.9559 4.91723 10.7257 5.00645 9.55069 5.33807L7.97269 3.76007C9.21969 3.27007 10.5787 3.00007 11.9987 3.00007C17.3907 3.00007 21.8767 6.88007 22.8177 12.0001C22.5113 13.6658 21.8225 15.2376 20.8057 16.5921ZM11.7217 7.50807C12.3582 7.46873 12.9958 7.56513 13.5922 7.79088C14.1887 8.01663 14.7303 8.36658 15.1812 8.81752C15.6322 9.26846 15.9821 9.81009 16.2079 10.4065C16.4336 11.003 16.53 11.6406 16.4907 12.2771L11.7207 7.50807H11.7217Z" fill="#8D899E"/>
</svg>
