<svg width="25" height="24" viewBox="0 0 25 24" fill="none" xmlns="http://www.w3.org/2000/svg">
<path d="M20.5977 22H18.5977V20C18.5977 19.2044 18.2816 18.4413 17.719 17.8787C17.1564 17.3161 16.3933 17 15.5977 17H9.59766C8.80201 17 8.03895 17.3161 7.47634 17.8787C6.91373 18.4413 6.59766 19.2044 6.59766 20V22H4.59766V20C4.59766 18.6739 5.12444 17.4021 6.06212 16.4645C6.9998 15.5268 8.27157 15 9.59766 15H15.5977C16.9237 15 18.1955 15.5268 19.1332 16.4645C20.0709 17.4021 20.5977 18.6739 20.5977 20V22ZM12.5977 13C11.8097 13 11.0295 12.8448 10.3016 12.5433C9.5736 12.2417 8.91217 11.7998 8.35502 11.2426C7.79786 10.6855 7.35591 10.0241 7.05438 9.2961C6.75285 8.56815 6.59766 7.78793 6.59766 7C6.59766 6.21207 6.75285 5.43185 7.05438 4.7039C7.35591 3.97595 7.79786 3.31451 8.35502 2.75736C8.91217 2.20021 9.5736 1.75825 10.3016 1.45672C11.0295 1.15519 11.8097 1 12.5977 1C14.189 1 15.7151 1.63214 16.8403 2.75736C17.9655 3.88258 18.5977 5.4087 18.5977 7C18.5977 8.5913 17.9655 10.1174 16.8403 11.2426C15.7151 12.3679 14.189 13 12.5977 13ZM12.5977 11C13.6585 11 14.6759 10.5786 15.4261 9.82843C16.1762 9.07828 16.5977 8.06087 16.5977 7C16.5977 5.93913 16.1762 4.92172 15.4261 4.17157C14.6759 3.42143 13.6585 3 12.5977 3C11.5368 3 10.5194 3.42143 9.76923 4.17157C9.01908 4.92172 8.59766 5.93913 8.59766 7C8.59766 8.06087 9.01908 9.07828 9.76923 9.82843C10.5194 10.5786 11.5368 11 12.5977 11Z" fill="#8D899E"/>
</svg>
