<svg width="25" height="24" viewBox="0 0 25 24" fill="none" xmlns="http://www.w3.org/2000/svg">
<path d="M4.79769 6.41408L1.55469 3.17208L2.96969 1.75708L6.21169 5.00008H21.4537C21.6096 5.00007 21.7633 5.03649 21.9026 5.10645C22.0418 5.1764 22.1629 5.27794 22.2559 5.40298C22.349 5.52801 22.4115 5.67306 22.4386 5.82657C22.4656 5.98007 22.4564 6.13777 22.4117 6.28708L20.0117 14.2871C19.9499 14.4932 19.8234 14.6738 19.6508 14.8023C19.4782 14.9307 19.2688 15.0001 19.0537 15.0001H6.79769V17.0001H17.7977V19.0001H5.79769C5.53247 19.0001 5.27812 18.8947 5.09058 18.7072C4.90304 18.5197 4.79769 18.2653 4.79769 18.0001V6.41408ZM6.79769 7.00008V13.0001H18.3097L20.1097 7.00008H6.79769ZM6.29769 23.0001C5.89986 23.0001 5.51833 22.842 5.23703 22.5607C4.95572 22.2794 4.79769 21.8979 4.79769 21.5001C4.79769 21.1023 4.95572 20.7207 5.23703 20.4394C5.51833 20.1581 5.89986 20.0001 6.29769 20.0001C6.69551 20.0001 7.07704 20.1581 7.35835 20.4394C7.63965 20.7207 7.79769 21.1023 7.79769 21.5001C7.79769 21.8979 7.63965 22.2794 7.35835 22.5607C7.07704 22.842 6.69551 23.0001 6.29769 23.0001ZM18.2977 23.0001C17.8999 23.0001 17.5183 22.842 17.237 22.5607C16.9557 22.2794 16.7977 21.8979 16.7977 21.5001C16.7977 21.1023 16.9557 20.7207 17.237 20.4394C17.5183 20.1581 17.8999 20.0001 18.2977 20.0001C18.6955 20.0001 19.077 20.1581 19.3583 20.4394C19.6397 20.7207 19.7977 21.1023 19.7977 21.5001C19.7977 21.8979 19.6397 22.2794 19.3583 22.5607C19.077 22.842 18.6955 23.0001 18.2977 23.0001Z" fill="#8D899E"/>
</svg>
